<?xml version="1.0" encoding="utf-8"?>
<!-- Generator: Adobe Illustrator 19.0.0, SVG Export Plug-In . SVG Version: 6.00 Build 0)  -->
<svg version="1.1" id="Layer_1" xmlns="http://www.w3.org/2000/svg" xmlns:xlink="http://www.w3.org/1999/xlink" x="0px" y="0px"
	 viewBox="244.5 -31.6 406 864" style="enable-background:new 244.5 -31.6 406 864;" xml:space="preserve">
<style type="text/css">
	.st0{fill:#FFFFFF;}
	.st1{fill:#CECECE;}
	.st2{fill:none;}
	.st3{fill:#F8F8F8;}
</style>
<g>
	<g>
		<g transform="matrix(1, 0, 0, 1, 0, 0)">
			<g>
				<g transform="translate(161 114)">
					<path class="st0" d="M442,718.4H131c-6.4,0-12.6-1.3-18.5-3.7c-5.7-2.4-10.7-5.8-15.1-10.2c-4.4-4.4-7.8-9.4-10.2-15.1
						c-2.5-5.9-3.7-12.1-3.7-18.5v-769c0-6.4,1.3-12.6,3.7-18.5c2.4-5.7,5.8-10.7,10.2-15.1s9.4-7.8,15.1-10.2
						c5.9-2.5,12.1-3.7,18.5-3.7h311c6.4,0,12.6,1.3,18.5,3.7c5.7,2.4,10.7,5.8,15.1,10.2s7.8,9.4,10.2,15.1
						c2.5,5.9,3.7,12.1,3.7,18.5v769c0,6.4-1.3,12.6-3.7,18.5c-2.4,5.7-5.8,10.7-10.2,15.1c-4.4,4.4-9.4,7.8-15.1,10.2
						C454.6,717.1,448.4,718.4,442,718.4z"/>
				</g>
			</g>
		</g>
		<g transform="translate(332 158)">
			<path class="st1" d="M87-146.1h56c2.2,0,4,1.8,4,4l0,0c0,2.2-1.8,4-4,4H87c-2.2,0-4-1.8-4-4l0,0C83-144.3,84.8-146.1,87-146.1z"
				/>
			<path class="st2" d="M87-145.6h56c1.9,0,3.5,1.6,3.5,3.5l0,0c0,1.9-1.6,3.5-3.5,3.5H87c-1.9,0-3.5-1.6-3.5-3.5l0,0
				C83.5-144,85.1-145.6,87-145.6z"/>
		</g>
		<g transform="translate(336 899)">
			<path class="st3" d="M111-146.1L111-146.1c15.5,0,28,12.5,28,28l0,0c0,15.5-12.5,28-28,28l0,0c-15.5,0-28-12.5-28-28l0,0
				C83-133.6,95.5-146.1,111-146.1z"/>
			<path class="st2" d="M111-145.6L111-145.6c15.2,0,27.5,12.3,27.5,27.5l0,0c0,15.2-12.3,27.5-27.5,27.5l0,0
				c-15.2,0-27.5-12.3-27.5-27.5l0,0C83.5-133.3,95.8-145.6,111-145.6z"/>
		</g>
	</g>
</g>
</svg>
