<?xml version="1.0" encoding="utf-8"?>
<!-- Generator: Adobe Illustrator 19.0.0, SVG Export Plug-In . SVG Version: 6.00 Build 0)  -->
<svg version="1.1" id="Layer_1" xmlns="http://www.w3.org/2000/svg" xmlns:xlink="http://www.w3.org/1999/xlink" x="0px" y="0px"
	 viewBox="208 144.1 1011 554" style="enable-background:new 208 144.1 1011 554;" xml:space="preserve">
<style type="text/css">
	.st0{clip-path:url(#SVGID_2_);}
	.st1{fill:none;}
	.st2{display:none;clip-path:url(#SVGID_4_);fill:none;}
	.st3{clip-path:url(#SVGID_4_);fill:#FFFFFF;}
	.st4{opacity:0.6;}
	.st5{fill:#2AB5CA;}
</style>
<g>
	<defs>
		<rect id="SVGID_1_" x="208" y="144.1" width="1011" height="554"/>
	</defs>
	<clipPath id="SVGID_2_">
		<use xlink:href="#SVGID_1_"  style="overflow:visible;"/>
	</clipPath>
	<g class="st0">
		<g>
			<path class="st1" d="M605.6,628.7c0,0,204.5,77.2,310.4,14.8s142.5-113,141.8-278.6c-0.6-165.6-129.7-202.7-222.9-189.1
				c-93.2,13.6-163.7,34.6-280.1,19.2S271.1,138.6,221,284.4s53.1,205.4,172.5,258.2C408.6,552,605.6,628.7,605.6,628.7z"/>
			<g transform="translate(68)">
				<defs>
					<path id="SVGID_3_" d="M605.6,628.7c0,0,204.5,77.2,310.4,14.8s142.5-113,141.8-278.6c-0.6-165.6-129.7-202.7-222.9-189.1
						c-93.2,13.6-163.7,34.6-280.1,19.2S271.1,138.6,221,284.4s53.1,205.4,172.5,258.2C408.6,552,605.6,628.7,605.6,628.7z"/>
				</defs>
				<clipPath id="SVGID_4_">
					<use xlink:href="#SVGID_3_"  style="display:none;overflow:visible;"/>
				</clipPath>
				<path class="st2" d="M140,144.1v554h1011v-554H140z M916,643.5c-106,62.5-310.4-14.8-310.4-14.8s-197-76.8-212.1-86.2
					C274.1,489.8,170.8,430.1,221,284.4c50.2-145.7,217.5-104.8,333.9-89.4c116.4,15.4,186.9-5.6,280.1-19.2s222.3,23.6,222.9,189.1
					C1058.5,530.5,1022,581,916,643.5z"/>
				<path class="st3" d="M140,144.1v554h1011v-554H140z M916,643.5c-106,62.5-310.4-14.8-310.4-14.8s-197-76.8-212.1-86.2
					C274.1,489.8,170.8,430.1,221,284.4c50.2-145.7,217.5-104.8,333.9-89.4c116.4,15.4,186.9-5.6,280.1-19.2s222.3,23.6,222.9,189.1
					C1058.5,530.5,1022,581,916,643.5z"/>
			</g>
			<g transform="translate(0 42)" class="st4">
				<path class="st5" d="M1074.8,326.2c51.1,0,76.2,13.6,76.2-37.5c0-51.1-41.4-92.5-92.5-92.5c-51.1,0-92.5,41.4-92.5,92.5
					C966,339.8,1023.7,326.2,1074.8,326.2z"/>
				<circle class="st5" cx="224.5" cy="378.7" r="61.5"/>
				<circle class="st5" cx="175" cy="262.2" r="35"/>
				<circle class="st5" cx="179" cy="186.2" r="13"/>
			</g>
		</g>
	</g>
</g>
</svg>
