<?xml version="1.0" encoding="utf-8"?>
<!-- Generator: Adobe Illustrator 19.0.0, SVG Export Plug-In . SVG Version: 6.00 Build 0)  -->
<svg version="1.1" xmlns="http://www.w3.org/2000/svg" xmlns:xlink="http://www.w3.org/1999/xlink" x="0px" y="0px"
	 viewBox="0 0 1000 1000" style="enable-background:new 0 0 1000 1000;" xml:space="preserve">
<style type="text/css">
	.st0{opacity:0.4;}
	.st1{opacity:0;}
	.st2{opacity:1.639344e-002;}
	.st3{opacity:3.278688e-002;}
	.st4{opacity:4.918033e-002;}
	.st5{opacity:6.557377e-002;}
	.st6{opacity:8.196721e-002;}
	.st7{opacity:9.836066e-002;}
	.st8{opacity:0.1148;}
	.st9{opacity:0.1311;}
	.st10{opacity:0.1475;}
	.st11{opacity:0.1639;}
	.st12{opacity:0.1803;}
	.st13{opacity:0.1967;}
	.st14{opacity:0.2131;}
	.st15{opacity:0.2295;}
	.st16{opacity:0.2459;}
	.st17{opacity:0.2623;}
	.st18{opacity:0.2787;}
	.st19{opacity:0.2951;}
	.st20{opacity:0.3115;}
	.st21{opacity:0.3279;}
	.st22{opacity:0.3443;}
	.st23{opacity:0.3607;}
	.st24{opacity:0.377;}
	.st25{opacity:0.3934;}
	.st26{opacity:0.4098;}
	.st27{opacity:0.4262;}
	.st28{opacity:0.4426;}
	.st29{opacity:0.459;}
	.st30{opacity:0.4754;}
	.st31{opacity:0.4918;}
	.st32{opacity:0.5082;}
	.st33{opacity:0.5246;}
	.st34{opacity:0.541;}
	.st35{opacity:0.5574;}
	.st36{opacity:0.5738;}
	.st37{opacity:0.5902;}
	.st38{opacity:0.6066;}
	.st39{opacity:0.623;}
	.st40{opacity:0.6393;}
	.st41{opacity:0.6557;}
	.st42{opacity:0.6721;}
	.st43{opacity:0.6885;}
	.st44{opacity:0.7049;}
	.st45{opacity:0.7213;}
	.st46{opacity:0.7377;}
	.st47{opacity:0.7541;}
	.st48{opacity:0.7705;}
	.st49{opacity:0.7869;}
	.st50{opacity:0.8033;}
	.st51{opacity:0.8197;}
	.st52{opacity:0.8361;}
	.st53{opacity:0.8525;}
	.st54{opacity:0.8689;}
	.st55{opacity:0.8852;}
	.st56{opacity:0.9016;}
	.st57{opacity:0.918;}
	.st58{opacity:0.9344;}
	.st59{opacity:0.9508;}
	.st60{opacity:0.9672;}
	.st61{opacity:0.9836;}
	.st62{fill:#FFFFFF;}
	.st63{fill:url(#SVGID_1_);}
	.st64{fill:#DFDFDF;}
	.st65{fill:url(#SVGID_2_);}
	.st66{fill:url(#SVGID_3_);}
	.st67{fill:url(#SVGID_4_);}
	.st68{fill:url(#SVGID_5_);}
	.st69{display:none;fill:url(#SVGID_6_);}
	.st70{display:none;fill:url(#SVGID_7_);}
	.st71{fill:url(#SVGID_8_);}
	.st72{fill:url(#SVGID_9_);}
	.st73{fill:url(#SVGID_10_);}
	.st74{fill:#B6B6B6;}
</style>
<g id="background">
</g>
<g id="shadow">
	<g class="st0">
		<path class="st1" d="M879.3,259.3c0.4,0.2,0.8,0.4,1.2,0.6C880.1,259.7,879.7,259.5,879.3,259.3z M122.2,259.3
			c-0.4,0.2-0.8,0.4-1.2,0.6C121.4,259.7,121.8,259.5,122.2,259.3z M899.2,749V290c0-18.8-15.3-34.1-34.1-34.1H136.4
			c-18.8,0-34.1,15.3-34.1,34.1V749c0,18.8,15.3,34.1,34.1,34.1h728.8C884,783.1,899.2,767.8,899.2,749z"/>
		<path class="st2" d="M879.6,259c0.4,0.2,0.8,0.4,1.2,0.6C880.5,259.4,880,259.2,879.6,259z M122.6,259c-0.4,0.2-0.8,0.4-1.2,0.6
			C121.7,259.4,122.1,259.2,122.6,259z M899.6,748.7V289.6c0-18.8-15.3-34.1-34.1-34.1H136.7c-18.8,0-34.1,15.3-34.1,34.1v459.1
			c0,18.8,15.3,34.1,34.1,34.1h728.8C884.3,782.7,899.6,767.5,899.6,748.7z"/>
		<path class="st3" d="M879.9,258.7c0.4,0.2,0.8,0.4,1.2,0.6C880.8,259,880.3,258.8,879.9,258.7z M122.9,258.7
			c-0.4,0.2-0.8,0.4-1.2,0.6C122,259,122.5,258.8,122.9,258.7z M899.9,748.4V289.3c0-18.8-15.3-34.1-34.1-34.1H137
			c-18.8,0-34.1,15.3-34.1,34.1v459.1c0,18.8,15.3,34.1,34.1,34.1h728.8C884.6,782.4,899.9,767.1,899.9,748.4z"/>
		<path class="st4" d="M880.2,258.3c0.4,0.2,0.8,0.4,1.2,0.6C881.1,258.7,880.7,258.5,880.2,258.3z M123.2,258.3
			c-0.4,0.2-0.8,0.4-1.2,0.6C122.4,258.7,122.8,258.5,123.2,258.3z M900.2,748V289c0-18.8-15.3-34.1-34.1-34.1H137.3
			c-18.8,0-34.1,15.3-34.1,34.1V748c0,18.8,15.3,34.1,34.1,34.1h728.8C884.9,782.1,900.2,766.8,900.2,748z"/>
		<path class="st5" d="M880.6,258c0.4,0.2,0.8,0.4,1.2,0.6C881.4,258.4,881,258.2,880.6,258z M123.5,258c-0.4,0.2-0.8,0.4-1.2,0.6
			C122.7,258.4,123.1,258.2,123.5,258z M900.5,747.7V288.6c0-18.8-15.3-34.1-34.1-34.1H137.6c-18.8,0-34.1,15.3-34.1,34.1v459.1
			c0,18.8,15.3,34.1,34.1,34.1h728.8C885.2,781.8,900.5,766.5,900.5,747.7z"/>
		<path class="st6" d="M880.9,257.7c0.4,0.2,0.8,0.4,1.2,0.6C881.7,258,881.3,257.8,880.9,257.7z M123.8,257.7
			c-0.4,0.2-0.8,0.4-1.2,0.6C123,258,123.4,257.8,123.8,257.7z M900.8,747.4V288.3c0-18.8-15.3-34.1-34.1-34.1H137.9
			c-18.8,0-34.1,15.3-34.1,34.1v459.1c0,18.8,15.3,34.1,34.1,34.1h728.8C885.5,781.4,900.8,766.1,900.8,747.4z"/>
		<path class="st7" d="M881.2,257.3c0.4,0.2,0.8,0.4,1.2,0.6C882,257.7,881.6,257.5,881.2,257.3z M124.1,257.3
			c-0.4,0.2-0.8,0.4-1.2,0.6C123.3,257.7,123.7,257.5,124.1,257.3z M901.1,747V288c0-18.8-15.3-34.1-34.1-34.1H138.2
			c-18.8,0-34.1,15.3-34.1,34.1V747c0,18.8,15.3,34.1,34.1,34.1H867C885.8,781.1,901.1,765.8,901.1,747z"/>
		<path class="st8" d="M881.5,257c0.4,0.2,0.8,0.4,1.2,0.6C882.3,257.4,881.9,257.2,881.5,257z M124.4,257c-0.4,0.2-0.8,0.4-1.2,0.6
			C123.6,257.4,124,257.2,124.4,257z M901.4,746.7V287.6c0-18.8-15.3-34.1-34.1-34.1H138.5c-18.8,0-34.1,15.3-34.1,34.1v459.1
			c0,18.8,15.3,34.1,34.1,34.1h728.8C886.1,780.8,901.4,765.5,901.4,746.7z"/>
		<path class="st9" d="M881.8,256.7c0.4,0.2,0.8,0.4,1.2,0.6C882.6,257,882.2,256.9,881.8,256.7z M124.7,256.7
			c-0.4,0.2-0.8,0.4-1.2,0.6C123.9,257,124.3,256.8,124.7,256.7z M901.7,746.4V287.3c0-18.8-15.3-34.1-34.1-34.1H138.8
			c-18.8,0-34.1,15.3-34.1,34.1v459.1c0,18.8,15.3,34.1,34.1,34.1h728.8C886.4,780.4,901.7,765.1,901.7,746.4z"/>
		<path class="st10" d="M882.1,256.3c0.4,0.2,0.8,0.4,1.2,0.6C882.9,256.7,882.5,256.5,882.1,256.3z M125,256.3
			c-0.4,0.2-0.8,0.4-1.2,0.6C124.2,256.7,124.6,256.5,125,256.3z M902,746V287c0-18.8-15.3-34.1-34.1-34.1H139.1
			c-18.8,0-34.1,15.3-34.1,34.1V746c0,18.8,15.3,34.1,34.1,34.1h728.8C886.7,780.1,902,764.8,902,746z"/>
		<path class="st11" d="M882.4,256c0.4,0.2,0.8,0.4,1.2,0.6C883.2,256.4,882.8,256.2,882.4,256z M125.3,256
			c-0.4,0.2-0.8,0.4-1.2,0.6C124.5,256.4,124.9,256.2,125.3,256z M902.3,745.7V286.6c0-18.8-15.3-34.1-34.1-34.1H139.4
			c-18.8,0-34.1,15.3-34.1,34.1v459.1c0,18.8,15.3,34.1,34.1,34.1h728.8C887,779.8,902.3,764.5,902.3,745.7z"/>
		<path class="st12" d="M882.7,255.7c0.4,0.2,0.8,0.4,1.2,0.6C883.5,256,883.1,255.9,882.7,255.7z M125.6,255.7
			c-0.4,0.2-0.8,0.4-1.2,0.6C124.8,256,125.2,255.8,125.6,255.7z M902.6,745.4V286.3c0-18.8-15.3-34.1-34.1-34.1H139.7
			c-18.8,0-34.1,15.3-34.1,34.1v459.1c0,18.8,15.3,34.1,34.1,34.1h728.8C887.3,779.4,902.6,764.1,902.6,745.4z"/>
		<path class="st13" d="M883,255.3c0.4,0.2,0.8,0.4,1.2,0.6C883.8,255.7,883.4,255.5,883,255.3z M125.9,255.3
			c-0.4,0.2-0.8,0.4-1.2,0.6C125.1,255.7,125.5,255.5,125.9,255.3z M902.9,745V286c0-18.8-15.3-34.1-34.1-34.1H140.1
			c-18.8,0-34.1,15.3-34.1,34.1V745c0,18.8,15.3,34.1,34.1,34.1h728.8C887.7,779.1,902.9,763.8,902.9,745z"/>
		<path class="st14" d="M883.3,255c0.4,0.2,0.8,0.4,1.2,0.6C884.1,255.4,883.7,255.2,883.3,255z M126.2,255
			c-0.4,0.2-0.8,0.4-1.2,0.6C125.4,255.4,125.8,255.2,126.2,255z M903.2,744.7V285.6c0-18.8-15.3-34.1-34.1-34.1H140.4
			c-18.8,0-34.1,15.3-34.1,34.1v459.1c0,18.8,15.3,34.1,34.1,34.1h728.8C888,778.8,903.2,763.5,903.2,744.7z"/>
		<path class="st15" d="M883.6,254.7c0.4,0.2,0.8,0.4,1.2,0.6C884.4,255.1,884,254.9,883.6,254.7z M126.5,254.7
			c-0.4,0.2-0.8,0.4-1.2,0.6C125.7,255.1,126.1,254.8,126.5,254.7z M903.5,744.4V285.3c0-18.8-15.3-34.1-34.1-34.1H140.7
			c-18.8,0-34.1,15.3-34.1,34.1v459.1c0,18.8,15.3,34.1,34.1,34.1h728.8C888.3,778.4,903.5,763.2,903.5,744.4z"/>
		<path class="st16" d="M883.9,254.3c0.4,0.2,0.8,0.4,1.2,0.6C884.7,254.7,884.3,254.5,883.9,254.3z M126.8,254.3
			c-0.4,0.2-0.8,0.4-1.2,0.6C126,254.7,126.4,254.5,126.8,254.3z M903.8,744V285c0-18.8-15.3-34.1-34.1-34.1H141
			c-18.8,0-34.1,15.3-34.1,34.1V744c0,18.8,15.3,34.1,34.1,34.1h728.8C888.6,778.1,903.8,762.8,903.8,744z"/>
		<path class="st17" d="M884.2,254c0.4,0.2,0.8,0.4,1.2,0.6C885.1,254.4,884.6,254.2,884.2,254z M127.2,254
			c-0.4,0.2-0.8,0.4-1.2,0.6C126.3,254.4,126.7,254.2,127.2,254z M904.2,743.7V284.6c0-18.8-15.3-34.1-34.1-34.1H141.3
			c-18.8,0-34.1,15.3-34.1,34.1v459.1c0,18.8,15.3,34.1,34.1,34.1h728.8C888.9,777.8,904.2,762.5,904.2,743.7z"/>
		<path class="st18" d="M884.5,253.7c0.4,0.2,0.8,0.4,1.2,0.6C885.4,254.1,885,253.9,884.5,253.7z M127.5,253.7
			c-0.4,0.2-0.8,0.4-1.2,0.6C126.6,254.1,127.1,253.8,127.5,253.7z M904.5,743.4V284.3c0-18.8-15.3-34.1-34.1-34.1H141.6
			c-18.8,0-34.1,15.3-34.1,34.1v459.1c0,18.8,15.3,34.1,34.1,34.1h728.8C889.2,777.4,904.5,762.2,904.5,743.4z"/>
		<path class="st19" d="M884.8,253.4c0.4,0.2,0.8,0.4,1.2,0.6C885.7,253.7,885.3,253.5,884.8,253.4z M127.8,253.4
			c-0.4,0.2-0.8,0.4-1.2,0.6C127,253.7,127.4,253.5,127.8,253.4z M904.8,743V284c0-18.8-15.3-34.1-34.1-34.1H141.9
			c-18.8,0-34.1,15.3-34.1,34.1V743c0,18.8,15.3,34.1,34.1,34.1h728.8C889.5,777.1,904.8,761.8,904.8,743z"/>
		<path class="st20" d="M885.2,253c0.4,0.2,0.8,0.4,1.2,0.6C886,253.4,885.6,253.2,885.2,253z M128.1,253c-0.4,0.2-0.8,0.4-1.2,0.6
			C127.3,253.4,127.7,253.2,128.1,253z M905.1,742.7V283.6c0-18.8-15.3-34.1-34.1-34.1H142.2c-18.8,0-34.1,15.3-34.1,34.1v459.1
			c0,18.8,15.3,34.1,34.1,34.1H871C889.8,776.8,905.1,761.5,905.1,742.7z"/>
		<path class="st21" d="M885.5,252.7c0.4,0.2,0.8,0.4,1.2,0.6C886.3,253.1,885.9,252.9,885.5,252.7z M128.4,252.7
			c-0.4,0.2-0.8,0.4-1.2,0.6C127.6,253.1,128,252.8,128.4,252.7z M905.4,742.4V283.3c0-18.8-15.3-34.1-34.1-34.1H142.5
			c-18.8,0-34.1,15.3-34.1,34.1v459.1c0,18.8,15.3,34.1,34.1,34.1h728.8C890.1,776.4,905.4,761.2,905.4,742.4z"/>
		<path class="st22" d="M885.8,252.4c0.4,0.2,0.8,0.4,1.2,0.6C886.6,252.7,886.2,252.5,885.8,252.4z M128.7,252.4
			c-0.4,0.2-0.8,0.4-1.2,0.6C127.9,252.7,128.3,252.5,128.7,252.4z M905.7,742V283c0-18.8-15.3-34.1-34.1-34.1H142.8
			c-18.8,0-34.1,15.3-34.1,34.1V742c0,18.8,15.3,34.1,34.1,34.1h728.8C890.4,776.1,905.7,760.8,905.7,742z"/>
		<path class="st23" d="M886.1,252c0.4,0.2,0.8,0.4,1.2,0.6C886.9,252.4,886.5,252.2,886.1,252z M129,252c-0.4,0.2-0.8,0.4-1.2,0.6
			C128.2,252.4,128.6,252.2,129,252z M906,741.7V282.6c0-18.8-15.3-34.1-34.1-34.1H143.1c-18.8,0-34.1,15.3-34.1,34.1v459.1
			c0,18.8,15.3,34.1,34.1,34.1h728.8C890.7,775.8,906,760.5,906,741.7z"/>
		<path class="st24" d="M886.4,251.7c0.4,0.2,0.8,0.4,1.2,0.6C887.2,252.1,886.8,251.9,886.4,251.7z M129.3,251.7
			c-0.4,0.2-0.8,0.4-1.2,0.6C128.5,252.1,128.9,251.8,129.3,251.7z M906.3,741.4V282.3c0-18.8-15.3-34.1-34.1-34.1H143.4
			c-18.8,0-34.1,15.3-34.1,34.1v459.1c0,18.8,15.3,34.1,34.1,34.1h728.8C891,775.4,906.3,760.2,906.3,741.4z"/>
		<path class="st25" d="M886.7,251.4c0.4,0.2,0.8,0.4,1.2,0.6C887.5,251.7,887.1,251.5,886.7,251.4z M129.6,251.4
			c-0.4,0.2-0.8,0.4-1.2,0.6C128.8,251.7,129.2,251.5,129.6,251.4z M906.6,741V282c0-18.8-15.3-34.1-34.1-34.1H143.7
			c-18.8,0-34.1,15.3-34.1,34.1V741c0,18.8,15.3,34.1,34.1,34.1h728.8C891.3,775.1,906.6,759.8,906.6,741z"/>
		<path class="st26" d="M887,251c0.4,0.2,0.8,0.4,1.2,0.6C887.8,251.4,887.4,251.2,887,251z M129.9,251c-0.4,0.2-0.8,0.4-1.2,0.6
			C129.1,251.4,129.5,251.2,129.9,251z M906.9,740.7V281.7c0-18.8-15.3-34.1-34.1-34.1H144c-18.8,0-34.1,15.3-34.1,34.1v459.1
			c0,18.8,15.3,34.1,34.1,34.1h728.8C891.6,774.8,906.9,759.5,906.9,740.7z"/>
		<path class="st27" d="M887.3,250.7c0.4,0.2,0.8,0.4,1.2,0.6C888.1,251.1,887.7,250.9,887.3,250.7z M130.2,250.7
			c-0.4,0.2-0.8,0.4-1.2,0.6C129.4,251.1,129.8,250.9,130.2,250.7z M907.2,740.4V281.3c0-18.8-15.3-34.1-34.1-34.1H144.3
			c-18.8,0-34.1,15.3-34.1,34.1v459.1c0,18.8,15.3,34.1,34.1,34.1h728.8C891.9,774.4,907.2,759.2,907.2,740.4z"/>
		<path class="st28" d="M887.6,250.4c0.4,0.2,0.8,0.4,1.2,0.6C888.4,250.7,888,250.5,887.6,250.4z M130.5,250.4
			c-0.4,0.2-0.8,0.4-1.2,0.6C129.7,250.7,130.1,250.5,130.5,250.4z M907.5,740V281c0-18.8-15.3-34.1-34.1-34.1H144.7
			c-18.8,0-34.1,15.3-34.1,34.1V740c0,18.8,15.3,34.1,34.1,34.1h728.8C892.3,774.1,907.5,758.8,907.5,740z"/>
		<path class="st29" d="M887.9,250c0.4,0.2,0.8,0.4,1.2,0.6C888.7,250.4,888.3,250.2,887.9,250z M130.8,250
			c-0.4,0.2-0.8,0.4-1.2,0.6C130,250.4,130.4,250.2,130.8,250z M907.8,739.7V280.7c0-18.8-15.3-34.1-34.1-34.1H145
			c-18.8,0-34.1,15.3-34.1,34.1v459.1c0,18.8,15.3,34.1,34.1,34.1h728.8C892.6,773.8,907.8,758.5,907.8,739.7z"/>
		<path class="st30" d="M888.2,249.7c0.4,0.2,0.8,0.4,1.2,0.6C889,250.1,888.6,249.9,888.2,249.7z M131.1,249.7
			c-0.4,0.2-0.8,0.4-1.2,0.6C130.3,250.1,130.7,249.9,131.1,249.7z M908.1,739.4V280.3c0-18.8-15.3-34.1-34.1-34.1H145.3
			c-18.8,0-34.1,15.3-34.1,34.1v459.1c0,18.8,15.3,34.1,34.1,34.1h728.8C892.9,773.4,908.1,758.2,908.1,739.4z"/>
		<path class="st31" d="M888.5,249.4c0.4,0.2,0.8,0.4,1.2,0.6C889.3,249.7,888.9,249.5,888.5,249.4z M131.5,249.4
			c-0.4,0.2-0.8,0.4-1.2,0.6C130.6,249.7,131,249.5,131.5,249.4z M908.4,739.1V280c0-18.8-15.3-34.1-34.1-34.1H145.6
			c-18.8,0-34.1,15.3-34.1,34.1v459.1c0,18.8,15.3,34.1,34.1,34.1h728.8C893.2,773.1,908.4,757.8,908.4,739.1z"/>
		<path class="st32" d="M888.8,249c0.4,0.2,0.8,0.4,1.2,0.6C889.7,249.4,889.2,249.2,888.8,249z M131.8,249
			c-0.4,0.2-0.8,0.4-1.2,0.6C130.9,249.4,131.3,249.2,131.8,249z M908.8,738.7V279.7c0-18.8-15.3-34.1-34.1-34.1H145.9
			c-18.8,0-34.1,15.3-34.1,34.1v459.1c0,18.8,15.3,34.1,34.1,34.1h728.8C893.5,772.8,908.8,757.5,908.8,738.7z"/>
		<path class="st33" d="M889.1,248.7c0.4,0.2,0.8,0.4,1.2,0.6C890,249.1,889.6,248.9,889.1,248.7z M132.1,248.7
			c-0.4,0.2-0.8,0.4-1.2,0.6C131.2,249.1,131.7,248.9,132.1,248.7z M909.1,738.4V279.3c0-18.8-15.3-34.1-34.1-34.1H146.2
			c-18.8,0-34.1,15.3-34.1,34.1v459.1c0,18.8,15.3,34.1,34.1,34.1H875C893.8,772.4,909.1,757.2,909.1,738.4z"/>
		<path class="st34" d="M889.4,248.4c0.4,0.2,0.8,0.4,1.2,0.6C890.3,248.7,889.9,248.5,889.4,248.4z M132.4,248.4
			c-0.4,0.2-0.8,0.4-1.2,0.6C131.6,248.7,132,248.5,132.4,248.4z M909.4,738.1V279c0-18.8-15.3-34.1-34.1-34.1H146.5
			c-18.8,0-34.1,15.3-34.1,34.1v459.1c0,18.8,15.3,34.1,34.1,34.1h728.8C894.1,772.1,909.4,756.8,909.4,738.1z"/>
		<path class="st35" d="M889.8,248c0.4,0.2,0.8,0.4,1.2,0.6C890.6,248.4,890.2,248.2,889.8,248z M132.7,248
			c-0.4,0.2-0.8,0.4-1.2,0.6C131.9,248.4,132.3,248.2,132.7,248z M909.7,737.7V278.7c0-18.8-15.3-34.1-34.1-34.1H146.8
			c-18.8,0-34.1,15.3-34.1,34.1v459.1c0,18.8,15.3,34.1,34.1,34.1h728.8C894.4,771.8,909.7,756.5,909.7,737.7z"/>
		<path class="st36" d="M890.1,247.7c0.4,0.2,0.8,0.4,1.2,0.6C890.9,248.1,890.5,247.9,890.1,247.7z M133,247.7
			c-0.4,0.2-0.8,0.4-1.2,0.6C132.2,248.1,132.6,247.9,133,247.7z M910,737.4V278.3c0-18.8-15.3-34.1-34.1-34.1H147.1
			c-18.8,0-34.1,15.3-34.1,34.1v459.1c0,18.8,15.3,34.1,34.1,34.1h728.8C894.7,771.5,910,756.2,910,737.4z"/>
		<path class="st37" d="M890.4,247.4c0.4,0.2,0.8,0.4,1.2,0.6C891.2,247.7,890.8,247.5,890.4,247.4z M133.3,247.4
			c-0.4,0.2-0.8,0.4-1.2,0.6C132.5,247.7,132.9,247.5,133.3,247.4z M910.3,737.1V278c0-18.8-15.3-34.1-34.1-34.1H147.4
			c-18.8,0-34.1,15.3-34.1,34.1v459.1c0,18.8,15.3,34.1,34.1,34.1h728.8C895,771.1,910.3,755.8,910.3,737.1z"/>
		<path class="st38" d="M890.7,247c0.4,0.2,0.8,0.4,1.2,0.6C891.5,247.4,891.1,247.2,890.7,247z M133.6,247
			c-0.4,0.2-0.8,0.4-1.2,0.6C132.8,247.4,133.2,247.2,133.6,247z M910.6,736.7V277.7c0-18.8-15.3-34.1-34.1-34.1H147.7
			c-18.8,0-34.1,15.3-34.1,34.1v459.1c0,18.8,15.3,34.1,34.1,34.1h728.8C895.3,770.8,910.6,755.5,910.6,736.7z"/>
		<path class="st39" d="M891,246.7c0.4,0.2,0.8,0.4,1.2,0.6C891.8,247.1,891.4,246.9,891,246.7z M133.9,246.7
			c-0.4,0.2-0.8,0.4-1.2,0.6C133.1,247.1,133.5,246.9,133.9,246.7z M910.9,736.4V277.3c0-18.8-15.3-34.1-34.1-34.1H148
			c-18.8,0-34.1,15.3-34.1,34.1v459.1c0,18.8,15.3,34.1,34.1,34.1h728.8C895.6,770.5,910.9,755.2,910.9,736.4z"/>
		<path class="st40" d="M891.3,246.4c0.4,0.2,0.8,0.4,1.2,0.6C892.1,246.7,891.7,246.6,891.3,246.4z M134.2,246.4
			c-0.4,0.2-0.8,0.4-1.2,0.6C133.4,246.7,133.8,246.5,134.2,246.4z M911.2,736.1V277c0-18.8-15.3-34.1-34.1-34.1H148.3
			c-18.8,0-34.1,15.3-34.1,34.1v459.1c0,18.8,15.3,34.1,34.1,34.1h728.8C895.9,770.1,911.2,754.8,911.2,736.1z"/>
		<path class="st41" d="M891.6,246c0.4,0.2,0.8,0.4,1.2,0.6C892.4,246.4,892,246.2,891.6,246z M134.5,246c-0.4,0.2-0.8,0.4-1.2,0.6
			C133.7,246.4,134.1,246.2,134.5,246z M911.5,735.7V276.7c0-18.8-15.3-34.1-34.1-34.1H148.6c-18.8,0-34.1,15.3-34.1,34.1v459.1
			c0,18.8,15.3,34.1,34.1,34.1h728.8C896.2,769.8,911.5,754.5,911.5,735.7z"/>
		<path class="st42" d="M891.9,245.7c0.4,0.2,0.8,0.4,1.2,0.6C892.7,246.1,892.3,245.9,891.9,245.7z M134.8,245.7
			c-0.4,0.2-0.8,0.4-1.2,0.6C134,246.1,134.4,245.9,134.8,245.7z M911.8,735.4V276.3c0-18.8-15.3-34.1-34.1-34.1H148.9
			c-18.8,0-34.1,15.3-34.1,34.1v459.1c0,18.8,15.3,34.1,34.1,34.1h728.8C896.5,769.5,911.8,754.2,911.8,735.4z"/>
		<path class="st43" d="M892.2,245.4c0.4,0.2,0.8,0.4,1.2,0.6C893,245.7,892.6,245.6,892.2,245.4z M135.1,245.4
			c-0.4,0.2-0.8,0.4-1.2,0.6C134.3,245.7,134.7,245.5,135.1,245.4z M912.1,735.1V276c0-18.8-15.3-34.1-34.1-34.1H149.3
			c-18.8,0-34.1,15.3-34.1,34.1v459.1c0,18.8,15.3,34.1,34.1,34.1h728.8C896.9,769.1,912.1,753.8,912.1,735.1z"/>
		<path class="st44" d="M892.5,245c0.4,0.2,0.8,0.4,1.2,0.6C893.3,245.4,892.9,245.2,892.5,245z M135.4,245
			c-0.4,0.2-0.8,0.4-1.2,0.6C134.6,245.4,135,245.2,135.4,245z M912.4,734.7V275.7c0-18.8-15.3-34.1-34.1-34.1H149.6
			c-18.8,0-34.1,15.3-34.1,34.1v459.1c0,18.8,15.3,34.1,34.1,34.1h728.8C897.2,768.8,912.4,753.5,912.4,734.7z"/>
		<path class="st45" d="M892.8,244.7c0.4,0.2,0.8,0.4,1.2,0.6C893.6,245.1,893.2,244.9,892.8,244.7z M135.7,244.7
			c-0.4,0.2-0.8,0.4-1.2,0.6C134.9,245.1,135.3,244.9,135.7,244.7z M912.7,734.4V275.3c0-18.8-15.3-34.1-34.1-34.1H149.9
			c-18.8,0-34.1,15.3-34.1,34.1v459.1c0,18.8,15.3,34.1,34.1,34.1h728.8C897.5,768.5,912.7,753.2,912.7,734.4z"/>
		<path class="st46" d="M893.1,244.4c0.4,0.2,0.8,0.4,1.2,0.6C893.9,244.8,893.5,244.6,893.1,244.4z M136.1,244.4
			c-0.4,0.2-0.8,0.4-1.2,0.6C135.2,244.8,135.6,244.5,136.1,244.4z M913,734.1V275c0-18.8-15.3-34.1-34.1-34.1H150.2
			c-18.8,0-34.1,15.3-34.1,34.1v459.1c0,18.8,15.3,34.1,34.1,34.1H879C897.8,768.1,913,752.9,913,734.1z"/>
		<path class="st47" d="M893.4,244c0.4,0.2,0.8,0.4,1.2,0.6C894.3,244.4,893.8,244.2,893.4,244z M136.4,244
			c-0.4,0.2-0.8,0.4-1.2,0.6C135.5,244.4,135.9,244.2,136.4,244z M913.4,733.7V274.7c0-18.8-15.3-34.1-34.1-34.1H150.5
			c-18.8,0-34.1,15.3-34.1,34.1v459.1c0,18.8,15.3,34.1,34.1,34.1h728.8C898.1,767.8,913.4,752.5,913.4,733.7z"/>
		<path class="st48" d="M893.7,243.7c0.4,0.2,0.8,0.4,1.2,0.6C894.6,244.1,894.2,243.9,893.7,243.7z M136.7,243.7
			c-0.4,0.2-0.8,0.4-1.2,0.6C135.8,244.1,136.3,243.9,136.7,243.7z M913.7,733.4V274.3c0-18.8-15.3-34.1-34.1-34.1H150.8
			c-18.8,0-34.1,15.3-34.1,34.1v459.1c0,18.8,15.3,34.1,34.1,34.1h728.8C898.4,767.5,913.7,752.2,913.7,733.4z"/>
		<path class="st49" d="M894,243.4c0.4,0.2,0.8,0.4,1.2,0.6C894.9,243.8,894.5,243.6,894,243.4z M137,243.4
			c-0.4,0.2-0.8,0.4-1.2,0.6C136.2,243.8,136.6,243.5,137,243.4z M914,733.1V274c0-18.8-15.3-34.1-34.1-34.1H151.1
			c-18.8,0-34.1,15.3-34.1,34.1v459.1c0,18.8,15.3,34.1,34.1,34.1h728.8C898.7,767.1,914,751.9,914,733.1z"/>
		<path class="st50" d="M894.4,243.1c0.4,0.2,0.8,0.4,1.2,0.6C895.2,243.4,894.8,243.2,894.4,243.1z M137.3,243.1
			c-0.4,0.2-0.8,0.4-1.2,0.6C136.5,243.4,136.9,243.2,137.3,243.1z M914.3,732.7V273.7c0-18.8-15.3-34.1-34.1-34.1H151.4
			c-18.8,0-34.1,15.3-34.1,34.1v459.1c0,18.8,15.3,34.1,34.1,34.1h728.8C899,766.8,914.3,751.5,914.3,732.7z"/>
		<path class="st51" d="M894.7,242.7c0.4,0.2,0.8,0.4,1.2,0.6C895.5,243.1,895.1,242.9,894.7,242.7z M137.6,242.7
			c-0.4,0.2-0.8,0.4-1.2,0.6C136.8,243.1,137.2,242.9,137.6,242.7z M914.6,732.4V273.3c0-18.8-15.3-34.1-34.1-34.1H151.7
			c-18.8,0-34.1,15.3-34.1,34.1v459.1c0,18.8,15.3,34.1,34.1,34.1h728.8C899.3,766.5,914.6,751.2,914.6,732.4z"/>
		<path class="st52" d="M895,242.4c0.4,0.2,0.8,0.4,1.2,0.6C895.8,242.8,895.4,242.6,895,242.4z M137.9,242.4
			c-0.4,0.2-0.8,0.4-1.2,0.6C137.1,242.8,137.5,242.5,137.9,242.4z M914.9,732.1V273c0-18.8-15.3-34.1-34.1-34.1H152
			c-18.8,0-34.1,15.3-34.1,34.1v459.1c0,18.8,15.3,34.1,34.1,34.1h728.8C899.6,766.1,914.9,750.9,914.9,732.1z"/>
		<path class="st53" d="M895.3,242.1c0.4,0.2,0.8,0.4,1.2,0.6C896.1,242.4,895.7,242.2,895.3,242.1z M138.2,242.1
			c-0.4,0.2-0.8,0.4-1.2,0.6C137.4,242.4,137.8,242.2,138.2,242.1z M915.2,731.7V272.7c0-18.8-15.3-34.1-34.1-34.1H152.3
			c-18.8,0-34.1,15.3-34.1,34.1v459.1c0,18.8,15.3,34.1,34.1,34.1h728.8C899.9,765.8,915.2,750.5,915.2,731.7z"/>
		<path class="st54" d="M895.6,241.7c0.4,0.2,0.8,0.4,1.2,0.6C896.4,242.1,896,241.9,895.6,241.7z M138.5,241.7
			c-0.4,0.2-0.8,0.4-1.2,0.6C137.7,242.1,138.1,241.9,138.5,241.7z M915.5,731.4V272.3c0-18.8-15.3-34.1-34.1-34.1H152.6
			c-18.8,0-34.1,15.3-34.1,34.1v459.1c0,18.8,15.3,34.1,34.1,34.1h728.8C900.2,765.5,915.5,750.2,915.5,731.4z"/>
		<path class="st55" d="M895.9,241.4c0.4,0.2,0.8,0.4,1.2,0.6C896.7,241.8,896.3,241.6,895.9,241.4z M138.8,241.4
			c-0.4,0.2-0.8,0.4-1.2,0.6C138,241.8,138.4,241.5,138.8,241.4z M915.8,731.1V272c0-18.8-15.3-34.1-34.1-34.1H152.9
			c-18.8,0-34.1,15.3-34.1,34.1v459.1c0,18.8,15.3,34.1,34.1,34.1h728.8C900.5,765.1,915.8,749.9,915.8,731.1z"/>
		<path class="st56" d="M896.2,241.1c0.4,0.2,0.8,0.4,1.2,0.6C897,241.4,896.6,241.2,896.2,241.1z M139.1,241.1
			c-0.4,0.2-0.8,0.4-1.2,0.6C138.3,241.4,138.7,241.2,139.1,241.1z M916.1,730.7V271.7c0-18.8-15.3-34.1-34.1-34.1H153.2
			c-18.8,0-34.1,15.3-34.1,34.1v459.1c0,18.8,15.3,34.1,34.1,34.1h728.8C900.8,764.8,916.1,749.5,916.1,730.7z"/>
		<path class="st57" d="M896.5,240.7c0.4,0.2,0.8,0.4,1.2,0.6C897.3,241.1,896.9,240.9,896.5,240.7z M139.4,240.7
			c-0.4,0.2-0.8,0.4-1.2,0.6C138.6,241.1,139,240.9,139.4,240.7z M916.4,730.4V271.4c0-18.8-15.3-34.1-34.1-34.1H153.5
			c-18.8,0-34.1,15.3-34.1,34.1v459.1c0,18.8,15.3,34.1,34.1,34.1h728.8C901.1,764.5,916.4,749.2,916.4,730.4z"/>
		<path class="st58" d="M896.8,240.4c0.4,0.2,0.8,0.4,1.2,0.6C897.6,240.8,897.2,240.6,896.8,240.4z M139.7,240.4
			c-0.4,0.2-0.8,0.4-1.2,0.6C138.9,240.8,139.3,240.6,139.7,240.4z M916.7,730.1V271c0-18.8-15.3-34.1-34.1-34.1H153.9
			c-18.8,0-34.1,15.3-34.1,34.1v459.1c0,18.8,15.3,34.1,34.1,34.1h728.8C901.5,764.1,916.7,748.9,916.7,730.1z"/>
		<path class="st59" d="M897.1,240.1c0.4,0.2,0.8,0.4,1.2,0.6C897.9,240.4,897.5,240.2,897.1,240.1z M140,240.1
			c-0.4,0.2-0.8,0.4-1.2,0.6C139.2,240.4,139.6,240.2,140,240.1z M917,729.7V270.7c0-18.8-15.3-34.1-34.1-34.1H154.2
			c-18.8,0-34.1,15.3-34.1,34.1v459.1c0,18.8,15.3,34.1,34.1,34.1H883C901.8,763.8,917,748.5,917,729.7z"/>
		<path class="st60" d="M897.4,239.7c0.4,0.2,0.8,0.4,1.2,0.6C898.2,240.1,897.8,239.9,897.4,239.7z M140.3,239.7
			c-0.4,0.2-0.8,0.4-1.2,0.6C139.5,240.1,139.9,239.9,140.3,239.7z M917.3,729.4V270.4c0-18.8-15.3-34.1-34.1-34.1H154.5
			c-18.8,0-34.1,15.3-34.1,34.1v459.1c0,18.8,15.3,34.1,34.1,34.1h728.8C902.1,763.5,917.3,748.2,917.3,729.4z"/>
		<path class="st61" d="M897.7,239.4c0.4,0.2,0.8,0.4,1.2,0.6C898.5,239.8,898.1,239.6,897.7,239.4z M140.7,239.4
			c-0.4,0.2-0.8,0.4-1.2,0.6C139.8,239.8,140.2,239.6,140.7,239.4z M917.7,729.1V270c0-18.8-15.3-34.1-34.1-34.1H154.8
			c-18.8,0-34.1,15.3-34.1,34.1v459.1c0,18.8,15.3,34.1,34.1,34.1h728.8C902.4,763.1,917.7,747.9,917.7,729.1z"/>
		<path d="M898,239.1c0.4,0.2,0.8,0.4,1.2,0.6C898.9,239.4,898.4,239.2,898,239.1z M141,239.1c-0.4,0.2-0.8,0.4-1.2,0.6
			C140.1,239.4,140.5,239.2,141,239.1z M918,728.8V269.7c0-18.8-15.3-34.1-34.1-34.1H155.1c-18.8,0-34.1,15.3-34.1,34.1v459.1
			c0,18.8,15.3,34.1,34.1,34.1h728.8C902.7,762.8,918,747.5,918,728.8z"/>
	</g>
</g>
<g id="object">
	<g>
		<g>
			<g>
				<g>
					<path class="st62" d="M884.8,762.5L884.8,762.5c0.3,0,0.5,0,0.7,0c0.4,0,0.7,0,1.1-0.1c0.2,0,0.4,0,0.6,0c0.1,0,0.2,0,0.2,0
						c0.1,0,0.2,0,0.4-0.1c0.4,0,0.7-0.1,1-0.1c0.6-0.1,1.1-0.2,1.6-0.3c0.5-0.1,1.1-0.2,1.6-0.3c0.5-0.1,1-0.3,1.5-0.4
						c0,0,0.1,0,0.1,0c0.5-0.2,1-0.3,1.5-0.5c0.5-0.2,1-0.4,1.5-0.6c0.5-0.2,1-0.4,1.5-0.6c0.4-0.2,0.8-0.4,1.2-0.6
						c0.1-0.1,0.1-0.1,0.2-0.1c0.5-0.2,0.9-0.5,1.4-0.8c1.4-0.8,2.7-1.7,3.9-2.6c0,0,0,0,0.1,0c0.8-0.6,1.6-1.3,2.3-2c0,0,0,0,0,0
						c0.4-0.4,0.7-0.7,1.1-1.1c0.2-0.2,0.4-0.4,0.6-0.6c0.3-0.4,0.7-0.7,1-1.1c0.2-0.2,0.4-0.5,0.6-0.7c0.5-0.6,0.9-1.2,1.3-1.8
						c0.1-0.2,0.3-0.4,0.4-0.7c0.1-0.2,0.3-0.4,0.4-0.6c0.3-0.5,0.6-0.9,0.8-1.4c0.1-0.2,0.2-0.5,0.4-0.7c1.2-2.2,2.1-4.5,2.7-6.9
						c0.1-0.2,0.1-0.4,0.1-0.6c0.1-0.3,0.1-0.5,0.2-0.8c0.3-1.4,0.5-2.8,0.7-4.2c0-0.2,0-0.5,0.1-0.7c0.1-0.8,0.1-1.7,0.1-2.5V269.7
						c0-0.9,0-1.7-0.1-2.5c0-0.3-0.1-0.5-0.1-0.8c-0.1-1.4-0.3-2.8-0.6-4.1c-0.1-0.3-0.1-0.5-0.2-0.8c-0.1-0.2-0.1-0.5-0.2-0.7
						c-0.6-2.4-1.5-4.7-2.7-6.8c-0.1-0.2-0.2-0.5-0.4-0.7c-0.5-0.9-1.1-1.8-1.7-2.7c-0.1-0.2-0.3-0.4-0.4-0.6
						c-0.3-0.4-0.6-0.7-0.9-1.1c-0.7-1-1.5-1.8-2.4-2.7c-0.2-0.2-0.4-0.4-0.6-0.6c-0.1-0.1-0.2-0.2-0.3-0.3
						c-0.1-0.1-0.2-0.2-0.3-0.2c-0.3-0.3-0.6-0.6-0.9-0.8c-0.3-0.2-0.6-0.5-0.9-0.7c-0.1-0.1-0.2-0.2-0.4-0.3
						c-0.1-0.1-0.1-0.1-0.2-0.2c-0.3-0.2-0.6-0.5-1-0.7c0,0-0.1,0-0.1-0.1c-0.4-0.3-0.8-0.6-1.2-0.8c-0.1,0-0.1-0.1-0.1-0.1
						c-0.4-0.2-0.8-0.5-1.2-0.7c-0.4-0.3-0.9-0.5-1.4-0.8c-0.1-0.1-0.2-0.1-0.2-0.1c-0.4-0.2-0.8-0.4-1.2-0.6
						c-0.5-0.2-1-0.4-1.5-0.6c-0.5-0.2-1-0.4-1.5-0.6c-0.8-0.3-1.5-0.5-2.3-0.7c-0.8-0.2-1.6-0.4-2.4-0.6c-0.6-0.1-1.1-0.2-1.6-0.3
						c-0.5-0.1-0.9-0.1-1.4-0.2c-0.1,0-0.2,0-0.2,0c-0.2,0-0.5-0.1-0.7-0.1c-0.3,0-0.6-0.1-0.9-0.1c-0.5,0-1-0.1-1.6-0.1H155.1
						c-0.5,0-1,0-1.6,0.1c-0.3,0-0.6,0-0.9,0.1c-0.2,0-0.5,0-0.7,0.1c-0.1,0-0.1,0-0.2,0c-0.5,0.1-1,0.1-1.4,0.2
						c-0.6,0.1-1.1,0.2-1.6,0.3c-0.8,0.2-1.6,0.3-2.4,0.6c-0.8,0.2-1.6,0.5-2.3,0.7c-0.5,0.2-1,0.4-1.5,0.6c-0.5,0.2-1,0.4-1.5,0.6
						c-0.4,0.2-0.8,0.4-1.2,0.6c-0.1,0.1-0.2,0.1-0.2,0.1c-0.5,0.2-0.9,0.5-1.4,0.8c-0.4,0.2-0.8,0.5-1.2,0.7c0,0-0.1,0.1-0.1,0.1
						c-0.4,0.3-0.8,0.6-1.2,0.8c0,0-0.1,0.1-0.1,0.1c-0.3,0.2-0.7,0.5-1,0.7c-0.1,0.1-0.2,0.1-0.2,0.2c-0.1,0.1-0.2,0.2-0.4,0.3
						c-0.3,0.2-0.6,0.5-0.9,0.7c-0.3,0.3-0.6,0.5-0.9,0.8c-0.1,0.1-0.2,0.2-0.3,0.2c-0.1,0.1-0.2,0.2-0.3,0.3
						c-0.2,0.2-0.4,0.4-0.6,0.6c-0.9,0.9-1.7,1.8-2.4,2.7c-0.3,0.4-0.6,0.7-0.8,1.1c-0.1,0.2-0.3,0.4-0.4,0.6
						c-0.6,0.9-1.2,1.8-1.7,2.7l-0.4,0.7c-1.1,2.1-2,4.4-2.7,6.8c-0.1,0.2-0.1,0.5-0.2,0.7c-0.1,0.3-0.1,0.5-0.2,0.8
						c-0.3,1.3-0.5,2.7-0.7,4.1c0,0.2-0.1,0.5-0.1,0.8c-0.1,0.8-0.1,1.7-0.1,2.5v459.1c0,0.9,0,1.7,0.1,2.5c0,0.2,0.1,0.5,0.1,0.7
						c0.1,1.4,0.4,2.8,0.7,4.2c0.1,0.2,0.1,0.5,0.2,0.8c0,0.2,0.1,0.4,0.1,0.6c0.6,2.4,1.6,4.7,2.7,6.9l0.4,0.7
						c0.3,0.5,0.5,0.9,0.8,1.4c0.1,0.2,0.3,0.4,0.4,0.6c0.1,0.2,0.3,0.4,0.4,0.7c0.4,0.6,0.9,1.2,1.3,1.8c0.2,0.2,0.4,0.5,0.6,0.7
						c0.3,0.4,0.7,0.8,1,1.1c0.2,0.2,0.4,0.4,0.6,0.6c0.4,0.4,0.7,0.7,1.1,1.1c0,0,0,0,0.1,0c0.7,0.7,1.5,1.4,2.3,2c0,0,0,0,0.1,0
						c1.2,1,2.5,1.8,3.9,2.6c0.5,0.3,0.9,0.5,1.4,0.8c0.1,0,0.1,0.1,0.2,0.1c0.4,0.2,0.8,0.4,1.2,0.6c0.5,0.2,1,0.4,1.5,0.6
						c0.5,0.2,1,0.4,1.5,0.6c0.5,0.2,1,0.3,1.5,0.5c0,0,0.1,0,0.1,0c0.5,0.1,1,0.3,1.5,0.4c0.5,0.1,1,0.2,1.6,0.3
						c0.5,0.1,1.1,0.2,1.6,0.3c0.5,0.1,1,0.1,1.4,0.2c0.1,0,0.1,0,0.2,0c0.2,0,0.3,0,0.5,0h0.1c0.1,0,0.1,0,0.2,0c0.1,0,0.1,0,0.2,0
						c0.2,0,0.4,0,0.7,0c0.2,0,0.4,0,0.6,0h0.1c0.3,0,0.6,0,0.9,0h728.8C884.2,762.5,884.5,762.5,884.8,762.5z M124.5,269.7
						c0-16.9,13.7-30.6,30.6-30.6h728.8c16.9,0,30.6,13.7,30.6,30.6v459.1c0,16.9-13.7,30.6-30.6,30.6H155.1
						c-16.9,0-30.6-13.7-30.6-30.6V269.7z"/>
					<path class="st62" d="M918,728.8V269.7c0-18.8-15.3-34.1-34.1-34.1H155.1c-18.8,0-34.1,15.3-34.1,34.1v459.1
						c0,18.8,15.3,34.1,34.1,34.1h728.8C902.7,762.8,918,747.5,918,728.8z M155.1,762.5c-0.3,0-0.6,0-0.9,0h-0.1c-0.2,0-0.4,0-0.6,0
						c-0.2,0-0.4,0-0.7,0c-0.1,0-0.1,0-0.2,0c-0.1,0-0.1,0-0.2,0h-0.1c-0.2,0-0.3,0-0.5,0c-0.1,0-0.1,0-0.2,0
						c-0.5-0.1-1-0.1-1.4-0.2c-0.5-0.1-1.1-0.2-1.6-0.3c-0.5-0.1-1.1-0.2-1.6-0.3c-0.5-0.1-1-0.3-1.5-0.4c0,0-0.1,0-0.1,0
						c-0.5-0.1-1-0.3-1.5-0.5c-0.5-0.2-1-0.4-1.5-0.6c-0.5-0.2-1-0.4-1.5-0.6c-0.4-0.2-0.8-0.4-1.2-0.6c-0.1-0.1-0.2-0.1-0.2-0.1
						c-0.5-0.2-0.9-0.5-1.4-0.8c-1.4-0.8-2.6-1.7-3.9-2.6c0,0,0,0-0.1,0c-0.8-0.6-1.6-1.3-2.3-2c0,0,0,0-0.1,0
						c-0.4-0.4-0.7-0.7-1.1-1.1c-0.2-0.2-0.4-0.4-0.6-0.6c-0.3-0.4-0.7-0.7-1-1.1c-0.2-0.2-0.4-0.5-0.6-0.7
						c-0.4-0.6-0.9-1.2-1.3-1.8c-0.1-0.2-0.3-0.4-0.4-0.7c-0.1-0.2-0.3-0.4-0.4-0.6c-0.3-0.5-0.6-0.9-0.8-1.4l-0.4-0.7
						c-1.1-2.2-2.1-4.5-2.7-6.9c-0.1-0.2-0.1-0.4-0.1-0.6c-0.1-0.3-0.1-0.5-0.2-0.8c-0.3-1.4-0.5-2.8-0.7-4.2c0-0.2-0.1-0.5-0.1-0.7
						c-0.1-0.8-0.1-1.7-0.1-2.5V269.7c0-0.9,0-1.7,0.1-2.5c0-0.3,0.1-0.5,0.1-0.8c0.1-1.4,0.4-2.8,0.7-4.1c0.1-0.3,0.1-0.5,0.2-0.8
						c0.1-0.2,0.1-0.5,0.2-0.7c0.6-2.4,1.5-4.7,2.7-6.8l0.4-0.7c0.5-0.9,1.1-1.8,1.7-2.7c0.2-0.2,0.3-0.4,0.4-0.6
						c0.3-0.4,0.6-0.7,0.8-1.1c0.8-1,1.6-1.8,2.4-2.7c0.2-0.2,0.4-0.4,0.6-0.6c0.1-0.1,0.2-0.2,0.3-0.3c0.1-0.1,0.2-0.2,0.3-0.2
						c0.3-0.3,0.6-0.6,0.9-0.8c0.3-0.2,0.6-0.5,0.9-0.7c0.1-0.1,0.2-0.2,0.4-0.3c0.1-0.1,0.1-0.1,0.2-0.2c0.3-0.2,0.6-0.5,1-0.7
						c0,0,0.1,0,0.1-0.1c0.4-0.3,0.8-0.6,1.2-0.8c0.1,0,0.1-0.1,0.1-0.1c0.4-0.2,0.8-0.5,1.2-0.7c0.5-0.3,0.9-0.5,1.4-0.8
						c0.1-0.1,0.1-0.1,0.2-0.1c0.4-0.2,0.8-0.4,1.2-0.6c0.5-0.2,1-0.4,1.5-0.6c0.5-0.2,1-0.4,1.5-0.6c0.7-0.3,1.5-0.5,2.3-0.7
						c0.8-0.2,1.6-0.4,2.4-0.6c0.5-0.1,1.1-0.2,1.6-0.3c0.5-0.1,1-0.1,1.4-0.2c0.1,0,0.1,0,0.2,0c0.2,0,0.5-0.1,0.7-0.1
						c0.3,0,0.6-0.1,0.9-0.1c0.5,0,1-0.1,1.6-0.1h728.8c0.5,0,1,0,1.6,0.1c0.3,0,0.6,0,0.9,0.1c0.2,0,0.5,0,0.7,0.1
						c0.1,0,0.2,0,0.2,0c0.5,0.1,1,0.1,1.4,0.2c0.6,0.1,1.1,0.2,1.6,0.3c0.8,0.2,1.6,0.3,2.4,0.6c0.8,0.2,1.5,0.5,2.3,0.7
						c0.5,0.2,1,0.4,1.5,0.6c0.5,0.2,1,0.4,1.5,0.6c0.4,0.2,0.8,0.4,1.2,0.6c0.1,0.1,0.1,0.1,0.2,0.1c0.5,0.2,0.9,0.5,1.4,0.8
						c0.4,0.2,0.8,0.5,1.2,0.7c0,0,0.1,0.1,0.1,0.1c0.4,0.3,0.8,0.6,1.2,0.8c0,0,0.1,0.1,0.1,0.1c0.3,0.2,0.7,0.5,1,0.7
						c0.1,0.1,0.2,0.1,0.2,0.2c0.1,0.1,0.2,0.2,0.4,0.3c0.3,0.2,0.6,0.5,0.9,0.7c0.3,0.3,0.6,0.5,0.9,0.8c0.1,0.1,0.2,0.2,0.3,0.2
						c0.1,0.1,0.2,0.2,0.3,0.3c0.2,0.2,0.4,0.4,0.6,0.6c0.9,0.9,1.7,1.8,2.4,2.7c0.3,0.4,0.6,0.7,0.9,1.1c0.1,0.2,0.3,0.4,0.4,0.6
						c0.6,0.9,1.2,1.8,1.7,2.7c0.1,0.2,0.2,0.5,0.4,0.7c1.1,2.1,2,4.4,2.7,6.8c0.1,0.2,0.1,0.5,0.2,0.7c0.1,0.3,0.1,0.5,0.2,0.8
						c0.3,1.3,0.5,2.7,0.6,4.1c0,0.2,0.1,0.5,0.1,0.8c0.1,0.8,0.1,1.7,0.1,2.5v459.1c0,0.9,0,1.7-0.1,2.5c0,0.2-0.1,0.5-0.1,0.7
						c-0.1,1.4-0.4,2.8-0.7,4.2c-0.1,0.2-0.1,0.5-0.2,0.8c0,0.2-0.1,0.4-0.1,0.6c-0.7,2.4-1.6,4.7-2.7,6.9c-0.1,0.2-0.2,0.5-0.4,0.7
						c-0.2,0.5-0.5,0.9-0.8,1.4c-0.1,0.2-0.3,0.4-0.4,0.6c-0.1,0.2-0.3,0.4-0.4,0.7c-0.4,0.6-0.9,1.2-1.3,1.8
						c-0.2,0.2-0.4,0.5-0.6,0.7c-0.3,0.4-0.6,0.8-1,1.1c-0.2,0.2-0.4,0.4-0.6,0.6c-0.4,0.4-0.7,0.7-1.1,1.1c0,0,0,0,0,0
						c-0.7,0.7-1.5,1.4-2.3,2c0,0,0,0-0.1,0c-1.2,1-2.5,1.8-3.9,2.6c-0.4,0.3-0.9,0.5-1.4,0.8c-0.1,0-0.2,0.1-0.2,0.1
						c-0.4,0.2-0.8,0.4-1.2,0.6c-0.5,0.2-1,0.4-1.5,0.6c-0.5,0.2-1,0.4-1.5,0.6c-0.5,0.2-1,0.3-1.5,0.5c0,0-0.1,0-0.1,0
						c-0.5,0.1-1,0.3-1.5,0.4c-0.5,0.1-1,0.2-1.6,0.3c-0.6,0.1-1.1,0.2-1.6,0.3c-0.3,0-0.7,0.1-1,0.1c-0.1,0-0.2,0-0.4,0.1
						c-0.1,0-0.2,0-0.2,0c-0.2,0-0.4,0-0.6,0c-0.4,0-0.7,0.1-1.1,0.1c-0.2,0-0.4,0-0.6,0h-0.1c-0.3,0-0.6,0-0.9,0H155.1z"/>
					<path class="st62" d="M883.9,759.4H155.1c-16.9,0-30.6-13.7-30.6-30.6V269.7c0-16.9,13.7-30.6,30.6-30.6h728.8
						c16.9,0,30.6,13.7,30.6,30.6v459.1C914.5,745.6,900.8,759.4,883.9,759.4z"/>
				</g>
				
					<linearGradient id="SVGID_1_" gradientUnits="userSpaceOnUse" x1="499.9911" y1="898.1474" x2="499.9911" y2="866.8811" gradientTransform="matrix(4.489659e-011 1 -1 4.489659e-011 1019.4894 -0.779)">
					<stop  offset="0" style="stop-color:#FFE6C9"/>
					<stop  offset="0.1058" style="stop-color:#EDC7A5"/>
					<stop  offset="0.1408" style="stop-color:#DCB28B"/>
					<stop  offset="0.1927" style="stop-color:#C7996C"/>
					<stop  offset="0.2516" style="stop-color:#B58350"/>
					<stop  offset="0.318" style="stop-color:#A7723A"/>
					<stop  offset="0.3957" style="stop-color:#9C6429"/>
					<stop  offset="0.4916" style="stop-color:#945B1E"/>
					<stop  offset="0.6263" style="stop-color:#8F5517"/>
					<stop  offset="1" style="stop-color:#8E5415"/>
				</linearGradient>
				<path class="st63" d="M152,762.3c0.1,0,0.2,0,0.3,0c-0.2,0-0.3,0-0.5,0c-0.1,0-0.1,0-0.2,0c-0.5-0.1-1-0.1-1.4-0.2
					c-0.6-0.1-1.1-0.2-1.6-0.3c-0.5-0.1-1.1-0.2-1.6-0.3c-0.5-0.1-1-0.3-1.5-0.4c0,0-0.1,0-0.1,0c-0.5-0.2-1-0.3-1.5-0.5
					c-0.5-0.2-1-0.4-1.5-0.6c-0.5-0.2-1-0.4-1.5-0.6c-0.4-0.2-0.8-0.4-1.2-0.6c-0.1-0.1-0.2-0.1-0.2-0.1c-0.5-0.2-0.9-0.5-1.4-0.8
					c-1.4-0.8-2.6-1.7-3.9-2.6c0,0,0,0-0.1,0c-0.8-0.6-1.6-1.3-2.3-2c0,0,0,0-0.1,0c-0.4-0.4-0.7-0.7-1.1-1.1
					c-0.2-0.2-0.4-0.4-0.6-0.6c-0.3-0.4-0.7-0.7-1-1.1c-0.2-0.2-0.4-0.5-0.6-0.7c-0.4-0.6-0.9-1.2-1.3-1.8c-0.1-0.2-0.3-0.4-0.4-0.7
					c-0.1-0.2-0.3-0.4-0.4-0.6c-0.3-0.5-0.6-0.9-0.8-1.4l-0.4-0.7c-1.1-2.2-2.1-4.5-2.7-6.9c-0.1-0.2-0.1-0.4-0.1-0.6
					c-0.1-0.3-0.1-0.5-0.2-0.8c-0.3-1.4-0.5-2.8-0.7-4.2c0-0.2-0.1-0.5-0.1-0.7c-0.1-0.8-0.1-1.7-0.1-2.5V269.7c0-0.9,0-1.7,0.1-2.5
					c0-0.3,0.1-0.5,0.1-0.8c0.1-1.4,0.4-2.8,0.7-4.1c0.1-0.3,0.1-0.5,0.2-0.8c0.1-0.2,0.1-0.5,0.2-0.7c0.6-2.4,1.5-4.7,2.7-6.8
					l0.4-0.7c0.5-0.9,1.1-1.8,1.7-2.7c0.2-0.2,0.3-0.4,0.4-0.6c0.3-0.4,0.6-0.7,0.8-1.1c0.8-1,1.6-1.8,2.4-2.7
					c0.2-0.2,0.4-0.4,0.6-0.6c0.1-0.1,0.2-0.2,0.3-0.3c0.1-0.1,0.2-0.2,0.3-0.2c0.3-0.3,0.6-0.6,0.9-0.8c0.3-0.2,0.6-0.5,0.9-0.7
					c0.1-0.1,0.2-0.2,0.4-0.3c0.1-0.1,0.1-0.1,0.2-0.2c0.3-0.2,0.6-0.5,1-0.7c0,0,0.1,0,0.1-0.1c0.4-0.3,0.8-0.6,1.2-0.8
					c0.1,0,0.1-0.1,0.1-0.1c0.4-0.2,0.8-0.5,1.2-0.7c0.5-0.3,0.9-0.5,1.4-0.8c0.1-0.1,0.1-0.1,0.2-0.1c0.4-0.2,0.8-0.4,1.2-0.6
					c0.5-0.2,1-0.4,1.5-0.6c0.5-0.2,1-0.4,1.5-0.6c0.7-0.3,1.5-0.5,2.3-0.7c0.8-0.2,1.6-0.4,2.4-0.6c0.5-0.1,1.1-0.2,1.6-0.3
					c0.5-0.1,1-0.1,1.4-0.2c0.1,0,0.1,0,0.2,0c0.2,0,0.5-0.1,0.7-0.1c-0.2,0-0.4,0-0.6,0.1c-0.5,0.1-1,0.1-1.5,0.2
					c-0.2,0-0.5,0.1-0.7,0.1c-0.3,0-0.6,0.1-0.9,0.2c-0.4,0.1-0.9,0.2-1.3,0.3c-0.5,0.1-0.9,0.3-1.4,0.4c-0.4,0.1-0.8,0.2-1.1,0.4
					c-0.8,0.3-1.6,0.6-2.3,0.9c-0.2,0.1-0.5,0.2-0.7,0.3c-0.4,0.2-0.7,0.3-1.1,0.5c0,0-0.1,0-0.1,0.1c-0.4,0.2-0.8,0.4-1.2,0.7
					c0,0,0,0-0.1,0c-0.3,0.2-0.6,0.3-0.8,0.5c-0.2,0.2-0.5,0.3-0.7,0.5c-0.1,0-0.1,0.1-0.2,0.1c-0.4,0.2-0.7,0.5-1.1,0.8
					c-0.4,0.3-0.7,0.6-1,0.8c-0.1,0.1-0.2,0.1-0.2,0.2c-0.4,0.3-0.7,0.6-1,0.9c-0.4,0.3-0.7,0.7-1,1c-0.3,0.3-0.6,0.6-0.9,0.9
					c-0.1,0.1-0.1,0.2-0.2,0.3c-0.3,0.3-0.6,0.7-0.9,1c-0.3,0.4-0.6,0.8-0.9,1.2c-0.2,0.3-0.5,0.6-0.7,0.9c-0.1,0.2-0.2,0.3-0.3,0.5
					c-0.1,0.2-0.3,0.4-0.4,0.6c-0.1,0.2-0.3,0.4-0.4,0.6c-0.2,0.4-0.5,0.8-0.7,1.2c-0.1,0.2-0.3,0.5-0.4,0.8
					c-0.3,0.6-0.6,1.2-0.9,1.9c-0.1,0.2-0.2,0.4-0.2,0.6c-0.1,0.3-0.2,0.6-0.4,0.9c-0.1,0.4-0.3,0.8-0.4,1.2
					c-0.1,0.4-0.2,0.8-0.4,1.3c0,0,0,0.1,0,0.1c-0.1,0.5-0.2,0.9-0.3,1.4v0.1c-0.1,0.4-0.1,0.7-0.2,1.1c-0.3,1.7-0.4,3.3-0.4,5.1
					v465.3c0,0.6,0,1.2,0.1,1.8c0,0.3,0,0.6,0.1,1c0,0.3,0.1,0.5,0.1,0.8c0,0.1,0,0.2,0,0.4c0.1,0.4,0.1,0.7,0.2,1.1
					c0,0,0,0.1,0,0.1c0,0.2,0.1,0.4,0.1,0.7c0,0.1,0.1,0.2,0.1,0.3c0,0.1,0,0.1,0,0.1c0.1,0.3,0.1,0.6,0.2,1c0,0.1,0.1,0.3,0.1,0.4
					c0.1,0.5,0.2,0.9,0.4,1.3c0.1,0.4,0.3,0.9,0.4,1.3c0,0,0,0,0,0.1c0.1,0.2,0.2,0.4,0.2,0.6c0,0,0,0.1,0,0.1
					c0.1,0.2,0.2,0.5,0.3,0.7c0,0,0,0,0,0.1c0.3,0.6,0.6,1.2,0.9,1.8c0.1,0.3,0.3,0.5,0.4,0.8c0.2,0.4,0.5,0.8,0.7,1.2
					c0.1,0.2,0.2,0.4,0.4,0.6c0.1,0.2,0.2,0.4,0.4,0.6c0.1,0.2,0.2,0.3,0.3,0.5c0.2,0.3,0.4,0.6,0.7,0.9c0.3,0.4,0.6,0.8,0.9,1.2
					c0.2,0.3,0.5,0.6,0.7,0.9c0,0,0.1,0.1,0.1,0.1c0.1,0.1,0.2,0.2,0.2,0.3c0,0,0.1,0.1,0.1,0.1c0.3,0.3,0.5,0.6,0.8,0.8l0.4,0.4
					c0.1,0.1,0.3,0.3,0.4,0.4c0,0,0.1,0,0.1,0.1c0.1,0.1,0.2,0.2,0.4,0.3c0.2,0.2,0.5,0.4,0.8,0.7c0.1,0.1,0.2,0.2,0.3,0.2
					c0.3,0.3,0.7,0.6,1,0.8c0.3,0.2,0.5,0.4,0.8,0.6c0,0,0.1,0.1,0.1,0.1c0.2,0.1,0.4,0.3,0.6,0.4c0.3,0.2,0.7,0.5,1.1,0.7
					c0,0,0,0,0.1,0.1l0.7,0.4c0.1,0.1,0.3,0.2,0.4,0.2c0.3,0.2,0.6,0.3,0.8,0.4c0.4,0.2,0.7,0.4,1.1,0.5c0.3,0.1,0.6,0.2,0.8,0.4
					c0.1,0,0.2,0.1,0.3,0.1c0.3,0.1,0.6,0.2,0.9,0.3c0.2,0.1,0.4,0.1,0.6,0.2c0,0,0.1,0,0.1,0.1c0.3,0.1,0.7,0.2,1,0.3
					c0.4,0.1,0.7,0.2,1.1,0.3c0.1,0,0.1,0,0.1,0l0.4,0.1c0.3,0.1,0.7,0.2,1,0.2c0,0,0,0,0.1,0c0.3,0.1,0.6,0.1,0.9,0.1
					c0.2,0.1,0.5,0.1,0.7,0.1C151,762.2,151.5,762.3,152,762.3z"/>
				<path class="st64" d="M155.1,762.5c-0.5,0-1.1,0-1.6,0C154,762.5,154.6,762.5,155.1,762.5z"/>
				
					<linearGradient id="SVGID_2_" gradientUnits="userSpaceOnUse" x1="499.9377" y1="133.1016" x2="499.9377" y2="101.8344" gradientTransform="matrix(4.489659e-011 1 -1 4.489659e-011 1019.4894 -0.779)">
					<stop  offset="0" style="stop-color:#8E5415"/>
					<stop  offset="0.3737" style="stop-color:#8F5517"/>
					<stop  offset="0.5084" style="stop-color:#945B1E"/>
					<stop  offset="0.6043" style="stop-color:#9C6429"/>
					<stop  offset="0.682" style="stop-color:#A7723A"/>
					<stop  offset="0.7484" style="stop-color:#B58350"/>
					<stop  offset="0.8073" style="stop-color:#C7996C"/>
					<stop  offset="0.8592" style="stop-color:#DCB28B"/>
					<stop  offset="0.8942" style="stop-color:#EDC7A5"/>
					<stop  offset="1" style="stop-color:#FFE6C9"/>
				</linearGradient>
				<path class="st65" d="M888.8,762.2c-0.3,0-0.7,0.1-1,0.1c0.2,0,0.5-0.1,0.7-0.1c0.2,0,0.5-0.1,0.7-0.1c0.3,0,0.6-0.1,0.9-0.1
					c0.5-0.1,1-0.2,1.5-0.4c0.4-0.1,0.8-0.2,1.2-0.3c0.3-0.1,0.7-0.2,1-0.3c0.6-0.2,1.2-0.4,1.8-0.7c0.3-0.1,0.5-0.2,0.8-0.4
					c0.4-0.2,0.7-0.3,1.1-0.5c0.3-0.1,0.5-0.3,0.8-0.4c0.2-0.1,0.3-0.1,0.4-0.2c0.3-0.1,0.6-0.3,0.8-0.5c0.4-0.2,0.7-0.4,1.1-0.7
					c0.2-0.1,0.4-0.3,0.6-0.4c0.3-0.2,0.6-0.4,0.9-0.6c0.4-0.3,0.7-0.5,1-0.8c0.1-0.1,0.2-0.1,0.2-0.2c0.3-0.2,0.5-0.4,0.8-0.7
					c0.1-0.1,0.2-0.2,0.4-0.3c0.3-0.3,0.6-0.5,0.9-0.8c0.3-0.3,0.6-0.6,0.9-0.9c0.1-0.1,0.2-0.2,0.2-0.3c0.3-0.3,0.6-0.7,0.8-1
					c0.3-0.4,0.6-0.7,0.9-1.2c0.2-0.3,0.5-0.6,0.7-0.9c0.1-0.2,0.2-0.3,0.4-0.5c0.1-0.2,0.3-0.4,0.4-0.6c0.1-0.2,0.3-0.4,0.4-0.6
					c0.2-0.4,0.5-0.8,0.7-1.2c0.1-0.2,0.3-0.5,0.4-0.8c0.3-0.6,0.6-1.2,0.9-1.8c0.1-0.2,0.2-0.5,0.3-0.8c0.1-0.2,0.2-0.5,0.3-0.8
					c0.2-0.4,0.3-0.9,0.4-1.3c0.1-0.4,0.2-0.9,0.4-1.3c0.1-0.5,0.2-1,0.3-1.5c0.1-0.4,0.1-0.7,0.2-1.1c0.3-1.6,0.4-3.3,0.4-5.1
					V266.6c0-1.7-0.1-3.4-0.4-5.1c0-0.4-0.1-0.7-0.2-1.1c0,0,0,0,0-0.1c-0.1-0.5-0.2-0.9-0.3-1.4c0,0,0-0.1,0-0.1
					c-0.1-0.4-0.2-0.9-0.4-1.3c-0.1-0.4-0.3-0.8-0.4-1.2c-0.1-0.3-0.2-0.6-0.4-0.9c-0.1-0.2-0.2-0.4-0.2-0.6
					c-0.3-0.6-0.6-1.3-0.9-1.9c-0.1-0.2-0.3-0.5-0.4-0.8c-0.2-0.4-0.4-0.8-0.7-1.2c-0.1-0.2-0.2-0.4-0.4-0.6
					c-0.1-0.2-0.3-0.4-0.4-0.6c-0.1-0.2-0.2-0.3-0.4-0.5c-0.2-0.3-0.4-0.6-0.7-0.9c-0.3-0.4-0.6-0.8-0.9-1.2c-0.3-0.3-0.6-0.7-0.8-1
					c-0.1-0.1-0.2-0.2-0.2-0.3c-0.3-0.3-0.6-0.6-0.9-0.9c-0.3-0.3-0.7-0.7-1.1-1c-0.3-0.3-0.7-0.6-1-0.9c-0.1-0.1-0.1-0.1-0.2-0.2
					c-0.4-0.3-0.7-0.6-1-0.8c-0.4-0.3-0.7-0.5-1.1-0.8c-0.1-0.1-0.1-0.1-0.2-0.1c-0.2-0.2-0.5-0.3-0.7-0.5c-0.3-0.2-0.6-0.3-0.8-0.5
					c0,0,0,0,0,0c-0.4-0.2-0.8-0.4-1.2-0.7c0,0-0.1,0-0.1-0.1c-0.4-0.2-0.7-0.4-1.1-0.5c-0.2-0.1-0.5-0.2-0.7-0.3
					c-0.8-0.4-1.5-0.7-2.3-0.9c-0.4-0.1-0.7-0.2-1.1-0.4c-0.5-0.1-0.9-0.3-1.4-0.4c-0.4-0.1-0.9-0.2-1.3-0.3
					c-0.3-0.1-0.6-0.1-0.9-0.2c-0.2-0.1-0.5-0.1-0.7-0.1c-0.5-0.1-1-0.1-1.5-0.2c-0.2,0-0.4,0-0.6-0.1c0.2,0,0.5,0,0.7,0.1
					c0.1,0,0.2,0,0.2,0c0.5,0.1,1,0.1,1.4,0.2c0.6,0.1,1.1,0.2,1.6,0.3c0.8,0.2,1.6,0.3,2.4,0.6c0.8,0.2,1.5,0.5,2.3,0.7
					c0.5,0.2,1,0.4,1.5,0.6c0.5,0.2,1,0.4,1.5,0.6c0.4,0.2,0.8,0.4,1.2,0.6c0.1,0.1,0.1,0.1,0.2,0.1c0.5,0.2,0.9,0.5,1.4,0.8
					c0.4,0.2,0.8,0.5,1.2,0.7c0,0,0.1,0.1,0.1,0.1c0.4,0.3,0.8,0.6,1.2,0.8c0,0,0.1,0.1,0.1,0.1c0.3,0.2,0.7,0.5,1,0.7
					c0.1,0.1,0.2,0.1,0.2,0.2c0.1,0.1,0.2,0.2,0.4,0.3c0.3,0.2,0.6,0.5,0.9,0.7c0.3,0.3,0.6,0.5,0.9,0.8c0.1,0.1,0.2,0.2,0.3,0.2
					c0.1,0.1,0.2,0.2,0.3,0.3c0.2,0.2,0.4,0.4,0.6,0.6c0.9,0.9,1.7,1.8,2.4,2.7c0.3,0.4,0.6,0.7,0.9,1.1c0.1,0.2,0.3,0.4,0.4,0.6
					c0.6,0.9,1.2,1.8,1.7,2.7c0.1,0.2,0.2,0.5,0.4,0.7c1.1,2.1,2,4.4,2.7,6.8c0.1,0.2,0.1,0.5,0.2,0.7c0.1,0.3,0.1,0.5,0.2,0.8
					c0.3,1.3,0.5,2.7,0.6,4.1c0,0.2,0.1,0.5,0.1,0.8c0.1,0.8,0.1,1.7,0.1,2.5v459.1c0,0.9,0,1.7-0.1,2.5c0,0.2-0.1,0.5-0.1,0.7
					c-0.1,1.4-0.4,2.8-0.7,4.2c-0.1,0.2-0.1,0.5-0.2,0.8c0,0.2-0.1,0.4-0.1,0.6c-0.7,2.4-1.6,4.7-2.7,6.9c-0.1,0.2-0.2,0.5-0.4,0.7
					c-0.2,0.5-0.5,0.9-0.8,1.4c-0.1,0.2-0.3,0.4-0.4,0.6c-0.1,0.2-0.3,0.4-0.4,0.7c-0.4,0.6-0.9,1.2-1.3,1.8
					c-0.2,0.2-0.4,0.5-0.6,0.7c-0.3,0.4-0.6,0.8-1,1.1c-0.2,0.2-0.4,0.4-0.6,0.6c-0.4,0.4-0.7,0.7-1.1,1.1c0,0,0,0,0,0
					c-0.7,0.7-1.5,1.4-2.3,2c0,0,0,0-0.1,0c-1.2,1-2.5,1.8-3.9,2.6c-0.4,0.3-0.9,0.5-1.4,0.8c-0.1,0-0.2,0.1-0.2,0.1
					c-0.4,0.2-0.8,0.4-1.2,0.6c-0.5,0.2-1,0.4-1.5,0.6c-0.5,0.2-1,0.4-1.5,0.6c-0.5,0.2-1,0.3-1.5,0.5c0,0-0.1,0-0.1,0
					c-0.5,0.1-1,0.3-1.5,0.4c-0.5,0.1-1,0.2-1.6,0.3C889.9,762,889.3,762.1,888.8,762.2z"/>
				
					<linearGradient id="SVGID_3_" gradientUnits="userSpaceOnUse" x1="763.0574" y1="132.1411" x2="763.1365" y2="132.1411" gradientTransform="matrix(4.489659e-011 1 -1 4.489659e-011 1019.4894 -0.779)">
					<stop  offset="0" style="stop-color:#666666"/>
					<stop  offset="0.421" style="stop-color:#686868"/>
					<stop  offset="0.5726" style="stop-color:#6F6F6F"/>
					<stop  offset="0.6807" style="stop-color:#7A7A7A"/>
					<stop  offset="0.7681" style="stop-color:#8B8B8B"/>
					<stop  offset="0.843" style="stop-color:#A1A1A1"/>
					<stop  offset="0.9092" style="stop-color:#BDBDBD"/>
					<stop  offset="0.9677" style="stop-color:#DCDCDC"/>
					<stop  offset="1" style="stop-color:#F1F1F1"/>
				</linearGradient>
				<path class="st66" d="M887.1,762.3c-0.1,0-0.1,0-0.1,0c0.2,0,0.5-0.1,0.7-0.1c-0.1,0-0.2,0-0.4,0.1
					C887.3,762.3,887.2,762.3,887.1,762.3z"/>
				<path class="st64" d="M883.9,762.5c0.5,0,1.1,0,1.6,0C885,762.5,884.4,762.5,883.9,762.5z"/>
				
					<linearGradient id="SVGID_4_" gradientUnits="userSpaceOnUse" x1="253.5901" y1="895.0175" x2="253.5901" y2="104.9651" gradientTransform="matrix(4.489659e-011 1 -1 4.489659e-011 1019.4894 -0.779)">
					<stop  offset="0" style="stop-color:#FFF1E0"/>
					<stop  offset="7.444170e-003" style="stop-color:#FAEAD7"/>
					<stop  offset="9.209298e-002" style="stop-color:#C09A6F"/>
					<stop  offset="0.1508" style="stop-color:#9C682E"/>
					<stop  offset="0.1783" style="stop-color:#8E5415"/>
					<stop  offset="0.3406" style="stop-color:#C59B6D"/>
					<stop  offset="0.5185" style="stop-color:#FFE6C9"/>
					<stop  offset="0.7414" style="stop-color:#8E5415"/>
					<stop  offset="1" style="stop-color:#DEC6A8"/>
				</linearGradient>
				<path class="st67" d="M124.5,269.7v-3.1c0-1.7,0.1-3.4,0.4-5.1c0.1-0.4,0.1-0.7,0.2-1.1v-0.1c0.1-0.5,0.2-0.9,0.3-1.4
					c0,0,0-0.1,0-0.1c0.1-0.4,0.2-0.9,0.4-1.3c0.1-0.4,0.3-0.8,0.4-1.2c0.1-0.3,0.2-0.6,0.4-0.9c0.1-0.2,0.2-0.4,0.2-0.6
					c0.3-0.6,0.6-1.3,0.9-1.9c0.1-0.2,0.3-0.5,0.4-0.8c0.2-0.4,0.5-0.8,0.7-1.2c0.1-0.2,0.2-0.4,0.4-0.6c0.1-0.2,0.2-0.4,0.4-0.6
					c0.1-0.2,0.2-0.3,0.3-0.5c0.2-0.3,0.4-0.6,0.7-0.9c0.3-0.4,0.6-0.8,0.9-1.2c0.3-0.3,0.6-0.7,0.9-1c0.1-0.1,0.2-0.2,0.2-0.3
					c0.3-0.3,0.6-0.6,0.9-0.9c0.3-0.3,0.7-0.7,1-1c0.3-0.3,0.7-0.6,1-0.9c0.1-0.1,0.1-0.1,0.2-0.2c0.3-0.3,0.7-0.6,1-0.8
					c0.4-0.3,0.7-0.5,1.1-0.8c0.1-0.1,0.1-0.1,0.2-0.1c0.2-0.2,0.5-0.3,0.7-0.5c0.3-0.2,0.6-0.3,0.8-0.5c0,0,0,0,0.1,0
					c0.4-0.2,0.8-0.4,1.2-0.7c0,0,0.1,0,0.1-0.1c0.4-0.2,0.7-0.4,1.1-0.5c0.2-0.1,0.5-0.2,0.7-0.3c0.7-0.4,1.5-0.7,2.3-0.9
					c0.4-0.1,0.7-0.2,1.1-0.4c0.5-0.1,0.9-0.3,1.4-0.4c0.4-0.1,0.9-0.2,1.3-0.3c0.3-0.1,0.6-0.1,0.9-0.2c0.2-0.1,0.5-0.1,0.7-0.1
					c0.5-0.1,1-0.1,1.5-0.2c0.2,0,0.4,0,0.6-0.1c0.3,0,0.6-0.1,0.9-0.1c0.5,0,1-0.1,1.6-0.1h728.8c0.5,0,1,0,1.6,0.1
					c0.3,0,0.6,0,0.9,0.1c0.2,0,0.4,0,0.6,0.1c0.5,0.1,1,0.1,1.5,0.2c0.2,0,0.5,0.1,0.7,0.1c0.3,0,0.6,0.1,0.9,0.2
					c0.4,0.1,0.9,0.2,1.3,0.3c0.5,0.1,0.9,0.3,1.4,0.4c0.4,0.1,0.8,0.2,1.1,0.4c0.8,0.3,1.6,0.6,2.3,0.9c0.2,0.1,0.5,0.2,0.7,0.3
					c0.4,0.2,0.7,0.3,1.1,0.5c0,0,0.1,0,0.1,0.1c0.4,0.2,0.8,0.4,1.2,0.7c0,0,0,0,0,0c0.3,0.2,0.6,0.3,0.8,0.5
					c0.2,0.2,0.5,0.3,0.7,0.5c0.1,0,0.1,0.1,0.2,0.1c0.4,0.2,0.7,0.5,1.1,0.8c0.4,0.3,0.7,0.6,1,0.8c0.1,0.1,0.2,0.1,0.2,0.2
					c0.3,0.3,0.7,0.6,1,0.9c0.4,0.3,0.7,0.7,1.1,1c0.3,0.3,0.6,0.6,0.9,0.9c0.1,0.1,0.2,0.2,0.2,0.3c0.3,0.3,0.6,0.7,0.8,1
					c0.3,0.4,0.6,0.8,0.9,1.2c0.2,0.3,0.5,0.6,0.7,0.9c0.1,0.2,0.2,0.3,0.4,0.5c0.1,0.2,0.3,0.4,0.4,0.6c0.1,0.2,0.3,0.4,0.4,0.6
					c0.2,0.4,0.5,0.8,0.7,1.2c0.1,0.2,0.3,0.5,0.4,0.8c0.3,0.6,0.6,1.2,0.9,1.9c0.1,0.2,0.2,0.4,0.2,0.6c0.1,0.3,0.2,0.6,0.4,0.9
					c0.1,0.4,0.3,0.8,0.4,1.2c0.1,0.4,0.2,0.8,0.4,1.3c0,0,0,0.1,0,0.1c0.1,0.5,0.2,0.9,0.3,1.4c0,0,0,0.1,0,0.1
					c0.1,0.4,0.1,0.7,0.2,1.1c0.3,1.7,0.4,3.3,0.4,5.1v3.1c0-16.9-13.7-30.6-30.6-30.6H155.1C138.2,239.1,124.5,252.8,124.5,269.7z"
					/>
				
					<linearGradient id="SVGID_5_" gradientUnits="userSpaceOnUse" x1="746.4102" y1="895.0175" x2="746.4102" y2="104.9651" gradientTransform="matrix(4.489659e-011 1 -1 4.489659e-011 1019.4894 -0.779)">
					<stop  offset="0" style="stop-color:#FFF1E0"/>
					<stop  offset="7.444170e-003" style="stop-color:#FAEAD7"/>
					<stop  offset="9.209298e-002" style="stop-color:#C09A6F"/>
					<stop  offset="0.1508" style="stop-color:#9C682E"/>
					<stop  offset="0.1783" style="stop-color:#8E5415"/>
					<stop  offset="0.3406" style="stop-color:#C59B6D"/>
					<stop  offset="0.5185" style="stop-color:#FFE6C9"/>
					<stop  offset="0.7414" style="stop-color:#8E5415"/>
					<stop  offset="1" style="stop-color:#DEC6A8"/>
				</linearGradient>
				<path class="st68" d="M883.9,762.5H155.1c-0.3,0-0.6,0-0.9,0h-0.1c-0.2,0-0.4,0-0.6,0c-0.2,0-0.4,0-0.7,0c-0.1,0-0.1,0-0.2,0
					c-0.1,0-0.1,0-0.2,0h-0.1c-0.1,0-0.2,0-0.3,0c-0.5-0.1-1-0.1-1.5-0.2c-0.2,0-0.5-0.1-0.7-0.1c-0.3,0-0.6-0.1-0.9-0.1
					c0,0,0,0-0.1,0c-0.4-0.1-0.7-0.1-1-0.2l-0.4-0.1c-0.1,0-0.1,0-0.1,0c-0.4-0.1-0.7-0.2-1.1-0.3c-0.3-0.1-0.7-0.2-1-0.3
					c0,0-0.1,0-0.1-0.1c-0.2-0.1-0.4-0.1-0.6-0.2c-0.3-0.1-0.6-0.2-0.9-0.3c-0.1-0.1-0.2-0.1-0.3-0.1c-0.3-0.1-0.6-0.2-0.8-0.4
					c-0.4-0.2-0.7-0.3-1.1-0.5c-0.3-0.1-0.5-0.3-0.8-0.4c-0.1-0.1-0.3-0.1-0.4-0.2l-0.7-0.4c0,0-0.1,0-0.1-0.1
					c-0.4-0.2-0.7-0.4-1.1-0.7c-0.2-0.1-0.4-0.3-0.6-0.4c0,0-0.1-0.1-0.1-0.1c-0.3-0.2-0.6-0.4-0.8-0.6c-0.4-0.3-0.7-0.5-1-0.8
					c-0.1-0.1-0.2-0.1-0.3-0.2c-0.2-0.2-0.5-0.4-0.8-0.7c-0.1-0.1-0.3-0.2-0.4-0.3c0,0,0,0-0.1-0.1c-0.1-0.1-0.3-0.3-0.4-0.4
					l-0.4-0.4c-0.3-0.3-0.6-0.6-0.8-0.8c0,0-0.1-0.1-0.1-0.1c-0.1-0.1-0.1-0.2-0.2-0.3c0,0-0.1-0.1-0.1-0.1
					c-0.2-0.3-0.5-0.6-0.7-0.9c-0.3-0.4-0.6-0.7-0.9-1.2c-0.2-0.3-0.5-0.6-0.7-0.9c-0.1-0.2-0.2-0.3-0.3-0.5
					c-0.1-0.2-0.3-0.4-0.4-0.6c-0.1-0.2-0.3-0.4-0.4-0.6c-0.2-0.4-0.5-0.8-0.7-1.2c-0.1-0.2-0.3-0.5-0.4-0.8
					c-0.3-0.6-0.6-1.2-0.9-1.8c0,0,0,0,0-0.1c-0.1-0.2-0.2-0.5-0.3-0.7c0,0,0-0.1,0-0.1c-0.1-0.2-0.2-0.4-0.2-0.6c0,0,0,0,0-0.1
					c-0.1-0.4-0.3-0.9-0.4-1.3c-0.1-0.4-0.2-0.9-0.4-1.3c0-0.1-0.1-0.3-0.1-0.4c-0.1-0.3-0.1-0.6-0.2-1c0-0.1,0-0.1,0-0.1
					c0-0.1,0-0.2-0.1-0.3c0-0.2-0.1-0.4-0.1-0.7c0-0.1,0-0.1,0-0.1c-0.1-0.4-0.1-0.7-0.2-1.1c0-0.1,0-0.2,0-0.4
					c0-0.3-0.1-0.6-0.1-0.8c0-0.3-0.1-0.6-0.1-1c0-0.6-0.1-1.2-0.1-1.8v-3.1c0,16.9,13.7,30.6,30.6,30.6h728.8
					c16.9,0,30.6-13.7,30.6-30.6v3.1c0,1.7-0.1,3.4-0.4,5.1c-0.1,0.4-0.1,0.7-0.2,1.1c-0.1,0.5-0.2,1-0.3,1.5
					c-0.1,0.5-0.2,0.9-0.4,1.3c-0.1,0.4-0.3,0.9-0.4,1.3c-0.1,0.3-0.2,0.5-0.3,0.8c-0.1,0.2-0.2,0.5-0.3,0.8
					c-0.3,0.6-0.6,1.2-0.9,1.8c-0.1,0.3-0.3,0.5-0.4,0.8c-0.2,0.4-0.4,0.8-0.7,1.2c-0.1,0.2-0.2,0.4-0.4,0.6
					c-0.1,0.2-0.3,0.4-0.4,0.6c-0.1,0.2-0.2,0.3-0.4,0.5c-0.2,0.3-0.4,0.6-0.7,0.9c-0.3,0.4-0.6,0.8-0.9,1.2c-0.3,0.3-0.6,0.7-0.8,1
					c-0.1,0.1-0.2,0.2-0.2,0.3c-0.3,0.3-0.6,0.6-0.9,0.9c-0.3,0.3-0.6,0.6-0.9,0.8c-0.1,0.1-0.2,0.2-0.4,0.3
					c-0.2,0.2-0.5,0.4-0.8,0.7c-0.1,0.1-0.2,0.2-0.2,0.2c-0.4,0.3-0.7,0.6-1,0.8c-0.3,0.2-0.6,0.4-0.9,0.6c-0.2,0.1-0.4,0.3-0.6,0.4
					c-0.4,0.2-0.7,0.5-1.1,0.7c-0.3,0.2-0.6,0.3-0.8,0.5c-0.1,0.1-0.3,0.2-0.4,0.2c-0.3,0.2-0.5,0.3-0.8,0.4
					c-0.4,0.2-0.7,0.4-1.1,0.5c-0.3,0.1-0.6,0.2-0.8,0.4c-0.6,0.2-1.2,0.5-1.8,0.7c-0.3,0.1-0.7,0.2-1,0.3c-0.4,0.1-0.8,0.2-1.2,0.3
					c-0.5,0.1-1,0.2-1.5,0.4c-0.3,0.1-0.6,0.1-0.9,0.1c-0.2,0.1-0.5,0.1-0.7,0.1c-0.5,0.1-1,0.1-1.5,0.2c-0.1,0-0.3,0-0.4,0
					c-0.4,0-0.7,0.1-1.1,0.1c-0.2,0-0.4,0-0.6,0h-0.1C884.5,762.5,884.2,762.5,883.9,762.5z"/>
			</g>
			<g>
				
					<linearGradient id="SVGID_6_" gradientUnits="userSpaceOnUse" x1="225.7245" y1="221.8109" x2="774.2756" y2="770.3619" gradientTransform="matrix(4.489659e-011 1 -1 4.489659e-011 1019.4894 -0.779)">
					<stop  offset="0" style="stop-color:#F2F3F4"/>
					<stop  offset="0.4788" style="stop-color:#EDEEEF"/>
					<stop  offset="1" style="stop-color:#E2E2E2"/>
				</linearGradient>
				<rect x="210.2" y="263.9" class="st69" width="626.5" height="470.6"/>
				
					<linearGradient id="SVGID_7_" gradientUnits="userSpaceOnUse" x1="262.3629" y1="496.0864" x2="737.6373" y2="496.0864" gradientTransform="matrix(4.489659e-011 1 -1 4.489659e-011 1019.4894 -0.779)">
					<stop  offset="0" style="stop-color:#F2F3F4"/>
					<stop  offset="0.4788" style="stop-color:#EDEEEF"/>
					<stop  offset="1" style="stop-color:#E2E2E2"/>
				</linearGradient>
				<path class="st70" d="M838.9,735.3V263.1c0-0.8-0.7-1.5-1.5-1.5h-628c-0.8,0-1.5,0.7-1.5,1.5v472.2c0,0.8,0.7,1.5,1.5,1.5h628
					C838.3,736.9,838.9,736.2,838.9,735.3z M210.2,734.5V263.9h626.5v470.6H210.2z"/>
				<linearGradient id="SVGID_8_" gradientUnits="userSpaceOnUse" x1="207.8652" y1="499.2212" x2="838.9409" y2="499.2212">
					<stop  offset="0" style="stop-color:#F2F3F4"/>
					<stop  offset="0.4788" style="stop-color:#EDEEEF"/>
					<stop  offset="1" style="stop-color:#E2E2E2"/>
				</linearGradient>
				<path class="st71" d="M837.4,261.6h-628c-0.8,0-1.5,0.7-1.5,1.5v472.2c0,0.8,0.7,1.5,1.5,1.5h628c0.8,0,1.5-0.7,1.5-1.5V263.1
					C838.9,262.3,838.3,261.6,837.4,261.6z M836.6,734.5H210.2V263.9h626.5V734.5z"/>
			</g>
		</g>
		<g>
			
				<linearGradient id="SVGID_9_" gradientUnits="userSpaceOnUse" x1="485.5274" y1="875.6786" x2="514.4727" y2="846.7333" gradientTransform="matrix(4.489659e-011 1 -1 4.489659e-011 1019.4894 -0.779)">
				<stop  offset="0" style="stop-color:#C6C6C6"/>
				<stop  offset="0.1454" style="stop-color:#DADADA"/>
				<stop  offset="0.3747" style="stop-color:#F5F5F5"/>
				<stop  offset="0.51" style="stop-color:#FFFFFF"/>
				<stop  offset="0.6439" style="stop-color:#F4F4F4"/>
				<stop  offset="0.876" style="stop-color:#D8D8D8"/>
				<stop  offset="1" style="stop-color:#C6C6C6"/>
			</linearGradient>
			<circle class="st72" cx="158.3" cy="499.2" r="20.5"/>
			
				<linearGradient id="SVGID_10_" gradientUnits="userSpaceOnUse" x1="485.4716" y1="846.6776" x2="514.148" y2="875.3539" gradientTransform="matrix(4.489659e-011 1 -1 4.489659e-011 1019.4894 -0.779)">
				<stop  offset="0" style="stop-color:#929292"/>
				<stop  offset="0.1065" style="stop-color:#AFAFAF"/>
				<stop  offset="0.2867" style="stop-color:#DADADA"/>
				<stop  offset="0.4273" style="stop-color:#F5F5F5"/>
				<stop  offset="0.51" style="stop-color:#FFFFFF"/>
				<stop  offset="0.5911" style="stop-color:#F4F4F4"/>
				<stop  offset="0.7323" style="stop-color:#D8D8D8"/>
				<stop  offset="0.9155" style="stop-color:#AAAAAA"/>
				<stop  offset="1" style="stop-color:#929292"/>
			</linearGradient>
			<circle class="st73" cx="158.5" cy="499" r="20.3"/>
			<circle class="st74" cx="158.5" cy="499" r="17.7"/>
			<circle class="st62" cx="158.5" cy="499" r="17.2"/>
		</g>
	</g>
</g>
</svg>
