<?xml version="1.0" encoding="utf-8"?>
<!-- Generator: Adobe Illustrator 19.0.0, SVG Export Plug-In . SVG Version: 6.00 Build 0)  -->
<svg version="1.1" id="Layer_1" xmlns="http://www.w3.org/2000/svg" xmlns:xlink="http://www.w3.org/1999/xlink" x="0px" y="0px"
	 viewBox="-51 86.7 820 547.2" style="enable-background:new -51 86.7 820 547.2;" xml:space="preserve">
<style type="text/css">
	.st0{display:none;}
	.st1{display:none;fill:url(#SVGID_1_);}
	.st2{opacity:0.15;}
	.st3{fill-opacity:0;}
	.st4{opacity:1.639344e-002;enable-background:new    ;}
	.st5{opacity:3.278688e-002;enable-background:new    ;}
	.st6{opacity:4.918033e-002;enable-background:new    ;}
	.st7{opacity:6.557377e-002;enable-background:new    ;}
	.st8{opacity:8.196721e-002;enable-background:new    ;}
	.st9{opacity:9.836066e-002;enable-background:new    ;}
	.st10{opacity:0.1148;enable-background:new    ;}
	.st11{opacity:0.1311;enable-background:new    ;}
	.st12{opacity:0.1475;enable-background:new    ;}
	.st13{opacity:0.1639;enable-background:new    ;}
	.st14{opacity:0.1803;enable-background:new    ;}
	.st15{opacity:0.1967;enable-background:new    ;}
	.st16{opacity:0.2131;enable-background:new    ;}
	.st17{opacity:0.2295;enable-background:new    ;}
	.st18{opacity:0.2459;enable-background:new    ;}
	.st19{opacity:0.2623;enable-background:new    ;}
	.st20{opacity:0.2787;enable-background:new    ;}
	.st21{opacity:0.2951;enable-background:new    ;}
	.st22{opacity:0.3115;enable-background:new    ;}
	.st23{opacity:0.3279;enable-background:new    ;}
	.st24{opacity:0.3443;enable-background:new    ;}
	.st25{opacity:0.3607;enable-background:new    ;}
	.st26{opacity:0.377;enable-background:new    ;}
	.st27{opacity:0.3934;enable-background:new    ;}
	.st28{opacity:0.4098;enable-background:new    ;}
	.st29{opacity:0.4262;enable-background:new    ;}
	.st30{opacity:0.4426;enable-background:new    ;}
	.st31{opacity:0.459;enable-background:new    ;}
	.st32{opacity:0.4754;enable-background:new    ;}
	.st33{opacity:0.4918;enable-background:new    ;}
	.st34{opacity:0.5082;enable-background:new    ;}
	.st35{opacity:0.5246;enable-background:new    ;}
	.st36{opacity:0.541;enable-background:new    ;}
	.st37{opacity:0.5574;enable-background:new    ;}
	.st38{opacity:0.5738;enable-background:new    ;}
	.st39{opacity:0.5902;enable-background:new    ;}
	.st40{opacity:0.6066;enable-background:new    ;}
	.st41{opacity:0.623;enable-background:new    ;}
	.st42{opacity:0.6393;enable-background:new    ;}
	.st43{opacity:0.6557;enable-background:new    ;}
	.st44{opacity:0.6721;enable-background:new    ;}
	.st45{opacity:0.6885;enable-background:new    ;}
	.st46{opacity:0.7049;enable-background:new    ;}
	.st47{opacity:0.7213;enable-background:new    ;}
	.st48{opacity:0.7377;enable-background:new    ;}
	.st49{opacity:0.7541;enable-background:new    ;}
	.st50{opacity:0.7705;enable-background:new    ;}
	.st51{opacity:0.7869;enable-background:new    ;}
	.st52{opacity:0.8033;enable-background:new    ;}
	.st53{opacity:0.8197;enable-background:new    ;}
	.st54{opacity:0.8361;enable-background:new    ;}
	.st55{opacity:0.8525;enable-background:new    ;}
	.st56{opacity:0.8689;enable-background:new    ;}
	.st57{opacity:0.8852;enable-background:new    ;}
	.st58{opacity:0.9016;enable-background:new    ;}
	.st59{opacity:0.918;enable-background:new    ;}
	.st60{opacity:0.9344;enable-background:new    ;}
	.st61{opacity:0.9508;enable-background:new    ;}
	.st62{opacity:0.9672;enable-background:new    ;}
	.st63{opacity:0.9836;enable-background:new    ;}
	.st64{fill:url(#SVGID_2_);}
	.st65{fill:#FFFFFF;}
	.st66{fill:url(#SVGID_3_);}
	.st67{fill:#DFDFDF;}
	.st68{fill:url(#SVGID_4_);}
	.st69{fill:url(#SVGID_5_);}
	.st70{fill:url(#SVGID_6_);}
	.st71{fill:url(#SVGID_7_);}
	.st72{fill:url(#SVGID_8_);}
	.st73{fill:url(#SVGID_9_);}
	.st74{fill:url(#SVGID_10_);}
	.st75{fill:#B6B6B6;}
</style>
<g id="background" class="st0">
</g>
<g id="shadow">
	
		<linearGradient id="SVGID_1_" gradientUnits="userSpaceOnUse" x1="-196.75" y1="386.65" x2="235.75" y2="819.15" gradientTransform="matrix(1 0 0 -1 0 800)">
		<stop  offset="0" style="stop-color:#F2F3F4"/>
		<stop  offset="0.4788" style="stop-color:#EDEEEF"/>
		<stop  offset="1" style="stop-color:#E2E2E2"/>
	</linearGradient>
	<rect x="-206" y="-9.9" class="st1" width="451" height="414"/>
	<g class="st2">
		<path class="st3" d="M730.3,110.4c0.4,0.2,0.8,0.4,1.2,0.6C731.1,110.8,730.7,110.6,730.3,110.4z M-26.8,110.4
			c-0.4,0.2-0.8,0.4-1.2,0.6C-27.6,110.8-27.2,110.6-26.8,110.4z M750.2,600.1v-459c0-18.8-15.3-34.1-34.1-34.1H-12.6
			c-18.8,0-34.1,15.3-34.1,34.1v459c0,18.8,15.3,34.1,34.1,34.1h728.8C735,634.2,750.2,618.9,750.2,600.1z"/>
		<path class="st4" d="M730.6,110.1c0.4,0.2,0.8,0.4,1.2,0.6C731.5,110.5,731,110.3,730.6,110.1z M-26.4,110.1
			c-0.4,0.2-0.8,0.4-1.2,0.6C-27.3,110.5-26.9,110.3-26.4,110.1z M750.6,599.8V140.7c0-18.8-15.3-34.1-34.1-34.1H-12.3
			c-18.8,0-34.1,15.3-34.1,34.1v459.1c0,18.8,15.3,34.1,34.1,34.1h728.8C735.3,633.8,750.6,618.6,750.6,599.8z"/>
		<path class="st5" d="M730.9,109.8c0.4,0.2,0.8,0.4,1.2,0.6C731.8,110.1,731.3,109.9,730.9,109.8z M-26.1,109.8
			c-0.4,0.2-0.8,0.4-1.2,0.6C-27,110.1-26.5,109.9-26.1,109.8z M750.9,599.5V140.4c0-18.8-15.3-34.1-34.1-34.1H-12
			c-18.8,0-34.1,15.3-34.1,34.1v459.1c0,18.8,15.3,34.1,34.1,34.1h728.8C735.6,633.5,750.9,618.2,750.9,599.5z"/>
		<path class="st6" d="M731.2,109.4c0.4,0.2,0.8,0.4,1.2,0.6C732.1,109.8,731.7,109.6,731.2,109.4z M-25.8,109.4
			c-0.4,0.2-0.8,0.4-1.2,0.6C-26.6,109.8-26.2,109.6-25.8,109.4z M751.2,599.1v-459c0-18.8-15.3-34.1-34.1-34.1H-11.7
			c-18.8,0-34.1,15.3-34.1,34.1v459c0,18.8,15.3,34.1,34.1,34.1h728.8C735.9,633.2,751.2,617.9,751.2,599.1z"/>
		<path class="st7" d="M731.6,109.1c0.4,0.2,0.8,0.4,1.2,0.6C732.4,109.5,732,109.3,731.6,109.1z M-25.5,109.1
			c-0.4,0.2-0.8,0.4-1.2,0.6C-26.3,109.5-25.9,109.3-25.5,109.1z M751.5,598.8V139.7c0-18.8-15.3-34.1-34.1-34.1H-11.4
			c-18.8,0-34.1,15.3-34.1,34.1v459.1c0,18.8,15.3,34.1,34.1,34.1h728.8C736.2,632.9,751.5,617.6,751.5,598.8z"/>
		<path class="st8" d="M731.9,108.8c0.4,0.2,0.8,0.4,1.2,0.6C732.7,109.1,732.3,108.9,731.9,108.8z M-25.2,108.8
			c-0.4,0.2-0.8,0.4-1.2,0.6C-26,109.1-25.6,108.9-25.2,108.8z M751.8,598.5V139.4c0-18.8-15.3-34.1-34.1-34.1H-11.1
			c-18.8,0-34.1,15.3-34.1,34.1v459.1c0,18.8,15.3,34.1,34.1,34.1h728.8C736.5,632.5,751.8,617.2,751.8,598.5z"/>
		<path class="st9" d="M732.2,108.4c0.4,0.2,0.8,0.4,1.2,0.6C733,108.8,732.6,108.6,732.2,108.4z M-24.9,108.4
			c-0.4,0.2-0.8,0.4-1.2,0.6C-25.7,108.8-25.3,108.6-24.9,108.4z M752.1,598.1v-459c0-18.8-15.3-34.1-34.1-34.1H-10.8
			c-18.8,0-34.1,15.3-34.1,34.1v459c0,18.8,15.3,34.1,34.1,34.1H718C736.8,632.2,752.1,616.9,752.1,598.1z"/>
		<path class="st10" d="M732.5,108.1c0.4,0.2,0.8,0.4,1.2,0.6C733.3,108.5,732.9,108.3,732.5,108.1z M-24.6,108.1
			c-0.4,0.2-0.8,0.4-1.2,0.6C-25.4,108.5-25,108.3-24.6,108.1z M752.4,597.8V138.7c0-18.8-15.3-34.1-34.1-34.1H-10.5
			c-18.8,0-34.1,15.3-34.1,34.1v459.1c0,18.8,15.3,34.1,34.1,34.1h728.8C737.1,631.9,752.4,616.6,752.4,597.8z"/>
		<path class="st11" d="M732.8,107.8c0.4,0.2,0.8,0.4,1.2,0.6C733.6,108.1,733.2,108,732.8,107.8z M-24.3,107.8
			c-0.4,0.2-0.8,0.4-1.2,0.6C-25.1,108.1-24.7,107.9-24.3,107.8z M752.7,597.5V138.4c0-18.8-15.3-34.1-34.1-34.1H-10.2
			c-18.8,0-34.1,15.3-34.1,34.1v459.1c0,18.8,15.3,34.1,34.1,34.1h728.8C737.4,631.5,752.7,616.2,752.7,597.5z"/>
		<path class="st12" d="M733.1,107.4c0.4,0.2,0.8,0.4,1.2,0.6C733.9,107.8,733.5,107.6,733.1,107.4z M-24,107.4
			c-0.4,0.2-0.8,0.4-1.2,0.6C-24.8,107.8-24.4,107.6-24,107.4z M753,597.1v-459c0-18.8-15.3-34.1-34.1-34.1H-9.9
			c-18.8,0-34.1,15.3-34.1,34.1v459c0,18.8,15.3,34.1,34.1,34.1h728.8C737.7,631.2,753,615.9,753,597.1z"/>
		<path class="st13" d="M733.4,107.1c0.4,0.2,0.8,0.4,1.2,0.6C734.2,107.5,733.8,107.3,733.4,107.1z M-23.7,107.1
			c-0.4,0.2-0.8,0.4-1.2,0.6C-24.5,107.5-24.1,107.3-23.7,107.1z M753.3,596.8V137.7c0-18.8-15.3-34.1-34.1-34.1H-9.6
			c-18.8,0-34.1,15.3-34.1,34.1v459.1c0,18.8,15.3,34.1,34.1,34.1h728.8C738,630.9,753.3,615.6,753.3,596.8z"/>
		<path class="st14" d="M733.7,106.8c0.4,0.2,0.8,0.4,1.2,0.6C734.5,107.1,734.1,107,733.7,106.8z M-23.4,106.8
			c-0.4,0.2-0.8,0.4-1.2,0.6C-24.2,107.1-23.8,106.9-23.4,106.8z M753.6,596.5V137.4c0-18.8-15.3-34.1-34.1-34.1H-9.3
			c-18.8,0-34.1,15.3-34.1,34.1v459.1c0,18.8,15.3,34.1,34.1,34.1h728.8C738.3,630.5,753.6,615.2,753.6,596.5z"/>
		<path class="st15" d="M734,106.4c0.4,0.2,0.8,0.4,1.2,0.6C734.8,106.8,734.4,106.6,734,106.4z M-23.1,106.4
			c-0.4,0.2-0.8,0.4-1.2,0.6C-23.9,106.8-23.5,106.6-23.1,106.4z M753.9,596.1v-459c0-18.8-15.3-34.1-34.1-34.1H-8.9
			c-18.8,0-34.1,15.3-34.1,34.1v459c0,18.8,15.3,34.1,34.1,34.1h728.8C738.7,630.2,753.9,614.9,753.9,596.1z"/>
		<path class="st16" d="M734.3,106.1c0.4,0.2,0.8,0.4,1.2,0.6C735.1,106.5,734.7,106.3,734.3,106.1z M-22.8,106.1
			c-0.4,0.2-0.8,0.4-1.2,0.6C-23.6,106.5-23.2,106.3-22.8,106.1z M754.2,595.8V136.7c0-18.8-15.3-34.1-34.1-34.1H-8.6
			c-18.8,0-34.1,15.3-34.1,34.1v459.1c0,18.8,15.3,34.1,34.1,34.1h728.8C739,629.9,754.2,614.6,754.2,595.8z"/>
		<path class="st17" d="M734.6,105.8c0.4,0.2,0.8,0.4,1.2,0.6C735.4,106.2,735,106,734.6,105.8z M-22.5,105.8
			c-0.4,0.2-0.8,0.4-1.2,0.6C-23.3,106.2-22.9,105.9-22.5,105.8z M754.5,595.5V136.4c0-18.8-15.3-34.1-34.1-34.1H-8.3
			c-18.8,0-34.1,15.3-34.1,34.1v459.1c0,18.8,15.3,34.1,34.1,34.1h728.8C739.3,629.5,754.5,614.3,754.5,595.5z"/>
		<path class="st18" d="M734.9,105.4c0.4,0.2,0.8,0.4,1.2,0.6C735.7,105.8,735.3,105.6,734.9,105.4z M-22.2,105.4
			c-0.4,0.2-0.8,0.4-1.2,0.6C-23,105.8-22.6,105.6-22.2,105.4z M754.8,595.1v-459c0-18.8-15.3-34.1-34.1-34.1H-8
			c-18.8,0-34.1,15.3-34.1,34.1v459c0,18.8,15.3,34.1,34.1,34.1h728.8C739.6,629.2,754.8,613.9,754.8,595.1z"/>
		<path class="st19" d="M735.2,105.1c0.4,0.2,0.8,0.4,1.2,0.6C736.1,105.5,735.6,105.3,735.2,105.1z M-21.8,105.1
			c-0.4,0.2-0.8,0.4-1.2,0.6C-22.7,105.5-22.3,105.3-21.8,105.1z M755.2,594.8V135.7c0-18.8-15.3-34.1-34.1-34.1H-7.7
			c-18.8,0-34.1,15.3-34.1,34.1v459.1c0,18.8,15.3,34.1,34.1,34.1h728.8C739.9,628.9,755.2,613.6,755.2,594.8z"/>
		<path class="st20" d="M735.5,104.8c0.4,0.2,0.8,0.4,1.2,0.6C736.4,105.2,736,105,735.5,104.8z M-21.5,104.8
			c-0.4,0.2-0.8,0.4-1.2,0.6C-22.4,105.2-21.9,104.9-21.5,104.8z M755.5,594.5V135.4c0-18.8-15.3-34.1-34.1-34.1H-7.4
			c-18.8,0-34.1,15.3-34.1,34.1v459.1c0,18.8,15.3,34.1,34.1,34.1h728.8C740.2,628.5,755.5,613.3,755.5,594.5z"/>
		<path class="st21" d="M735.8,104.5c0.4,0.2,0.8,0.4,1.2,0.6C736.7,104.8,736.3,104.6,735.8,104.5z M-21.2,104.5
			c-0.4,0.2-0.8,0.4-1.2,0.6C-22,104.8-21.6,104.6-21.2,104.5z M755.8,594.1v-459c0-18.8-15.3-34.1-34.1-34.1H-7.1
			c-18.8,0-34.1,15.3-34.1,34.1v459c0,18.8,15.3,34.1,34.1,34.1h728.8C740.5,628.2,755.8,612.9,755.8,594.1z"/>
		<path class="st22" d="M736.2,104.1c0.4,0.2,0.8,0.4,1.2,0.6C737,104.5,736.6,104.3,736.2,104.1z M-20.9,104.1
			c-0.4,0.2-0.8,0.4-1.2,0.6C-21.7,104.5-21.3,104.3-20.9,104.1z M756.1,593.8V134.7c0-18.8-15.3-34.1-34.1-34.1H-6.8
			c-18.8,0-34.1,15.3-34.1,34.1v459.1c0,18.8,15.3,34.1,34.1,34.1H722C740.8,627.9,756.1,612.6,756.1,593.8z"/>
		<path class="st23" d="M736.5,103.8c0.4,0.2,0.8,0.4,1.2,0.6C737.3,104.2,736.9,104,736.5,103.8z M-20.6,103.8
			c-0.4,0.2-0.8,0.4-1.2,0.6C-21.4,104.2-21,103.9-20.6,103.8z M756.4,593.5V134.4c0-18.8-15.3-34.1-34.1-34.1H-6.5
			c-18.8,0-34.1,15.3-34.1,34.1v459.1c0,18.8,15.3,34.1,34.1,34.1h728.8C741.1,627.5,756.4,612.3,756.4,593.5z"/>
		<path class="st24" d="M736.8,103.5c0.4,0.2,0.8,0.4,1.2,0.6C737.6,103.8,737.2,103.6,736.8,103.5z M-20.3,103.5
			c-0.4,0.2-0.8,0.4-1.2,0.6C-21.1,103.8-20.7,103.6-20.3,103.5z M756.7,593.1v-459c0-18.8-15.3-34.1-34.1-34.1H-6.2
			c-18.8,0-34.1,15.3-34.1,34.1v459c0,18.8,15.3,34.1,34.1,34.1h728.8C741.4,627.2,756.7,611.9,756.7,593.1z"/>
		<path class="st25" d="M737.1,103.1c0.4,0.2,0.8,0.4,1.2,0.6C737.9,103.5,737.5,103.3,737.1,103.1z M-20,103.1
			c-0.4,0.2-0.8,0.4-1.2,0.6C-20.8,103.5-20.4,103.3-20,103.1z M757,592.8V133.7c0-18.8-15.3-34.1-34.1-34.1H-5.9
			c-18.8,0-34.1,15.3-34.1,34.1v459.1c0,18.8,15.3,34.1,34.1,34.1h728.8C741.7,626.9,757,611.6,757,592.8z"/>
		<path class="st26" d="M737.4,102.8c0.4,0.2,0.8,0.4,1.2,0.6C738.2,103.2,737.8,103,737.4,102.8z M-19.7,102.8
			c-0.4,0.2-0.8,0.4-1.2,0.6C-20.5,103.2-20.1,102.9-19.7,102.8z M757.3,592.5V133.4c0-18.8-15.3-34.1-34.1-34.1H-5.6
			c-18.8,0-34.1,15.3-34.1,34.1v459.1c0,18.8,15.3,34.1,34.1,34.1h728.8C742,626.5,757.3,611.3,757.3,592.5z"/>
		<path class="st27" d="M737.7,102.5c0.4,0.2,0.8,0.4,1.2,0.6C738.5,102.8,738.1,102.6,737.7,102.5z M-19.4,102.5
			c-0.4,0.2-0.8,0.4-1.2,0.6C-20.2,102.8-19.8,102.6-19.4,102.5z M757.6,592.1v-459c0-18.8-15.3-34.1-34.1-34.1H-5.3
			c-18.8,0-34.1,15.3-34.1,34.1v459c0,18.8,15.3,34.1,34.1,34.1h728.8C742.3,626.2,757.6,610.9,757.6,592.1z"/>
		<path class="st28" d="M738,102.1c0.4,0.2,0.8,0.4,1.2,0.6C738.8,102.5,738.4,102.3,738,102.1z M-19.1,102.1
			c-0.4,0.2-0.8,0.4-1.2,0.6C-19.9,102.5-19.5,102.3-19.1,102.1z M757.9,591.8v-459c0-18.8-15.3-34.1-34.1-34.1H-5
			c-18.8,0-34.1,15.3-34.1,34.1v459.1c0,18.8,15.3,34.1,34.1,34.1h728.8C742.6,625.9,757.9,610.6,757.9,591.8z"/>
		<path class="st29" d="M738.3,101.8c0.4,0.2,0.8,0.4,1.2,0.6C739.1,102.2,738.7,102,738.3,101.8z M-18.8,101.8
			c-0.4,0.2-0.8,0.4-1.2,0.6C-19.6,102.2-19.2,102-18.8,101.8z M758.2,591.5V132.4c0-18.8-15.3-34.1-34.1-34.1H-4.7
			c-18.8,0-34.1,15.3-34.1,34.1v459.1c0,18.8,15.3,34.1,34.1,34.1h728.8C742.9,625.5,758.2,610.3,758.2,591.5z"/>
		<path class="st30" d="M738.6,101.5c0.4,0.2,0.8,0.4,1.2,0.6C739.4,101.8,739,101.6,738.6,101.5z M-18.5,101.5
			c-0.4,0.2-0.8,0.4-1.2,0.6C-19.3,101.8-18.9,101.6-18.5,101.5z M758.5,591.1v-459c0-18.8-15.3-34.1-34.1-34.1H-4.3
			c-18.8,0-34.1,15.3-34.1,34.1v459c0,18.8,15.3,34.1,34.1,34.1h728.8C743.3,625.2,758.5,609.9,758.5,591.1z"/>
		<path class="st31" d="M738.9,101.1c0.4,0.2,0.8,0.4,1.2,0.6C739.7,101.5,739.3,101.3,738.9,101.1z M-18.2,101.1
			c-0.4,0.2-0.8,0.4-1.2,0.6C-19,101.5-18.6,101.3-18.2,101.1z M758.8,590.8v-459c0-18.8-15.3-34.1-34.1-34.1H-4
			c-18.8,0-34.1,15.3-34.1,34.1v459.1c0,18.8,15.3,34.1,34.1,34.1h728.8C743.6,624.9,758.8,609.6,758.8,590.8z"/>
		<path class="st32" d="M739.2,100.8c0.4,0.2,0.8,0.4,1.2,0.6C740,101.2,739.6,101,739.2,100.8z M-17.9,100.8
			c-0.4,0.2-0.8,0.4-1.2,0.6C-18.7,101.2-18.3,101-17.9,100.8z M759.1,590.5V131.4c0-18.8-15.3-34.1-34.1-34.1H-3.7
			c-18.8,0-34.1,15.3-34.1,34.1v459.1c0,18.8,15.3,34.1,34.1,34.1h728.8C743.9,624.5,759.1,609.3,759.1,590.5z"/>
		<path class="st33" d="M739.5,100.5c0.4,0.2,0.8,0.4,1.2,0.6C740.3,100.8,739.9,100.6,739.5,100.5z M-17.5,100.5
			c-0.4,0.2-0.8,0.4-1.2,0.6C-18.4,100.8-18,100.6-17.5,100.5z M759.4,590.2V131.1c0-18.8-15.3-34.1-34.1-34.1H-3.4
			c-18.8,0-34.1,15.3-34.1,34.1v459.1c0,18.8,15.3,34.1,34.1,34.1h728.8C744.2,624.2,759.4,608.9,759.4,590.2z"/>
		<path class="st34" d="M739.8,100.1c0.4,0.2,0.8,0.4,1.2,0.6C740.7,100.5,740.2,100.3,739.8,100.1z M-17.2,100.1
			c-0.4,0.2-0.8,0.4-1.2,0.6C-18.1,100.5-17.7,100.3-17.2,100.1z M759.8,589.8v-459c0-18.8-15.3-34.1-34.1-34.1H-3.1
			c-18.8,0-34.1,15.3-34.1,34.1v459.1c0,18.8,15.3,34.1,34.1,34.1h728.8C744.5,623.9,759.8,608.6,759.8,589.8z"/>
		<path class="st35" d="M740.1,99.8c0.4,0.2,0.8,0.4,1.2,0.6C741,100.2,740.6,100,740.1,99.8z M-16.9,99.8c-0.4,0.2-0.8,0.4-1.2,0.6
			C-17.8,100.2-17.3,100-16.9,99.8z M760.1,589.5V130.4c0-18.8-15.3-34.1-34.1-34.1H-2.8c-18.8,0-34.1,15.3-34.1,34.1v459.1
			c0,18.8,15.3,34.1,34.1,34.1H726C744.8,623.5,760.1,608.3,760.1,589.5z"/>
		<path class="st36" d="M740.4,99.5c0.4,0.2,0.8,0.4,1.2,0.6C741.3,99.8,740.9,99.6,740.4,99.5z M-16.6,99.5
			c-0.4,0.2-0.8,0.4-1.2,0.6C-17.4,99.8-17,99.6-16.6,99.5z M760.4,589.2V130.1c0-18.8-15.3-34.1-34.1-34.1H-2.5
			c-18.8,0-34.1,15.3-34.1,34.1v459.1c0,18.8,15.3,34.1,34.1,34.1h728.8C745.1,623.2,760.4,607.9,760.4,589.2z"/>
		<path class="st37" d="M740.8,99.1c0.4,0.2,0.8,0.4,1.2,0.6C741.6,99.5,741.2,99.3,740.8,99.1z M-16.3,99.1
			c-0.4,0.2-0.8,0.4-1.2,0.6C-17.1,99.5-16.7,99.3-16.3,99.1z M760.7,588.8v-459c0-18.8-15.3-34.1-34.1-34.1H-2.2
			c-18.8,0-34.1,15.3-34.1,34.1v459.1c0,18.8,15.3,34.1,34.1,34.1h728.8C745.4,622.9,760.7,607.6,760.7,588.8z"/>
		<path class="st38" d="M741.1,98.8c0.4,0.2,0.8,0.4,1.2,0.6C741.9,99.2,741.5,99,741.1,98.8z M-16,98.8c-0.4,0.2-0.8,0.4-1.2,0.6
			C-16.8,99.2-16.4,99-16,98.8z M761,588.5V129.4c0-18.8-15.3-34.1-34.1-34.1H-1.9c-18.8,0-34.1,15.3-34.1,34.1v459.1
			c0,18.8,15.3,34.1,34.1,34.1h728.8C745.7,622.6,761,607.3,761,588.5z"/>
		<path class="st39" d="M741.4,98.5c0.4,0.2,0.8,0.4,1.2,0.6C742.2,98.8,741.8,98.6,741.4,98.5z M-15.7,98.5
			c-0.4,0.2-0.8,0.4-1.2,0.6C-16.5,98.8-16.1,98.6-15.7,98.5z M761.3,588.2V129.1c0-18.8-15.3-34.1-34.1-34.1H-1.6
			c-18.8,0-34.1,15.3-34.1,34.1v459.1c0,18.8,15.3,34.1,34.1,34.1h728.8C746,622.2,761.3,606.9,761.3,588.2z"/>
		<path class="st40" d="M741.7,98.1c0.4,0.2,0.8,0.4,1.2,0.6C742.5,98.5,742.1,98.3,741.7,98.1z M-15.4,98.1
			c-0.4,0.2-0.8,0.4-1.2,0.6C-16.2,98.5-15.8,98.3-15.4,98.1z M761.6,587.8v-459c0-18.8-15.3-34.1-34.1-34.1H-1.3
			c-18.8,0-34.1,15.3-34.1,34.1v459.1c0,18.8,15.3,34.1,34.1,34.1h728.8C746.3,621.9,761.6,606.6,761.6,587.8z"/>
		<path class="st41" d="M742,97.8c0.4,0.2,0.8,0.4,1.2,0.6C742.8,98.2,742.4,98,742,97.8z M-15.1,97.8c-0.4,0.2-0.8,0.4-1.2,0.6
			C-15.9,98.2-15.5,98-15.1,97.8z M761.9,587.5V128.4c0-18.8-15.3-34.1-34.1-34.1H-1c-18.8,0-34.1,15.3-34.1,34.1v459.1
			c0,18.8,15.3,34.1,34.1,34.1h728.8C746.6,621.6,761.9,606.3,761.9,587.5z"/>
		<path class="st42" d="M742.3,97.5c0.4,0.2,0.8,0.4,1.2,0.6C743.1,97.8,742.7,97.7,742.3,97.5z M-14.8,97.5
			c-0.4,0.2-0.8,0.4-1.2,0.6C-15.6,97.8-15.2,97.6-14.8,97.5z M762.2,587.2V128.1c0-18.8-15.3-34.1-34.1-34.1H-0.7
			c-18.8,0-34.1,15.3-34.1,34.1v459.1c0,18.8,15.3,34.1,34.1,34.1h728.8C746.9,621.2,762.2,605.9,762.2,587.2z"/>
		<path class="st43" d="M742.6,97.1c0.4,0.2,0.8,0.4,1.2,0.6C743.4,97.5,743,97.3,742.6,97.1z M-14.5,97.1c-0.4,0.2-0.8,0.4-1.2,0.6
			C-15.3,97.5-14.9,97.3-14.5,97.1z M762.5,586.8v-459c0-18.8-15.3-34.1-34.1-34.1H-0.4c-18.8,0-34.1,15.3-34.1,34.1v459.1
			c0,18.8,15.3,34.1,34.1,34.1h728.8C747.2,620.9,762.5,605.6,762.5,586.8z"/>
		<path class="st44" d="M742.9,96.8c0.4,0.2,0.8,0.4,1.2,0.6C743.7,97.2,743.3,97,742.9,96.8z M-14.2,96.8c-0.4,0.2-0.8,0.4-1.2,0.6
			C-15,97.2-14.6,97-14.2,96.8z M762.8,586.5V127.4c0-18.8-15.3-34.1-34.1-34.1H-0.1c-18.8,0-34.1,15.3-34.1,34.1v459.1
			c0,18.8,15.3,34.1,34.1,34.1h728.8C747.5,620.6,762.8,605.3,762.8,586.5z"/>
		<path class="st45" d="M743.2,96.5c0.4,0.2,0.8,0.4,1.2,0.6C744,96.8,743.6,96.7,743.2,96.5z M-13.9,96.5c-0.4,0.2-0.8,0.4-1.2,0.6
			C-14.7,96.8-14.3,96.6-13.9,96.5z M763.1,586.2V127.1c0-18.8-15.3-34.1-34.1-34.1H0.3c-18.8,0-34.1,15.3-34.1,34.1v459.1
			c0,18.8,15.3,34.1,34.1,34.1h728.8C747.9,620.2,763.1,604.9,763.1,586.2z"/>
		<path class="st46" d="M743.5,96.1c0.4,0.2,0.8,0.4,1.2,0.6C744.3,96.5,743.9,96.3,743.5,96.1z M-13.6,96.1
			c-0.4,0.2-0.8,0.4-1.2,0.6C-14.4,96.5-14,96.3-13.6,96.1z M763.4,585.8v-459c0-18.8-15.3-34.1-34.1-34.1H0.6
			c-18.8,0-34.1,15.3-34.1,34.1v459.1c0,18.8,15.3,34.1,34.1,34.1h728.8C748.2,619.9,763.4,604.6,763.4,585.8z"/>
		<path class="st47" d="M743.8,95.8c0.4,0.2,0.8,0.4,1.2,0.6C744.6,96.2,744.2,96,743.8,95.8z M-13.3,95.8c-0.4,0.2-0.8,0.4-1.2,0.6
			C-14.1,96.2-13.7,96-13.3,95.8z M763.7,585.5V126.4c0-18.8-15.3-34.1-34.1-34.1H0.9c-18.8,0-34.1,15.3-34.1,34.1v459.1
			c0,18.8,15.3,34.1,34.1,34.1h728.8C748.5,619.6,763.7,604.3,763.7,585.5z"/>
		<path class="st48" d="M744.1,95.5c0.4,0.2,0.8,0.4,1.2,0.6C744.9,95.9,744.5,95.7,744.1,95.5z M-12.9,95.5
			c-0.4,0.2-0.8,0.4-1.2,0.6C-13.8,95.9-13.4,95.6-12.9,95.5z M764,585.2V126.1c0-18.8-15.3-34.1-34.1-34.1H1.2
			c-18.8,0-34.1,15.3-34.1,34.1v459.1c0,18.8,15.3,34.1,34.1,34.1H730C748.8,619.2,764,604,764,585.2z"/>
		<path class="st49" d="M744.4,95.1c0.4,0.2,0.8,0.4,1.2,0.6C745.3,95.5,744.8,95.3,744.4,95.1z M-12.6,95.1
			c-0.4,0.2-0.8,0.4-1.2,0.6C-13.5,95.5-13.1,95.3-12.6,95.1z M764.4,584.8v-459c0-18.8-15.3-34.1-34.1-34.1H1.5
			c-18.8,0-34.1,15.3-34.1,34.1v459.1c0,18.8,15.3,34.1,34.1,34.1h728.8C749.1,618.9,764.4,603.6,764.4,584.8z"/>
		<path class="st50" d="M744.7,94.8c0.4,0.2,0.8,0.4,1.2,0.6C745.6,95.2,745.2,95,744.7,94.8z M-12.3,94.8c-0.4,0.2-0.8,0.4-1.2,0.6
			C-13.2,95.2-12.7,95-12.3,94.8z M764.7,584.5V125.4c0-18.8-15.3-34.1-34.1-34.1H1.8c-18.8,0-34.1,15.3-34.1,34.1v459.1
			c0,18.8,15.3,34.1,34.1,34.1h728.8C749.4,618.6,764.7,603.3,764.7,584.5z"/>
		<path class="st51" d="M745,94.5c0.4,0.2,0.8,0.4,1.2,0.6C745.9,94.9,745.5,94.7,745,94.5z M-12,94.5c-0.4,0.2-0.8,0.4-1.2,0.6
			C-12.8,94.9-12.4,94.6-12,94.5z M765,584.2V125.1c0-18.8-15.3-34.1-34.1-34.1H2.1C-16.7,91-32,106.3-32,125.1v459.1
			c0,18.8,15.3,34.1,34.1,34.1h728.8C749.7,618.2,765,603,765,584.2z"/>
		<path class="st52" d="M745.4,94.2c0.4,0.2,0.8,0.4,1.2,0.6C746.2,94.5,745.8,94.3,745.4,94.2z M-11.7,94.2
			c-0.4,0.2-0.8,0.4-1.2,0.6C-12.5,94.5-12.1,94.3-11.7,94.2z M765.3,583.8v-459c0-18.8-15.3-34.1-34.1-34.1H2.4
			c-18.8,0-34.1,15.3-34.1,34.1v459.1c0,18.8,15.3,34.1,34.1,34.1h728.8C750,617.9,765.3,602.6,765.3,583.8z"/>
		<path class="st53" d="M745.7,93.8c0.4,0.2,0.8,0.4,1.2,0.6C746.5,94.2,746.1,94,745.7,93.8z M-11.4,93.8c-0.4,0.2-0.8,0.4-1.2,0.6
			C-12.2,94.2-11.8,94-11.4,93.8z M765.6,583.5V124.4c0-18.8-15.3-34.1-34.1-34.1H2.7c-18.8,0-34.1,15.3-34.1,34.1v459.1
			c0,18.8,15.3,34.1,34.1,34.1h728.8C750.3,617.6,765.6,602.3,765.6,583.5z"/>
		<path class="st54" d="M746,93.5c0.4,0.2,0.8,0.4,1.2,0.6C746.8,93.9,746.4,93.7,746,93.5z M-11.1,93.5c-0.4,0.2-0.8,0.4-1.2,0.6
			C-11.9,93.9-11.5,93.6-11.1,93.5z M765.9,583.2V124.1c0-18.8-15.3-34.1-34.1-34.1H3c-18.8,0-34.1,15.3-34.1,34.1v459.1
			c0,18.8,15.3,34.1,34.1,34.1h728.8C750.6,617.2,765.9,602,765.9,583.2z"/>
		<path class="st55" d="M746.3,93.2c0.4,0.2,0.8,0.4,1.2,0.6C747.1,93.5,746.7,93.3,746.3,93.2z M-10.8,93.2
			c-0.4,0.2-0.8,0.4-1.2,0.6C-11.6,93.5-11.2,93.3-10.8,93.2z M766.2,582.8v-459c0-18.8-15.3-34.1-34.1-34.1H3.3
			c-18.8,0-34.1,15.3-34.1,34.1v459.1c0,18.8,15.3,34.1,34.1,34.1h728.8C750.9,616.9,766.2,601.6,766.2,582.8z"/>
		<path class="st56" d="M746.6,92.8c0.4,0.2,0.8,0.4,1.2,0.6C747.4,93.2,747,93,746.6,92.8z M-10.5,92.8c-0.4,0.2-0.8,0.4-1.2,0.6
			C-11.3,93.2-10.9,93-10.5,92.8z M766.5,582.5V123.4c0-18.8-15.3-34.1-34.1-34.1H3.6c-18.8,0-34.1,15.3-34.1,34.1v459.1
			c0,18.8,15.3,34.1,34.1,34.1h728.8C751.2,616.6,766.5,601.3,766.5,582.5z"/>
		<path class="st57" d="M746.9,92.5c0.4,0.2,0.8,0.4,1.2,0.6C747.7,92.9,747.3,92.7,746.9,92.5z M-10.2,92.5
			c-0.4,0.2-0.8,0.4-1.2,0.6C-11,92.9-10.6,92.6-10.2,92.5z M766.8,582.2V123.1c0-18.8-15.3-34.1-34.1-34.1H3.9
			c-18.8,0-34.1,15.3-34.1,34.1v459.1c0,18.8,15.3,34.1,34.1,34.1h728.8C751.5,616.2,766.8,601,766.8,582.2z"/>
		<path class="st58" d="M747.2,92.2c0.4,0.2,0.8,0.4,1.2,0.6C748,92.5,747.6,92.3,747.2,92.2z M-9.9,92.2c-0.4,0.2-0.8,0.4-1.2,0.6
			C-10.7,92.5-10.3,92.3-9.9,92.2z M767.1,581.8v-459c0-18.8-15.3-34.1-34.1-34.1H4.2c-18.8,0-34.1,15.3-34.1,34.1v459.1
			c0,18.8,15.3,34.1,34.1,34.1H733C751.8,615.9,767.1,600.6,767.1,581.8z"/>
		<path class="st59" d="M747.5,91.8c0.4,0.2,0.8,0.4,1.2,0.6C748.3,92.2,747.9,92,747.5,91.8z M-9.6,91.8c-0.4,0.2-0.8,0.4-1.2,0.6
			C-10.4,92.2-10,92-9.6,91.8z M767.4,581.5v-459c0-18.8-15.3-34.1-34.1-34.1H4.5c-18.8,0-34.1,15.3-34.1,34.1v459.1
			c0,18.8,15.3,34.1,34.1,34.1h728.8C752.1,615.6,767.4,600.3,767.4,581.5z"/>
		<path class="st60" d="M747.8,91.5c0.4,0.2,0.8,0.4,1.2,0.6C748.6,91.9,748.2,91.7,747.8,91.5z M-9.3,91.5
			c-0.4,0.2-0.8,0.4-1.2,0.6C-10.1,91.9-9.7,91.7-9.3,91.5z M767.7,581.2V122.1c0-18.8-15.3-34.1-34.1-34.1H4.9
			c-18.8,0-34.1,15.3-34.1,34.1v459.1c0,18.8,15.3,34.1,34.1,34.1h728.8C752.5,615.2,767.7,600,767.7,581.2z"/>
		<path class="st61" d="M748.1,91.2c0.4,0.2,0.8,0.4,1.2,0.6C748.9,91.5,748.5,91.3,748.1,91.2z M-9,91.2c-0.4,0.2-0.8,0.4-1.2,0.6
			C-9.8,91.5-9.4,91.3-9,91.2z M768,580.8v-459c0-18.8-15.3-34.1-34.1-34.1H5.2c-18.8,0-34.1,15.3-34.1,34.1v459.1
			c0,18.8,15.3,34.1,34.1,34.1H734C752.8,614.9,768,599.6,768,580.8z"/>
		<path class="st62" d="M748.4,90.8c0.4,0.2,0.8,0.4,1.2,0.6C749.2,91.2,748.8,91,748.4,90.8z M-8.7,90.8c-0.4,0.2-0.8,0.4-1.2,0.6
			C-9.5,91.2-9.1,91-8.7,90.8z M768.3,580.5v-459c0-18.8-15.3-34.1-34.1-34.1H5.5c-18.8,0-34.1,15.3-34.1,34.1v459.1
			c0,18.8,15.3,34.1,34.1,34.1h728.8C753.1,614.6,768.3,599.3,768.3,580.5z"/>
		<path class="st63" d="M748.7,90.5c0.4,0.2,0.8,0.4,1.2,0.6C749.5,90.9,749.1,90.7,748.7,90.5z M-8.3,90.5
			c-0.4,0.2-0.8,0.4-1.2,0.6C-9.2,90.9-8.8,90.7-8.3,90.5z M768.7,580.2V121.1c0-18.8-15.3-34.1-34.1-34.1H5.8
			c-18.8,0-34.1,15.3-34.1,34.1v459.1c0,18.8,15.3,34.1,34.1,34.1h728.8C753.4,614.2,768.7,599,768.7,580.2z"/>
		<path d="M749,90.2c0.4,0.2,0.8,0.4,1.2,0.6C749.9,90.5,749.4,90.3,749,90.2z M-8,90.2c-0.4,0.2-0.8,0.4-1.2,0.6
			C-8.9,90.5-8.5,90.3-8,90.2z M769,579.9V120.8c0-18.8-15.3-34.1-34.1-34.1H6.1C-12.7,86.7-28,102-28,120.8v459.1
			c0,18.8,15.3,34.1,34.1,34.1h728.8C753.7,613.9,769,598.6,769,579.9z"/>
		
			<linearGradient id="SVGID_2_" gradientUnits="userSpaceOnUse" x1="-479.196" y1="-185.2356" x2="69.354" y2="363.3144" gradientTransform="matrix(4.489659e-011 1 -1 4.489659e-011 463.4894 555.221)">
			<stop  offset="0" style="stop-color:#F2F3F4"/>
			<stop  offset="0.4788" style="stop-color:#EDEEEF"/>
			<stop  offset="1" style="stop-color:#E2E2E2"/>
		</linearGradient>
		<rect x="61.2" y="115" class="st64" width="626.5" height="470.6"/>
	</g>
</g>
<g id="object">
	<g>
		<g>
			<g>
				<g>
					<path class="st65" d="M735.8,613.6L735.8,613.6c0.3,0,0.5,0,0.7,0c0.4,0,0.7,0,1.1-0.1c0.2,0,0.4,0,0.6,0c0.1,0,0.2,0,0.2,0
						c0.1,0,0.2,0,0.4-0.1c0.4,0,0.7-0.1,1-0.1c0.6-0.1,1.1-0.2,1.6-0.3s1.1-0.2,1.6-0.3s1-0.3,1.5-0.4h0.1c0.5-0.2,1-0.3,1.5-0.5
						c0.5-0.2,1-0.4,1.5-0.6s1-0.4,1.5-0.6c0.4-0.2,0.8-0.4,1.2-0.6c0.1-0.1,0.1-0.1,0.2-0.1c0.5-0.2,0.9-0.5,1.4-0.8
						c1.4-0.8,2.7-1.7,3.9-2.6c0,0,0,0,0.1,0c0.8-0.6,1.6-1.3,2.3-2l0,0c0.4-0.4,0.7-0.7,1.1-1.1c0.2-0.2,0.4-0.4,0.6-0.6
						c0.3-0.4,0.7-0.7,1-1.1c0.2-0.2,0.4-0.5,0.6-0.7c0.5-0.6,0.9-1.2,1.3-1.8c0.1-0.2,0.3-0.4,0.4-0.7c0.1-0.2,0.3-0.4,0.4-0.6
						c0.3-0.5,0.6-0.9,0.8-1.4c0.1-0.2,0.2-0.5,0.4-0.7c1.2-2.2,2.1-4.5,2.7-6.9c0.1-0.2,0.1-0.4,0.1-0.6c0.1-0.3,0.1-0.5,0.2-0.8
						c0.3-1.4,0.5-2.8,0.7-4.2c0-0.2,0-0.5,0.1-0.7c0.1-0.8,0.1-1.7,0.1-2.5V120.8c0-0.9,0-1.7-0.1-2.5c0-0.3-0.1-0.5-0.1-0.8
						c-0.1-1.4-0.3-2.8-0.6-4.1c-0.1-0.3-0.1-0.5-0.2-0.8c-0.1-0.2-0.1-0.5-0.2-0.7c-0.6-2.4-1.5-4.7-2.7-6.8
						c-0.1-0.2-0.2-0.5-0.4-0.7c-0.5-0.9-1.1-1.8-1.7-2.7c-0.1-0.2-0.3-0.4-0.4-0.6c-0.3-0.4-0.6-0.7-0.9-1.1
						c-0.7-1-1.5-1.8-2.4-2.7c-0.2-0.2-0.4-0.4-0.6-0.6c-0.1-0.1-0.2-0.2-0.3-0.3s-0.2-0.2-0.3-0.2c-0.3-0.3-0.6-0.6-0.9-0.8
						c-0.3-0.2-0.6-0.5-0.9-0.7c-0.1-0.1-0.2-0.2-0.4-0.3c-0.1-0.1-0.1-0.1-0.2-0.2c-0.3-0.2-0.6-0.5-1-0.7c0,0-0.1,0-0.1-0.1
						c-0.4-0.3-0.8-0.6-1.2-0.8c-0.1,0-0.1-0.1-0.1-0.1c-0.4-0.2-0.8-0.5-1.2-0.7c-0.4-0.3-0.9-0.5-1.4-0.8
						c-0.1-0.1-0.2-0.1-0.2-0.1c-0.4-0.2-0.8-0.4-1.2-0.6c-0.5-0.2-1-0.4-1.5-0.6c-0.5-0.2-1-0.4-1.5-0.6c-0.8-0.3-1.5-0.5-2.3-0.7
						s-1.6-0.4-2.4-0.6c-0.6-0.1-1.1-0.2-1.6-0.3s-0.9-0.1-1.4-0.2c-0.1,0-0.2,0-0.2,0c-0.2,0-0.5-0.1-0.7-0.1
						c-0.3,0-0.6-0.1-0.9-0.1c-0.5,0-1-0.1-1.6-0.1H6.1c-0.5,0-1,0-1.6,0.1c-0.3,0-0.6,0-0.9,0.1c-0.2,0-0.5,0-0.7,0.1
						c-0.1,0-0.1,0-0.2,0c-0.5,0.1-1,0.1-1.4,0.2c-0.6,0.1-1.1,0.2-1.6,0.3c-0.8,0.2-1.6,0.3-2.4,0.6c-0.8,0.2-1.6,0.5-2.3,0.7
						c-0.5,0.2-1,0.4-1.5,0.6c-0.5,0.2-1,0.4-1.5,0.6c-0.4,0.2-0.8,0.4-1.2,0.6C-9.3,91-9.4,91-9.4,91c-0.5,0.2-0.9,0.5-1.4,0.8
						c-0.4,0.2-0.8,0.5-1.2,0.7l-0.1,0.1c-0.4,0.3-0.8,0.6-1.2,0.8l-0.1,0.1c-0.3,0.2-0.7,0.5-1,0.7c-0.1,0.1-0.2,0.1-0.2,0.2
						c-0.1,0.1-0.2,0.2-0.4,0.3c-0.3,0.2-0.6,0.5-0.9,0.7c-0.3,0.3-0.6,0.5-0.9,0.8c-0.1,0.1-0.2,0.2-0.3,0.2
						c-0.1,0.1-0.2,0.2-0.3,0.3c-0.2,0.2-0.4,0.4-0.6,0.6c-0.9,0.9-1.7,1.8-2.4,2.7c-0.3,0.4-0.6,0.7-0.8,1.1
						c-0.1,0.2-0.3,0.4-0.4,0.6c-0.6,0.9-1.2,1.8-1.7,2.7l-0.4,0.7c-1.1,2.1-2,4.4-2.7,6.8c-0.1,0.2-0.1,0.5-0.2,0.7
						c-0.1,0.3-0.1,0.5-0.2,0.8c-0.3,1.3-0.5,2.7-0.7,4.1c0,0.2-0.1,0.5-0.1,0.8c-0.1,0.8-0.1,1.7-0.1,2.5v459.1
						c0,0.9,0,1.7,0.1,2.5c0,0.2,0.1,0.5,0.1,0.7c0.1,1.4,0.4,2.8,0.7,4.2c0.1,0.2,0.1,0.5,0.2,0.8c0,0.2,0.1,0.4,0.1,0.6
						c0.6,2.4,1.6,4.7,2.7,6.9l0.4,0.7c0.3,0.5,0.5,0.9,0.8,1.4c0.1,0.2,0.3,0.4,0.4,0.6c0.1,0.2,0.3,0.4,0.4,0.7
						c0.4,0.6,0.9,1.2,1.3,1.8c0.2,0.2,0.4,0.5,0.6,0.7c0.3,0.4,0.7,0.8,1,1.1c0.2,0.2,0.4,0.4,0.6,0.6c0.4,0.4,0.7,0.7,1.1,1.1
						c0,0,0,0,0.1,0c0.7,0.7,1.5,1.4,2.3,2c0,0,0,0,0.1,0c1.2,1,2.5,1.8,3.9,2.6c0.5,0.3,0.9,0.5,1.4,0.8c0.1,0,0.1,0.1,0.2,0.1
						c0.4,0.2,0.8,0.4,1.2,0.6c0.5,0.2,1,0.4,1.5,0.6s1,0.4,1.5,0.6s1,0.3,1.5,0.5h0.1c0.5,0.1,1,0.3,1.5,0.4c0.5,0.1,1,0.2,1.6,0.3
						c0.5,0.1,1.1,0.2,1.6,0.3s1,0.1,1.4,0.2c0.1,0,0.1,0,0.2,0c0.2,0,0.3,0,0.5,0h0.1c0.1,0,0.1,0,0.2,0c0.1,0,0.1,0,0.2,0
						c0.2,0,0.4,0,0.7,0c0.2,0,0.4,0,0.6,0h0.1c0.3,0,0.6,0,0.9,0H735C735.2,613.6,735.5,613.6,735.8,613.6z M-24.5,120.8
						c0-16.9,13.7-30.6,30.6-30.6h728.8c16.9,0,30.6,13.7,30.6,30.6v459.1c0,16.9-13.7,30.6-30.6,30.6H6.1
						c-16.9,0-30.6-13.7-30.6-30.6V120.8z"/>
					<path class="st65" d="M769,579.9V120.8c0-18.8-15.3-34.1-34.1-34.1H6.1C-12.7,86.7-28,102-28,120.8v459.1
						c0,18.8,15.3,34.1,34.1,34.1h728.8C753.7,613.9,769,598.6,769,579.9z M6.1,613.6c-0.3,0-0.6,0-0.9,0H5.1c-0.2,0-0.4,0-0.6,0
						c-0.2,0-0.4,0-0.7,0c-0.1,0-0.1,0-0.2,0c-0.1,0-0.1,0-0.2,0H3.3c-0.2,0-0.3,0-0.5,0c-0.1,0-0.1,0-0.2,0c-0.5-0.1-1-0.1-1.4-0.2
						c-0.5-0.1-1.1-0.2-1.6-0.3s-1.1-0.2-1.6-0.3s-1-0.3-1.5-0.4h-0.1c-0.5-0.1-1-0.3-1.5-0.5c-0.5-0.2-1-0.4-1.5-0.6
						c-0.5-0.2-1-0.4-1.5-0.6c-0.4-0.2-0.8-0.4-1.2-0.6c-0.1-0.1-0.2-0.1-0.2-0.1c-0.5-0.2-0.9-0.5-1.4-0.8
						c-1.4-0.8-2.6-1.7-3.9-2.6c0,0,0,0-0.1,0c-0.8-0.6-1.6-1.3-2.3-2c0,0,0,0-0.1,0c-0.4-0.4-0.7-0.7-1.1-1.1
						c-0.2-0.2-0.4-0.4-0.6-0.6c-0.3-0.4-0.7-0.7-1-1.1c-0.2-0.2-0.4-0.5-0.6-0.7c-0.4-0.6-0.9-1.2-1.3-1.8
						c-0.1-0.2-0.3-0.4-0.4-0.7c-0.1-0.2-0.3-0.4-0.4-0.6c-0.3-0.5-0.6-0.9-0.8-1.4l-0.4-0.7c-1.1-2.2-2.1-4.5-2.7-6.9
						c-0.1-0.2-0.1-0.4-0.1-0.6c-0.1-0.3-0.1-0.5-0.2-0.8c-0.3-1.4-0.5-2.8-0.7-4.2c0-0.2-0.1-0.5-0.1-0.7c-0.1-0.8-0.1-1.7-0.1-2.5
						V120.8c0-0.9,0-1.7,0.1-2.5c0-0.3,0.1-0.5,0.1-0.8c0.1-1.4,0.4-2.8,0.7-4.1c0.1-0.3,0.1-0.5,0.2-0.8c0.1-0.2,0.1-0.5,0.2-0.7
						c0.6-2.4,1.5-4.7,2.7-6.8l0.4-0.7c0.5-0.9,1.1-1.8,1.7-2.7c0.2-0.2,0.3-0.4,0.4-0.6c0.3-0.4,0.6-0.7,0.8-1.1
						c0.8-1,1.6-1.8,2.4-2.7c0.2-0.2,0.4-0.4,0.6-0.6c0.1-0.1,0.2-0.2,0.3-0.3s0.2-0.2,0.3-0.2c0.3-0.3,0.6-0.6,0.9-0.8
						c0.3-0.2,0.6-0.5,0.9-0.7c0.1-0.1,0.2-0.2,0.4-0.3c0.1-0.1,0.1-0.1,0.2-0.2c0.3-0.2,0.6-0.5,1-0.7c0,0,0.1,0,0.1-0.1
						c0.4-0.3,0.8-0.6,1.2-0.8c0.1,0,0.1-0.1,0.1-0.1c0.4-0.2,0.8-0.5,1.2-0.7c0.5-0.3,0.9-0.5,1.4-0.8c0.1-0.1,0.1-0.1,0.2-0.1
						c0.4-0.2,0.8-0.4,1.2-0.6c0.5-0.2,1-0.4,1.5-0.6c0.5-0.2,1-0.4,1.5-0.6c0.7-0.3,1.5-0.5,2.3-0.7s1.6-0.4,2.4-0.6
						c0.5-0.1,1.1-0.2,1.6-0.3s1-0.1,1.4-0.2c0.1,0,0.1,0,0.2,0c0.2,0,0.5-0.1,0.7-0.1c0.3,0,0.6-0.1,0.9-0.1c0.5,0,1-0.1,1.6-0.1
						h728.8c0.5,0,1,0,1.6,0.1c0.3,0,0.6,0,0.9,0.1c0.2,0,0.5,0,0.7,0.1c0.1,0,0.2,0,0.2,0c0.5,0.1,1,0.1,1.4,0.2
						c0.6,0.1,1.1,0.2,1.6,0.3c0.8,0.2,1.6,0.3,2.4,0.6c0.8,0.2,1.5,0.5,2.3,0.7c0.5,0.2,1,0.4,1.5,0.6c0.5,0.2,1,0.4,1.5,0.6
						c0.4,0.2,0.8,0.4,1.2,0.6c0.1,0.1,0.1,0.1,0.2,0.1c0.5,0.2,0.9,0.5,1.4,0.8c0.4,0.2,0.8,0.5,1.2,0.7l0.1,0.1
						c0.4,0.3,0.8,0.6,1.2,0.8l0.1,0.1c0.3,0.2,0.7,0.5,1,0.7c0.1,0.1,0.2,0.1,0.2,0.2c0.1,0.1,0.2,0.2,0.4,0.3
						c0.3,0.2,0.6,0.5,0.9,0.7c0.3,0.3,0.6,0.5,0.9,0.8c0.1,0.1,0.2,0.2,0.3,0.2c0.1,0.1,0.2,0.2,0.3,0.3c0.2,0.2,0.4,0.4,0.6,0.6
						c0.9,0.9,1.7,1.8,2.4,2.7c0.3,0.4,0.6,0.7,0.9,1.1c0.1,0.2,0.3,0.4,0.4,0.6c0.6,0.9,1.2,1.8,1.7,2.7c0.1,0.2,0.2,0.5,0.4,0.7
						c1.1,2.1,2,4.4,2.7,6.8c0.1,0.2,0.1,0.5,0.2,0.7c0.1,0.3,0.1,0.5,0.2,0.8c0.3,1.3,0.5,2.7,0.6,4.1c0,0.2,0.1,0.5,0.1,0.8
						c0.1,0.8,0.1,1.7,0.1,2.5v459.1c0,0.9,0,1.7-0.1,2.5c0,0.2-0.1,0.5-0.1,0.7c-0.1,1.4-0.4,2.8-0.7,4.2c-0.1,0.2-0.1,0.5-0.2,0.8
						c0,0.2-0.1,0.4-0.1,0.6c-0.7,2.4-1.6,4.7-2.7,6.9c-0.1,0.2-0.2,0.5-0.4,0.7c-0.2,0.5-0.5,0.9-0.8,1.4c-0.1,0.2-0.3,0.4-0.4,0.6
						c-0.1,0.2-0.3,0.4-0.4,0.7c-0.4,0.6-0.9,1.2-1.3,1.8c-0.2,0.2-0.4,0.5-0.6,0.7c-0.3,0.4-0.6,0.8-1,1.1
						c-0.2,0.2-0.4,0.4-0.6,0.6c-0.4,0.4-0.7,0.7-1.1,1.1l0,0c-0.7,0.7-1.5,1.4-2.3,2c0,0,0,0-0.1,0c-1.2,1-2.5,1.8-3.9,2.6
						c-0.4,0.3-0.9,0.5-1.4,0.8c-0.1,0-0.2,0.1-0.2,0.1c-0.4,0.2-0.8,0.4-1.2,0.6c-0.5,0.2-1,0.4-1.5,0.6s-1,0.4-1.5,0.6
						s-1,0.3-1.5,0.5h-0.1c-0.5,0.1-1,0.3-1.5,0.4c-0.5,0.1-1,0.2-1.6,0.3s-1.1,0.2-1.6,0.3c-0.3,0-0.7,0.1-1,0.1
						c-0.1,0-0.2,0-0.4,0.1c-0.1,0-0.2,0-0.2,0c-0.2,0-0.4,0-0.6,0c-0.4,0-0.7,0.1-1.1,0.1c-0.2,0-0.4,0-0.6,0h-0.1
						c-0.3,0-0.6,0-0.9,0H6.1V613.6z"/>
					<path class="st65" d="M734.9,90.2H6.1c-16.9,0-30.6,13.7-30.6,30.6v459.1c0,16.9,13.7,30.6,30.6,30.6h728.8
						c16.9,0,30.6-13.8,30.6-30.6V120.8C765.5,103.9,751.8,90.2,734.9,90.2z M689.9,586.4c0,0.9-0.6,1.6-1.5,1.5h-628
						c-0.8,0-1.5-0.7-1.5-1.5V114.2c0-0.8,0.7-1.5,1.5-1.5h628c0.8,0,1.5,0.7,1.5,1.5V586.4z"/>
				</g>
				
					<linearGradient id="SVGID_3_" gradientUnits="userSpaceOnUse" x1="-204.921" y1="491.1474" x2="-204.921" y2="459.8811" gradientTransform="matrix(4.489659e-011 1 -1 4.489659e-011 463.4894 555.221)">
					<stop  offset="0" style="stop-color:#FFE6C9"/>
					<stop  offset="0.1058" style="stop-color:#EDC7A5"/>
					<stop  offset="0.1408" style="stop-color:#DCB28B"/>
					<stop  offset="0.1927" style="stop-color:#C7996C"/>
					<stop  offset="0.2516" style="stop-color:#B58350"/>
					<stop  offset="0.318" style="stop-color:#A7723A"/>
					<stop  offset="0.3957" style="stop-color:#9C6429"/>
					<stop  offset="0.4916" style="stop-color:#945B1E"/>
					<stop  offset="0.6263" style="stop-color:#8F5517"/>
					<stop  offset="1" style="stop-color:#8E5415"/>
				</linearGradient>
				<path class="st66" d="M3,613.4c0.1,0,0.2,0,0.3,0c-0.2,0-0.3,0-0.5,0c-0.1,0-0.1,0-0.2,0c-0.5-0.1-1-0.1-1.4-0.2
					c-0.6-0.1-1.1-0.2-1.6-0.3s-1.1-0.2-1.6-0.3s-1-0.3-1.5-0.4h-0.1c-0.5-0.2-1-0.3-1.5-0.5c-0.5-0.2-1-0.4-1.5-0.6s-1-0.4-1.5-0.6
					c-0.4-0.2-0.8-0.4-1.2-0.6c-0.1-0.1-0.2-0.1-0.2-0.1c-0.5-0.2-0.9-0.5-1.4-0.8c-1.4-0.8-2.6-1.7-3.9-2.6c0,0,0,0-0.1,0
					c-0.8-0.6-1.6-1.3-2.3-2c0,0,0,0-0.1,0c-0.4-0.4-0.7-0.7-1.1-1.1c-0.2-0.2-0.4-0.4-0.6-0.6c-0.3-0.4-0.7-0.7-1-1.1
					c-0.2-0.2-0.4-0.5-0.6-0.7c-0.4-0.6-0.9-1.2-1.3-1.8c-0.1-0.2-0.3-0.4-0.4-0.7c-0.1-0.2-0.3-0.4-0.4-0.6
					c-0.3-0.5-0.6-0.9-0.8-1.4l-0.4-0.7c-1.1-2.2-2.1-4.5-2.7-6.9c-0.1-0.2-0.1-0.4-0.1-0.6c-0.1-0.3-0.1-0.5-0.2-0.8
					c-0.3-1.4-0.5-2.8-0.7-4.2c0-0.2-0.1-0.5-0.1-0.7c-0.1-0.8-0.1-1.7-0.1-2.5V120.8c0-0.9,0-1.7,0.1-2.5c0-0.3,0.1-0.5,0.1-0.8
					c0.1-1.4,0.4-2.8,0.7-4.1c0.1-0.3,0.1-0.5,0.2-0.8c0.1-0.2,0.1-0.5,0.2-0.7c0.6-2.4,1.5-4.7,2.7-6.8l0.4-0.7
					c0.5-0.9,1.1-1.8,1.7-2.7c0.2-0.2,0.3-0.4,0.4-0.6c0.3-0.4,0.6-0.7,0.8-1.1c0.8-1,1.6-1.8,2.4-2.7c0.2-0.2,0.4-0.4,0.6-0.6
					c0.1-0.1,0.2-0.2,0.3-0.3s0.2-0.2,0.3-0.2c0.3-0.3,0.6-0.6,0.9-0.8c0.3-0.2,0.6-0.5,0.9-0.7c0.1-0.1,0.2-0.2,0.4-0.3
					c0.1-0.1,0.1-0.1,0.2-0.2c0.3-0.2,0.6-0.5,1-0.7c0,0,0.1,0,0.1-0.1c0.4-0.3,0.8-0.6,1.2-0.8c0.1,0,0.1-0.1,0.1-0.1
					c0.4-0.2,0.8-0.5,1.2-0.7c0.5-0.3,0.9-0.5,1.4-0.8c0.1-0.1,0.1-0.1,0.2-0.1c0.4-0.2,0.8-0.4,1.2-0.6c0.5-0.2,1-0.4,1.5-0.6
					c0.5-0.2,1-0.4,1.5-0.6c0.7-0.3,1.5-0.5,2.3-0.7s1.6-0.4,2.4-0.6c0.5-0.1,1.1-0.2,1.6-0.3s1-0.1,1.4-0.2c0.1,0,0.1,0,0.2,0
					c0.2,0,0.5-0.1,0.7-0.1c-0.2,0-0.4,0-0.6,0.1c-0.5,0.1-1,0.1-1.5,0.2c-0.2,0-0.5,0.1-0.7,0.1c-0.3,0-0.6,0.1-0.9,0.2
					c-0.4,0.1-0.9,0.2-1.3,0.3c-0.5,0.1-0.9,0.3-1.4,0.4c-0.4,0.1-0.8,0.2-1.1,0.4c-0.8,0.3-1.6,0.6-2.3,0.9
					C-6.5,89.9-6.8,90-7,90.1c-0.4,0.2-0.7,0.3-1.1,0.5c0,0-0.1,0-0.1,0.1c-0.4,0.2-0.8,0.4-1.2,0.7c0,0,0,0-0.1,0
					c-0.3,0.2-0.6,0.3-0.8,0.5s-0.5,0.3-0.7,0.5c-0.1,0-0.1,0.1-0.2,0.1c-0.4,0.2-0.7,0.5-1.1,0.8s-0.7,0.6-1,0.8
					c-0.1,0.1-0.2,0.1-0.2,0.2c-0.4,0.3-0.7,0.6-1,0.9c-0.4,0.3-0.7,0.7-1,1s-0.6,0.6-0.9,0.9c-0.1,0.1-0.1,0.2-0.2,0.3
					c-0.3,0.3-0.6,0.7-0.9,1c-0.3,0.4-0.6,0.8-0.9,1.2c-0.2,0.3-0.5,0.6-0.7,0.9c-0.1,0.2-0.2,0.3-0.3,0.5s-0.3,0.4-0.4,0.6
					c-0.1,0.2-0.3,0.4-0.4,0.6c-0.2,0.4-0.5,0.8-0.7,1.2c-0.1,0.2-0.3,0.5-0.4,0.8c-0.3,0.6-0.6,1.2-0.9,1.9
					c-0.1,0.2-0.2,0.4-0.2,0.6c-0.1,0.3-0.2,0.6-0.4,0.9c-0.1,0.4-0.3,0.8-0.4,1.2c-0.1,0.4-0.2,0.8-0.4,1.3v0.1
					c-0.1,0.5-0.2,0.9-0.3,1.4v0.1c-0.1,0.4-0.1,0.7-0.2,1.1c-0.3,1.7-0.4,3.3-0.4,5.1v465.3c0,0.6,0,1.2,0.1,1.8c0,0.3,0,0.6,0.1,1
					c0,0.3,0.1,0.5,0.1,0.8c0,0.1,0,0.2,0,0.4c0.1,0.4,0.1,0.7,0.2,1.1v0.1c0,0.2,0.1,0.4,0.1,0.7c0,0.1,0.1,0.2,0.1,0.3
					s0,0.1,0,0.1c0.1,0.3,0.1,0.6,0.2,1c0,0.1,0.1,0.3,0.1,0.4c0.1,0.5,0.2,0.9,0.4,1.3c0.1,0.4,0.3,0.9,0.4,1.3c0,0,0,0,0,0.1
					c0.1,0.2,0.2,0.4,0.2,0.6v0.1c0.1,0.2,0.2,0.5,0.3,0.7c0,0,0,0,0,0.1c0.3,0.6,0.6,1.2,0.9,1.8c0.1,0.3,0.3,0.5,0.4,0.8
					c0.2,0.4,0.5,0.8,0.7,1.2c0.1,0.2,0.2,0.4,0.4,0.6c0.1,0.2,0.2,0.4,0.4,0.6c0.1,0.2,0.2,0.3,0.3,0.5c0.2,0.3,0.4,0.6,0.7,0.9
					c0.3,0.4,0.6,0.8,0.9,1.2c0.2,0.3,0.5,0.6,0.7,0.9l0.1,0.1c0.1,0.1,0.2,0.2,0.2,0.3l0.1,0.1c0.3,0.3,0.5,0.6,0.8,0.8l0.4,0.4
					c0.1,0.1,0.3,0.3,0.4,0.4c0,0,0.1,0,0.1,0.1c0.1,0.1,0.2,0.2,0.4,0.3c0.2,0.2,0.5,0.4,0.8,0.7c0.1,0.1,0.2,0.2,0.3,0.2
					c0.3,0.3,0.7,0.6,1,0.8c0.3,0.2,0.5,0.4,0.8,0.6l0.1,0.1c0.2,0.1,0.4,0.3,0.6,0.4c0.3,0.2,0.7,0.5,1.1,0.7c0,0,0,0,0.1,0.1
					l0.7,0.4c0.1,0.1,0.3,0.2,0.4,0.2c0.3,0.2,0.6,0.3,0.8,0.4c0.4,0.2,0.7,0.4,1.1,0.5c0.3,0.1,0.6,0.2,0.8,0.4
					c0.1,0,0.2,0.1,0.3,0.1c0.3,0.1,0.6,0.2,0.9,0.3c0.2,0.1,0.4,0.1,0.6,0.2c0,0,0.1,0,0.1,0.1c0.3,0.1,0.7,0.2,1,0.3
					c0.4,0.1,0.7,0.2,1.1,0.3c0.1,0,0.1,0,0.1,0l0.4,0.1c0.3,0.1,0.7,0.2,1,0.2c0,0,0,0,0.1,0c0.3,0.1,0.6,0.1,0.9,0.1
					c0.2,0.1,0.5,0.1,0.7,0.1C2,613.3,2.5,613.4,3,613.4z"/>
				<path class="st67" d="M6.1,613.6c-0.5,0-1.1,0-1.6,0C5,613.6,5.6,613.6,6.1,613.6z"/>
				
					<linearGradient id="SVGID_4_" gradientUnits="userSpaceOnUse" x1="-205.021" y1="-273.9106" x2="-205.021" y2="-305.1779" gradientTransform="matrix(4.489659e-011 1 -1 4.489659e-011 463.4894 555.221)">
					<stop  offset="0" style="stop-color:#8E5415"/>
					<stop  offset="0.3737" style="stop-color:#8F5517"/>
					<stop  offset="0.5084" style="stop-color:#945B1E"/>
					<stop  offset="0.6043" style="stop-color:#9C6429"/>
					<stop  offset="0.682" style="stop-color:#A7723A"/>
					<stop  offset="0.7484" style="stop-color:#B58350"/>
					<stop  offset="0.8073" style="stop-color:#C7996C"/>
					<stop  offset="0.8592" style="stop-color:#DCB28B"/>
					<stop  offset="0.8942" style="stop-color:#EDC7A5"/>
					<stop  offset="1" style="stop-color:#FFE6C9"/>
				</linearGradient>
				<path class="st68" d="M739.8,613.3c-0.3,0-0.7,0.1-1,0.1c0.2,0,0.5-0.1,0.7-0.1s0.5-0.1,0.7-0.1c0.3,0,0.6-0.1,0.9-0.1
					c0.5-0.1,1-0.2,1.5-0.4c0.4-0.1,0.8-0.2,1.2-0.3c0.3-0.1,0.7-0.2,1-0.3c0.6-0.2,1.2-0.4,1.8-0.7c0.3-0.1,0.5-0.2,0.8-0.4
					c0.4-0.2,0.7-0.3,1.1-0.5c0.3-0.1,0.5-0.3,0.8-0.4c0.2-0.1,0.3-0.1,0.4-0.2c0.3-0.1,0.6-0.3,0.8-0.5c0.4-0.2,0.7-0.4,1.1-0.7
					c0.2-0.1,0.4-0.3,0.6-0.4c0.3-0.2,0.6-0.4,0.9-0.6c0.4-0.3,0.7-0.5,1-0.8c0.1-0.1,0.2-0.1,0.2-0.2c0.3-0.2,0.5-0.4,0.8-0.7
					c0.1-0.1,0.2-0.2,0.4-0.3c0.3-0.3,0.6-0.5,0.9-0.8c0.3-0.3,0.6-0.6,0.9-0.9c0.1-0.1,0.2-0.2,0.2-0.3c0.3-0.3,0.6-0.7,0.8-1
					c0.3-0.4,0.6-0.7,0.9-1.2c0.2-0.3,0.5-0.6,0.7-0.9c0.1-0.2,0.2-0.3,0.4-0.5c0.1-0.2,0.3-0.4,0.4-0.6c0.1-0.2,0.3-0.4,0.4-0.6
					c0.2-0.4,0.5-0.8,0.7-1.2c0.1-0.2,0.3-0.5,0.4-0.8c0.3-0.6,0.6-1.2,0.9-1.8c0.1-0.2,0.2-0.5,0.3-0.8c0.1-0.2,0.2-0.5,0.3-0.8
					c0.2-0.4,0.3-0.9,0.4-1.3c0.1-0.4,0.2-0.9,0.4-1.3c0.1-0.5,0.2-1,0.3-1.5c0.1-0.4,0.1-0.7,0.2-1.1c0.3-1.6,0.4-3.3,0.4-5.1
					V117.7c0-1.7-0.1-3.4-0.4-5.1c0-0.4-0.1-0.7-0.2-1.1c0,0,0,0,0-0.1c-0.1-0.5-0.2-0.9-0.3-1.4v-0.1c-0.1-0.4-0.2-0.9-0.4-1.3
					c-0.1-0.4-0.3-0.8-0.4-1.2c-0.1-0.3-0.2-0.6-0.4-0.9c-0.1-0.2-0.2-0.4-0.2-0.6c-0.3-0.6-0.6-1.3-0.9-1.9
					c-0.1-0.2-0.3-0.5-0.4-0.8c-0.2-0.4-0.4-0.8-0.7-1.2c-0.1-0.2-0.2-0.4-0.4-0.6c-0.1-0.2-0.3-0.4-0.4-0.6
					c-0.1-0.2-0.2-0.3-0.4-0.5c-0.2-0.3-0.4-0.6-0.7-0.9c-0.3-0.4-0.6-0.8-0.9-1.2c-0.3-0.3-0.6-0.7-0.8-1c-0.1-0.1-0.2-0.2-0.2-0.3
					c-0.3-0.3-0.6-0.6-0.9-0.9c-0.3-0.3-0.7-0.7-1.1-1c-0.3-0.3-0.7-0.6-1-0.9c-0.1-0.1-0.1-0.1-0.2-0.2c-0.4-0.3-0.7-0.6-1-0.8
					c-0.4-0.3-0.7-0.5-1.1-0.8c-0.1-0.1-0.1-0.1-0.2-0.1c-0.2-0.2-0.5-0.3-0.7-0.5c-0.3-0.2-0.6-0.3-0.8-0.5l0,0
					c-0.4-0.2-0.8-0.4-1.2-0.7c0,0-0.1,0-0.1-0.1c-0.4-0.2-0.7-0.4-1.1-0.5c-0.2-0.1-0.5-0.2-0.7-0.3c-0.8-0.4-1.5-0.7-2.3-0.9
					c-0.4-0.1-0.7-0.2-1.1-0.4c-0.5-0.1-0.9-0.3-1.4-0.4c-0.4-0.1-0.9-0.2-1.3-0.3c-0.3-0.1-0.6-0.1-0.9-0.2
					c-0.2-0.1-0.5-0.1-0.7-0.1c-0.5-0.1-1-0.1-1.5-0.2c-0.2,0-0.4,0-0.6-0.1c0.2,0,0.5,0,0.7,0.1c0.1,0,0.2,0,0.2,0
					c0.5,0.1,1,0.1,1.4,0.2c0.6,0.1,1.1,0.2,1.6,0.3c0.8,0.2,1.6,0.3,2.4,0.6c0.8,0.2,1.5,0.5,2.3,0.7c0.5,0.2,1,0.4,1.5,0.6
					c0.5,0.2,1,0.4,1.5,0.6c0.4,0.2,0.8,0.4,1.2,0.6c0.1,0.1,0.1,0.1,0.2,0.1c0.5,0.2,0.9,0.5,1.4,0.8c0.4,0.2,0.8,0.5,1.2,0.7
					l0.1,0.1c0.4,0.3,0.8,0.6,1.2,0.8l0.1,0.1c0.3,0.2,0.7,0.5,1,0.7c0.1,0.1,0.2,0.1,0.2,0.2c0.1,0.1,0.2,0.2,0.4,0.3
					c0.3,0.2,0.6,0.5,0.9,0.7c0.3,0.3,0.6,0.5,0.9,0.8c0.1,0.1,0.2,0.2,0.3,0.2c0.1,0.1,0.2,0.2,0.3,0.3c0.2,0.2,0.4,0.4,0.6,0.6
					c0.9,0.9,1.7,1.8,2.4,2.7c0.3,0.4,0.6,0.7,0.9,1.1c0.1,0.2,0.3,0.4,0.4,0.6c0.6,0.9,1.2,1.8,1.7,2.7c0.1,0.2,0.2,0.5,0.4,0.7
					c1.1,2.1,2,4.4,2.7,6.8c0.1,0.2,0.1,0.5,0.2,0.7c0.1,0.3,0.1,0.5,0.2,0.8c0.3,1.3,0.5,2.7,0.6,4.1c0,0.2,0.1,0.5,0.1,0.8
					c0.1,0.8,0.1,1.7,0.1,2.5v459.1c0,0.9,0,1.7-0.1,2.5c0,0.2-0.1,0.5-0.1,0.7c-0.1,1.4-0.4,2.8-0.7,4.2c-0.1,0.2-0.1,0.5-0.2,0.8
					c0,0.2-0.1,0.4-0.1,0.6c-0.7,2.4-1.6,4.7-2.7,6.9c-0.1,0.2-0.2,0.5-0.4,0.7c-0.2,0.5-0.5,0.9-0.8,1.4c-0.1,0.2-0.3,0.4-0.4,0.6
					c-0.1,0.2-0.3,0.4-0.4,0.7c-0.4,0.6-0.9,1.2-1.3,1.8c-0.2,0.2-0.4,0.5-0.6,0.7c-0.3,0.4-0.6,0.8-1,1.1c-0.2,0.2-0.4,0.4-0.6,0.6
					c-0.4,0.4-0.7,0.7-1.1,1.1l0,0c-0.7,0.7-1.5,1.4-2.3,2c0,0,0,0-0.1,0c-1.2,1-2.5,1.8-3.9,2.6c-0.4,0.3-0.9,0.5-1.4,0.8
					c-0.1,0-0.2,0.1-0.2,0.1c-0.4,0.2-0.8,0.4-1.2,0.6c-0.5,0.2-1,0.4-1.5,0.6c-0.5,0.2-1,0.4-1.5,0.6c-0.5,0.2-1,0.3-1.5,0.5h-0.1
					c-0.5,0.1-1,0.3-1.5,0.4s-1,0.2-1.6,0.3C740.9,613.1,740.3,613.2,739.8,613.3z"/>
				
					<linearGradient id="SVGID_5_" gradientUnits="userSpaceOnUse" x1="58.1574" y1="-274.8731" x2="58.2365" y2="-274.8731" gradientTransform="matrix(4.489659e-011 1 -1 4.489659e-011 463.4894 555.221)">
					<stop  offset="0" style="stop-color:#666666"/>
					<stop  offset="0.421" style="stop-color:#686868"/>
					<stop  offset="0.5726" style="stop-color:#6F6F6F"/>
					<stop  offset="0.6807" style="stop-color:#7A7A7A"/>
					<stop  offset="0.7681" style="stop-color:#8B8B8B"/>
					<stop  offset="0.843" style="stop-color:#A1A1A1"/>
					<stop  offset="0.9092" style="stop-color:#BDBDBD"/>
					<stop  offset="0.9677" style="stop-color:#DCDCDC"/>
					<stop  offset="1" style="stop-color:#F1F1F1"/>
				</linearGradient>
				<path class="st69" d="M738.1,613.4C738,613.4,738,613.4,738.1,613.4s0.4-0.1,0.6-0.1c-0.1,0-0.2,0-0.4,0.1
					C738.3,613.4,738.2,613.4,738.1,613.4z"/>
				<path class="st67" d="M734.9,613.6c0.5,0,1.1,0,1.6,0C736,613.6,735.4,613.6,734.9,613.6z"/>
				
					<linearGradient id="SVGID_6_" gradientUnits="userSpaceOnUse" x1="-451.421" y1="487.9894" x2="-451.421" y2="-301.8108" gradientTransform="matrix(4.489659e-011 1 -1 4.489659e-011 463.4894 555.221)">
					<stop  offset="0" style="stop-color:#FFF1E0"/>
					<stop  offset="7.444170e-003" style="stop-color:#FAEAD7"/>
					<stop  offset="9.209298e-002" style="stop-color:#C09A6F"/>
					<stop  offset="0.1508" style="stop-color:#9C682E"/>
					<stop  offset="0.1783" style="stop-color:#8E5415"/>
					<stop  offset="0.3406" style="stop-color:#C59B6D"/>
					<stop  offset="0.5185" style="stop-color:#FFE6C9"/>
					<stop  offset="0.7414" style="stop-color:#8E5415"/>
					<stop  offset="1" style="stop-color:#DEC6A8"/>
				</linearGradient>
				<path class="st70" d="M-24.5,120.8v-3.1c0-1.7,0.1-3.4,0.4-5.1c0.1-0.4,0.1-0.7,0.2-1.1v-0.1c0.1-0.5,0.2-0.9,0.3-1.4v-0.1
					c0.1-0.4,0.2-0.9,0.4-1.3c0.1-0.4,0.3-0.8,0.4-1.2c0.1-0.3,0.2-0.6,0.4-0.9c0.1-0.2,0.2-0.4,0.2-0.6c0.3-0.6,0.6-1.3,0.9-1.9
					c0.1-0.2,0.3-0.5,0.4-0.8c0.2-0.4,0.5-0.8,0.7-1.2c0.1-0.2,0.2-0.4,0.4-0.6c0.1-0.2,0.2-0.4,0.4-0.6c0.1-0.2,0.2-0.3,0.3-0.5
					c0.2-0.3,0.4-0.6,0.7-0.9c0.3-0.4,0.6-0.8,0.9-1.2c0.3-0.3,0.6-0.7,0.9-1c0.1-0.1,0.2-0.2,0.2-0.3c0.3-0.3,0.6-0.6,0.9-0.9
					c0.3-0.3,0.7-0.7,1-1c0.3-0.3,0.7-0.6,1-0.9c0.1-0.1,0.1-0.1,0.2-0.2c0.3-0.3,0.7-0.6,1-0.8c0.4-0.3,0.7-0.5,1.1-0.8
					c0.1-0.1,0.1-0.1,0.2-0.1c0.2-0.2,0.5-0.3,0.7-0.5c0.3-0.2,0.6-0.3,0.8-0.5c0,0,0,0,0.1,0c0.4-0.2,0.8-0.4,1.2-0.7
					c0,0,0.1,0,0.1-0.1c0.4-0.2,0.7-0.4,1.1-0.5c0.2-0.1,0.5-0.2,0.7-0.3c0.7-0.4,1.5-0.7,2.3-0.9c0.4-0.1,0.7-0.2,1.1-0.4
					c0.5-0.1,0.9-0.3,1.4-0.4c0.4-0.1,0.9-0.2,1.3-0.3c0.3-0.1,0.6-0.1,0.9-0.2c0.2-0.1,0.5-0.1,0.7-0.1c0.5-0.1,1-0.1,1.5-0.2
					c0.2,0,0.4,0,0.6-0.1c0.3,0,0.6-0.1,0.9-0.1c0.5,0,1-0.1,1.6-0.1h728.8c0.5,0,1,0,1.6,0.1c0.3,0,0.6,0,0.9,0.1
					c0.2,0,0.4,0,0.6,0.1c0.5,0.1,1,0.1,1.5,0.2c0.2,0,0.5,0.1,0.7,0.1c0.3,0,0.6,0.1,0.9,0.2c0.4,0.1,0.9,0.2,1.3,0.3
					c0.5,0.1,0.9,0.3,1.4,0.4c0.4,0.1,0.8,0.2,1.1,0.4c0.8,0.3,1.6,0.6,2.3,0.9c0.2,0.1,0.5,0.2,0.7,0.3c0.4,0.2,0.7,0.3,1.1,0.5
					c0,0,0.1,0,0.1,0.1c0.4,0.2,0.8,0.4,1.2,0.7l0,0c0.3,0.2,0.6,0.3,0.8,0.5s0.5,0.3,0.7,0.5c0.1,0,0.1,0.1,0.2,0.1
					c0.4,0.2,0.7,0.5,1.1,0.8c0.4,0.3,0.7,0.6,1,0.8c0.1,0.1,0.2,0.1,0.2,0.2c0.3,0.3,0.7,0.6,1,0.9c0.4,0.3,0.7,0.7,1.1,1
					c0.3,0.3,0.6,0.6,0.9,0.9c0.1,0.1,0.2,0.2,0.2,0.3c0.3,0.3,0.6,0.7,0.8,1c0.3,0.4,0.6,0.8,0.9,1.2c0.2,0.3,0.5,0.6,0.7,0.9
					c0.1,0.2,0.2,0.3,0.4,0.5c0.1,0.2,0.3,0.4,0.4,0.6c0.1,0.2,0.3,0.4,0.4,0.6c0.2,0.4,0.5,0.8,0.7,1.2c0.1,0.2,0.3,0.5,0.4,0.8
					c0.3,0.6,0.6,1.2,0.9,1.9c0.1,0.2,0.2,0.4,0.2,0.6c0.1,0.3,0.2,0.6,0.4,0.9c0.1,0.4,0.3,0.8,0.4,1.2c0.1,0.4,0.2,0.8,0.4,1.3
					v0.1c0.1,0.5,0.2,0.9,0.3,1.4v0.1c0.1,0.4,0.1,0.7,0.2,1.1c0.3,1.7,0.4,3.3,0.4,5.1v3.1c0-16.9-13.7-30.6-30.6-30.6H6.1
					C-10.8,90.2-24.5,103.9-24.5,120.8z"/>
				
					<linearGradient id="SVGID_7_" gradientUnits="userSpaceOnUse" x1="41.629" y1="487.9894" x2="41.629" y2="-302.0105" gradientTransform="matrix(4.489659e-011 1 -1 4.489659e-011 463.4894 555.221)">
					<stop  offset="0" style="stop-color:#FFF1E0"/>
					<stop  offset="7.444170e-003" style="stop-color:#FAEAD7"/>
					<stop  offset="9.209298e-002" style="stop-color:#C09A6F"/>
					<stop  offset="0.1508" style="stop-color:#9C682E"/>
					<stop  offset="0.1783" style="stop-color:#8E5415"/>
					<stop  offset="0.3406" style="stop-color:#C59B6D"/>
					<stop  offset="0.5185" style="stop-color:#FFE6C9"/>
					<stop  offset="0.7414" style="stop-color:#8E5415"/>
					<stop  offset="1" style="stop-color:#DEC6A8"/>
				</linearGradient>
				<path class="st71" d="M734.9,613.6H6.1c-0.3,0-0.6,0-0.9,0H5.1c-0.2,0-0.4,0-0.6,0c-0.2,0-0.4,0-0.7,0c-0.1,0-0.1,0-0.2,0
					c-0.1,0-0.1,0-0.2,0H3.3c-0.1,0-0.2,0-0.3,0c-0.5-0.1-1-0.1-1.5-0.2c-0.2,0-0.5-0.1-0.7-0.1c-0.3,0-0.6-0.1-0.9-0.1
					c0,0,0,0-0.1,0c-0.4-0.1-0.7-0.1-1-0.2l-0.4-0.1c-0.1,0-0.1,0-0.1,0c-0.4-0.1-0.7-0.2-1.1-0.3c-0.3-0.1-0.7-0.2-1-0.3
					c0,0-0.1,0-0.1-0.1c-0.2-0.1-0.4-0.1-0.6-0.2c-0.3-0.1-0.6-0.2-0.9-0.3c-0.1-0.1-0.2-0.1-0.3-0.1c-0.3-0.1-0.6-0.2-0.8-0.4
					c-0.4-0.2-0.7-0.3-1.1-0.5c-0.3-0.1-0.5-0.3-0.8-0.4c-0.1-0.1-0.3-0.1-0.4-0.2l-0.7-0.4c0,0-0.1,0-0.1-0.1
					c-0.4-0.2-0.7-0.4-1.1-0.7c-0.2-0.1-0.4-0.3-0.6-0.4l-0.1-0.1c-0.3-0.2-0.6-0.4-0.8-0.6c-0.4-0.3-0.7-0.5-1-0.8
					c-0.1-0.1-0.2-0.1-0.3-0.2c-0.2-0.2-0.5-0.4-0.8-0.7c-0.1-0.1-0.3-0.2-0.4-0.3c0,0,0,0-0.1-0.1c-0.1-0.1-0.3-0.3-0.4-0.4
					l-0.4-0.4c-0.3-0.3-0.6-0.6-0.8-0.8l-0.1-0.1c-0.1-0.1-0.1-0.2-0.2-0.3l-0.1-0.1c-0.2-0.3-0.5-0.6-0.7-0.9
					c-0.3-0.4-0.6-0.7-0.9-1.2c-0.2-0.3-0.5-0.6-0.7-0.9c-0.1-0.2-0.2-0.3-0.3-0.5c-0.1-0.2-0.3-0.4-0.4-0.6
					c-0.1-0.2-0.3-0.4-0.4-0.6c-0.2-0.4-0.5-0.8-0.7-1.2c-0.1-0.2-0.3-0.5-0.4-0.8c-0.3-0.6-0.6-1.2-0.9-1.8c0,0,0,0,0-0.1
					c-0.1-0.2-0.2-0.5-0.3-0.7v-0.1c-0.1-0.2-0.2-0.4-0.2-0.6c0,0,0,0,0-0.1c-0.1-0.4-0.3-0.9-0.4-1.3c-0.1-0.4-0.2-0.9-0.4-1.3
					c0-0.1-0.1-0.3-0.1-0.4c-0.1-0.3-0.1-0.6-0.2-1c0-0.1,0-0.1,0-0.1c0-0.1,0-0.2-0.1-0.3c0-0.2-0.1-0.4-0.1-0.7c0-0.1,0-0.1,0-0.1
					c-0.1-0.4-0.1-0.7-0.2-1.1c0-0.1,0-0.2,0-0.4c0-0.3-0.1-0.6-0.1-0.8c0-0.3-0.1-0.6-0.1-1c0-0.6-0.1-1.2-0.1-1.8v-3.1
					c0,16.9,13.7,30.6,30.6,30.6h728.8c16.9,0,30.6-13.7,30.6-30.6v3.1c0,1.7-0.1,3.4-0.4,5.1c-0.1,0.4-0.1,0.7-0.2,1.1
					c-0.1,0.5-0.2,1-0.3,1.5s-0.2,0.9-0.4,1.3c-0.1,0.4-0.3,0.9-0.4,1.3c-0.1,0.3-0.2,0.5-0.3,0.8c-0.1,0.2-0.2,0.5-0.3,0.8
					c-0.3,0.6-0.6,1.2-0.9,1.8c-0.1,0.3-0.3,0.5-0.4,0.8c-0.2,0.4-0.4,0.8-0.7,1.2c-0.1,0.2-0.2,0.4-0.4,0.6
					c-0.1,0.2-0.3,0.4-0.4,0.6c-0.1,0.2-0.2,0.3-0.4,0.5c-0.2,0.3-0.4,0.6-0.7,0.9c-0.3,0.4-0.6,0.8-0.9,1.2c-0.3,0.3-0.6,0.7-0.8,1
					c-0.1,0.1-0.2,0.2-0.2,0.3c-0.3,0.3-0.6,0.6-0.9,0.9c-0.3,0.3-0.6,0.6-0.9,0.8c-0.1,0.1-0.2,0.2-0.4,0.3
					c-0.2,0.2-0.5,0.4-0.8,0.7c-0.1,0.1-0.2,0.2-0.2,0.2c-0.4,0.3-0.7,0.6-1,0.8c-0.3,0.2-0.6,0.4-0.9,0.6c-0.2,0.1-0.4,0.3-0.6,0.4
					c-0.4,0.2-0.7,0.5-1.1,0.7c-0.3,0.2-0.6,0.3-0.8,0.5c-0.1,0.1-0.3,0.2-0.4,0.2c-0.3,0.2-0.5,0.3-0.8,0.4
					c-0.4,0.2-0.7,0.4-1.1,0.5c-0.3,0.1-0.6,0.2-0.8,0.4c-0.6,0.2-1.2,0.5-1.8,0.7c-0.3,0.1-0.7,0.2-1,0.3c-0.4,0.1-0.8,0.2-1.2,0.3
					c-0.5,0.1-1,0.2-1.5,0.4c-0.3,0.1-0.6,0.1-0.9,0.1c-0.2,0.1-0.5,0.1-0.7,0.1c-0.5,0.1-1,0.1-1.5,0.2c-0.1,0-0.3,0-0.4,0
					c-0.4,0-0.7,0.1-1.1,0.1c-0.2,0-0.4,0-0.6,0h-0.1C735.5,613.6,735.2,613.6,734.9,613.6z"/>
			</g>
			<g>
				<linearGradient id="SVGID_8_" gradientUnits="userSpaceOnUse" x1="58.9" y1="350.3" x2="689.9" y2="350.3">
					<stop  offset="0" style="stop-color:#F2F3F4"/>
					<stop  offset="0.4788" style="stop-color:#EDEEEF"/>
					<stop  offset="1" style="stop-color:#E2E2E2"/>
				</linearGradient>
				<path class="st72" d="M688.4,112.7h-628c-0.8,0-1.5,0.7-1.5,1.5v472.2c0,0.8,0.7,1.5,1.5,1.5h628c0.8,0,1.5-0.7,1.5-1.5V114.2
					C689.9,113.4,689.3,112.7,688.4,112.7z M687.6,585.6H61.2V115h626.5v470.6H687.6z"/>
			</g>
		</g>
		<g>
			
				<linearGradient id="SVGID_9_" gradientUnits="userSpaceOnUse" x1="-219.4167" y1="468.6851" x2="-190.4714" y2="439.7398" gradientTransform="matrix(4.489659e-011 1 -1 4.489659e-011 463.4894 555.221)">
				<stop  offset="0" style="stop-color:#C6C6C6"/>
				<stop  offset="0.1454" style="stop-color:#DADADA"/>
				<stop  offset="0.3747" style="stop-color:#F5F5F5"/>
				<stop  offset="0.51" style="stop-color:#FFFFFF"/>
				<stop  offset="0.6439" style="stop-color:#F4F4F4"/>
				<stop  offset="0.876" style="stop-color:#D8D8D8"/>
				<stop  offset="1" style="stop-color:#C6C6C6"/>
			</linearGradient>
			<circle class="st73" cx="9.3" cy="350.3" r="20.5"/>
			
				<linearGradient id="SVGID_10_" gradientUnits="userSpaceOnUse" x1="-219.4306" y1="439.6798" x2="-190.7542" y2="468.3561" gradientTransform="matrix(4.489659e-011 1 -1 4.489659e-011 463.4894 555.221)">
				<stop  offset="0" style="stop-color:#929292"/>
				<stop  offset="0.1065" style="stop-color:#AFAFAF"/>
				<stop  offset="0.2867" style="stop-color:#DADADA"/>
				<stop  offset="0.4273" style="stop-color:#F5F5F5"/>
				<stop  offset="0.51" style="stop-color:#FFFFFF"/>
				<stop  offset="0.5911" style="stop-color:#F4F4F4"/>
				<stop  offset="0.7323" style="stop-color:#D8D8D8"/>
				<stop  offset="0.9155" style="stop-color:#AAAAAA"/>
				<stop  offset="1" style="stop-color:#929292"/>
			</linearGradient>
			<circle class="st74" cx="9.5" cy="350.1" r="20.3"/>
			<circle class="st75" cx="9.5" cy="350.1" r="17.7"/>
			<circle class="st65" cx="9.5" cy="350.1" r="17.2"/>
		</g>
	</g>
</g>
</svg>
