<?xml version="1.0" encoding="utf-8"?>
<!-- Generator: Adobe Illustrator 19.0.0, SVG Export Plug-In . SVG Version: 6.00 Build 0)  -->
<svg version="1.1" id="Designed_by_Freepik" xmlns="http://www.w3.org/2000/svg" xmlns:xlink="http://www.w3.org/1999/xlink"
	 x="0px" y="0px" viewBox="-288 207.3 265 182" style="enable-background:new -288 207.3 265 182;" xml:space="preserve">
<style type="text/css">
	.st0{fill:#431471;}
	.st1{fill:#F3EAF7;}
	.st2{opacity:0.7;fill:#F3EAF7;enable-background:new    ;}
	.st3{fill:#7B4CAD;}
	.st4{fill:#9F6FD6;}
	.st5{fill:#B28CDE;}
</style>
<g>
	<g>
		
			<image style="overflow:visible;enable-background:new    ;" width="554" height="321" xlink:href="F1699140.png"  transform="matrix(0.4783 0 0 0.4755 -267.9155 267.1319)">
		</image>
	</g>
	<g>
		<path class="st0" d="M-229.2,332.8l119.9-32.5c1-0.3,1.7-1.3,1.5-2.4l-13.6-86.3c-0.4-2.7-3-4.6-5.7-4.2L-249,223.6
			c-2.7,0.4-4.5,2.9-4,5.6l19.7,101C-232.9,332.1-231,333.3-229.2,332.8z"/>
		<polygon class="st1" points="-113,294.2 -126,213.9 -246.9,230.8 -228.7,323.4 		"/>
		<polygon class="st2" points="-221.7,227.3 -201.7,224.4 -162.4,306.7 -182.7,311.8 		"/>
		<polygon class="st2" points="-232,228.7 -226.1,227.9 -186.8,312.8 -192.7,314.3 		"/>
		<path class="st3" d="M-230.8,331.4l123.1-32.7l69.6,32.1v3.4l0,0c-0.1,0.4-0.4,0.8-0.9,1l-128.1,45.7c-2.7,1-5.8,0.5-8.1-1.3
			l-54.9-43.2c-0.5-0.4-0.7-1-0.7-1.5l0,0C-230.8,334.9-230.8,331.4-230.8,331.4z"/>
		<path class="st4" d="M-106.8,298l67.9,31.3c1.1,0.5,1,2.1-0.1,2.5l-128.1,45.7c-2.7,1-5.8,0.5-8.1-1.3l-54.9-43.2
			c-1.2-1-0.8-2.9,0.7-3.3l120-32C-108.5,297.5-107.6,297.6-106.8,298z"/>
		<path class="st5" d="M-105.1,357.3l15.7-5.5c0.3-0.1,0.5-0.4,0.5-0.8v-1c0-0.6-0.6-1-1.1-0.8l-15.7,5.5c-0.3,0.1-0.5,0.4-0.5,0.8
			v1C-106.2,357.1-105.7,357.5-105.1,357.3z"/>
		<g>
			<path class="st3" d="M-106.7,330.5l-36,11c-0.6,0.2-0.7,1-0.2,1.3l18.8,12.5c0.9,0.6,2,0.7,3.1,0.4l35.7-12.5
				c0.5-0.2,0.6-0.9,0.1-1.1l-20.4-11.4C-105.9,330.4-106.3,330.3-106.7,330.5z"/>
			<g>
				<path class="st3" d="M-211.6,330l98.1-26.7c0.6-0.2,1.3-0.1,1.8,0.2l29.3,14.6c0.4,0.2,0.3,0.7-0.1,0.9l-101.4,31.1
					c-0.7,0.2-1.6,0.1-2.2-0.4l-25.8-19.1C-211.9,330.4-211.8,330.1-211.6,330z"/>
				<g>
					<g>
						<path class="st0" d="M-121.5,325.2l6.4-1.7l3.9,2.1v0.7l0,0c0,0.1,0,0.1-0.1,0.1l-5.7,1.8c-0.4,0.1-0.8,0.1-1.2-0.1l-3.2-1.9
							c-0.1-0.1-0.1-0.2-0.1-0.3l0,0L-121.5,325.2L-121.5,325.2z"/>
						<path class="st4" d="M-115.4,323.1l-6,1.8c-0.2,0.1-0.3,0.4-0.1,0.5l3.2,1.9c0.3,0.2,0.8,0.3,1.2,0.1l5.7-1.8
							c0.1,0,0.1-0.2,0-0.2l-3.8-2.3C-115.2,323.1-115.3,323.1-115.4,323.1z"/>
					</g>
					<g>
						<path class="st0" d="M-113.8,322.8l4.9-1.2l4.2,2.1v0.7l0,0c0,0.1,0,0.1-0.1,0.1l-4.4,1.4c-0.4,0.1-0.8,0.1-1.2-0.1l-3.3-1.9
							c-0.1-0.1-0.1-0.2-0.1-0.3l0,0L-113.8,322.8L-113.8,322.8z"/>
						<path class="st4" d="M-109.1,321.2l-4.5,1.4c-0.2,0.1-0.3,0.4-0.1,0.5l3.3,1.9c0.3,0.2,0.8,0.3,1.2,0.1l4.4-1.4
							c0.1,0,0.1-0.2,0-0.2l-4.1-2.3C-108.9,321.2-109,321.2-109.1,321.2z"/>
					</g>
					<g>
						<path class="st0" d="M-114.2,318.7l4.8-1.3l3.6,1.7v0.6l0,0c0,0,0,0.1-0.1,0.1l-4.6,1.4c-0.3,0.1-0.7,0.1-1-0.1l-2.7-1.5
							c-0.1-0.1-0.1-0.1-0.1-0.2l0,0v-0.7H-114.2z"/>
						<path class="st4" d="M-109.5,317.1l-4.5,1.4c-0.2,0.1-0.2,0.3-0.1,0.4l2.7,1.5c0.3,0.2,0.6,0.2,1,0.1l4.6-1.4
							c0.1,0,0.1-0.1,0-0.2l-3.5-1.9C-109.3,317.1-109.4,317.1-109.5,317.1z"/>
					</g>
					<g>
						<path class="st0" d="M-108,316.8l12.1-3.4l3.6,1.6v0.6l0,0c0,0,0,0.1-0.1,0.1l-11.7,3.5c-0.3,0.1-0.7,0.1-0.9-0.1l-2.9-1.5
							c-0.1,0-0.1-0.1-0.1-0.2l0,0L-108,316.8L-108,316.8z"/>
						<path class="st4" d="M-96,313.1l-11.8,3.5c-0.2,0.1-0.2,0.3-0.1,0.4l2.9,1.5c0.3,0.2,0.6,0.2,0.9,0.1l11.7-3.5
							c0.1,0,0.1-0.1,0-0.2L-96,313.1C-95.9,313.1-95.9,313-96,313.1z"/>
					</g>
					<g>
						<path class="st0" d="M-109.8,313.3l8.9-2.3l3.7,1.5v0.6l0,0c0,0,0,0.1-0.1,0.1l-8.7,2.5c-0.3,0.1-0.6,0.1-0.9-0.1l-2.8-1.5
							c-0.1,0-0.1-0.1-0.1-0.2l0,0L-109.8,313.3L-109.8,313.3z"/>
						<path class="st4" d="M-101,310.7l-8.6,2.4c-0.2,0.1-0.2,0.3-0.1,0.4l2.8,1.5c0.3,0.2,0.6,0.2,0.9,0.1l8.7-2.5
							c0.1,0,0.1-0.1,0-0.2L-101,310.7C-100.8,310.7-100.9,310.7-101,310.7z"/>
					</g>
					<g>
						<path class="st0" d="M-120.4,320.6l4.8-1.3l3.6,1.7v0.6l0,0c0,0,0,0.1-0.1,0.1l-4.6,1.4c-0.3,0.1-0.7,0.1-1-0.1l-2.6-1.5
							c-0.1-0.1-0.1-0.1-0.1-0.2l0,0L-120.4,320.6L-120.4,320.6z"/>
						<path class="st4" d="M-115.8,319l-4.4,1.4c-0.2,0.1-0.2,0.3-0.1,0.4l2.6,1.5c0.3,0.2,0.6,0.2,1,0.1l4.6-1.4
							c0.1,0,0.1-0.1,0-0.2l-3.5-1.9C-115.6,319-115.7,319-115.8,319z"/>
					</g>
					<g>
						<path class="st0" d="M-126.7,322.4l4.9-1.3l3.4,1.7v0.6l0,0c0,0,0,0.1-0.1,0.1l-4.5,1.3c-0.3,0.1-0.7,0.1-1-0.1l-2.6-1.5
							c-0.1-0.1-0.1-0.1-0.1-0.2l0,0L-126.7,322.4L-126.7,322.4z"/>
						<path class="st4" d="M-122,320.9l-4.5,1.4c-0.2,0.1-0.2,0.3-0.1,0.4l2.6,1.5c0.3,0.2,0.6,0.2,1,0.1l4.5-1.3
							c0.1,0,0.1-0.1,0-0.2l-3.3-1.9C-121.8,320.8-121.9,320.8-122,320.9z"/>
					</g>
					<g>
						<path class="st0" d="M-133.1,324.3l4.9-1.3l3.4,1.7v0.6l0,0c0,0,0,0.1-0.1,0.1l-4.5,1.3c-0.3,0.1-0.7,0.1-1-0.1l-2.6-1.5
							c-0.1-0.1-0.1-0.1-0.1-0.2l0,0L-133.1,324.3L-133.1,324.3z"/>
						<path class="st4" d="M-128.4,322.8l-4.5,1.4c-0.2,0.1-0.2,0.3-0.1,0.4l2.6,1.5c0.3,0.2,0.6,0.2,1,0.1l4.5-1.3
							c0.1,0,0.1-0.1,0-0.2l-3.3-1.9C-128.2,322.7-128.3,322.7-128.4,322.8z"/>
					</g>
					<g>
						<path class="st0" d="M-139.7,326.3l4.9-1.3l3.4,1.7v0.6l0,0c0,0,0,0.1-0.1,0.1l-4.5,1.3c-0.3,0.1-0.7,0.1-1-0.1l-2.6-1.5
							c-0.1-0.1-0.1-0.1-0.1-0.2l0,0L-139.7,326.3L-139.7,326.3z"/>
						<path class="st4" d="M-135,324.7l-4.5,1.4c-0.2,0.1-0.2,0.3-0.1,0.4l2.6,1.5c0.3,0.2,0.6,0.2,1,0.1l4.5-1.3
							c0.1,0,0.1-0.1,0-0.2l-3.3-1.9C-134.8,324.7-134.9,324.7-135,324.7z"/>
					</g>
					<g>
						<path class="st0" d="M-146.6,328.3l5-1.3l3.5,1.8v0.6l0,0c0,0,0,0.1-0.1,0.1l-4.7,1.4c-0.3,0.1-0.7,0.1-1-0.1l-2.6-1.7
							c-0.1-0.1-0.1-0.1-0.1-0.2l0,0L-146.6,328.3L-146.6,328.3z"/>
						<path class="st4" d="M-141.8,326.7l-4.6,1.4c-0.2,0.1-0.2,0.3-0.1,0.4l2.6,1.7c0.3,0.2,0.7,0.2,1,0.1l4.7-1.4
							c0.1,0,0.1-0.2,0-0.2l-3.4-2C-141.6,326.7-141.7,326.6-141.8,326.7z"/>
					</g>
					<g>
						<path class="st0" d="M-153.7,330.4l5.4-1.4l3.4,1.8v0.6l0,0c0,0,0,0.1-0.1,0.1l-5.1,1.5c-0.3,0.1-0.7,0.1-1-0.1l-2.6-1.7
							c-0.1-0.1-0.1-0.1-0.1-0.2l0,0v-0.6H-153.7z"/>
						<path class="st4" d="M-148.4,328.7l-5.1,1.5c-0.2,0.1-0.2,0.3-0.1,0.4l2.6,1.7c0.3,0.2,0.7,0.2,1,0.1l5.1-1.5
							c0.1,0,0.1-0.2,0-0.2l-3.3-2C-148.3,328.7-148.4,328.7-148.4,328.7z"/>
					</g>
					<g>
						<path class="st0" d="M-160.7,332.5l5.4-1.4l3.4,1.8v0.6l0,0c0,0,0,0.1-0.1,0.1l-5.2,1.5c-0.3,0.1-0.7,0.1-1-0.1l-2.5-1.7
							c-0.1-0.1-0.1-0.1-0.1-0.2l0,0v-0.6H-160.7z"/>
						<path class="st4" d="M-155.5,330.7l-5.1,1.5c-0.2,0.1-0.2,0.3-0.1,0.4l2.5,1.7c0.3,0.2,0.7,0.2,1,0.1l5.2-1.5
							c0.1,0,0.1-0.2,0-0.2l-3.3-2C-155.3,330.7-155.4,330.7-155.5,330.7z"/>
					</g>
					<g>
						<path class="st0" d="M-167.7,334.5l5.6-1.5l3.3,2v0.6l0,0c0,0,0,0.1-0.1,0.1l-5.1,1.6c-0.3,0.1-0.7,0.1-1-0.1l-2.6-1.8
							c-0.1-0.1-0.1-0.1-0.1-0.2l0,0V334.5z"/>
						<path class="st4" d="M-162.3,332.7l-5.3,1.6c-0.2,0.1-0.2,0.3-0.1,0.4l2.6,1.8c0.3,0.2,0.7,0.2,1,0.1l5.2-1.6
							c0.1,0,0.1-0.2,0-0.2l-3.2-2.1C-162.1,332.7-162.2,332.7-162.3,332.7z"/>
					</g>
					<g>
						<path class="st0" d="M-175.3,336.8l6-1.5l3.3,1.9v0.6l0,0c0,0,0,0.1-0.1,0.1l-5.5,1.7c-0.3,0.1-0.7,0.1-1-0.1l-2.6-1.8
							c-0.1-0.1-0.1-0.1-0.1-0.2l0,0C-175.3,337.5-175.3,336.8-175.3,336.8z"/>
						<path class="st4" d="M-169.4,334.9l-5.7,1.7c-0.2,0.1-0.2,0.3-0.1,0.4l2.6,1.8c0.3,0.2,0.7,0.2,1,0.1l5.5-1.7
							c0.1,0,0.1-0.2,0-0.2l-3.1-2.1C-169.2,334.9-169.3,334.9-169.4,334.9z"/>
					</g>
					<g>
						<path class="st0" d="M-116,315.1l4.9-1.3l3.6,1.7v0.6l0,0c0,0,0,0.1-0.1,0.1l-4.6,1.4c-0.3,0.1-0.7,0.1-1-0.1l-2.8-1.5
							c-0.1-0.1-0.1-0.1-0.1-0.2l0,0v-0.7H-116z"/>
						<path class="st4" d="M-111.2,313.5l-4.6,1.4c-0.2,0.1-0.2,0.3-0.1,0.4l2.8,1.5c0.3,0.2,0.6,0.2,1,0.1l4.6-1.4
							c0.1,0,0.1-0.1,0-0.2l-3.5-1.9C-111,313.5-111.1,313.5-111.2,313.5z"/>
					</g>
					<g>
						<path class="st0" d="M-122.1,317l4.8-1.3l3.6,1.7v0.6l0,0c0,0,0,0.1-0.1,0.1l-4.6,1.4c-0.3,0.1-0.7,0.1-1-0.1l-2.6-1.5
							c-0.1-0.1-0.1-0.1-0.1-0.2l0,0L-122.1,317L-122.1,317z"/>
						<path class="st4" d="M-117.5,315.4l-4.4,1.4c-0.2,0.1-0.2,0.3-0.1,0.4l2.6,1.5c0.3,0.2,0.6,0.2,1,0.1l4.6-1.4
							c0.1,0,0.1-0.1,0-0.2l-3.5-1.9C-117.4,315.4-117.4,315.4-117.5,315.4z"/>
					</g>
					<g>
						<path class="st0" d="M-128.4,318.9l4.9-1.3l3.4,1.7v0.6l0,0c0,0,0,0.1-0.1,0.1l-4.5,1.3c-0.3,0.1-0.7,0.1-1-0.1l-2.6-1.5
							c-0.1-0.1-0.1-0.1-0.1-0.2l0,0L-128.4,318.9L-128.4,318.9z"/>
						<path class="st4" d="M-123.7,317.3l-4.5,1.4c-0.2,0.1-0.2,0.3-0.1,0.4l2.6,1.5c0.3,0.2,0.6,0.2,1,0.1l4.5-1.3
							c0.1,0,0.1-0.1,0-0.2l-3.3-1.9C-123.5,317.3-123.6,317.3-123.7,317.3z"/>
					</g>
					<g>
						<path class="st0" d="M-134.7,320.6l4.9-1.3l3.4,1.7v0.6l0,0c0,0,0,0.1-0.1,0.1l-4.5,1.3c-0.3,0.1-0.7,0.1-1-0.1l-2.6-1.5
							c-0.1-0.1-0.1-0.1-0.1-0.2l0,0L-134.7,320.6L-134.7,320.6z"/>
						<path class="st4" d="M-130,319.1l-4.5,1.4c-0.2,0.1-0.2,0.3-0.1,0.4l2.6,1.5c0.3,0.2,0.6,0.2,1,0.1l4.5-1.3
							c0.1,0,0.1-0.1,0-0.2l-3.3-1.9C-129.8,319.1-129.9,319-130,319.1z"/>
					</g>
					<g>
						<path class="st0" d="M-141,322.5l4.9-1.3l3.4,1.7v0.6l0,0c0,0,0,0.1-0.1,0.1l-4.5,1.3c-0.3,0.1-0.7,0.1-1-0.1l-2.6-1.5
							c-0.1-0.1-0.1-0.1-0.1-0.2l0,0L-141,322.5L-141,322.5z"/>
						<path class="st4" d="M-136.3,321l-4.5,1.4c-0.2,0.1-0.2,0.3-0.1,0.4l2.6,1.5c0.3,0.2,0.6,0.2,1,0.1l4.5-1.3
							c0.1,0,0.1-0.1,0-0.2l-3.3-1.9C-136.2,320.9-136.3,320.9-136.3,321z"/>
					</g>
					<g>
						<path class="st0" d="M-147.7,324.3l5-1.3l3.5,1.8v0.6l0,0c0,0,0,0.1-0.1,0.1l-4.7,1.4c-0.3,0.1-0.7,0.1-1-0.1l-2.6-1.7
							c-0.1-0.1-0.1-0.1-0.1-0.2l0,0L-147.7,324.3L-147.7,324.3z"/>
						<path class="st4" d="M-142.9,322.7l-4.6,1.4c-0.2,0.1-0.2,0.3-0.1,0.4l2.6,1.7c0.3,0.2,0.7,0.2,1,0.1l4.7-1.4
							c0.1,0,0.1-0.2,0-0.2l-3.4-2C-142.7,322.7-142.8,322.7-142.9,322.7z"/>
					</g>
					<g>
						<path class="st0" d="M-154.7,326.3l5.4-1.4l3.4,1.8v0.6l0,0c0,0,0,0.1-0.1,0.1l-5.1,1.5c-0.3,0.1-0.7,0.1-1-0.1l-2.6-1.7
							c-0.1-0.1-0.1-0.1-0.1-0.2l0,0v-0.6H-154.7z"/>
						<path class="st4" d="M-149.4,324.6l-5.1,1.5c-0.2,0.1-0.2,0.3-0.1,0.4l2.6,1.7c0.3,0.2,0.7,0.2,1,0.1l5.1-1.5
							c0.1,0,0.1-0.2,0-0.2l-3.3-2C-149.2,324.5-149.3,324.5-149.4,324.6z"/>
					</g>
					<g>
						<path class="st0" d="M-161.4,328.3l5.4-1.4l3.4,1.8v0.6l0,0c0,0,0,0.1-0.1,0.1l-5.2,1.5c-0.3,0.1-0.7,0.1-1-0.1l-2.5-1.7
							c-0.1-0.1-0.1-0.1-0.1-0.2l0,0v-0.6H-161.4z"/>
						<path class="st4" d="M-156.1,326.6l-5.1,1.5c-0.2,0.1-0.2,0.3-0.1,0.4l2.5,1.7c0.3,0.2,0.7,0.2,1,0.1l5.2-1.5
							c0.1,0,0.1-0.2,0-0.2l-3.3-2C-156,326.6-156.1,326.6-156.1,326.6z"/>
					</g>
					<g>
						<path class="st0" d="M-168.5,330.3l5.6-1.5l3.3,2v0.6l0,0c0,0,0,0.1-0.1,0.1l-5.2,1.6c-0.3,0.1-0.7,0.1-1-0.1l-2.6-1.8
							c-0.1-0.1-0.1-0.1-0.1-0.2l0,0v-0.7H-168.5z"/>
						<path class="st4" d="M-163,328.5l-5.3,1.6c-0.2,0.1-0.2,0.3-0.1,0.4l2.6,1.8c0.3,0.2,0.7,0.2,1,0.1l5.2-1.6
							c0.1,0,0.1-0.2,0-0.2l-3.2-2.1C-162.8,328.5-162.9,328.5-163,328.5z"/>
					</g>
					<g>
						<path class="st0" d="M-176,332.5l6-1.5l3.3,1.9v0.6l0,0c0,0,0,0.1-0.1,0.1l-5.5,1.7c-0.3,0.1-0.7,0.1-1-0.1l-2.6-1.8
							c-0.1-0.1-0.1-0.1-0.1-0.2l0,0C-176,333.2-176,332.5-176,332.5z"/>
						<path class="st4" d="M-170.2,330.6l-5.7,1.7c-0.2,0.1-0.2,0.3-0.1,0.4l2.6,1.8c0.3,0.2,0.7,0.2,1,0.1l5.5-1.7
							c0.1,0,0.1-0.2,0-0.2l-3.1-2.1C-170,330.6-170.1,330.6-170.2,330.6z"/>
					</g>
					<g>
						<path class="st0" d="M-122.3,313.1l4.9-1.3l3.6,1.7v0.6l0,0c0,0,0,0.1-0.1,0.1l-4.6,1.4c-0.3,0.1-0.7,0.1-1-0.1l-2.8-1.5
							c-0.1-0.1-0.1-0.1-0.1-0.2l0,0v-0.7H-122.3z"/>
						<path class="st4" d="M-117.5,311.4l-4.6,1.4c-0.2,0.1-0.2,0.3-0.1,0.4l2.8,1.5c0.3,0.2,0.6,0.2,1,0.1l4.6-1.4
							c0.1,0,0.1-0.1,0-0.2l-3.5-1.9C-117.4,311.4-117.4,311.4-117.5,311.4z"/>
					</g>
					<g>
						<path class="st0" d="M-116.1,311.2l4.9-1.1l3.5,1.5v0.6l0,0c0,0,0,0.1-0.1,0.1l-4.4,1.3c-0.3,0.1-0.7,0.1-1-0.1l-2.8-1.5
							c-0.1-0.1-0.1-0.1-0.1-0.2l0,0L-116.1,311.2L-116.1,311.2z"/>
						<path class="st4" d="M-111.4,309.8l-4.5,1.2c-0.2,0.1-0.2,0.3-0.1,0.4l2.8,1.5c0.3,0.2,0.6,0.2,1,0.1l4.4-1.3
							c0.1,0,0.1-0.1,0-0.2l-3.4-1.7C-111.2,309.8-111.3,309.8-111.4,309.8z"/>
					</g>
					<g>
						<path class="st0" d="M-109.9,309.5l4.4-1l3.5,1.5v0.6l0,0c0,0,0,0.1-0.1,0.1l-4,1.2c-0.3,0.1-0.7,0.1-1-0.1l-2.8-1.5
							c-0.1-0.1-0.1-0.1-0.1-0.2l0,0v-0.6H-109.9z"/>
						<path class="st4" d="M-105.7,308.2l-4.1,1.1c-0.2,0.1-0.2,0.3-0.1,0.4l2.8,1.5c0.3,0.2,0.6,0.2,1,0.1l4-1.2
							c0.1,0,0.1-0.1,0-0.2l-3.4-1.7C-105.5,308.2-105.6,308.2-105.7,308.2z"/>
					</g>
					<g>
						<path class="st0" d="M-128.5,314.8l4.8-1.2l3.6,1.7v0.6l0,0c0,0,0,0.1-0.1,0.1l-4.6,1.4c-0.3,0.1-0.7,0.1-1-0.1l-2.7-1.6
							c-0.1-0.1-0.1-0.1-0.1-0.2l0,0v-0.7H-128.5z"/>
						<path class="st4" d="M-123.9,313.3l-4.4,1.3c-0.2,0.1-0.2,0.3-0.1,0.4l2.7,1.6c0.3,0.2,0.6,0.2,1,0.1l4.6-1.4
							c0.1,0,0.1-0.1,0-0.2l-3.5-1.9C-123.7,313.3-123.8,313.3-123.9,313.3z"/>
					</g>
					<g>
						<path class="st0" d="M-134.7,316.6l4.9-1.2l3.4,1.7v0.6l0,0c0,0,0,0.1-0.1,0.1l-4.5,1.3c-0.3,0.1-0.7,0.1-1-0.1l-2.6-1.6
							c-0.1-0.1-0.1-0.1-0.1-0.2l0,0L-134.7,316.6L-134.7,316.6z"/>
						<path class="st4" d="M-130,315.1l-4.5,1.3c-0.2,0.1-0.2,0.3-0.1,0.4l2.6,1.6c0.3,0.2,0.6,0.2,1,0.1l4.5-1.3
							c0.1,0,0.1-0.1,0-0.2l-3.3-1.9C-129.8,315.1-129.9,315.1-130,315.1z"/>
					</g>
					<g>
						<path class="st0" d="M-141,318.4l5-1.2l3.4,1.7v0.6l0,0c0,0,0,0.1-0.1,0.1l-4.5,1.3c-0.3,0.1-0.7,0.1-1-0.1l-2.7-1.6
							c-0.1-0.1-0.1-0.1-0.1-0.2l0,0L-141,318.4L-141,318.4z"/>
						<path class="st4" d="M-136.2,316.9l-4.6,1.3c-0.2,0.1-0.2,0.3-0.1,0.4l2.7,1.6c0.3,0.2,0.6,0.2,1,0.1l4.5-1.3
							c0.1,0,0.1-0.1,0-0.2l-3.3-1.9C-136,316.9-136.1,316.9-136.2,316.9z"/>
					</g>
					<g>
						<path class="st0" d="M-147.3,320.2l5-1.2l3.4,1.7v0.6l0,0c0,0,0,0.1-0.1,0.1l-4.5,1.3c-0.3,0.1-0.7,0.1-1-0.1l-2.7-1.6
							c-0.1-0.1-0.1-0.1-0.1-0.2l0,0L-147.3,320.2L-147.3,320.2z"/>
						<path class="st4" d="M-142.6,318.6l-4.6,1.3c-0.2,0.1-0.2,0.3-0.1,0.4l2.7,1.6c0.3,0.2,0.6,0.2,1,0.1l4.5-1.3
							c0.1,0,0.1-0.1,0-0.2l-3.3-1.9C-142.4,318.6-142.5,318.6-142.6,318.6z"/>
					</g>
					<g>
						<path class="st0" d="M-154,322.1l5.1-1.2l3.5,1.8v0.6l0,0c0,0,0,0.1-0.1,0.1l-4.7,1.4c-0.3,0.1-0.7,0.1-1-0.1l-2.7-1.8
							c-0.1-0.1-0.1-0.1-0.1-0.2l0,0V322.1z"/>
						<path class="st4" d="M-149.1,320.6l-4.7,1.3c-0.2,0.1-0.2,0.3-0.1,0.4l2.7,1.8c0.3,0.2,0.7,0.2,1,0.1l4.7-1.4
							c0.1,0,0.1-0.2,0-0.2l-3.4-2C-149,320.5-149.1,320.5-149.1,320.6z"/>
					</g>
					<g>
						<path class="st0" d="M-161,324.1l5.4-1.4l3.4,1.8v0.6l0,0c0,0,0,0.1-0.1,0.1l-5.1,1.5c-0.3,0.1-0.7,0.1-1-0.1l-2.6-1.7
							c-0.1-0.1-0.1-0.1-0.1-0.2l0,0v-0.6H-161z"/>
						<path class="st4" d="M-155.8,322.4l-5.1,1.5c-0.2,0.1-0.2,0.3-0.1,0.4l2.6,1.7c0.3,0.2,0.7,0.2,1,0.1l5.1-1.5
							c0.1,0,0.1-0.2,0-0.2l-3.3-2C-155.6,322.4-155.7,322.4-155.8,322.4z"/>
					</g>
					<g>
						<path class="st0" d="M-168,326l5.5-1.3l3.4,1.8v0.6l0,0c0,0,0,0.1-0.1,0.1l-5.2,1.5c-0.3,0.1-0.7,0.1-1-0.1l-2.6-1.8
							c-0.1-0.1-0.1-0.1-0.1-0.2l0,0V326H-168z"/>
						<path class="st4" d="M-162.6,324.3l-5.2,1.5c-0.2,0.1-0.2,0.3-0.1,0.4l2.6,1.8c0.3,0.2,0.7,0.2,1,0.1l5.2-1.5
							c0.1,0,0.1-0.2,0-0.2l-3.3-2C-162.4,324.3-162.5,324.3-162.6,324.3z"/>
					</g>
					<g>
						<path class="st0" d="M-175,328l5.8-1.4l3.3,2v0.6l0,0c0,0,0,0.1-0.1,0.1l-5.3,1.6c-0.3,0.1-0.7,0.1-1-0.1l-2.5-1.8
							c-0.1-0.1-0.1-0.1-0.1-0.2l0,0V328H-175z"/>
						<path class="st4" d="M-169.4,326.2l-5.4,1.6c-0.2,0.1-0.2,0.3-0.1,0.4l2.5,1.8c0.3,0.2,0.7,0.2,1,0.1l5.3-1.6
							c0.1,0,0.1-0.2,0-0.2l-3.2-2.1C-169.3,326.2-169.4,326.2-169.4,326.2z"/>
					</g>
					<g>
						<path class="st0" d="M-182.5,330.1l6-1.5l3.3,2v0.6l0,0c0,0,0,0.1-0.1,0.1l-5.6,1.7c-0.3,0.1-0.7,0.1-1-0.1l-2.6-1.8
							c-0.1-0.1-0.1-0.1-0.1-0.2l0,0L-182.5,330.1L-182.5,330.1z"/>
						<path class="st4" d="M-176.6,328.3l-5.7,1.7c-0.2,0.1-0.2,0.3-0.1,0.4l2.6,1.8c0.3,0.2,0.7,0.2,1,0.1l5.6-1.7
							c0.1,0,0.1-0.2,0-0.2l-3.2-2.2C-176.4,328.3-176.5,328.3-176.6,328.3z"/>
					</g>
					<g>
						<path class="st0" d="M-189.8,332.2l6-1.4l3.3,2v0.6l0,0c0,0,0,0.1-0.1,0.1l-5.6,1.6c-0.3,0.1-0.7,0.1-1-0.1l-2.6-1.8
							c-0.1-0.1-0.1-0.1-0.1-0.2l0,0L-189.8,332.2L-189.8,332.2z"/>
						<path class="st4" d="M-184,330.4l-5.7,1.6c-0.2,0.1-0.2,0.3-0.1,0.4l2.6,1.8c0.3,0.2,0.7,0.2,1,0.1l5.6-1.6
							c0.1,0,0.1-0.2,0-0.2l-3.2-2.2C-183.8,330.4-183.9,330.4-184,330.4z"/>
					</g>
					<g>
						<path class="st0" d="M-130,311.5l4.9-1.3l3.6,1.7v0.6l0,0c0,0,0,0.1-0.1,0.1l-4.6,1.4c-0.3,0.1-0.7,0.1-1-0.1l-2.8-1.5
							c-0.1-0.1-0.1-0.1-0.1-0.2l0,0v-0.7H-130z"/>
						<path class="st4" d="M-125.3,309.8l-4.6,1.4c-0.2,0.1-0.2,0.3-0.1,0.4l2.8,1.5c0.3,0.2,0.6,0.2,1,0.1l4.6-1.4
							c0.1,0,0.1-0.1,0-0.2l-3.5-1.9C-125.1,309.8-125.2,309.8-125.3,309.8z"/>
					</g>
					<g>
						<path class="st0" d="M-123.9,309.6l4.9-1.1l3.5,1.5v0.6l0,0c0,0,0,0.1-0.1,0.1l-4.4,1.3c-0.3,0.1-0.7,0.1-1-0.1l-2.8-1.5
							c-0.1-0.1-0.1-0.1-0.1-0.2l0,0L-123.9,309.6L-123.9,309.6z"/>
						<path class="st4" d="M-119.1,308.2l-4.5,1.2c-0.2,0.1-0.2,0.3-0.1,0.4l2.8,1.5c0.3,0.2,0.6,0.2,1,0.1l4.4-1.3
							c0.1,0,0.1-0.1,0-0.2l-3.4-1.7C-119,308.2-119.1,308.2-119.1,308.2z"/>
					</g>
					<g>
						<path class="st0" d="M-117.7,307.9l7.3-1.8l3.5,1.5v0.6l0,0c0,0,0,0.1-0.1,0.1l-6.8,1.9c-0.3,0.1-0.7,0.1-1-0.1l-2.8-1.5
							c-0.1-0.1-0.1-0.1-0.1-0.2l0,0L-117.7,307.9L-117.7,307.9z"/>
						<path class="st4" d="M-110.6,305.9l-6.9,1.9c-0.2,0.1-0.2,0.3-0.1,0.4l2.8,1.5c0.3,0.2,0.6,0.2,1,0.1l6.8-1.9
							c0.1,0,0.1-0.1,0-0.2l-3.4-1.7C-110.4,305.8-110.5,305.8-110.6,305.9z"/>
					</g>
					<g>
						<path class="st0" d="M-136.3,313.2l4.8-1.2l3.6,1.7v0.6l0,0c0,0,0,0.1-0.1,0.1l-4.6,1.4c-0.3,0.1-0.7,0.1-1-0.1l-2.7-1.6
							c-0.1-0.1-0.1-0.1-0.1-0.2l0,0v-0.7H-136.3z"/>
						<path class="st4" d="M-131.7,311.7l-4.4,1.3c-0.2,0.1-0.2,0.3-0.1,0.4l2.7,1.6c0.3,0.2,0.6,0.2,1,0.1l4.6-1.4
							c0.1,0,0.1-0.1,0-0.2l-3.5-1.9C-131.5,311.6-131.6,311.6-131.7,311.7z"/>
					</g>
					<g>
						<path class="st0" d="M-142.6,314.9l4.9-1.2l3.4,1.7v0.6l0,0c0,0,0,0.1-0.1,0.1l-4.5,1.3c-0.3,0.1-0.7,0.1-1-0.1l-2.6-1.6
							c-0.1-0.1-0.1-0.1-0.1-0.2l0,0L-142.6,314.9L-142.6,314.9z"/>
						<path class="st4" d="M-137.9,313.4l-4.5,1.3c-0.2,0.1-0.2,0.3-0.1,0.4l2.6,1.6c0.3,0.2,0.6,0.2,1,0.1l4.5-1.3
							c0.1,0,0.1-0.1,0-0.2l-3.3-1.9C-137.7,313.4-137.8,313.4-137.9,313.4z"/>
					</g>
					<g>
						<path class="st0" d="M-149,316.7l5-1.2l3.4,1.7v0.6l0,0c0,0,0,0.1-0.1,0.1l-4.5,1.3c-0.3,0.1-0.7,0.1-1-0.1l-2.7-1.6
							c-0.1-0.1-0.1-0.1-0.1-0.2l0,0L-149,316.7L-149,316.7z"/>
						<path class="st4" d="M-144.2,315.2l-4.6,1.3c-0.2,0.1-0.2,0.3-0.1,0.4l2.7,1.6c0.3,0.2,0.6,0.2,1,0.1l4.5-1.3
							c0.1,0,0.1-0.1,0-0.2l-3.3-1.9C-144,315.1-144.1,315.1-144.2,315.2z"/>
					</g>
					<g>
						<path class="st0" d="M-155.4,318.4l5-1.2l3.4,1.7v0.6l0,0c0,0,0,0.1-0.1,0.1l-4.5,1.3c-0.3,0.1-0.7,0.1-1-0.1l-2.7-1.6
							c-0.1-0.1-0.1-0.1-0.1-0.2l0,0L-155.4,318.4L-155.4,318.4z"/>
						<path class="st4" d="M-150.6,316.9l-4.6,1.3c-0.2,0.1-0.2,0.3-0.1,0.4l2.7,1.6c0.3,0.2,0.6,0.2,1,0.1l4.5-1.3
							c0.1,0,0.1-0.1,0-0.2l-3.3-1.9C-150.4,316.9-150.5,316.9-150.6,316.9z"/>
					</g>
					<g>
						<path class="st0" d="M-162,320.3l5.1-1.2l3.5,1.8v0.6l0,0c0,0,0,0.1-0.1,0.1l-4.7,1.4c-0.3,0.1-0.7,0.1-1-0.1l-2.7-1.8
							c-0.1-0.1-0.1-0.1-0.1-0.2l0,0C-162,320.9-162,320.3-162,320.3z"/>
						<path class="st4" d="M-157.1,318.8l-4.7,1.3c-0.2,0.1-0.2,0.3-0.1,0.4l2.7,1.8c0.3,0.2,0.7,0.2,1,0.1l4.7-1.4
							c0.1,0,0.1-0.2,0-0.2l-3.4-2C-156.9,318.8-157,318.8-157.1,318.8z"/>
					</g>
					<g>
						<path class="st0" d="M-169,322.2l5.4-1.4l3.4,1.8v0.6l0,0c0,0,0,0.1-0.1,0.1l-5.1,1.5c-0.3,0.1-0.7,0.1-1-0.1l-2.6-1.7
							c-0.1-0.1-0.1-0.1-0.1-0.2l0,0L-169,322.2L-169,322.2z"/>
						<path class="st4" d="M-163.7,320.5l-5.1,1.5c-0.2,0.1-0.2,0.3-0.1,0.4l2.6,1.7c0.3,0.2,0.7,0.2,1,0.1l5.1-1.5
							c0.1,0,0.1-0.2,0-0.2l-3.3-2C-163.5,320.5-163.6,320.5-163.7,320.5z"/>
					</g>
					<g>
						<path class="st0" d="M-175.9,324.2l5.5-1.3l3.4,1.8v0.6l0,0c0,0,0,0.1-0.1,0.1l-5.2,1.5c-0.3,0.1-0.7,0.1-1-0.1l-2.6-1.8
							c-0.1-0.1-0.1-0.1-0.1-0.2l0,0v-0.6H-175.9z"/>
						<path class="st4" d="M-170.6,322.5l-5.2,1.5c-0.2,0.1-0.2,0.3-0.1,0.4l2.6,1.8c0.3,0.2,0.7,0.2,1,0.1l5.2-1.5
							c0.1,0,0.1-0.2,0-0.2l-3.3-2C-170.4,322.5-170.5,322.5-170.6,322.5z"/>
					</g>
					<g>
						<path class="st0" d="M-182.9,326.1l5.8-1.4l3.3,2v0.6l0,0c0,0,0,0.1-0.1,0.1l-5.3,1.6c-0.3,0.1-0.7,0.1-1-0.1l-2.5-1.8
							c-0.1-0.1-0.1-0.1-0.1-0.2l0,0v-0.8H-182.9z"/>
						<path class="st4" d="M-177.4,324.4l-5.4,1.6c-0.2,0.1-0.2,0.3-0.1,0.4l2.5,1.8c0.3,0.2,0.7,0.2,1,0.1l5.3-1.6
							c0.1,0,0.1-0.2,0-0.2l-3.2-2.1C-177.2,324.4-177.3,324.4-177.4,324.4z"/>
					</g>
					<g>
						<path class="st0" d="M-190.3,328.2l6-1.5l3.3,2v0.6l0,0c0,0,0,0.1-0.1,0.1l-5.6,1.7c-0.3,0.1-0.7,0.1-1-0.1l-2.6-1.8
							c-0.1-0.1-0.1-0.1-0.1-0.2l0,0L-190.3,328.2L-190.3,328.2z"/>
						<path class="st4" d="M-184.4,326.4l-5.7,1.7c-0.2,0.1-0.2,0.3-0.1,0.4l2.6,1.8c0.3,0.2,0.7,0.2,1,0.1l5.6-1.7
							c0.1,0,0.1-0.2,0-0.2l-3.2-2.2C-184.3,326.4-184.4,326.3-184.4,326.4z"/>
					</g>
					<g>
						<path class="st0" d="M-197.6,330.3l6-1.4l3.3,2v0.6l0,0c0,0,0,0.1-0.1,0.1l-5.6,1.6c-0.3,0.1-0.7,0.1-1-0.1l-2.6-1.8
							c-0.1-0.1-0.1-0.1-0.1-0.2l0,0L-197.6,330.3L-197.6,330.3z"/>
						<path class="st4" d="M-191.7,328.5l-5.7,1.6c-0.2,0.1-0.2,0.3-0.1,0.4l2.6,1.8c0.3,0.2,0.7,0.2,1,0.1l5.6-1.6
							c0.1,0,0.1-0.2,0-0.2l-3.2-2.2C-191.5,328.5-191.6,328.5-191.7,328.5z"/>
					</g>
					<g>
						<path class="st0" d="M-205,332.3l5.8-1.4l3.3,2v0.6l0,0c0,0,0,0.1-0.1,0.1l-5.3,1.6c-0.3,0.1-0.7,0.1-1-0.1l-2.6-1.8
							c-0.1-0.1-0.1-0.1-0.1-0.2l0,0C-205,333.1-205,332.3-205,332.3z"/>
						<path class="st4" d="M-199.4,330.6l-5.4,1.6c-0.2,0.1-0.2,0.3-0.1,0.4l2.6,1.8c0.3,0.2,0.7,0.2,1,0.1l5.3-1.6
							c0.1,0,0.1-0.2,0-0.2l-3.2-2.2C-199.2,330.5-199.3,330.5-199.4,330.6z"/>
					</g>
					<g>
						<path class="st0" d="M-207.5,330.5l5.8-1.4l1.8,0.9v0.6l0,0c0,0,0,0.1-0.1,0.1l-5.3,1.5c-0.3,0.1-0.7,0.1-1-0.1l-1-0.7
							c-0.1-0.1-0.1-0.1-0.1-0.2l0,0v-0.7H-207.5z"/>
						<path class="st4" d="M-201.9,328.7l-5.4,1.6c-0.2,0.1-0.2,0.3-0.1,0.4l1,0.7c0.3,0.2,0.7,0.2,1,0.1l5.3-1.5
							c0.1,0,0.1-0.2,0-0.2l-1.6-1.1C-201.7,328.7-201.8,328.7-201.9,328.7z"/>
					</g>
					<g>
						<path class="st0" d="M-199.9,328.3l5.8-1.4l1.8,0.9v0.6l0,0c0,0,0,0.1-0.1,0.1l-5.3,1.5c-0.3,0.1-0.7,0.1-1-0.1l-1-0.7
							c-0.1-0.1-0.1-0.1-0.1-0.2l0,0v-0.7H-199.9z"/>
						<path class="st4" d="M-194.3,326.5l-5.4,1.6c-0.2,0.1-0.2,0.3-0.1,0.4l1,0.7c0.3,0.2,0.7,0.2,1,0.1l5.3-1.5
							c0.1,0,0.1-0.2,0-0.2l-1.6-1.1C-194.1,326.5-194.2,326.5-194.3,326.5z"/>
					</g>
					<g>
						<path class="st0" d="M-192.3,326.2l5.8-1.4l1.8,0.9v0.6l0,0c0,0,0,0.1-0.1,0.1l-5.3,1.5c-0.3,0.1-0.7,0.1-1-0.1l-1-0.7
							c-0.1-0.1-0.1-0.1-0.1-0.2l0,0v-0.7H-192.3z"/>
						<path class="st4" d="M-186.7,324.4l-5.4,1.6c-0.2,0.1-0.2,0.3-0.1,0.4l1,0.7c0.3,0.2,0.7,0.2,1,0.1l5.3-1.5
							c0.1,0,0.1-0.2,0-0.2l-1.6-1.1C-186.6,324.4-186.7,324.4-186.7,324.4z"/>
					</g>
					<g>
						<path class="st0" d="M-184.9,324.2l5.8-1.4l1.8,0.9v0.6l0,0c0,0,0,0.1-0.1,0.1l-5.3,1.5c-0.3,0.1-0.7,0.1-1-0.1l-1-0.7
							c-0.1-0.1-0.1-0.1-0.1-0.2l0,0v-0.7H-184.9z"/>
						<path class="st4" d="M-179.3,322.4l-5.4,1.6c-0.2,0.1-0.2,0.3-0.1,0.4l1,0.7c0.3,0.2,0.7,0.2,1,0.1l5.3-1.5
							c0.1,0,0.1-0.2,0-0.2l-1.6-1.1C-179.1,322.4-179.2,322.4-179.3,322.4z"/>
					</g>
					<g>
						<path class="st0" d="M-177.6,322.1l5.6-1.4l1.8,0.9v0.6l0,0c0,0,0,0.1-0.1,0.1l-5.2,1.4c-0.3,0.1-0.7,0.1-1-0.1l-1-0.7
							c-0.1-0.1-0.1-0.1-0.1-0.2l0,0C-177.6,322.7-177.6,322.1-177.6,322.1z"/>
						<path class="st4" d="M-172.2,320.4l-5.3,1.5c-0.2,0.1-0.2,0.3-0.1,0.4l1,0.7c0.3,0.2,0.7,0.2,1,0.1l5.2-1.4
							c0.1,0,0.1-0.2,0-0.2l-1.6-1.1C-172,320.4-172.1,320.4-172.2,320.4z"/>
					</g>
					<g>
						<path class="st0" d="M-170.5,320.1l5.6-1.4l1.8,0.9v0.6l0,0c0,0,0,0.1-0.1,0.1l-5.2,1.4c-0.3,0.1-0.7,0.1-1-0.1l-1-0.7
							c-0.1-0.1-0.1-0.1-0.1-0.2l0,0C-170.5,320.7-170.5,320.1-170.5,320.1z"/>
						<path class="st4" d="M-165,318.4l-5.3,1.5c-0.2,0.1-0.2,0.3-0.1,0.4l1,0.7c0.3,0.2,0.7,0.2,1,0.1l5.2-1.4c0.1,0,0.1-0.2,0-0.2
							l-1.6-1.1C-164.9,318.4-165,318.4-165,318.4z"/>
					</g>
					<g>
						<path class="st0" d="M-163.6,318.2l5.6-1.4l1.8,0.9v0.6l0,0c0,0,0,0.1-0.1,0.1l-5.1,1.4c-0.3,0.1-0.7,0.1-1-0.1l-1.1-0.6
							c-0.1-0.1-0.1-0.1-0.1-0.2l0,0V318.2z"/>
						<path class="st4" d="M-158.2,316.5l-5.3,1.5c-0.2,0.1-0.2,0.3-0.1,0.4l1.1,0.6c0.3,0.2,0.7,0.2,1,0.1l5.1-1.4
							c0.1,0,0.1-0.2,0-0.2l-1.6-1.1C-158,316.5-158.1,316.5-158.2,316.5z"/>
					</g>
					<g>
						<path class="st0" d="M-156.8,316.2l5.4-1.2l1.8,0.8v0.6l0,0c0,0,0,0.1-0.1,0.1l-5,1.4c-0.3,0.1-0.7,0.1-1-0.1l-1-0.7
							c-0.1-0.1-0.1-0.1-0.1-0.2l0,0L-156.8,316.2L-156.8,316.2z"/>
						<path class="st4" d="M-151.5,314.6l-5.1,1.4c-0.2,0.1-0.2,0.3-0.1,0.4l1,0.7c0.3,0.2,0.6,0.2,1,0.1l5-1.4c0.1,0,0.1-0.1,0-0.2
							L-151.5,314.6C-151.4,314.6-151.5,314.6-151.5,314.6z"/>
					</g>
					<g>
						<path class="st0" d="M-150,314.3l5.2-1.2l1.9,0.7v0.6l0,0c0,0,0,0.1-0.1,0.1l-4.9,1.4c-0.3,0.1-0.7,0.1-1-0.1l-1.1-0.7
							c-0.1-0.1-0.1-0.1-0.1-0.2l0,0v-0.6H-150z"/>
						<path class="st4" d="M-145,312.9l-4.8,1.3c-0.2,0.1-0.2,0.3-0.1,0.4l1.1,0.7c0.3,0.2,0.6,0.2,1,0.1l4.9-1.4
							c0.1,0,0.1-0.1,0-0.2l-1.8-0.9C-144.8,312.9-144.9,312.8-145,312.9z"/>
					</g>
					<g>
						<path class="st0" d="M-143.3,312.6l5.1-1.2l1.8,0.7v0.6l0,0c0,0,0,0.1-0.1,0.1l-4.7,1.4c-0.3,0.1-0.7,0.1-1-0.1l-1.1-0.6
							c-0.1-0.1-0.1-0.1-0.1-0.2l0,0v-0.7H-143.3z"/>
						<path class="st4" d="M-138.4,311.1l-4.8,1.3c-0.2,0.1-0.2,0.3-0.1,0.4l1.1,0.6c0.3,0.2,0.6,0.2,1,0.1l4.7-1.4
							c0.1,0,0.1-0.1,0-0.2l-1.7-0.8C-138.2,311.1-138.3,311.1-138.4,311.1z"/>
					</g>
					<g>
						<path class="st0" d="M-136.9,310.8l5-1.1l1.8,0.7v0.6l0,0c0,0,0,0.1-0.1,0.1l-4.6,1.3c-0.3,0.1-0.7,0.1-1-0.1l-1.1-0.6
							c-0.1-0.1-0.1-0.1-0.1-0.2l0,0v-0.7H-136.9z"/>
						<path class="st4" d="M-132,309.4l-4.7,1.2c-0.2,0.1-0.2,0.3-0.1,0.4l1.1,0.6c0.3,0.2,0.6,0.2,1,0.1l4.6-1.3
							c0.1,0,0.1-0.1,0-0.2l-1.7-0.8C-131.9,309.3-132,309.3-132,309.4z"/>
					</g>
					<g>
						<path class="st0" d="M-130.5,309.1l5-1.1l1.8,0.7v0.6l0,0c0,0,0,0.1-0.1,0.1l-4.6,1.3c-0.3,0.1-0.7,0.1-1-0.1l-1.1-0.6
							c-0.1-0.1-0.1-0.1-0.1-0.2l0,0v-0.7H-130.5z"/>
						<path class="st4" d="M-125.6,307.6l-4.7,1.2c-0.2,0.1-0.2,0.3-0.1,0.4l1.1,0.6c0.3,0.2,0.6,0.2,1,0.1l4.6-1.3
							c0.1,0,0.1-0.1,0-0.2l-1.7-0.8C-125.4,307.6-125.5,307.6-125.6,307.6z"/>
					</g>
					<g>
						<path class="st0" d="M-124.2,307.3l4.9-1.1l1.8,0.7v0.6l0,0c0,0,0,0.1-0.1,0.1l-4.5,1.2c-0.3,0.1-0.7,0.1-1-0.1l-1.1-0.6
							c-0.1-0.1-0.1-0.1-0.1-0.2l0,0v-0.6H-124.2z"/>
						<path class="st4" d="M-119.4,305.9l-4.6,1.2c-0.2,0.1-0.2,0.3-0.1,0.4l1.1,0.6c0.3,0.2,0.6,0.2,1,0.1l4.5-1.2
							c0.1,0,0.1-0.1,0-0.2l-1.7-0.8C-119.2,305.9-119.3,305.9-119.4,305.9z"/>
					</g>
					<g>
						<path class="st0" d="M-118,305.6l4.7-1l1.8,0.7v0.6l0,0c0,0,0,0.1-0.1,0.1l-4.3,1.2c-0.3,0.1-0.7,0.1-1-0.1l-1.1-0.6
							c0-0.1,0-0.2,0-0.2l0,0V305.6z"/>
						<path class="st4" d="M-113.5,304.3l-4.4,1.1c-0.2,0.1-0.2,0.3-0.1,0.4l1.1,0.6c0.3,0.2,0.6,0.2,1,0.1l4.3-1.2
							c0.1,0,0.1-0.1,0-0.2l-1.7-0.8C-113.3,304.3-113.4,304.3-113.5,304.3z"/>
					</g>
					<g>
						<path class="st0" d="M-200.7,335.4l9.5-2.5l3.3,2v0.6l0,0c0,0,0,0.1-0.1,0.1l-9,2.6c-0.3,0.1-0.7,0.1-1-0.1l-2.6-1.8
							c-0.1-0.1-0.1-0.1-0.1-0.2l0,0C-200.7,336.1-200.7,335.4-200.7,335.4z"/>
						<path class="st4" d="M-191.4,332.6l-9.1,2.6c-0.2,0.1-0.2,0.3-0.1,0.4l2.6,1.8c0.3,0.2,0.7,0.2,1,0.1l9-2.6
							c0.1,0,0.1-0.2,0-0.2l-3.2-2.2C-191.2,332.6-191.3,332.6-191.4,332.6z"/>
					</g>
					<g>
						<path class="st0" d="M-183.4,334.7l6-1.5l3.3,1.9v0.6l0,0c0,0,0,0.1-0.1,0.1l-5.5,1.7c-0.3,0.1-0.7,0.1-1-0.1l-2.6-1.8
							c-0.1-0.1-0.1-0.1-0.1-0.2l0,0C-183.4,335.4-183.4,334.7-183.4,334.7z"/>
						<path class="st4" d="M-177.6,332.9l-5.7,1.7c-0.2,0.1-0.2,0.3-0.1,0.4l2.6,1.8c0.3,0.2,0.7,0.2,1,0.1l5.5-1.7
							c0.1,0,0.1-0.2,0-0.2l-3.1-2.1C-177.4,332.9-177.5,332.9-177.6,332.9z"/>
					</g>
					<g>
						<path class="st0" d="M-196.5,338.6l11.5-3.2l3.3,1.9v0.6l0,0c0,0,0,0.1-0.1,0.1l-11,3.3c-0.3,0.1-0.7,0.1-1-0.1l-2.6-1.8
							c-0.1-0.1-0.1-0.1-0.1-0.2l0,0C-196.5,339.2-196.5,338.6-196.5,338.6z"/>
						<path class="st4" d="M-185.1,335.1l-11.2,3.3c-0.2,0.1-0.2,0.3-0.1,0.4l2.6,1.8c0.3,0.2,0.7,0.2,1,0.1l11-3.3
							c0.1,0,0.1-0.2,0-0.2l-3.1-2.1C-185,335.1-185.1,335.1-185.1,335.1z"/>
					</g>
					<g>
						<path class="st0" d="M-192.2,341.8l15.5-4.4l3.4,2.1v0.6l0,0c0,0,0,0.1-0.1,0.1l-14.8,4.5c-0.3,0.1-0.7,0.1-1-0.1l-2.8-2
							c-0.1-0.1-0.1-0.1-0.1-0.2l0,0L-192.2,341.8L-192.2,341.8z"/>
						<path class="st4" d="M-176.9,337.1l-15.1,4.5c-0.2,0.1-0.2,0.3-0.1,0.4l2.8,2c0.3,0.2,0.7,0.2,1,0.1l14.8-4.5
							c0.1,0,0.1-0.2,0-0.2l-3.2-2.3C-176.7,337.1-176.8,337.1-176.9,337.1z"/>
					</g>
					<g>
						<path class="st0" d="M-164.4,338.4l6.9-1.8l3.9,2.1v0.7l0,0c0,0.1,0,0.1-0.1,0.1l-6.4,2c-0.4,0.1-0.8,0.1-1.2-0.1l-3-2
							c-0.1-0.1-0.1-0.2-0.1-0.3l0,0C-164.4,339.1-164.4,338.4-164.4,338.4z"/>
						<path class="st4" d="M-157.7,336.2l-6.5,1.9c-0.2,0.1-0.3,0.4-0.1,0.5l3,2c0.3,0.2,0.8,0.3,1.2,0.1l6.4-2c0.1,0,0.1-0.2,0-0.2
							l-3.8-2.3C-157.4,336.2-157.5,336.2-157.7,336.2z"/>
					</g>
					<g>
						<path class="st0" d="M-172.1,340.7l5.9-1.5l3.9,2.1v0.7l0,0c0,0.1,0,0.1-0.1,0.1l-5.4,1.7c-0.4,0.1-0.8,0.1-1.2-0.1l-3-2
							c-0.1-0.1-0.1-0.2-0.1-0.3l0,0C-172.1,341.4-172.1,340.7-172.1,340.7z"/>
						<path class="st4" d="M-166.5,338.9l-5.5,1.6c-0.2,0.1-0.3,0.4-0.1,0.5l3,2c0.3,0.2,0.8,0.3,1.2,0.1l5.4-1.7
							c0.1,0,0.1-0.2,0-0.2l-3.8-2.3C-166.2,338.8-166.3,338.8-166.5,338.9z"/>
					</g>
					<g>
						<path class="st0" d="M-179.7,343l5.9-1.5l3.9,2.1v0.7l0,0c0,0.1,0,0.1-0.1,0.1l-5.4,1.7c-0.4,0.1-0.8,0.1-1.2-0.1l-3-2
							c-0.1-0.1-0.1-0.2-0.1-0.3l0,0C-179.7,343.7-179.7,343-179.7,343z"/>
						<path class="st4" d="M-174,341.2l-5.5,1.6c-0.2,0.1-0.3,0.4-0.1,0.5l3,2c0.3,0.2,0.8,0.3,1.2,0.1l5.4-1.7c0.1,0,0.1-0.2,0-0.2
							l-3.8-2.3C-173.8,341.2-173.9,341.1-174,341.2z"/>
					</g>
					<g>
						<path class="st0" d="M-187.3,345.3l5.9-1.5l3.9,2.1v0.7l0,0c0,0.1,0,0.1-0.1,0.1l-5.4,1.7c-0.4,0.1-0.8,0.1-1.2-0.1l-3-2
							c-0.1-0.1-0.1-0.2-0.1-0.3l0,0C-187.3,346-187.3,345.3-187.3,345.3z"/>
						<path class="st4" d="M-181.7,343.5l-5.5,1.6c-0.2,0.1-0.3,0.4-0.1,0.5l3,2c0.3,0.2,0.8,0.3,1.2,0.1l5.4-1.7
							c0.1,0,0.1-0.2,0-0.2l-3.8-2.3C-181.5,343.5-181.6,343.4-181.7,343.5z"/>
					</g>
					<g>
						<path class="st0" d="M-155.7,335.6l32.7-9.6l3.9,2.1v0.7l0,0c0,0.1,0,0.1-0.1,0.1l-32,9.7c-0.4,0.1-0.8,0.1-1.2-0.1l-3.2-1.9
							c-0.1-0.1-0.1-0.2-0.1-0.3l0,0L-155.7,335.6L-155.7,335.6z"/>
						<path class="st4" d="M-123.3,325.7l-32.3,9.7c-0.2,0.1-0.3,0.4-0.1,0.5l3.2,1.9c0.3,0.2,0.8,0.3,1.2,0.1l32-9.7
							c0.1,0,0.1-0.2,0-0.2l-3.8-2.3C-123.1,325.7-123.2,325.6-123.3,325.7z"/>
					</g>
				</g>
			</g>
		</g>
	</g>
</g>
</svg>
