<?xml version="1.0" encoding="utf-8"?>
<!-- Generator: Adobe Illustrator 19.0.0, SVG Export Plug-In . SVG Version: 6.00 Build 0)  -->
<svg version="1.1" id="Layer_1" xmlns="http://www.w3.org/2000/svg" xmlns:xlink="http://www.w3.org/1999/xlink" x="0px" y="0px"
	 viewBox="66 87.9 728 667" style="enable-background:new 66 87.9 728 667;" xml:space="preserve">
<style type="text/css">
	.st0{clip-path:url(#SVGID_2_);}
	.st1{filter:url(#b);}
	.st2{fill:#FFFFFF;}
	.st3{fill:#D2D2D2;}
	.st4{fill:#CECECE;}
	.st5{fill:none;}
	.st6{fill:#F8F8F8;}
</style>
<filter  height="1105" width="647" x="41" id="b" y="-6" filterUnits="userSpaceOnUse">
	<feOffset  input="SourceAlpha"></feOffset>
	<feGaussianBlur  stdDeviation="40" result="c"></feGaussianBlur>
	<feFlood  flood-color="#a8a8a8"></feFlood>
	<feComposite  operator="in" in2="c"></feComposite>
	<feComposite  operator="over" in="SourceGraphic"></feComposite>
</filter>
<g>
	<defs>
		<rect id="SVGID_1_" x="66" y="87.9" width="728" height="667"/>
	</defs>
	<clipPath id="SVGID_2_">
		<use xlink:href="#SVGID_1_"  style="overflow:visible;"/>
	</clipPath>
	<g class="st0">
		<g transform="matrix(1, 0, 0, 1, 0, 0)" class="st1">
			<g transform="translate(161 114)">
				<path class="st2" d="M425,952.4H114c-6.4,0-12.6-1.3-18.5-3.7c-5.7-2.4-10.7-5.8-15.1-10.2c-4.4-4.4-7.8-9.4-10.2-15.1
					c-2.5-5.9-3.7-12.1-3.7-18.5v-769c0-6.4,1.3-12.6,3.7-18.5c2.4-5.7,5.8-10.7,10.2-15.1s9.4-7.8,15.1-10.2
					c5.9-2.5,12.1-3.7,18.5-3.7h311c6.4,0,12.6,1.3,18.5,3.7c5.7,2.4,10.7,5.8,15.1,10.2s7.8,9.4,10.2,15.1
					c2.5,5.9,3.7,12.1,3.7,18.5v769c0,6.4-1.3,12.6-3.7,18.5c-2.4,5.7-5.8,10.7-10.2,15.1c-4.4,4.4-9.4,7.8-15.1,10.2
					C437.6,951.1,431.4,952.4,425,952.4z"/>
				<path class="st3" d="M114,88.9c-6.3,0-12.5,1.2-18.3,3.7c-5.6,2.4-10.6,5.8-14.9,10.1c-4.3,4.3-7.7,9.3-10.1,14.9
					c-2.5,5.8-3.7,11.9-3.7,18.3v769c0,6.3,1.2,12.5,3.7,18.3c2.4,5.6,5.8,10.6,10.1,14.9c4.3,4.3,9.3,7.7,14.9,10.1
					c5.8,2.5,11.9,3.7,18.3,3.7h311c6.3,0,12.5-1.2,18.3-3.7c5.6-2.4,10.6-5.8,14.9-10.1c4.3-4.3,7.7-9.3,10.1-14.9
					c2.5-5.8,3.7-11.9,3.7-18.3v-769c0-6.3-1.2-12.5-3.7-18.3c-2.4-5.6-5.8-10.6-10.1-14.9c-4.3-4.3-9.3-7.7-14.9-10.1
					c-5.8-2.5-11.9-3.7-18.3-3.7H114 M114,87.9h311c26.5,0,48,21.5,48,48v769c0,26.5-21.5,48-48,48H114c-26.5,0-48-21.5-48-48v-769
					C66,109.4,87.5,87.9,114,87.9z"/>
			</g>
		</g>
		<g transform="translate(332 158)">
			<path class="st4" d="M70,87.9h56c2.2,0,4,1.8,4,4l0,0c0,2.2-1.8,4-4,4H70c-2.2,0-4-1.8-4-4l0,0C66,89.7,67.8,87.9,70,87.9z"/>
			<path class="st5" d="M70,88.4h56c1.9,0,3.5,1.6,3.5,3.5l0,0c0,1.9-1.6,3.5-3.5,3.5H70c-1.9,0-3.5-1.6-3.5-3.5l0,0
				C66.5,90,68.1,88.4,70,88.4z"/>
		</g>
		<g transform="translate(336 899)">
			<path class="st6" d="M94,87.9L94,87.9c15.5,0,28,12.5,28,28l0,0c0,15.5-12.5,28-28,28l0,0c-15.5,0-28-12.5-28-28l0,0
				C66,100.4,78.5,87.9,94,87.9z"/>
			<path class="st5" d="M94,88.4L94,88.4c15.2,0,27.5,12.3,27.5,27.5l0,0c0,15.2-12.3,27.5-27.5,27.5l0,0
				c-15.2,0-27.5-12.3-27.5-27.5l0,0C66.5,100.7,78.8,88.4,94,88.4z"/>
		</g>
	</g>
</g>
</svg>
