<?xml version="1.0" encoding="utf-8"?>
<!-- Generator: Adobe Illustrator 19.0.0, SVG Export Plug-In . SVG Version: 6.00 Build 0)  -->
<svg version="1.1" xmlns="http://www.w3.org/2000/svg" xmlns:xlink="http://www.w3.org/1999/xlink" x="0px" y="0px"
	 viewBox="0 0 458.3 442" style="enable-background:new 0 0 458.3 442;" xml:space="preserve">
<style type="text/css">
	.st0{fill:#DFE8EF;}
	.st1{fill:#F9FBFC;}
	.st2{fill:#112B46;}
	.st3{fill:#BEE1F4;}
	.st4{fill:#AAD5E8;}
	.st5{fill:#FFFFFF;}
	.st6{fill:#47477A;}
	.st7{fill:#56548C;}
	.st8{fill:#EC827D;}
	.st9{fill:#FBD15B;}
	.st10{fill:#F4C34A;}
	.st11{fill:#FFDC83;}
	.st12{fill:#FFC8AF;}
	.st13{fill:#EFA689;}
	.st14{fill:#E5B641;}
	.st15{fill:#FFD3C2;}
	.st16{fill:#EEEEEE;}
	.st17{fill:#F1F2F2;}
	.st18{fill:#606BF1;}
	.st19{fill:#B1B2F3;}
</style>
<g id="BACKGROUND">
</g>
<g id="OBJECTS">
	<g id="XMLID_11_">
		<path id="XMLID_368_" class="st0" d="M448.3,442H61.7c-5.5,0-10-4.5-10-10v-99.6c0-5.5,4.5-10,10-10h386.6c5.5,0,10,4.5,10,10V432
			C458.3,437.5,453.8,442,448.3,442z"/>
		<path id="XMLID_361_" class="st0" d="M420.2,358.6h-68.3c-5.5,0-10-4.5-10-10V245.7c0-5.5,4.5-10,10-10h68.3c5.5,0,10,4.5,10,10
			v102.9C430.2,354.1,425.7,358.6,420.2,358.6z"/>
		<g id="XMLID_16_">
			<g id="XMLID_17_">
				<g id="XMLID_18_">
					<path id="XMLID_19_" class="st1" d="M348.8,359.2h-91.9V268h91.9V359.2z M258.2,357.9h89.3v-88.6h-89.3V357.9z"/>
				</g>
				<g id="XMLID_22_">
					<rect id="XMLID_23_" x="257.6" y="342.9" class="st1" width="90.6" height="1.3"/>
				</g>
				<g id="XMLID_24_">
					<rect id="XMLID_25_" x="257.6" y="327.9" class="st1" width="90.6" height="1.3"/>
				</g>
				<g id="XMLID_26_">
					<rect id="XMLID_27_" x="257.6" y="313" class="st1" width="90.6" height="1.3"/>
				</g>
				<g id="XMLID_28_">
					<rect id="XMLID_29_" x="257.6" y="298" class="st1" width="90.6" height="1.3"/>
				</g>
				<g id="XMLID_30_">
					<rect id="XMLID_31_" x="257.6" y="283" class="st1" width="90.6" height="1.3"/>
				</g>
				<g id="XMLID_32_">
					<rect id="XMLID_33_" x="332.4" y="268.6" class="st1" width="1.3" height="89.9"/>
				</g>
				<g id="XMLID_34_">
					<rect id="XMLID_35_" x="317.3" y="268.6" class="st1" width="1.3" height="89.9"/>
				</g>
				<g id="XMLID_36_">
					<rect id="XMLID_37_" x="302.2" y="268.6" class="st1" width="1.3" height="89.9"/>
				</g>
				<g id="XMLID_38_">
					<rect id="XMLID_39_" x="287.1" y="268.6" class="st1" width="1.3" height="89.9"/>
				</g>
				<g id="XMLID_40_">
					<rect id="XMLID_41_" x="272" y="268.6" class="st1" width="1.3" height="89.9"/>
				</g>
			</g>
			<g id="XMLID_42_">
				<g id="XMLID_43_">
					<path id="XMLID_44_" class="st1" d="M439.4,359.2h-91.9V268h91.9V359.2z M348.8,357.9h89.3v-88.6h-89.3V357.9z"/>
				</g>
				<g id="XMLID_47_">
					<rect id="XMLID_48_" x="348.1" y="342.9" class="st1" width="90.6" height="1.3"/>
				</g>
				<g id="XMLID_49_">
					<rect id="XMLID_50_" x="348.1" y="327.9" class="st1" width="90.6" height="1.3"/>
				</g>
				<g id="XMLID_51_">
					<rect id="XMLID_52_" x="348.1" y="313" class="st1" width="90.6" height="1.3"/>
				</g>
				<g id="XMLID_53_">
					<rect id="XMLID_54_" x="348.1" y="298" class="st1" width="90.6" height="1.3"/>
				</g>
				<g id="XMLID_55_">
					<rect id="XMLID_56_" x="348.1" y="283" class="st1" width="90.6" height="1.3"/>
				</g>
				<g id="XMLID_57_">
					<rect id="XMLID_58_" x="423" y="268.6" class="st1" width="1.3" height="89.9"/>
				</g>
				<g id="XMLID_59_">
					<rect id="XMLID_60_" x="407.9" y="268.6" class="st1" width="1.3" height="89.9"/>
				</g>
				<g id="XMLID_61_">
					<rect id="XMLID_62_" x="392.8" y="268.6" class="st1" width="1.3" height="89.9"/>
				</g>
				<g id="XMLID_63_">
					<rect id="XMLID_64_" x="377.7" y="268.6" class="st1" width="1.3" height="89.9"/>
				</g>
				<g id="XMLID_65_">
					<rect id="XMLID_66_" x="362.6" y="268.6" class="st1" width="1.3" height="89.9"/>
				</g>
			</g>
		</g>
		<g id="XMLID_67_">
			<path id="XMLID_691_" class="st0" d="M351.9,169.2c-0.4-7.4-2.6-14.5-6.1-20.8l6-3.4c-3-5.4-7-10.4-11.7-14.5l-4.6,5.2
				c-5.3-4.7-11.7-8.4-19-10.5l1.9-6.6l-0.1,0c-5.1-1.4-10.2-2.1-15.2-2.1c-1.1,0-2.2,0-3.3,0.1l0.4,6.9c-7.4,0.4-14.5,2.6-20.8,6.1
				l-3.4-6c-5.4,3-10.4,7-14.5,11.7l5.2,4.6c-4.7,5.3-8.4,11.7-10.5,19l-6.6-1.9l0,0.1c-1.4,5.1-2.1,10.2-2.1,15.2
				c0,1.1,0,2.2,0.1,3.2l6.9-0.4c0.4,7.4,2.5,14.5,6.1,20.8l-6,3.4c3,5.4,6.9,10.4,11.6,14.6l4.6-5.2c5.3,4.7,11.7,8.4,19,10.5
				l-1.9,6.6l0.2,0c5.1,1.4,10.2,2.1,15.2,2.1c1.1,0,2.2,0,3.4-0.1l-0.4-6.9c7.4-0.4,14.5-2.6,20.8-6.1l3.4,6
				c5.4-3,10.4-7,14.5-11.7l-5.2-4.6c4.7-5.3,8.4-11.7,10.4-19l6.6,1.9l0,0c1.4-5.1,2.1-10.2,2.1-15.2c0-1.1,0-2.2-0.1-3.3
				L351.9,169.2z M291.1,214.8L291.1,214.8l0.3-1.2L291.1,214.8z M331.6,180.1c-3.7,13-15.5,21.5-28.4,21.5c-2.7,0-5.4-0.4-8-1.1
				c-13-3.7-21.5-15.5-21.5-28.4c0-2.7,0.4-5.4,1.1-8c3.7-13,15.5-21.5,28.4-21.5c2.7,0,5.4,0.4,8.1,1.1c13,3.7,21.5,15.5,21.5,28.4
				C332.7,174.7,332.3,177.4,331.6,180.1z"/>
			<polygon id="XMLID_364_" class="st0" points="439.6,124.4 439.6,124.4 439.6,124.4 			"/>
			<path id="XMLID_687_" class="st0" d="M449.8,178.5l-4.6,0.9c-0.7-3.6-1.9-7-3.7-10.1l4.1-2.3c-3-5.3-7.2-10-12.3-13.5l-2.6,3.9
				c-2.9-2-6.2-3.6-9.8-4.6l1.3-4.5l-0.2-0.1c-3.6-1-7.2-1.5-10.7-1.5c-2.5,0-5,0.2-7.4,0.7l0.9,4.6c-3.6,0.7-7,1.9-10.2,3.7
				l-2.2-4.1c-5.3,2.9-10,7.1-13.5,12.3l3.8,2.6c-2,2.9-3.6,6.2-4.6,9.8l-4.5-1.3l-0.1,0.3c-1,3.6-1.5,7.2-1.5,10.7
				c0,2.5,0.2,4.9,0.7,7.3l4.6-0.9c0.7,3.6,1.9,7,3.6,10.2l-4.1,2.2h0c2.9,5.4,7.1,10,12.3,13.6l2.6-3.8c2.9,2,6.2,3.6,9.8,4.6
				l-1.3,4.5h0l0.4,0.1c3.6,1,7.2,1.5,10.7,1.5c2.6,0,5.1-0.3,7.6-0.7l-0.9-4.6c3.6-0.7,7-2,10.1-3.7l2.3,4.1
				c5.3-3,10-7.2,13.5-12.4l-3.9-2.6c2-2.9,3.6-6.2,4.6-9.8l4.4,1.3l0-0.1c1-3.6,1.5-7.2,1.5-10.7
				C450.5,183.4,450.2,180.9,449.8,178.5z M411.3,209.3c-2.1,0-4.2-0.3-6.4-0.9c-10.3-2.9-17-12.3-17-22.4c0-2.1,0.3-4.2,0.9-6.4
				c2.9-10.3,12.3-17,22.4-17c2.1,0,4.2,0.3,6.4,0.9c10.3,2.9,17,12.3,17,22.4c0,2.1-0.3,4.2-0.9,6.4
				C430.8,202.6,421.4,209.3,411.3,209.3z"/>
		</g>
		<g id="XMLID_68_">
			<path id="XMLID_360_" class="st2" d="M384.3,338.7H97.4c-1,0-1.8-0.8-1.8-1.8V165.1c0-1,0.8-1.8,1.8-1.8h286.9
				c1,0,1.8,0.8,1.8,1.8v171.8C386.1,337.9,385.3,338.7,384.3,338.7z"/>
			<rect id="XMLID_359_" x="103.5" y="171.2" class="st3" width="274.7" height="159.5"/>
			<g id="XMLID_69_">
				<g id="XMLID_70_">
					<path id="XMLID_71_" class="st4" d="M103.6,299.4l-0.2-1.3c26.9-4.4,51.5-11.6,73.1-21.3c44.3-19.9,76.5-58.4,88.2-105.8
						l1.3,0.3C254.2,219.1,221.7,258,177,278C155.3,287.8,130.6,295,103.6,299.4z"/>
				</g>
				<g id="XMLID_72_">
					<path id="XMLID_73_" class="st4" d="M103.6,300.3l-0.2-1.2c28.8-4.4,55.2-11.7,78.3-21.8c46-19.9,79.2-58.6,91.2-106.2l1.2,0.3
						c-12.1,47.9-45.6,86.9-92,107C159,288.5,132.6,295.9,103.6,300.3z"/>
				</g>
				<g id="XMLID_74_">
					<path id="XMLID_75_" class="st4" d="M103.6,301l-0.2-1.2c30.9-4.4,59-11.8,83.6-22.2c47.6-20,81.9-58.9,94.2-106.6l1.2,0.3
						c-12.4,48.1-47,87.2-94.9,107.4C162.8,289.2,134.6,296.7,103.6,301z"/>
				</g>
				<g id="XMLID_76_">
					<path id="XMLID_77_" class="st4" d="M103.6,301.8l-0.2-1.2c32.8-4.3,62.7-11.9,88.8-22.5c49.3-20.1,84.7-59.1,97.3-107l1.1,0.3
						c-12.7,48.2-48.4,87.5-98,107.8C166.5,289.9,136.5,297.5,103.6,301.8z"/>
				</g>
				<g id="XMLID_78_">
					<path id="XMLID_79_" class="st4" d="M103.6,302.5l-0.1-1.1c34.9-4.3,66.5-12,94-22.9c50.9-20.1,87.5-59.3,100.4-107.4l1.1,0.3
						c-13,48.5-49.8,87.9-101,108.2C170.3,290.5,138.6,298.2,103.6,302.5z"/>
				</g>
				<g id="XMLID_80_">
					<path id="XMLID_81_" class="st4" d="M103.6,303.1l-0.1-1.1c36.8-4.2,70.2-11.9,99.3-23.1c52.5-20.2,90.2-59.5,103.4-107.8
						l1,0.3C293.9,220,256,259.6,203.1,279.9C174,291.1,140.5,298.9,103.6,303.1z"/>
				</g>
				<g id="XMLID_82_">
					<path id="XMLID_83_" class="st4" d="M103.6,303.8l-0.1-1c38.9-4.1,74-12,104.5-23.4c54.2-20.3,93-59.7,106.5-108.2l1,0.3
						c-13.5,48.8-52.6,88.5-107.1,108.9C177.8,291.7,142.5,299.6,103.6,303.8z"/>
				</g>
				<g id="XMLID_84_">
					<path id="XMLID_85_" class="st4" d="M103.6,304.3l-0.1-1c40.8-4,77.7-12,109.8-23.6c55.9-20.4,95.8-60,109.6-108.6l1,0.3
						c-13.8,49-54,88.8-110.2,109.3C181.4,292.3,144.4,300.3,103.6,304.3z"/>
				</g>
				<g id="XMLID_86_">
					<path id="XMLID_87_" class="st4" d="M103.6,304.9l-0.1-0.9c42.8-3.9,81.5-12,115-23.8c57.6-20.4,98.6-60.2,112.6-109.1l0.9,0.3
						c-14.1,49.2-55.4,89.2-113.2,109.7C185.2,293,146.4,301,103.6,304.9z"/>
				</g>
				<g id="XMLID_88_">
					<path id="XMLID_89_" class="st4" d="M103.5,305.5l-0.1-0.9c44.8-3.9,85.2-12,120.2-24.1c59.3-20.5,101.4-60.4,115.7-109.4
						l0.9,0.3c-14.3,49.4-56.7,89.5-116.3,110C188.9,293.5,148.4,301.6,103.5,305.5z"/>
				</g>
				<g id="XMLID_90_">
					<path id="XMLID_91_" class="st4" d="M103.5,306.1l-0.1-0.9c46.8-3.8,89-12,125.5-24.2c61-20.5,104.3-60.6,118.8-109.9l0.8,0.2
						c-14.6,49.5-58.1,89.8-119.3,110.4C192.7,294.1,150.4,302.3,103.5,306.1z"/>
				</g>
				<g id="XMLID_92_">
					<path id="XMLID_93_" class="st4" d="M103.5,306.6l-0.1-0.8c48.8-3.7,92.8-11.9,130.7-24.4c62.7-20.6,107.1-60.8,121.9-110.3
						l0.8,0.2c-14.8,49.7-59.4,90.1-122.4,110.8C196.5,294.7,152.4,302.9,103.5,306.6z"/>
				</g>
				<g id="XMLID_94_">
					<path id="XMLID_95_" class="st4" d="M103.5,307.1l-0.1-0.8c50-3.6,97-12.1,135.9-24.5c64.4-20.7,110-61,125-110.7l0.7,0.2
						c-15.1,49.9-60.8,90.4-125.5,111.2C200.7,295,153.6,303.5,103.5,307.1z"/>
				</g>
				<g id="XMLID_96_">
					<path id="XMLID_97_" class="st4" d="M103.5,307.6l0-0.7c52-3.5,100.8-12,141.2-24.7c66.1-20.7,112.8-61.2,128.1-111.1l0.7,0.2
						c-15.3,50.1-62.2,90.8-128.5,111.6C204.5,295.6,155.6,304.1,103.5,307.6z"/>
				</g>
				<g id="XMLID_98_">
					<path id="XMLID_99_" class="st4" d="M103.5,308.1l0-0.7c54.1-3.5,104.8-12,146.4-24.8c32.2-9.9,59.8-24,82-42
						c21.6-17.5,37.1-37.8,46-60.4l0.6,0.3c-9,22.7-24.5,43.1-46.2,60.6c-22.3,18.1-49.9,32.2-82.2,42.1
						C208.4,296.1,157.7,304.7,103.5,308.1z"/>
				</g>
				<g id="XMLID_100_">
					<path id="XMLID_101_" class="st4" d="M103.5,308.6l0-0.6c55.9-3.3,108.4-11.9,151.7-24.9c56.8-17,100.4-47.6,122.8-86l0.6,0.3
						c-22.5,38.6-66.2,69.2-123.1,86.3C212,296.7,159.5,305.3,103.5,308.6z"/>
				</g>
				<g id="XMLID_102_">
					<path id="XMLID_103_" class="st4" d="M103.5,309.1l0-0.6c57.9-3.3,112.2-11.9,156.9-25c52.2-15.3,92.8-40.9,117.6-74.1l0.5,0.4
						c-24.8,33.3-65.6,59-117.9,74.3C215.8,297.1,161.5,305.8,103.5,309.1z"/>
				</g>
				<g id="XMLID_104_">
					<path id="XMLID_105_" class="st4" d="M103.5,309.6l0-0.5c59.9-3.2,116-11.9,162.1-25.2c47.8-13.7,86.7-36.1,112.3-64.7l0.4,0.4
						c-25.8,28.7-64.7,51.1-112.6,64.9C219.6,297.7,163.5,306.4,103.5,309.6z"/>
				</g>
				<g id="XMLID_106_">
					<path id="XMLID_107_" class="st4" d="M103.5,310l0-0.5c61.8-3.1,119.7-11.9,167.4-25.3c44.1-12.4,81.2-32.1,107.1-57l0.3,0.4
						c-26,24.9-63.2,44.7-107.4,57.1C223.3,298.2,165.4,306.9,103.5,310z"/>
				</g>
				<g id="XMLID_108_">
					<path id="XMLID_109_" class="st4" d="M103.5,310.5l0-0.5c63.8-3.1,123.5-11.8,172.6-25.3C317,273.4,352.2,256,378,234.3
						l0.3,0.4c-25.9,21.7-61.2,39.2-102.1,50.5C227.1,298.7,167.4,307.4,103.5,310.5z"/>
				</g>
				<g id="XMLID_110_">
					<path id="XMLID_111_" class="st4" d="M103.5,310.9l0-0.4c65.7-2.9,127.2-11.7,177.9-25.4c38.3-10.4,70.9-25.4,96.7-44.7
						l0.2,0.3c-25.9,19.3-58.5,34.4-96.8,44.7C230.8,299.2,169.2,308,103.5,310.9z"/>
				</g>
				<g id="XMLID_112_">
					<path id="XMLID_113_" class="st4" d="M103.5,311.4l0-0.4c67.7-2.9,131.1-11.7,183.1-25.5c35.6-9.4,66.4-22.8,91.5-39.7l0.2,0.3
						c-25.1,16.9-55.9,30.3-91.6,39.7C234.6,299.6,171.3,308.5,103.5,311.4z"/>
				</g>
				<g id="XMLID_114_">
					<path id="XMLID_115_" class="st4" d="M103.5,311.8l0-0.3c69.7-2.8,134.9-11.7,188.3-25.6c33-8.6,62-20.4,86.3-35.2l0.2,0.3
						c-24.3,14.8-53.4,26.7-86.4,35.2C238.4,300.2,173.3,309,103.5,311.8z"/>
				</g>
			</g>
			<rect id="XMLID_116_" x="103.5" y="171.2" class="st5" width="274.7" height="8.5"/>
			<rect id="XMLID_358_" x="214.8" y="338.7" class="st6" width="52.2" height="39.7"/>
			<rect id="XMLID_340_" x="183.5" y="378.4" class="st7" width="114.7" height="8.8"/>
		</g>
		<g id="XMLID_117_">
			<g id="XMLID_118_">
				<path id="XMLID_357_" class="st2" d="M67,229.7l-2.8,1.5c-1.9,1-4.2,0.4-5.3-1.5l-16.3-29.4l9.6-5.3l16.3,29.4
					C69.5,226.3,68.9,228.7,67,229.7z"/>
				<circle id="XMLID_339_" class="st2" cx="128.5" cy="165.7" r="11.1"/>
				<path id="XMLID_338_" class="st2" d="M131.3,155c1.6,1.3,2.9,3.1,3.6,5.2c1.9,5.8-1.3,12.1-7.1,14c-2.1,0.7-4.3,0.7-6.3,0.2
					c2.8,2.3,6.7,3.1,10.4,1.9c5.8-1.9,9-8.2,7.1-14C137.8,158.5,134.8,155.9,131.3,155z"/>
				
					<rect id="XMLID_356_" x="37.7" y="179.1" transform="matrix(0.9501 -0.312 0.312 0.9501 -57.8173 24.0416)" class="st2" width="17.2" height="27.3"/>
				<path id="XMLID_355_" class="st7" d="M40.6,208.9l1.7-0.6l-8.5-25.9l-1.7,0.6c-2.4,0.8-3.6,3.3-2.9,5.7l5.7,17.4
					C35.7,208.4,38.2,209.7,40.6,208.9z"/>
				<g id="XMLID_626_">
					<polygon id="XMLID_337_" class="st7" points="139.3,198.7 58.6,203 50.1,177.1 117.6,132.7 					"/>
				</g>
				<path id="XMLID_354_" class="st2" d="M145,202.6l-1.8,0.6c-1.2,0.4-2.5-0.3-2.9-1.5l-23.6-71.9c-0.4-1.2,0.3-2.5,1.5-2.9
					l1.8-0.6c1.2-0.4,2.5,0.3,2.9,1.5l23.6,71.9C146.8,200.9,146.2,202.2,145,202.6z"/>
			</g>
			<path id="XMLID_620_" class="st8" d="M185.6,95.3l-46.8,54.3l55.7-45.2L185.6,95.3z M146.7,160.5l74.9-17.9l-4-12L146.7,160.5z
				 M216.7,190l1.7-12.6l-71.6-3.4L216.7,190z"/>
		</g>
		<path id="XMLID_119_" class="st0" d="M234.6,26.5c0-13-14.9-23.6-33.4-23.6c-18.4,0-33.4,10.6-33.4,23.6c0,13,14.9,23.6,33.4,23.6
			c4.9,0,9.6-0.8,13.8-2.1l10.9,7.4l-5-9.9C229.2,41.2,234.6,34.3,234.6,26.5z M186.5,30.1c-2.3,0-4.2-1.9-4.2-4.2
			c0-2.3,1.9-4.2,4.2-4.2c2.3,0,4.2,1.9,4.2,4.2C190.7,28.2,188.8,30.1,186.5,30.1z M201.3,30.1c-2.3,0-4.2-1.9-4.2-4.2
			c0-2.3,1.9-4.2,4.2-4.2c2.3,0,4.2,1.9,4.2,4.2C205.5,28.2,203.6,30.1,201.3,30.1z M216,30.1c-2.3,0-4.2-1.9-4.2-4.2
			c0-2.3,1.9-4.2,4.2-4.2c2.3,0,4.2,1.9,4.2,4.2C220.3,28.2,218.4,30.1,216,30.1z"/>
		<path id="XMLID_608_" class="st0" d="M316.3,69.2c-0.3,0-0.7-0.1-1-0.1c0,1.7,1.4,3.1,3.1,3.1h1.6v0.6c0,1.3,1,2.4,2.3,2.4h7.5
			c1.3,0,2.4-1,2.4-2.4v-0.6h1.6c1.7,0,3.1-1.4,3.1-3.1c-0.3,0.1-0.7,0.1-1,0.1H316.3z M315.3,66.5H337v-3.1h-21.7V66.5z
			 M315.3,60.3H337v-3.1h-21.7V60.3z M327,39.9l-0.9,0.5L322,38l4.1,14l4.1-14L327,39.9z M344.4,7.6C339.7,2.9,333.2,0,326.1,0
			c-1,0-1.9,0.1-2.9,0.2c-11.7,1.3-21.2,10.7-22.7,22.3c-0.1,1.1-0.2,2.2-0.2,3.2c0,8.3,3.9,16.1,10.7,21c2.8,2,5.1,4.8,6.6,7.8h5.7
			l-7-23.8l9.7,5.9l9.8-5.9l-7,23.8h5.8c1.5-3.1,3.8-5.8,6.8-8c6.6-4.8,10.5-12.6,10.5-20.8C351.9,18.7,349,12.2,344.4,7.6z"/>
		<path id="XMLID_603_" class="st0" d="M79.3,104.8c-3.6,0-6.6,2.9-6.6,6.6c0,3.6,2.9,6.6,6.6,6.6c3.6,0,6.6-3,6.6-6.6
			C85.9,107.7,83,104.8,79.3,104.8z M64,95.3l5.8,6.1c2.5-2.4,5.9-3.9,9.6-3.9c3.7,0,7.1,1.5,9.6,3.9l5.8-6.1
			c-4-3.8-9.4-6.2-15.4-6.2C73.4,89.1,68,91.5,64,95.3z M79.3,53.8c-15.4,0-29.4,6.1-39.8,16l5.8,6.1c8.8-8.5,20.8-13.7,34-13.7
			c13.2,0,25.1,5.2,34,13.7l5.8-6.1C108.8,59.9,94.8,53.8,79.3,53.8z M51.9,82.7l5.8,6.1c5.6-5.4,13.2-8.7,21.6-8.7
			c8.4,0,16,3.3,21.6,8.7l5.8-6.1c-7.1-6.8-16.8-11-27.4-11C68.7,71.7,59,75.9,51.9,82.7z"/>
		<path id="XMLID_594_" class="st8" d="M228.5,102.1c0.4,1.4,1.7,2.5,3.2,2.5h51.8c1.5,0,2.8-1,3.2-2.5l7.7-31h-73.4L228.5,102.1z
			 M276.5,76.7c0-0.9,0.8-1.7,1.7-1.7l0,0c0.9,0,1.7,0.8,1.7,1.7v21.7c0,0.9-0.8,1.7-1.7,1.7l0,0c-0.9,0-1.7-0.8-1.7-1.7V76.7z
			 M266.2,76.7c0-0.9,0.8-1.7,1.7-1.7c0.9,0,1.7,0.8,1.7,1.7v21.7c0,0.9-0.8,1.7-1.7,1.7c-0.9,0-1.7-0.8-1.7-1.7V76.7z M255.9,76.7
			c0-0.9,0.8-1.7,1.7-1.7c0.9,0,1.7,0.8,1.7,1.7v21.7c0,0.9-0.8,1.7-1.7,1.7c-0.9,0-1.7-0.8-1.7-1.7V76.7z M245.6,76.7
			c0-0.9,0.8-1.7,1.7-1.7c0.9,0,1.7,0.8,1.7,1.7v21.7c0,0.9-0.8,1.7-1.7,1.7c-0.9,0-1.7-0.8-1.7-1.7V76.7z M235.3,76.7
			c0-0.9,0.8-1.7,1.7-1.7c0.9,0,1.7,0.8,1.7,1.7v21.7c0,0.9-0.8,1.7-1.7,1.7c-0.9,0-1.7-0.8-1.7-1.7V76.7z M294.2,62.2h-11
			l-15.9-15.9c-0.9-0.9-2.4-0.9-3.3,0c-0.9,0.9-0.9,2.4,0,3.3l12.6,12.6h-38.2l12.6-12.6c0.9-0.9,0.9-2.4,0-3.3
			c-0.9-0.9-2.4-0.9-3.3,0l-15.9,15.9h-11c-1.8,0-3.3,1.5-3.3,3.3c0,1.8,1.5,3.3,3.3,3.3h73.3c1.8,0,3.3-1.5,3.3-3.3
			C297.5,63.6,296,62.2,294.2,62.2z"/>
		<g id="XMLID_124_">
			<g id="XMLID_142_">
				<g id="XMLID_583_">
					<path id="XMLID_144_" class="st9" d="M269.6,170.9c5.7,0,10.3,4.6,10.3,10.3s-4.6,10.3-10.3,10.3c-5.7,0-10.3-4.6-10.3-10.3
						S263.9,170.9,269.6,170.9z M278.4,181.2c0-4.9-4-8.8-8.8-8.8c-4.9,0-8.8,4-8.8,8.8s4,8.8,8.8,8.8
						C274.5,190,278.4,186.1,278.4,181.2z"/>
					<path id="XMLID_147_" class="st10" d="M269.6,172.4c4.9,0,8.8,4,8.8,8.8s-4,8.8-8.8,8.8c-4.9,0-8.8-4-8.8-8.8
						S264.7,172.4,269.6,172.4z M277.8,181.2c0-4.5-3.7-8.2-8.2-8.2c-4.5,0-8.2,3.7-8.2,8.2s3.7,8.2,8.2,8.2
						C274.1,189.4,277.8,185.7,277.8,181.2z"/>
					<path id="XMLID_150_" class="st11" d="M269.6,173c4.5,0,8.2,3.7,8.2,8.2s-3.7,8.2-8.2,8.2c-4.5,0-8.2-3.7-8.2-8.2
						S265.1,173,269.6,173z M276.7,181.2c0-3.9-3.2-7.1-7.1-7.1c-3.9,0-7.1,3.2-7.1,7.1c0,3.9,3.2,7.1,7.1,7.1
						C273.5,188.3,276.7,185.1,276.7,181.2z"/>
					<circle id="XMLID_153_" class="st9" cx="269.6" cy="181.2" r="7.1"/>
				</g>
			</g>
			<g id="XMLID_143_">
				<path id="XMLID_154_" class="st10" d="M270.8,177.8c0.9,0.3,1.3,1.1,1.3,2.1v0.2H271c0-0.6-0.1-1-0.4-1.3l-0.5,1.9
					c1.3,0.2,2.1,0.7,2.1,1.9v0.1c0,1.3-0.9,2.1-2.5,2.1c-0.2,0-0.3,0-0.5,0l-0.3,1.2H268l0.3-1.4c-0.9-0.4-1.3-1.1-1.3-2.1v-0.1
					h1.1c0,0.5,0.2,0.9,0.5,1.1l0.5-2c-1.4-0.2-2-0.8-2-1.8v-0.1c0-1.2,1-2,2.5-2c0.1,0,0.3,0,0.4,0l0.3-1.2h0.9L270.8,177.8z
					 M269.3,180.7l0.5-2.1c-0.1,0-0.1,0-0.2,0h0c-0.8,0-1.4,0.4-1.4,1v0.1C268.2,180.2,268.5,180.5,269.3,180.7z M271.1,182.8
					L271.1,182.8c0-0.7-0.4-1-1.2-1.1l-0.5,2.2c0.1,0,0.2,0,0.3,0h0C270.5,183.9,271.1,183.5,271.1,182.8z"/>
			</g>
		</g>
		<g id="XMLID_158_">
			<g id="XMLID_159_">
				<g id="XMLID_565_">
					<path id="XMLID_161_" class="st9" d="M262.2,122.3c7.1,0,12.9,5.8,12.9,12.9s-5.8,12.9-12.9,12.9c-7.1,0-12.9-5.8-12.9-12.9
						S255.1,122.3,262.2,122.3z M273.3,135.2c0-6.1-5-11.1-11.1-11.1s-11.1,5-11.1,11.1s5,11.1,11.1,11.1S273.3,141.3,273.3,135.2z"
						/>
					<path id="XMLID_164_" class="st10" d="M262.2,124.1c6.1,0,11.1,5,11.1,11.1s-5,11.1-11.1,11.1s-11.1-5-11.1-11.1
						S256.1,124.1,262.2,124.1z M272.5,135.2c0-5.7-4.6-10.3-10.3-10.3s-10.3,4.6-10.3,10.3s4.6,10.3,10.3,10.3
						S272.5,140.9,272.5,135.2z"/>
					<path id="XMLID_167_" class="st11" d="M262.2,124.9c5.7,0,10.3,4.6,10.3,10.3s-4.6,10.3-10.3,10.3s-10.3-4.6-10.3-10.3
						S256.5,124.9,262.2,124.9z M271.1,135.2c0-4.9-4-8.9-8.9-8.9s-8.9,4-8.9,8.9s4,8.9,8.9,8.9S271.1,140.1,271.1,135.2z"/>
					<circle id="XMLID_170_" class="st9" cx="262.2" cy="135.2" r="8.9"/>
				</g>
			</g>
			<g id="XMLID_160_">
				<path id="XMLID_171_" class="st10" d="M263.7,131c1.1,0.4,1.6,1.3,1.6,2.6v0.2H264c0-0.7-0.2-1.3-0.6-1.6l-0.6,2.4
					c1.7,0.3,2.6,0.9,2.6,2.3v0.1c0,1.6-1.1,2.6-3.1,2.6c-0.2,0-0.4,0-0.6,0l-0.4,1.5h-1.1l0.4-1.8c-1.1-0.4-1.7-1.4-1.7-2.6v-0.1
					h1.3c0,0.6,0.2,1.1,0.6,1.4l0.6-2.5c-1.7-0.3-2.5-1-2.5-2.3v-0.1c0-1.6,1.3-2.5,3.1-2.5c0.2,0,0.3,0,0.5,0l0.4-1.5h1.1
					L263.7,131z M261.8,134.5l0.6-2.6c-0.1,0-0.1,0-0.2,0h-0.1c-1,0-1.7,0.5-1.7,1.3v0.1C260.4,133.9,260.8,134.3,261.8,134.5z
					 M264,137.2L264,137.2c0-0.8-0.4-1.2-1.4-1.4l-0.7,2.8c0.1,0,0.2,0,0.3,0h0.1C263.3,138.5,264,138,264,137.2z"/>
			</g>
		</g>
		<g id="XMLID_175_">
			<g id="XMLID_176_">
				<g id="XMLID_547_">
					<path id="XMLID_178_" class="st9" d="M240.4,157.5c5.7,0,10.3,4.6,10.3,10.3c0,5.7-4.6,10.3-10.3,10.3
						c-5.7,0-10.3-4.6-10.3-10.3C230,162.1,234.7,157.5,240.4,157.5z M249.2,167.8c0-4.9-4-8.8-8.8-8.8c-4.9,0-8.8,4-8.8,8.8
						c0,4.9,4,8.8,8.8,8.8C245.2,176.7,249.2,172.7,249.2,167.8z"/>
					<path id="XMLID_181_" class="st10" d="M240.4,159c4.9,0,8.8,4,8.8,8.8c0,4.9-4,8.8-8.8,8.8c-4.9,0-8.8-4-8.8-8.8
						C231.5,163,235.5,159,240.4,159z M248.6,167.8c0-4.5-3.7-8.2-8.2-8.2c-4.5,0-8.2,3.7-8.2,8.2c0,4.5,3.7,8.2,8.2,8.2
						C244.9,176.1,248.6,172.4,248.6,167.8z"/>
					<path id="XMLID_184_" class="st11" d="M240.4,159.6c4.5,0,8.2,3.7,8.2,8.2c0,4.5-3.7,8.2-8.2,8.2c-4.5,0-8.2-3.7-8.2-8.2
						C232.2,163.3,235.8,159.6,240.4,159.6z M247.4,167.8c0-3.9-3.2-7.1-7.1-7.1c-3.9,0-7.1,3.2-7.1,7.1c0,3.9,3.2,7.1,7.1,7.1
						C244.3,174.9,247.4,171.8,247.4,167.8z"/>
					<circle id="XMLID_187_" class="st9" cx="240.4" cy="167.8" r="7.1"/>
				</g>
			</g>
			<g id="XMLID_177_">
				<path id="XMLID_188_" class="st10" d="M241.6,164.5c0.9,0.3,1.3,1.1,1.3,2.1v0.2h-1.1c0-0.6-0.1-1-0.4-1.3l-0.5,1.9
					c1.3,0.2,2.1,0.7,2.1,1.9v0.1c0,1.3-0.9,2-2.5,2c-0.2,0-0.3,0-0.5,0l-0.3,1.2h-0.9l0.3-1.4c-0.9-0.4-1.3-1.1-1.3-2.1V169h1.1
					c0,0.5,0.2,0.9,0.5,1.1l0.5-2c-1.4-0.2-2-0.8-2-1.8v-0.1c0-1.2,1-2,2.5-2c0.1,0,0.3,0,0.4,0l0.3-1.2h0.9L241.6,164.5z
					 M240,167.3l0.5-2.1c-0.1,0-0.1,0-0.2,0h0c-0.8,0-1.4,0.4-1.4,1v0.1C239,166.8,239.2,167.1,240,167.3z M241.8,169.4L241.8,169.4
					c0-0.7-0.4-1-1.2-1.1l-0.5,2.2c0.1,0,0.2,0,0.3,0h0C241.3,170.5,241.8,170.1,241.8,169.4z"/>
			</g>
		</g>
		<g id="XMLID_192_">
			<path id="XMLID_331_" class="st5" d="M261.4,311.1H123.9c-0.8,0-1.5-0.7-1.5-1.5v-89.7c0-0.8,0.7-1.5,1.5-1.5h137.5
				c0.8,0,1.5,0.7,1.5,1.5v89.7C262.9,310.4,262.3,311.1,261.4,311.1z"/>
			<circle id="XMLID_324_" class="st8" cx="129.9" cy="224.1" r="2.3"/>
			<circle id="XMLID_193_" class="st8" cx="140" cy="224.1" r="2.3"/>
			<circle id="XMLID_194_" class="st8" cx="150.2" cy="224.1" r="2.3"/>
			<rect id="XMLID_323_" x="179.1" y="234.8" class="st0" width="75.6" height="68.3"/>
			<rect id="XMLID_322_" x="133.3" y="234.8" class="st0" width="26.7" height="1.7"/>
			<rect id="XMLID_321_" x="133.3" y="243.5" class="st0" width="40" height="1.7"/>
			<rect id="XMLID_353_" x="133.3" y="249.2" class="st0" width="40" height="1.7"/>
			<rect id="XMLID_352_" x="133.3" y="254.8" class="st0" width="40" height="1.7"/>
			<rect id="XMLID_320_" x="133.3" y="260.5" class="st0" width="40" height="1.7"/>
			<rect id="XMLID_351_" x="133.3" y="266.2" class="st0" width="40" height="1.7"/>
			<rect id="XMLID_319_" x="133.3" y="271.8" class="st0" width="40" height="1.7"/>
			<rect id="XMLID_318_" x="133.3" y="277.5" class="st0" width="40" height="1.7"/>
			<rect id="XMLID_317_" x="133.3" y="283.2" class="st0" width="26.3" height="1.7"/>
			<g id="XMLID_195_">
				<rect id="XMLID_350_" x="185.7" y="243.2" class="st5" width="9.4" height="51.5"/>
				<rect id="XMLID_349_" x="203.4" y="243.2" class="st5" width="9.4" height="51.5"/>
				<rect id="XMLID_348_" x="221.1" y="243.2" class="st5" width="9.4" height="51.5"/>
				<rect id="XMLID_347_" x="238.7" y="243.2" class="st5" width="9.4" height="51.5"/>
			</g>
			<g id="XMLID_196_">
				<rect id="XMLID_316_" x="185.7" y="280.8" class="st8" width="9.4" height="13.9"/>
				<rect id="XMLID_315_" x="203.4" y="273.6" class="st8" width="9.4" height="21.1"/>
				<rect id="XMLID_346_" x="221.1" y="256.6" class="st8" width="9.4" height="38.1"/>
				<rect id="XMLID_314_" x="238.7" y="264.4" class="st8" width="9.4" height="30.3"/>
			</g>
		</g>
		<g id="XMLID_197_">
			<path id="XMLID_313_" class="st12" d="M279.2,232.7l8.4,10.7l-2.5,1.7l-0.6,0.4c-1.3,0.8-3,0.3-3.6-1.1l-3.1-7.6
				c-0.3-0.8-0.2-1.6,0.2-2.3L279.2,232.7z"/>
			<path id="XMLID_312_" class="st13" d="M279.2,232.7l-0.6,0.8c0.7,0.8,1.5,1.7,2.1,2.7c2,3.1,3,6.5,3,9.6c0.3-0.1,0.5-0.2,0.8-0.3
				l0.6-0.4l2.5-1.7L279.2,232.7z"/>
			<path id="XMLID_311_" class="st12" d="M287.9,222.6l19.9,4.1c2.6,0.5,4.8,2.1,6.2,4.2l13.3,20.2l14.5,15.4l-17.5,11.4l-19.5-8.6
				c-1.3-0.6-2.4-1.4-3.3-2.4l8.1-20.4l-10.5-9.3L287,224c-0.3-0.3-0.7-0.6-1-0.9C286.5,222.6,287.2,222.5,287.9,222.6z"/>
			<path id="XMLID_310_" class="st13" d="M301.2,236l-3.4-2c-4-3.9-7.5-7.7-10.1-11.4c-0.6-0.1-1.3,0.1-1.8,0.5
				c0.4,0.2,0.7,0.6,1,0.9l7.3,8l-0.1-0.1l5.1,5.5l10.5,9.3L301.2,236z"/>
			
				<rect id="XMLID_345_" x="227.6" y="204.5" transform="matrix(0.979 0.2039 -0.2039 0.979 50.5047 -48.8552)" class="st9" width="69.3" height="32.2"/>
			<path id="XMLID_344_" class="st14" d="M229.2,224l4.1-19.6c1.7,0.4,3.3-0.7,3.7-2.4l55.9,11.7c-0.4,1.7,0.7,3.3,2.4,3.7
				l-4.1,19.6c-1.7-0.4-3.3,0.7-3.7,2.4l-55.9-11.7C232,226,230.9,224.3,229.2,224z"/>
			<circle id="XMLID_309_" class="st9" cx="262.3" cy="220.6" r="9.7"/>
			<g id="XMLID_198_">
				<path id="XMLID_504_" class="st14" d="M265.5,223.5c-0.2,0.7-0.6,1.3-1.2,1.6c-0.6,0.4-1.5,0.5-2.5,0.4l-0.4,1.9l-1-0.2l0.4-1.8
					c-0.6-0.1-1.2-0.3-1.7-0.5c-0.5-0.2-1-0.4-1.3-0.7l0.3-1.3c0.4,0.3,0.9,0.6,1.4,0.8c0.6,0.2,1.1,0.4,1.5,0.5l0.7-3.5
					c-1-0.6-1.7-1.1-2.1-1.7c-0.3-0.6-0.4-1.2-0.3-1.9c0.1-0.7,0.5-1.2,1.2-1.6c0.6-0.3,1.4-0.5,2.3-0.4l0.3-1.5l1,0.2l-0.3,1.4
					c1,0.2,1.9,0.6,2.7,1.2l-0.6,1c-0.7-0.5-1.5-0.8-2.3-1.1L263,220c0.8,0.4,1.4,0.8,1.7,1.2c0.4,0.3,0.6,0.7,0.7,1.1
					C265.6,222.6,265.6,223.1,265.5,223.5z M260.7,217.4c-0.1,0.4,0,0.8,0.2,1.1c0.2,0.3,0.6,0.6,1.1,1l0.6-3.1
					c-0.5,0-1,0.1-1.3,0.3C261,216.8,260.8,217.1,260.7,217.4z M264.1,223.4c0.1-0.4,0-0.7-0.2-1c-0.2-0.3-0.6-0.6-1.2-1l-0.7,3.1
					C263.2,224.6,263.9,224.2,264.1,223.4z"/>
			</g>
			<path id="XMLID_305_" class="st13" d="M327.3,251.2L314.1,231c-0.9-1.4-2.2-2.5-3.7-3.3l13.5,22.8l14.8,18.2l3.1-2L327.3,251.2z"
				/>
			<path id="XMLID_304_" class="st12" d="M293.9,252.6l-1.7-3.3l-4.6-5.8l-8.4-10.7l-1.1-1.4c-1.9-2.4-1.5-6,0.9-8
				c0.2-0.1,0.3-0.3,0.5-0.4c2-1.3,4.5-1.2,6.4,0.1c0.4,0.2,0.7,0.6,1,0.9l12.2,13.4l10.5,9.3l-8.1,20.4c-0.6-0.7-1.1-1.4-1.5-2.2
				L293.9,252.6z"/>
			<path id="XMLID_303_" class="st12" d="M287.7,243.4l4.6,5.8l1.7,3.3l-0.7,0.4c-1.1,0.7-2.7,0.4-3.4-0.7l-4.7-7.2L287.7,243.4z"/>
			<path id="XMLID_302_" class="st15" d="M287.7,228.1l-5.6,4.8l-2.4-2.8c-1.3-1.6-1.1-3.9,0.4-5.2l0,0c1.6-1.3,3.9-1.1,5.2,0.4
				L287.7,228.1z"/>
			<path id="XMLID_301_" class="st13" d="M290.2,252.7c0.8,0.8,2.1,0.9,3,0.3l0.7-0.4l-1.7-3.3l-1.2-1.6
				C291.1,249.4,290.9,251.1,290.2,252.7z"/>
			
				<rect id="XMLID_343_" x="316.5" y="268.2" transform="matrix(0.8364 -0.5481 0.5481 0.8364 -94.1586 225.8203)" class="st16" width="29.5" height="4.9"/>
			
				<rect id="XMLID_342_" x="339.1" y="261.5" transform="matrix(0.8364 -0.5481 0.5481 0.8364 -88.7886 230.3576)" class="st17" width="4.9" height="4.9"/>
			<polygon id="XMLID_300_" class="st2" points="392.6,322.4 358,339.7 318.2,282.1 347,263.3 			"/>
			
				<rect id="XMLID_336_" x="351" y="262.1" transform="matrix(0.8364 -0.5481 0.5481 0.8364 -96.4058 240.4713)" class="st17" width="7.4" height="39.3"/>
		</g>
		<g id="XMLID_199_">
			<rect id="XMLID_335_" x="354" y="300.8" class="st18" width="64.3" height="99.3"/>
			<path id="XMLID_200_" class="st2" d="M351.7,294.5v112.7c0,3.6,2.7,6.5,6,6.5h56.8c3.3,0,6-2.9,6-6.5V294.5c0-3.6-2.7-6.5-6-6.5
				h-56.8C354.4,287.9,351.7,290.9,351.7,294.5z M418.3,400.1H354v-99.3h64.3V400.1z"/>
			<path id="XMLID_203_" class="st7" d="M393.5,295.8h-14.7c-0.5,0-0.9-0.4-0.9-0.9l0,0c0-0.5,0.4-0.9,0.9-0.9h14.7
				c0.5,0,0.9,0.4,0.9,0.9l0,0C394.4,295.4,394,295.8,393.5,295.8z"/>
			<circle id="XMLID_204_" class="st7" cx="386.1" cy="407.5" r="4.1"/>
			<rect id="XMLID_299_" x="382.1" y="303.2" class="st19" width="8.1" height="2.1"/>
			<rect id="XMLID_298_" x="405.5" y="303.2" class="st19" width="8.1" height="2.1"/>
			<rect id="XMLID_297_" x="358.5" y="303.2" class="st19" width="8.1" height="2.1"/>
			<g id="XMLID_205_">
				<path id="XMLID_329_" class="st8" d="M367.4,322.4h-7c-1,0-1.9-0.8-1.9-1.9v-7c0-1,0.8-1.9,1.9-1.9h7c1,0,1.9,0.8,1.9,1.9v7
					C369.3,321.5,368.4,322.4,367.4,322.4z"/>
				<path id="XMLID_328_" class="st9" d="M382.2,322.4h-7c-1,0-1.9-0.8-1.9-1.9v-7c0-1,0.8-1.9,1.9-1.9h7c1,0,1.9,0.8,1.9,1.9v7
					C384.1,321.5,383.2,322.4,382.2,322.4z"/>
				<path id="XMLID_327_" class="st8" d="M397,322.4h-7c-1,0-1.9-0.8-1.9-1.9v-7c0-1,0.8-1.9,1.9-1.9h7c1,0,1.9,0.8,1.9,1.9v7
					C398.9,321.5,398.1,322.4,397,322.4z"/>
				<path id="XMLID_326_" class="st7" d="M411.9,322.4h-7c-1,0-1.9-0.8-1.9-1.9v-7c0-1,0.8-1.9,1.9-1.9h7c1,0,1.9,0.8,1.9,1.9v7
					C413.7,321.5,412.9,322.4,411.9,322.4z"/>
			</g>
			<g id="XMLID_206_">
				<path id="XMLID_325_" class="st19" d="M367.4,339.3h-7c-1,0-1.9-0.8-1.9-1.9v-7c0-1,0.8-1.9,1.9-1.9h7c1,0,1.9,0.8,1.9,1.9v7
					C369.3,338.4,368.4,339.3,367.4,339.3z"/>
				<path id="XMLID_15_" class="st7" d="M382.2,339.3h-7c-1,0-1.9-0.8-1.9-1.9v-7c0-1,0.8-1.9,1.9-1.9h7c1,0,1.9,0.8,1.9,1.9v7
					C384.1,338.4,383.2,339.3,382.2,339.3z"/>
				<path id="XMLID_14_" class="st9" d="M397,339.3h-7c-1,0-1.9-0.8-1.9-1.9v-7c0-1,0.8-1.9,1.9-1.9h7c1,0,1.9,0.8,1.9,1.9v7
					C398.9,338.4,398.1,339.3,397,339.3z"/>
				<path id="XMLID_13_" class="st19" d="M411.9,339.3h-7c-1,0-1.9-0.8-1.9-1.9v-7c0-1,0.8-1.9,1.9-1.9h7c1,0,1.9,0.8,1.9,1.9v7
					C413.7,338.4,412.9,339.3,411.9,339.3z"/>
			</g>
			<g id="XMLID_207_">
				<path id="XMLID_12_" class="st9" d="M367.4,356.2h-7c-1,0-1.9-0.8-1.9-1.9v-7c0-1,0.8-1.9,1.9-1.9h7c1,0,1.9,0.8,1.9,1.9v7
					C369.3,355.3,368.4,356.2,367.4,356.2z"/>
				<path id="XMLID_5_" class="st19" d="M382.2,356.2h-7c-1,0-1.9-0.8-1.9-1.9v-7c0-1,0.8-1.9,1.9-1.9h7c1,0,1.9,0.8,1.9,1.9v7
					C384.1,355.3,383.2,356.2,382.2,356.2z"/>
			</g>
		</g>
		<g id="XMLID_208_">
			<g id="XMLID_209_">
				<g id="XMLID_210_">
					<path id="XMLID_211_" class="st1" d="M138.4,400.9H49.6v-55.8h88.8V400.9z M50.3,400.2h87.5v-54.5H50.3V400.2z"/>
				</g>
				<g id="XMLID_214_">
					<rect id="XMLID_215_" x="50" y="391" class="st1" width="88.1" height="0.7"/>
				</g>
				<g id="XMLID_216_">
					<rect id="XMLID_217_" x="50" y="381.9" class="st1" width="88.1" height="0.7"/>
				</g>
				<g id="XMLID_218_">
					<rect id="XMLID_219_" x="50" y="372.7" class="st1" width="88.1" height="0.7"/>
				</g>
				<g id="XMLID_220_">
					<rect id="XMLID_221_" x="50" y="363.5" class="st1" width="88.1" height="0.7"/>
				</g>
				<g id="XMLID_222_">
					<rect id="XMLID_223_" x="50" y="354.3" class="st1" width="88.1" height="0.7"/>
				</g>
				<g id="XMLID_224_">
					<rect id="XMLID_225_" x="123.1" y="345.4" class="st1" width="0.7" height="55.1"/>
				</g>
				<g id="XMLID_226_">
					<rect id="XMLID_227_" x="108.4" y="345.4" class="st1" width="0.7" height="55.1"/>
				</g>
				<g id="XMLID_228_">
					<rect id="XMLID_229_" x="93.7" y="345.4" class="st1" width="0.7" height="55.1"/>
				</g>
				<g id="XMLID_230_">
					<rect id="XMLID_231_" x="79" y="345.4" class="st1" width="0.7" height="55.1"/>
				</g>
				<g id="XMLID_232_">
					<rect id="XMLID_233_" x="64.3" y="345.4" class="st1" width="0.7" height="55.1"/>
				</g>
			</g>
			<g id="XMLID_234_">
				<path id="XMLID_235_" class="st8" d="M86.8,392C86.8,392,86.8,392,86.8,392c-0.3,0-0.6-0.2-0.6-0.5l-7.1-34l-8.2,15.8
					c-0.1,0.2-0.3,0.4-0.6,0.4H52.1c-0.4,0-0.7-0.3-0.7-0.7c0-0.4,0.3-0.7,0.7-0.7h17.7l8.9-17.1c0.1-0.2,0.4-0.4,0.7-0.3
					c0.3,0,0.5,0.2,0.5,0.5l6.9,33.4l6.5-20.4c0.1-0.2,0.2-0.3,0.4-0.4c0.2-0.1,0.4,0,0.6,0.1l6.5,4.2h35.5c0.4,0,0.7,0.3,0.7,0.7
					c0,0.4-0.3,0.7-0.7,0.7h-35.7c-0.1,0-0.2,0-0.4-0.1l-6-3.9l-7,21.9C87.3,391.8,87.1,392,86.8,392z"/>
			</g>
			<circle id="XMLID_296_" class="st7" cx="79.3" cy="355.6" r="1.8"/>
			<circle id="XMLID_295_" class="st7" cx="70.3" cy="373" r="1.8"/>
			<circle id="XMLID_294_" class="st7" cx="51.7" cy="373" r="1.8"/>
			<circle id="XMLID_293_" class="st7" cx="86.8" cy="391.4" r="1.8"/>
			<circle id="XMLID_292_" class="st7" cx="94" cy="368.6" r="1.8"/>
			<circle id="XMLID_291_" class="st7" cx="136.5" cy="373" r="1.8"/>
		</g>
		<path id="XMLID_236_" class="st0" d="M80.1,289.2h-7.3c-0.3-3.6-3.3-6.5-7-6.5h-11c0.2-0.8,0.4-1.7,0.4-2.5c0-5.2-4.3-9.5-9.5-9.5
			H28.9c-5.2,0-9.5,4.3-9.5,9.5c0,0.9,0.1,1.7,0.4,2.5h-1.5c-3.7,0-6.7,2.9-7,6.5H9.1c-5,0-9.1,4.1-9.1,9.1c0,5,4.1,9.1,9.1,9.1h71
			c5,0,9.1-4.1,9.1-9.1C89.1,293.3,85.1,289.2,80.1,289.2z"/>
		<path id="XMLID_432_" class="st0" d="M65.7,132l-17.6-16.4c-0.8-0.7-1.9-0.7-2.7,0L27.8,132c-0.4,0.4-0.6,0.9-0.6,1.4v22.3
			c0,0.5,0.2,1,0.6,1.4c0.4,0.4,0.9,0.6,1.4,0.6h12.1c0,0,0,0,0,0c0.5,0,1-0.2,1.4-0.6c0.4-0.4,0.6-0.8,0.6-1.4v-13.5h7v13.5
			c0,1.1,0.9,2,2,2c0,0,0,0,0,0h12.1c0.5,0,1-0.2,1.4-0.6c0.4-0.4,0.6-0.9,0.6-1.4v-22.3C66.3,132.9,66.1,132.4,65.7,132z
			 M62.4,153.8h-8.2v-13.5c0-0.5-0.2-1-0.6-1.4c-0.4-0.4-0.9-0.6-1.4-0.6H41.3c-0.5,0-1,0.2-1.4,0.6c-0.4,0.4-0.6,0.9-0.6,1.4v13.5
			h-8.2v-19.5l15.6-14.6l15.6,14.6V153.8z"/>
		<g id="XMLID_237_">
			<path id="XMLID_240_" class="st8" d="M394.8,231.3c0,7.6-2.6,13.7-10.2,13.7h-38.9c-7.6,0-11-6.1-11-13.7v-14.5
				c0-7.6,3.1-13.7,10.6-13.7h39.6c7.6,0,9.8,6.1,9.8,13.7V231.3z"/>
			<polygon id="XMLID_290_" class="st5" points="358.7,215.9 375.1,224.4 358.7,233 			"/>
		</g>
		<path id="XMLID_241_" class="st18" d="M162.6,54.2h6.9V43.4h-8.5l0,0h-1.8c0,0-6.5-0.2-10.6,5.2c0,0-2.8,2.7-2.9,10.4h0v8.1h-10.2
			v11.5h10.2v29.7h11.7V78.7h10.1l1.4-11.5h-11.5v-8.1h0C157.5,58.2,157.9,54.2,162.6,54.2z"/>
		<g id="XMLID_242_">
			<path id="XMLID_243_" class="st9" d="M399.9,73.7h-21.8c-9.7,0-17.5,7.8-17.5,17.5v21.8c0,9.7,7.8,17.5,17.5,17.5h21.8
				c9.7,0,17.5-7.8,17.5-17.5V91.2C417.4,81.6,409.5,73.7,399.9,73.7z M411.9,111c0,7.8-6.3,14.1-14.1,14.1h-17.6
				c-7.8,0-14.2-6.3-14.2-14.1V93.3c0-7.8,6.3-14.1,14.2-14.1h17.6c7.8,0,14.1,6.3,14.1,14.1V111z"/>
			<path id="XMLID_246_" class="st9" d="M389.7,87.3c-8.3,0-15,6.7-15,15c0,8.3,6.7,15,15,15c8.3,0,15-6.7,15-15
				C404.7,94,398,87.3,389.7,87.3z M389.7,111.3c-5,0-9-4-9-9c0-5,4-9,9-9c5,0,9,4,9,9C398.7,107.2,394.7,111.3,389.7,111.3z"/>
			<circle id="XMLID_249_" class="st9" cx="403.7" cy="87" r="3.8"/>
		</g>
		<g id="XMLID_250_">
			<path id="XMLID_289_" class="st9" d="M150.6,392.1c0-22.5,18.3-40.8,40.8-40.8c22.5,0,40.8,18.3,40.8,40.8
				c0,22.5-18.3,40.8-40.8,40.8C168.9,432.9,150.6,414.6,150.6,392.1z"/>
			<g id="XMLID_251_">
				<circle id="XMLID_288_" class="st18" cx="191.4" cy="392.1" r="20.2"/>
				<g id="XMLID_252_">
					<path id="XMLID_253_" class="st2" d="M150.6,392.1c0-22.5,18.3-40.8,40.8-40.8c22.5,0,40.8,18.3,40.8,40.8
						c0,22.5-18.3,40.8-40.8,40.8C168.9,432.9,150.6,414.6,150.6,392.1z M154.5,392.1c0,20.4,16.6,36.9,36.9,36.9
						c20.4,0,36.9-16.6,36.9-36.9c0-20.4-16.6-36.9-36.9-36.9C171,355.2,154.5,371.8,154.5,392.1z"/>
				</g>
				<path id="XMLID_254_" class="st7" d="M158.4,392.1c0,18.2,14.8,33,33,33c18.2,0,33-14.8,33-33c0-18.2-14.8-33-33-33
					C173.2,359.1,158.4,373.9,158.4,392.1z M172,392.1c0-10.7,8.7-19.4,19.4-19.4c10.7,0,19.4,8.7,19.4,19.4s-8.7,19.4-19.4,19.4
					C180.7,411.5,172,402.8,172,392.1z"/>
				<circle id="XMLID_283_" class="st8" cx="191.4" cy="392.1" r="9.7"/>
				<g id="XMLID_255_">
					<polygon id="XMLID_282_" class="st6" points="150.2,359.1 157.1,357.8 147.4,348.1 140.6,349.5 					"/>
					<polygon id="XMLID_281_" class="st6" points="158.4,350.9 157.1,357.8 147.4,348.1 148.8,341.3 					"/>
					<g id="XMLID_256_">
						
							<rect id="XMLID_280_" x="168.2" y="338.8" transform="matrix(-0.7071 0.7071 -0.7071 -0.7071 552.5945 512.722)" class="st2" width="3.9" height="64.1"/>
					</g>
					<g id="XMLID_257_">
						<path id="XMLID_258_" class="st2" d="M136.6,348.3l11.4-2.3L161,359l-11.4,2.3L136.6,348.3z M146.8,350.3l-2.3,0.5l6.3,6.3
							l2.3-0.5L146.8,350.3z"/>
					</g>
					<g id="XMLID_259_">
						<path id="XMLID_260_" class="st2" d="M145.3,348.8l2.3-11.4l12.9,12.9l-2.3,11.4L145.3,348.8z M150,345.2l-0.5,2.3l6.3,6.3
							l0.5-2.3L150,345.2z"/>
					</g>
					<g id="XMLID_261_">
						<polygon id="XMLID_275_" class="st2" points="184.5,395.4 194.7,395.4 194.7,385.2 190.8,385.2 190.8,391.5 184.5,391.5 
													"/>
					</g>
				</g>
			</g>
		</g>
		<g id="XMLID_262_">
			<polygon id="XMLID_274_" class="st0" points="39.1,328.6 22.5,319 22.5,338.2 			"/>
			<polygon id="XMLID_273_" class="st0" points="20.9,328.6 4.3,319 4.3,338.2 			"/>
		</g>
		<g id="XMLID_263_">
			<polygon id="XMLID_272_" class="st1" points="322.5,362.6 312.9,379.2 332.1,379.2 			"/>
			<rect id="XMLID_271_" x="317.3" y="376.6" class="st1" width="10.3" height="17.6"/>
		</g>
		<path id="XMLID_264_" class="st1" d="M291.7,411.5l2.4-4.1h9.1c-1.4-2.3-3.9-3.8-6.8-3.8c-3.2,0-6,2-7.3,4.8h-33
			c-1.2-2.8-4-4.8-7.3-4.8c-2.9,0-5.4,1.5-6.8,3.8h9.1l2.4,4.1l-2.4,4.1h-9.1c1.4,2.3,3.9,3.8,6.8,3.8c3.2,0,6-2,7.3-4.8h33
			c1.2,2.8,4,4.8,7.3,4.8c2.9,0,5.4-1.5,6.8-3.8h-9.1L291.7,411.5z"/>
		<polyline id="XMLID_265_" class="st1" points="428.2,425.8 446.5,405.6 425.2,405.6 443.5,385.4 		"/>
		<rect id="XMLID_270_" x="43.2" y="406.6" class="st2" width="101.3" height="2"/>
		<rect id="XMLID_269_" x="43.2" y="340.8" class="st2" width="2" height="67.8"/>
		<g id="XMLID_266_">
			<rect id="XMLID_10_" x="319.3" y="424.1" class="st8" width="7.6" height="7.6"/>
			<rect id="XMLID_9_" x="333" y="424.1" class="st1" width="7.6" height="7.6"/>
			<rect id="XMLID_8_" x="346.4" y="424.1" class="st1" width="7.6" height="7.6"/>
		</g>
		<g id="XMLID_267_">
			<rect id="XMLID_7_" x="75.5" y="265.5" class="st2" width="7.6" height="7.6"/>
			<rect id="XMLID_6_" x="75.5" y="251.7" class="st8" width="7.6" height="7.6"/>
			<rect id="XMLID_4_" x="75.5" y="238.3" class="st3" width="7.6" height="7.6"/>
		</g>
		<g id="XMLID_268_">
			<rect id="XMLID_3_" x="337.7" y="112" class="st9" width="7.6" height="7.6"/>
			<rect id="XMLID_2_" x="337.7" y="98.2" class="st8" width="7.6" height="7.6"/>
			<rect id="XMLID_1_" x="337.7" y="84.9" class="st0" width="7.6" height="7.6"/>
		</g>
	</g>
</g>
<g id="Designed_By_Freepik">
</g>
</svg>
