<?xml version="1.0" encoding="utf-8"?>
<!-- Generator: Adobe Illustrator 19.0.0, SVG Export Plug-In . SVG Version: 6.00 Build 0)  -->
<svg version="1.1" xmlns="http://www.w3.org/2000/svg" xmlns:xlink="http://www.w3.org/1999/xlink" x="0px" y="0px"
	 viewBox="0 0 750 500" style="enable-background:new 0 0 750 500;" xml:space="preserve">
<style type="text/css">
	.st0{fill:#EFF2F4;}
</style>
<g id="BACKGROUND">
</g>
<g id="OBJECTS">
	<g>
		<g>
			<path class="st0" d="M288.1,350.6c-3.8-1.9-8.1-2.4-12.4-2.8c-3.8-0.5-7.6-1.9-10.9-3.3c1.4-1.9,0.5-3.3-1-5.2
				c-1-1.4-2.4-3.3-3.8-5.2c-1-0.5-1.9-0.9-3.3-0.9c-0.5,0-1.4,0-2.4,0c-1-0.5-2.4-1.9-3.3-2.4c-1-0.9-1.9-1.9-2.9-2.8
				c-1-0.9-1.4-1.9-2.9-1.9c-1.4-0.5-1.4,0.5-2.4,0.9c-1.4,0.5-4.3-0.9-5.7-0.9c-1-0.5-1.9-1-2.9-1c-1,0-1.4,0-2.4,0
				c-1.9-0.5-2.9-0.9-4.8,0c-2.9-0.5-5.2,1-7.6,1.9c-2.4,0.9-7.1,3.8-9.5,1.4c-1.9-1.9-1.4-5.7-3.3-8.5c-2.4-2.8-5.2-2.4-8.1-4.3
				c-2.4-1.4-1-4.7-0.5-7.1c0.5-1.4,1.9-5.7-1.4-4.3c-2.9,1.4-2.7,4.8-5.1,6.7c-2.9,1.9-7.3,0-9.7-1.9c-1.9-2.4-3.8-5.7-3.3-9
				c0.5-3.8,3.3-7.1,6.2-9c4.8-3.3,10.5-1.4,15.2-3.3c1.9-0.9,3.8-1.9,5.7-0.5c2.4,1.9,3.3,5.2,4.8,7.6c1.4,2.4,1-1.4,1-2.4
				c0-3.8,0.5-7.6,2.9-10.4c1.4-2.4,4.3-4.3,5.7-7.1c1.9-2.8,1.7-6.5,4.1-8.9c2.9-2.8,5.2-2.5,7.3-5.4c-0.2-1.5-1.4-2.2,1.5-4.6
				l0.8-0.6c1-0.7,1.7-1.7,2.6-2.1c0.7-0.2,1.4-0.7,2.1-0.9c0.7-0.5,1.4-1,2.1-1.2c0.7-0.2,2.1-0.5,2.6,0c-1.7,1.2-3.6,2.1-4.5,3.5
				c-0.5,0.2-1.2,1.4-0.5,1.7c0.5,0.5,1.7-0.5,1.9-0.7c1.4-0.7,2.6-2.1,4.3-2.6c1,0,2.1,0,3.1-0.5c0.5-0.5,0.5-1.2,0.9-1.7
				c0.5-0.5,1.4,0,1.9-0.5c0.7-0.7,1-1.9,0-2.4c-1-0.7-1.7,0.7-2.1,1.2c-0.7,0.9-1.4,0.5-2.1-0.2c-0.7-0.5-1.2-1.4-2.1-1.2
				c-0.7,0-1.2,0.7-1.9,0.2c-1-0.7-0.5-1.9-0.7-2.8c-0.2-0.9-1-0.9-1.9-0.7c0.7-0.2,1.7-0.5,2.4-0.7c0.7-0.2,1.9-0.5,2.1-1.2
				c0.5-1.4-3.1-1.4-4-1.4c-1.4,0.2-2.1,0.9-3.3,1.7c-1.2,0.9-2.6,1.2-3.8,1.9c1.4-1.9,3.3-3.3,5.2-4.7c0.7-0.7,1.4-1.7,2.1-2.1
				c1-0.2,1.7-0.2,2.6,0c1.7,0.2,3.6,0.5,5.5,0.9c1.7,0.5,2.6,0,3.8-1.4c0.7-0.5,3.3-4,4-2.1c0.2,0.9-0.2,2.1-0.7,2.8
				c-0.5,1.2-1,1.9-1.4,2.8c-0.5,1.2-1.2,2.1-1.4,3.3c-0.2,1.9,1.9,2.4,3.3,2.1c0.7,0,1.7,0,2.4,0.2c1,0.2,1.7,0.7,2.4,0.7
				c1.4,0.2,2.9-0.9,4-1.4c-1-1.7-2.1-3.1-3.6-4.5c-1.4-1.2-3.1-2.8-2.9-4.7c0.2-1.7,1-3.1,1-4.7c-0.2-1.7-0.7-3.8-2.1-4.7
				c-1.3-0.7-2.7-0.3-4,0.2c1-1,1.8-2.3,0.6-3.5c-1.4-1.4-3.8-1.9-5-3.3c-1-1.4-1-3.1-1.4-4.5c-0.5-1.2-1.4-2.4-1.9-3.8
				c-0.5-1.9-0.7-4.3-2.1-5.9c-1.2-1.9-2.6-0.9-3.6,0.7c-0.7,1.7-1.2,4-2.6,5.2c-1,0.7-1.9,0-2.4-0.7c-0.5-1.2-0.7-2.4-0.7-3.5
				c-0.2-1.4-0.5-2.8-1.2-4c-1.4-3.3-4.5-6.9-8.3-7.6c-1.7-0.2-3.6-0.2-5.2,0.5c-1.4,0.5-1.7,1.7-1.2,3.1c0.2,1.7,0.5,3.1,0,4.5
				c-0.7,1.4-1.7,2.8-1.9,4.3c-1,3.3,1.2,5.7,3.3,8c1,1.2,0.7,1.9-0.2,2.8c-1.2,1.4-2.6,2.6-3.1,4.5c-0.2,1.2,0.2,2.1,0,3.3
				c-0.2,1.7-0.7,3.3-1,5c0,0.7,0,4-1.2,3.8c-0.5-0.2-1.2-1.2-1.4-1.7c-0.7-1.2-1.2-2.4-1.7-3.8c-0.7-2.1-1-4.5-2.4-6.4
				c-1.2-1.7-3.1-2.1-5-3.1c-1.7-0.7-2.9-1.9-4.3-2.8c-1.7-0.9-3.8-1.2-5.7-1.2c-1.2,0-2.9,0-3.1-1.4c-0.2-1.4,0-2.8-0.7-4
				c-0.7-1.4-1.4-2.8-1.7-4.3c-0.2-1.4,0-2.8-0.5-4.3c-0.2-1.2-1-2.6-0.7-3.8c0.2-1.7,2.1-2.4,3.6-2.8c1.7-0.7,3.6-0.7,5.5-0.9
				c-0.2-1.2-2.1-1.7-2.9-2.4c-0.7-0.2-1.4-0.5-2.1-0.7c-0.5,0-1,0-1.7-0.2c-0.2,0-0.5,0.2-1,0c1.2-0.2,2.1-0.5,3.1-0.5
				c1-0.2,1.4,0,2.1,0.5c1,0.5,1.9,0.7,2.6,0c0.7-0.7,0.7-1.9,1.4-2.4c0.7-0.5,4.5-1.2,3.8-2.4c0-0.2-0.7-0.5-1-0.7
				c-0.5-0.2-0.7-0.5-1.2-0.7c-0.7-0.7-1.4-0.5-2.1-0.2c1-0.7,2.1-0.9,3.1-0.9c1,0,2.1,0.7,2.1-0.7c0.2-1.2-0.9-2.6,0.5-3.3
				c1.2-0.5,2.9-0.7,4-0.7c1.7-0.2,4.3-1.7,3.8-3.8c-0.2-1.2-1.4-1.2-2.1-1.7c-0.7-0.9-0.7-2.1-0.2-3.3v0.2l1.2-2.1
				c0.5-0.9,1.4-2.1,1.7-3.1c0-0.5,0-0.7-0.5-0.9c-0.5,0-1-0.2-1.4-0.2c-0.5,0-1,0.5-1.4,0.5c-1,0-1.2-1.4-1.7-1.9
				c-0.7-0.2-1.7-0.7-2.4-0.7c-0.7,0-1.7,0.5-1.9,1.2c-0.7,1.2,0.2,1.7,0.7,2.4c0.5,0.5,1.2,1.7,1,2.4c0,0.9-1.7,1.2-1.7,2.1
				c0,1.2,1.2,1.2,0.7,2.4c-0.2,0.5-0.7,0.9-1,1.4c-0.2,0.5-0.7,1.2-0.9,1.4c-1.2,0.2-1-1.2-1.2-1.7c-0.5-1.2-1.2-1.7-1.2-2.8
				c0.2-0.7,0.7-1.2,0.7-1.9c0.2-0.9-0.2-1.4-1.2-1.9c-2.1-0.9-2.6,2.1-3.1,3.5c-0.2-1.7-0.2-3.5-1.2-5c-0.7-1.2-2.1-1.7-2.6-2.8
				c-0.7-1.4-0.5-3.1-0.7-4.5c-0.5-1.7-1-3.3-1.7-4.7c-0.5-1.2-1.9-3.1-3.6-1.9c-1.2,0.9-1.4,3.5-1.9,5c-0.5,1.9-0.5,3.3,1.2,4.5
				c1.7,1.2,3.6,2.1,3.6,4.3c0,2.1-1.2,4-1.9,5.7c-0.7,1.7-1.2,3.3-1.4,5c-0.5-0.5-0.2-1.4-0.2-1.9c0-0.7,0-1.4,0-2.1
				c-0.2-1.4-1.7-0.9-2.9-1.7c0-0.5,0.7-0.7,0.2-1.4c0.2-0.2,1-0.5,1.4-0.5c0.2-0.2,1-0.2,1-0.5c-0.7-2.1-1.4-5.7-4.3-5.7
				c-1.4,0-1.7,0.9-1.4,2.1c0,0.5,0,0.9-0.2,1.4c0,0.2-0.5,0.7-0.5,0.9c0,0.9,1.9,0.7,2.4,0.9c1.2,0.5-0.5,1.7-0.7,2.4
				c-0.5,1.2,0.2,0.7,1.2,0.9c1.2,0.2,1.4,1.4,1.9,2.4c-1,0.5-2.4-0.5-3.3-0.5c-1-0.2-1.9-0.7-3.1-0.7c-0.5,0-1.2,0-1.9,0
				c-1,0.2-1.4,0.7-2.4,0.9c0-1.9-1.7-1.4-3.1-1.7c-0.2,0-0.5-0.2-0.7-0.2c-0.5-0.2-1-0.2-1.2-0.2c-0.5-0.2-1-0.7-1.2-0.7
				c-0.2,0-0.5,0.2-1,0.2c0-0.7,0.2-1.2,0.2-1.9c0-0.7-0.7-0.5-1.4-0.2c-0.7,0-1.4,0.5-2.4,0.5c-1.4,0.5-0.5,1.2-0.2,2.1
				c0.2,0.5,0.2,0.9,0.7,1.4c0.5,0.5,0.7,0.7,0.5,1.2l-1.2,1.9c-1.9-2.4-2.4-3.8-5.2-3.3c-1.4,0-2.4,0.5-3.8,0.5c-1,0-2.4,0-3.3-0.5
				c-0.5-0.5-1.9-0.9-1.9-1.9c-0.5-0.9,0.5-0.9,1-1.9c0-1.9-2.4-1.9-3.8-1.9c-1-0.5-1.9-0.9-2.9-0.9c-1,0-1.4,0.5-1.9,0.5
				c-1-0.5-1.4-1.9-1.9-2.4c-1.4-1.4-3.8-1.9-6.2-1.9c0,0.5,1,2.4-0.5,1.9c-1.4-0.5,0-2.4,0-2.8c-2.4-0.9-2.4,4.7-4.8,1.9
				c-1.4-1.4-1-4.3-3.3-2.4c-1,0.5-1.4,0.9-2.4,1.4c-1.4,0.5-1.4,0.5-1.9,1.9c-0.5,0.9-0.5,1.9-2.4,1.9c-0.3,0-1.3-0.4-2.1-0.4
				c0.2-0.3,0.4-0.7,0.6-1c0.5-0.5,2.4-1.4,1.9-2.4c-1.4,0-2.4,0.5-3.3,1.9c-0.5,0.5-1,2.8-1.9,3.3c-0.5,0.5-2.4-0.5-3.3-0.5
				c-1,0-1.9-0.5-2.4-0.5c-1-0.9-1.9-1.9-2.9-2.4c-1-0.9-2.4-0.9-3.8-0.9c-1.4,0-2.4-0.5-3.8,0c-1,0-1.9,0-2.4-0.5
				c-1-0.9-1-2.4-2.4-2.4c-1.4,0-2.9,0.9-4.3,0.9c-1,0-2.4-0.9-3.3-1.9c-1.4-0.9-1.9-1.4-3.8-1.4c-1.4-0.5-3.3-0.5-4.8-0.9
				c-1.4-0.5-1.9-1.9-2.9-1.9c-1,0-2.4,0.5-2.9,0.9c0.5-0.5,1.4-0.9,1.4-1.9c-3.3-0.9-5.2,0.9-7.6,2.8c-2.9,2.4-5.7,3.8-8.1,6.6
				c-3.3,2.8-4.8,7.1,0,9c2.4,0.9,8.6,0.9,9,4.7c0.5,1.9-1.4,3.8-3.3,3.8c-1.9,0.5-1.9-1.4-2.9-2.8c-1.9-2.4-8.6,1.9-6.2,4.7
				c1,0.9,1.4,0.9,1.4,2.4c0.5,1.4,0.5,2.4,2.4,2.8c3.3,0.9,5.2-0.9,8.1-2.8c1,0.9,0,2.4-0.5,3.3c0,0.5-0.5,1.4-0.5,1.9
				c-0.5,1.4-0.5,1.4-1.9,1.9c-1,0.5-1.9,0.5-2.4,0.9c-1.9,0.9-3.8,2.8-2.4,4.7c0.5,0.9,0.9,0.9,0.9,1.9c-0.5,1.4-2.4,1.4-2.4,2.8
				c0.5,0.9,1.9,0,2.4,0.5c0,0.9-1.4,1.9-1.4,2.4c0.5,0.9,1.4,0.9,2.4,0.9c0.7,0,1.6-0.3,2.2-0.8c-0.4,1.2-0.9,2.6-0.3,3.2
				c1.4,0.9,4.3-1.4,5.2-1.9c0,1.4-1.9,3.3,0.5,3.3c1.9,0,3.3-0.9,5.2-1.4c-0.5,0.5-1,1.4-1.4,2.4c0,0.5,0,1.4-0.5,2.4
				c-0.5,0.9-2.4,1.9-3.8,2.8c-0.5,0.9-1,1.4-1.9,1.9c-0.5,0.5-1,1.4-1.4,1.9c-1.4,1.4-2.9,1.9-4.8,2.8c1.9,0.5,4.8-0.5,6.7-1.4
				c2.4-0.9,4.8-1.4,6.7-3.3c1-0.9,1.9-1.9,2.4-2.8c0.5-1.4,0.5-2.4,1.4-2.8c0.5-0.9,2.9-1.9,2.4-2.8c0-0.9-1.9-0.9-2.4-0.9
				c-0.4-1.6,2.5-3.5,4.3-4.6c-0.1,0.3-0.1,0.5,0,0.8c0,2.4,4.3,1.4,5.2,0c1-0.9,1-3.3,2.4-3.8c1.9-0.9,2.9,0.5,3.8,1.4
				c2.4,2.4,5.7,0.9,8.6,0.9c0.5,0.5,0,0.9,0,1.4c1.4,0.5,2.4-0.5,3.8,0c1,0.5,1.9,1.4,2.9,2.4c1.4,0.9,4.8,1.9,4.8,3.8
				c0.5,1.4,0,1.9,1.4,2.4c1,0.5,1.4,0.9,1.9,1.9c0.5,0.9,1.9,1.9,1.9,2.8c0.5,1.4-0.5,2.4,1.4,2.8c0.5-1.4,0-4.3,0-6.2
				c1.9,1.4,3.8,4.3,5.2,6.6c0,0.9,0.5,1.4,0.5,2.8c-0.5,0.5-0.5,1.4-0.5,1.9c0.5,1.9,1.9,2.8,2.4,4.7c0.5,0.9,0.5,3.3,1,4.3
				c1,0.9,2.4-0.5,3.8,0c0.5,0.2,0.9,0.5,1.1,1c-1-0.1-1.9,0.3-2.6-0.1c-1,0.5-0.5,1.9,0,2.8c0.5,0.9,1.9,1.4,2.9,2.4
				c0.5,0.9,1,5.2,2.9,4.3c0,0.9-1,1.9-1.4,2.8c0,1.4,1.4,2.8,1.4,4.3c1,2.8-1,5.7-1,8c0.5,2.8,2.4,5.2,3.8,7.6
				c1,1.9,1.9,4.3,3.8,6.2c1.9,1.9,3.8,4.3,5.2,6.6c1.9,2.4,1.4,5.2,3.3,7.6c1.4,0.9,1.4,1.4,1.9,2.8c0,1.4,1,2.4,1.9,3.3
				c2.4,1.4,3.8,3.3,6.2,4.7c-1.9-3.3-3.3-6.2-5.2-9.5c-1-1.4-2.4-3.3-2.9-4.7c-0.5-1.4,0-1.4,1-0.5c1.4,0.9,2.9,2.8,4.8,3.8
				c1.9,1.4,9.5,9.5,10.9,13.2c1.4,3.8,4.3,5.2,7.1,7.6c2.9,1.9,5.2,5.2,9,5.7c1.4,0.5,3.3,0,4.8,0.5c2.4,0,3.8,0.9,5.7,1.9
				c1.4,0.9,2.9,2.4,4.3,2.8c1.9,0.9,3.3,1.4,5.2,2.4c1.4,0.9,2.4,2.4,3.8,4.3c0.5,1.4,1.4,2.8,2.9,3.3c1.9,0.5,3.8,0,5.7,0
				s4.3,0.5,6.2,1.4h-2.4c1,0.5,2.4,0.9,2.4,1.9c0,0.9-1,1.9-1.4,2.4c-1.4,1.9-0.5,4.3-2.4,6.2c-1.9,1.4-3.8,0.9-5.2,2.8
				c-1,1.4-4.3,4.7-3.3,6.1c1,1.9,3.3,0.5,4.3,1.4c0.5,0.5,0,1.9,0,2.8c0,1.4,0.5,2.4,1.4,3.3c1,0.9,2.4,1.4,3.3,2.4
				c0.5,0.9,0.9,2.4,1.4,3.8c0.5,2.4,1,3.8,2.4,5.7c1.4,1.9,3.3,3.8,5.2,5.2c1,0.9,1.9,1.9,2.9,2.4c1,0,2.4,0,2.9,0.9
				c1,0.9-0.5,4.3-0.5,5.7c0,2.4,0,5.2,0,7.6c0,1.4-0.5,2.8-1,4.3c-0.5,1.9-1.9,3.8-2.9,5.7c-0.5,1.9-0.5,3.3,0.5,5.2
				c0.5,1.4,0,3.3,0,4.7c-0.5,1.9-1,3.3-1.4,4.7c-1.4,2.8-1.9,5.7-2.4,8.5c0,1.4-0.5,3.3-1.4,4.7c-0.5,1.4-1.4,2.4-1.4,4.3
				c2.4,0,2.4-3.3,4.3-3.3c1,0.9,0,2.4,0,3.3c-1,1.4-1,2.8-1.4,4.3c0,1.4-1,6.6-2.4,6.6c0,0-0.5,2.8-0.5,4.3c0,0.9,1,0.9,1,1.9
				c0.5,0.9,0,1.9,0.5,2.4c1,0.5,1.9,0,2.9,0.5c0.5,0.5,1,1.9,1.4,2.4c0.5,0.9,1.4,0.9,1.9,1.4c1,0.9,0.5,2.4,1.4,2.8
				c1,0.5,1.9-0.5,2.9,0c0,1.9-2.4,2.4-2.4,3.8c0,1.4,2.9,1.9,4.3,1.9c2.4-0.5,5.2-2.4,7.6-3.3c-1.4-1.4-3.3-2.8-4.8-4.3
				c-1.4-1.9-1-3.8-1.9-5.7c-1.4-1.9-2.9-2.8-2.4-5.2c0-2.4,2.4-2.8,4.3-3.8c0.5-0.5,1.9-1.4,1.9-2.4c0.5-0.9-0.5-0.9-1.4-1.4
				c-1.9-1.4-2.9-3.8-0.5-5.7c0.5-0.5,1.4-0.5,1.9-1c0.5-0.9,1-1.9,1-3.3c0-1.9,0-4.3-0.5-6.6c1-0.5,1.9,0.5,2.9,0.5
				c1.4-0.5,1.9-1.4,2.4-2.8c0-0.9,0-1.4,1-1.9c1-0.5,2.9-0.5,3.8-0.9c1.4-0.5,2.4-1.4,3.3-1.9c1-0.5,2.4-0.9,2.4-1.9
				c0.5-1,0-1.9,0-2.8c-0.5-0.9-0.5-1.9-0.5-2.8c7.1,0,11.4-5.7,13.8-11.8c1-3.3,1.4-6.6,4.3-9c2.9-2.4,6.7-2.8,9.5-5.2
				c3.3-2.4,3.8-5.7,3.8-9.5c0-3.3,0.5-6.1,2.9-8.5c2.4-2.4,5.2-4.3,5.2-7.6C294.8,355.3,291.5,352.5,288.1,350.6z M78.8,203.5
				c0.4-0.7,0.8-1.4,1.3-1.9c0.5-0.5,3.3-1.9,3.8-0.5C82.8,202.2,80.5,202.7,78.8,203.5z M170.1,166.6c0.2-0.2,2.9-2.1,2.1-0.5
				c-0.5,1.2-2.1,2.4-3.6,2.4c-1.2,0-2.4-0.5-3.3-0.7c-1-0.5-1.9-1.4-2.9-1.4c-1.2,0-2.1,1.2-2.9,1.9c-1,0.5-1.9,0.7-2.9,0.9
				c-1.2,0.5-2.4,0.7-3.6,0.9c-1.4,0-1.9-0.5-2.6-1.7c-0.2-0.7-0.5-1.9-1.4-1.7c-1,0.2-1.4,0.7-2.4,0.2c-1-0.7-1.7-1.9-1.7-2.8
				c0.2-1.2,1.4-2.1,2.4-2.8c1-0.7,1.9-0.7,3.1-0.7c0.5,0,3.1,0.5,2.9-0.5c0-0.9-2.1-1.2-2.9-1.2c-1,0-2.1,0.5-3.1,0.2
				c-1.2-0.2-2.4-0.9-3.6-1.2c-0.7,0-2.9,0-2.6-1.2c0.5-0.9,1.9-1.4,2.9-1.4c0.7-0.2,1.4-0.5,2.1-0.9c-0.7-0.5-1.4,0.2-2.1,0.2
				c-0.9,0-0.9-1.2-0.9-1.9c-0.7,0-2.9,0.5-2.4-0.9c0.5-0.9,2.4-2.1,3.6-2.4c1,0,1.9,0,2.6-0.7c1-1.4-1.7-0.9-2.1-0.7
				c-1.4,0.2-2.6,0.7-3.8,1.7c-0.7,0.7-1.4,1.7-2.1,2.4c-0.5,0.7-1,1.7-1.7,2.1c-0.5,0.2-1.2,0.5-1.9,0.7c-0.7,0.2-1.4,0.5-2.4,0.9
				c-0.2,0.2-1,0.7-1.4,0.5c-0.5-0.5-0.5-1.7-0.7-2.1c-0.2-0.9-0.7-1.7-1-2.6c-0.2-0.5-0.5-0.9,0-1.4c0.2-0.5,1-0.7,1.4-0.9
				c0.7-0.5,1.2-1.2,1.7-2.1c0.2-0.7,0.2-1.2,0.7-1.9c0.2-0.7,0.7-1.2,1-1.9c0.5-0.7,0.5-1.4,0.5-2.1c0-0.7-0.2-1.4,0.5-1.7
				c0.7-0.2,1.9,0.2,2.4,0.2c1,0.2,1.9,0.2,2.9,0c0.5-0.2,1-0.5,1.7-0.5c0.7,0.2,1.7,0.9,2.4,1.4c1.9,0.9,6.2,2.1,5,5
				c-0.2,0.7-0.7,0.9,0,1.2c0.7,0.2,1.7-0.2,2.6-0.2c0.7,0,0.5,0.2,0.2,0.7c-0.2,0.5-1.2,1.7-0.7,2.1c0.5,0.5,1-0.2,1.4-0.5
				c0.7-0.2,1.2-0.5,1.9-0.2c0.7,0.2,1.7,1.2,2.4,0.9c0.5-0.2,0-1.2-0.2-1.7c0.7-0.2,1.4-0.2,1.9,0.5c0.5,0.7,0.2,1.9,1,2.6
				c0.2,0.7,1,0.7,1.7,0.5c0.7-0.5,1-0.9,1.2-1.9c0.5-0.7,0.7-1.2,1.4-1.9c0.5-0.5,1.2-0.7,0.7-1.4c-0.2-0.7-1-0.9-1-1.9
				c0.2-0.9,1.4-1.7,2.1-1.9c1.9-0.7,1.7,1.4,1,2.4c-0.5,0.7-1.2,1.2-1.7,1.9c-0.5,0.9-0.2,1.9,0.5,2.6c0.5,0.5,1.2,0.9,1.2,1.4
				c0.2,0.9-0.2,1.9-0.2,2.6c0,1.2,0.5,2.1,0.7,2.8c0.2,1.2,0.7,2.1,1.4,2.8c1,0.7,2.1,0.5,3.1,0.7c0.7,0.5,1.9,1.2,1.7,2.4
				c-0.2,0.9-1.4,0.5-2.1,0.5c-1.2,0-1.4,0.5-1.9,1.4c0.2,0.2,0.5,0.2,0.5,0.5L170.1,166.6z M179.4,152.9c0,0.2-0.5,1.7-1,1.4
				c-0.2,0-0.5-0.7-0.5-0.9c-0.2-0.5-0.5-1.2-0.7-1.7c-0.7-0.7-1.9-0.2-2.6-0.5c-1.2-0.2-1.4-1.4-2.1-2.1c-0.2-0.5-0.7-0.7-0.5-1.2
				c0.2-0.2,0.7-0.5,1-0.5c0.7-0.2,1.4,0.2,2.1,0.5c0.2,0,1,0.5,1.4,0c0.2-0.2-0.2-1.2-0.5-1.4c-0.2-1.2-0.2-2.1-1.7-2.1
				c0.2-0.7,1.2-0.7,1.4-1.2c0.2-0.7-0.5-1.2,0.5-1.4c0.5-0.2,1-0.2,1.4-0.2c0.7,0,1,0.2,1.2,0.9c1,0,1-0.9,1.7-1.4
				c1-0.7,1.2,0.5,1,1.2c0,0.5-0.5,0.7-0.5,1.2c0,0.2,0.2,0.5,0.2,0.9c0.2,0.7-0.7,1.4-0.5,2.1c0.2,0.7,1,0.9,1.2,1.4
				c0.5,0.7,0.5,1.2,0.2,1.9c-0.5,0.5-0.5,1.2-0.7,1.9c-0.2,0.5-0.7,0.9-1.4,1.2c0-0.2,0-0.2-0.2-0.5L179.4,152.9z M187,150
				c-0.7-0.7-1.7-0.9-2.4-1.4c-0.7-0.5-0.7-1.2-0.2-1.7c0.2-0.9,0.5-1.2,0.5-2.1c0.2-0.9,0.7-1.2,1.2-1.9c0.5-0.5,0.5-1.4,1-1.7
				c0.7-0.5,1.4,0.5,1.9,0.9c0.5,0.5,1.2,0.5,1.7,0.5c1,0,1.7,0.2,2.6,0c0,1.2-1.2,1.7-1.7,2.4c-0.5,0.7,0.2,1.4-0.2,2.4
				c-0.2,0.7-1.4,1.2-2.1,1.2c-0.7,0-1.4-0.5-2.1,0.2V150z M204.2,183.8c0.4,0.3,0.9,0.6,1.1,1.1c0.3,0.4,0.4,0.8,0.9,1.1
				c0.5,0.3,1.1,0.4,1.7,0.7c0.6,0.3,0.9,0.8,1.2,1.5c0.2,0.4,0.3,0.9,0.8,1.2c0.6,0.3,1.2,0.2,1.7,0.5c0.5,0.3,0.5,0.9,0.3,1.4
				c-0.3,0.7-1.1,1-1.9,0.9c-0.8-0.2-1.5-0.7-2-1.1c-0.5-0.3-0.9-0.7-1.4-0.2c-0.6,0.6-0.9,1.4-1.6,1.9c-0.4,0.4-1.4,1.3-2.1,1.1
				c-0.4-0.1-0.4-0.6-0.5-0.9c0-0.5-0.3-0.8-0.8-0.9c-0.3-0.1-0.9-0.2-0.9-0.6c0-0.5,0.7-1.1,1-1.4c0.3-0.3,0.6-0.8,0.4-1.3
				c-0.1-0.4-0.3-0.8-0.1-1.2c0.3-0.5,0.7-0.9,1-1.4c0.3-0.4,0.5-0.8,0.6-1.3L204.2,183.8z M208.5,195.4c0.6,0.2,1.5,0.7,1.1,1.4
				c-0.2,0.4-0.6,0.6-1,0.8c-0.2,0.2-0.4,0.2-0.7,0.4c-0.5,0.1-1.8,0.2-1.9-0.5c-0.1-0.2,0.1-0.7,0.4-0.9c0.4-0.5,1.3-0.7,1.9-1.1
				L208.5,195.4z M213.4,198.3c0.5-0.2,1.3-0.1,1.4,0.6c0.1,0.6-0.4,1.1-1,1.3c-0.5,0.2-1.3,0.2-1.5-0.5
				C212,198.9,212.8,198.5,213.4,198.3L213.4,198.3z M228.4,154.1c0.7,0.2,3.6,1.2,1.9,1.9c-0.5,0.2-1.7,0.5-1.4,1.2
				c0.2,0.5,1-0.2,1,0.2c-0.2,0.2-0.5,0.2-1,0.7c-0.2,0.2-0.7,1.2-0.2,1.4c0.7-0.9,2.6-3.3,3.8-2.4c0.7,0.5,0.2,0.9,0,1.4
				c-0.7,0.5-1.2,1.2-1.4,1.7c1.2,0,3.8-1.7,4.8,0c0.7,0.9-1,1.2-1.7,1.7c-0.5,0.5-1,1.2-1,1.9c0.7-0.5,1.7-1.2,2.6-1.9
				c0.7-0.2,2.1-0.9,2.9,0.2c0.5,0.9-1.2,2.1-1.4,2.8c-0.5,0.9-0.2,1.7-0.2,2.6c-0.2,0.7-1,1.4-0.2,1.9c0.5,0.5,1,0.5,1.2,0.9
				c0.5,0.5,0.5,0.7,0.7,1.2c0,0.5,0,0.5,0.2,0.7c0.2,0.2,1,0.2,1.4,0.5c0.5,0.2,1,0.5,1.4,0.9c0.2,0.5,0.5,0.7,0.7,0.9
				c0.5,0.2,0.7,0.2,1,0.2c0.5,0.2,1,0.5,1.2,0.9c0.5,0.7,0.5,1.7,1.2,1.9c0.2,0.2,2.1,0.7,1.9,1.4c-0.2,0.7-1.7,0.2-1.9,0.9
				c-0.2,0.7,0.7,1.4,0.5,2.1c-0.2,0.9-1.4,2.1-2.1,2.1c-1,0.2-1.7-0.5-2.1-0.9c-0.7-0.5-0.7-0.9-0.2-1.9c-0.2,0.7-1.4,0.9-1.7,0.2
				c-0.5-0.5-0.2-1.2-0.7-1.7c-0.7-0.5-2.4,0.5-2.4,1.2c0.5,0.2,1.2,0.7,1.2,1.4c0.2,0.7,0,1.7,0.5,2.4c0.2,1.2,1.4,1.9,2.4,2.6
				c0.5,0.5,1.7,1.2,1.2,1.9c-0.2,0.5-1,0.5-1,1.2c-0.2,0.5,0.5,1.4,0.7,1.9c0.2,0.5,0.9,1.7,0,2.1c-0.5,0.2-1.9-0.9-2.4-1.2
				c-0.7-0.5-1.9-1.2-2.9-0.7c-0.7,0.2-1.2,0.7-1,1.2c0.5,0.9,1.9,1.4,2.6,2.1c1,0.7,1.7,1.9,1.4,3.1c-0.7,2.1-2.9-0.9-3.8-1.2
				c-1-0.5-2.1-0.2-3.1-0.7c-1-0.2-1.4-1.2-1.9-2.1c-0.2-0.7-0.2-1.4-1.2-1.9c-1-0.2-1.7-0.5-2.4-1.4c-1-0.9-1-2.1-1.7-3.1
				c-0.5-0.7-1.2-0.2-1.9,0c-0.2-0.2-0.7-0.9-1.4-1.2c-0.7,0-1.2,0.7-1.4,1.2c-1,0.9-2.1,0.9-3.1-0.2c-1.4-1.4-0.7-4,0.7-5.2
				c-0.2,0.7,0.5,1.9,1,2.4c0.7,0.5,1.7,0,2.4-0.2c0.7-0.2,1.4-0.7,2.1-1.2c0.2-0.2,0.7-0.5,0.7-0.9s-0.7-0.9-1-1.2
				c-0.7-0.9,0.2-1.7,0.7-2.6c0.7-0.7,1.2-1.7,1.9-2.6c0.5-0.7,1.4-1.7,1.4-2.6c0-0.7-1.2-0.9-1.9-1.2c0.5,0,1.2-0.5,1-1.2
				c0-0.2-0.7-0.2-1-0.5c-0.7-0.5-0.7-1.4-1.4-1.7c-0.5,0-1.7-0.2-1.9-0.5c-0.2-0.9,1.7-1.9,1-2.6c-0.7,0.2-1,1.2-1.9,1.4
				c-0.5,0-1.9,0.2-2.4-0.2c-1.7-0.9,1.2-2.1,2.1-1.4c0.7-0.5-0.7-2.1-1.2-2.6c-0.7-0.2-1.4-0.5-2.4-0.5c-0.2,0-1,0-1-0.2
				c-0.2-0.5,0.5-1.2,0.5-1.4c0.2-0.9,0-2.4-1.2-1.9c0,1.2-0.7,2.6-2.1,2.8c-1.2,0.2-1.7-2.1-2.9-1.2c0,0.9-0.2,2.1-1.4,2.1
				c-1.2-0.2-2.1-1.2-3.1-1.9c-1-0.7-1.7-0.9-2.9-0.7c-1.2,0.2-2.4,0.5-3.3-0.2c-0.5-0.2-0.7-0.9-1.2-1.4c-0.7-0.5-1.7-0.7-2.4-1.2
				c-2.4-1.2,0.7-1.9,1.7-2.1c1.9-0.9-2.1-1.4-2.6-1.4c-0.7-0.2-1.4-0.5-1.4-1.2c0-0.7,0.2-1.4,0.5-1.9c0-0.7,0-1.4,0.2-1.9
				c0.2-0.7,0.9-1.4,1.7-1.9c1.4-1.4,2.9-2.1,5-1.9c1.2,0,1.7,0.7,1,1.7c-0.7,0.9-1.9,1.9-2.1,3.3c-0.2,1.2,1,1.7,1.7,2.4
				c0.5,0.9,0,1.7-0.5,2.6c1.2,0.2,2.9,0.7,3.3-0.7c0.7-1.2-0.5-1.7-1.2-2.4c-1-0.7-2.1-1.7-1.4-2.8c0.7-0.7,1.9-0.9,2.9-0.9
				c-0.2-1.4,1.2-2.1,2.4-2.4c2.4-0.7,1.9,2.1,2.9,3.3c0.5,0.5,1,0.9,1.7,0.7c0.7-0.2,0.5-1.2,0-1.7c-0.5-0.5-3.3-0.9-2.1-2.4
				c0.5-0.7,1.7-0.7,2.4-0.5c0.5,0,1.2,0,1.7,0c1,0.2,1.2,0.9,1.9,1.2c1,0.5,1.7,0.5,2.4,1.2c0.5,0.5,0.7,0.9,1.7,1.2
				c0.5,0.2,1,0.7,1.7,0.7c0.5,0,1-0.5,1.4-0.2c0.5,0.2,0.7,0.9,1.2,1.4c-0.5,0.9-2.1,2.4-0.2,2.8c0.7,0.5,1.2,0,1.9-0.5
				c0.5-0.2,1.2-0.2,1.9-0.2L228.4,154.1z M220.3,171.1c0.7-0.2,2.1,0,1.7,1.2c-0.2,0.5-0.7,0.7-0.5,1.4c0,0.5,0.2,0.9,0.2,1.4
				c-0.2,1.2-1.2,0.9-2.1,0.7c-0.2-0.2-1.2-0.7-1.2-1.2c-0.2-0.7,1.2-2.1,1.4-2.6L220.3,171.1z M220.3,308.9
				c-0.5,0.1-1.1,0.1-1.6,0.3c-0.3,0-0.4,0-0.7-0.1c-0.4-0.3-0.4-0.5-0.4-0.9c-0.1-0.1-0.3-0.7-0.4-0.8c-0.1-0.3-0.7-0.4-0.9-0.5
				c-0.5-0.3-1.1-0.5-1.7-0.7c-0.7-0.3-1.3-0.4-1.9-0.7c-0.4-0.3-0.7-0.5-0.9-0.7c-0.4-0.3-0.8-0.4-1.2-0.5c-0.4,0-0.7-0.1-1.1-0.1
				c-0.4,0-0.4-0.1-0.8-0.3c-0.3-0.1-0.7-0.1-1.1,0c-0.5,0-1.1,0.3-1.6,0.4c-1.1,0.1-2.3,0.4-3.2,0.4c2-1.6,4.5-2.4,7.1-2.3
				c1.1,0,2.1,0.3,3.2,0.4c0.8,0.3,1.7,0.4,2.5,0.8c0.9,0.4,1.9,0.9,2.9,1.3c0.9,0.5,1.9,0.9,2.8,1.6c0.4,0.3,2.1,1.5,1.7,2.1
				c-0.1,0.3-0.7,0.3-1.1,0.4c-0.5,0-1.1,0-1.6,0.1L220.3,308.9z M230.8,309c0.3,0.3,0.7,0.8,1.1,0.9c0.3,0,0.4,0,0.7,0
				c0.8,0,1.3,0.5,1.7,1.2c0.1,0.3,0.1,0.7-0.1,0.8c-0.3,0.1-0.5,0-0.8-0.1c-0.8-0.1-1.5,0.4-2.1,0.7c-0.8,0.3-1.6,0.4-2.4,0.4
				c-0.7,0-2.1,0.1-2.1-0.8c0-0.4,0.1-0.8,0.1-1.2c-0.1-0.4-0.4-0.7-0.5-1.1c-0.3-1.2,2-0.7,2.7-0.7L230.8,309z M262.3,161
				c1.4,0,2.1,0.4,3.2,1.1c0.7,0.4,1.4,0.7,2.1,0.4c2.1-1.8-1.1-3.5-2.5-4.3c-1.4-1.4-2.5-2.8-3.6-4.3c-0.7-0.7-0.7-1.1-1.4-0.4
				c-0.7,0.7-1.1,2.1-1.4,2.8c-0.7-2.1-0.4-3.9-0.4-6c0.4-3.2-0.7-5.7-2.1-8.2c-1.4-2.8-1.4-5.7-2.5-8.5c-0.7-2.8-2.9-4.6-5.4-6.4
				c-2.5-1.8-4.6-2.5-7.9-1.4c-1.1,0.4-2.1,1.1-3.2,1.1c-0.7,0.4-1.4,0-1.8-0.7c-1.8-1.4-4.6-2.8-5.7-5c-0.4-0.7-0.7-2.1-0.4-2.8
				c0.7-0.7,1.4-0.4,2.1,0c1.4,0.7,6.8,3.2,7.1,0c0.7-2.5-4.3-2.8-5.7-3.2c-1.1-0.4-1.8-1.1-2.9-1.8c-1.1-1.1-2.5-2.1-3.9-3.2
				c-0.4-0.7-2.1-1.4-2.1-2.5c-0.4-0.7,1.4-1.4,1.8-1.8c2.1-1.4,4.6-2.5,6.8-3.2c2.1-1.1,3.6-2.5,5-4.3c1.4-1.8,3.6-4.3,1.4-6
				c-0.7-0.7-1.8-1.1-2.1-1.8c-0.4-1.1,1.1-2.5,1.4-3.2c1.1-1.4,2.1-2.8,2.1-4.6c0-1.1-0.4-2.1,0.4-2.5c1.1-0.7,2.9,0,3.9-0.4
				c1.8-0.7,1.8-1.8,1.4-3.2c-0.4-1.8-1.1-3.5-0.7-5.3c0.4-1.4,1.4-2.1,2.9-1.8c1.1,0.7,1.8,2.1,2.1,3.2c0.7,1.4,1.4,2.5,2.1,3.5
				c0.7-1.4-0.7-3.2-1.8-4.3c-0.7-1.1-2.9-2.8-1.1-3.5c3.2-1.4,6.8-1.8,9.3-3.9c0.7,1.4,0,2.8-0.4,4.6c0,0.7,0,1.4-0.4,2.1
				c0,0.7-0.7,1.8-0.4,2.5c0.7,1.8,6.1-1.8,3.9-4.6c-0.7-1.1-2.9-2.1-1.8-3.5c1.4-1.8,2.9,0.4,3.6,1.4c0.4,0.7,0.4,1.1,0.7,1.8
				c0,0.7,0,1.4,0.4,1.8c1.4,1.4,3.9-0.7,3.9-2.1c0-1.1-1.8-2.1-2.9-2.5c-1.1-0.4-3.9-0.7-2.1-2.5c2.1-2.5,6.4-0.4,6.8,2.5
				c0,1.1-0.4,2.5,0.7,3.2c1.1,1.4,3.2,0.7,2.5-1.1c0-0.7-0.7-1.4-1.1-2.1c0-0.4,0-0.7-0.4-1.1c-0.4-1.1-3.2-2.1-2.9-3.5
				c0-0.7,1.1-0.7,1.8-0.7c0.7,0,1.1,0.4,1.4,0.7c0.7,1.1,1.1,2.1,1.8,2.5c0.7,0.7,1.4,0.4,2.1,0c0.7,0,2.1,0.4,2.5,0
				c0.7-0.4,0-1.4-0.4-1.8c-1.4-1.4-2.5-1.8-3.9-2.8c1.4-0.4,2.9-0.4,4.3,0c0.7,0.4,1.4,1.1,2.1,1.4c0.7,0.4,1.8,1.1,2.5,1.1
				c1.1-0.4,0.4-2.5,0.4-3.2c-0.7-1.8-1.4-2.8-3.2-3.5c-1.1-0.4-2.5-0.7-3.9-0.7c-0.4-0.4-2.5,0-2.9-0.4c-0.7-1.1,1.4-1.8,1.8-1.8
				c1.8-0.7,3.2-0.7,5,0c1.1,0.7,2.5,2.1,3.9,2.1c1.8-0.4,1.1-2.8,0.7-3.9c-0.4-1.8,0-2.5,1.8-2.5c2.5,0,4.3,0.4,6.4-0.7
				c1.4-0.7,2.5-1.1,3.6-1.1c1.4-0.4,2.9-0.4,4.3-0.4c1.4-0.4,2.5,0,3.6,0c1.4,0.4,3.6,0,3.9,1.4c1.1,1.8-1.8,3.2-2.9,3.2
				c-1.4,0-3.2-1.4-4.3-0.7c-1.4,0.7-1.8,2.1-3.6,2.5c-1.4,0.4-2.9,0-4.3,0.7c2.5,1.8,5.7,0.7,8.6-0.4c1.1-0.4,1.8,0,2.9,0.4
				c1.4,0.4,2.9,0,4.3,0c1.4,0.4,1.8,1.8,2.1,2.8c0.7,1.4,1.4,1.1,2.9,0.7c1.4-0.4,2.5,0.4,2.9,1.8c0.4,1.4-0.4,2.8-1.4,3.5
				c-1.1,1.1-2.1,1.1-3.6,1.1c-1.4,0-2.1,0.4-3.2,1.1c-1.1,0.7-2.1,2.1-3.6,1.8c-0.7,0-1.1-0.4-1.4-0.4c-1.1,0-1.8,0.4-2.5,0.7
				c-1.1,0.7-3.2,2.8-1.4,3.9c1.4,0.7,3.6-0.4,5-1.1c2.1-0.7,3.9,1.4,6.4,1.1c-0.7,0.7-1.8,1.4-2.5,1.8c-0.4,0.7-2.1,1.1-2.1,1.8
				c1.1,1.4,3.9-0.7,4.6-1.1c1.1-0.7,2.1-3.2,3.2-2.8c0.4,0.7,0,1.8,0,2.5c0,0.4,0,1.1,0,1.4c0,0.7-0.4,1.1-0.4,1.4
				c-0.4,0.7-0.4,1.4-0.4,2.5c0.4,1.8,0.4,4.3,1.1,6.4c2.1-1.4,2.9-3.2,3.2-5.7c0.4-2.1,1.1-2.8,3.2-2.8s3.6-1.1,4.6-2.8
				c1.4-1.4,2.5-2.8,4.6-2.1c1.8,0.7,3.6,2.1,3.9,3.9c0.4,1.8-1.1,2.5-2.1,3.5c-1.8,0.7-2.9,1.8-3.9,3.2c-1.4,1.8-3.2,2.8-5.4,3.5
				c1.1,0.4,2.5,0,3.6,0.7c1.4,0.7,0.7,1.8-0.4,2.5c-1.1,0.7-2.9,0.7-3.9,1.8c-0.7,0.4-1.1,1.4-1.4,2.5c-0.4,1.1-0.7,2.5,0.7,3.2
				c1.1,0.4,2.5-1.4,3.6-0.7c1.8,0.7-2.9,3.2-3.2,3.5c-0.7,0.7-2.1,1.1-2.5,1.8c-0.7,0.7-0.4,2.5,0,3.2c0.4,1.1,1.1,2.1,1.1,3.2
				c-0.4,1.1-1.4,1.8-1.8,2.8c0,0.7,0,1.1,0.4,1.8c0,0.7-0.4,1.4-0.4,2.1c0.4,1.8,2.1,0,2.5,1.4c0.4,1.1-1.4,1.4-0.4,2.8
				c1.1,1.4,2.5,1.4,3.9,1.4c0,0.7-0.7,2.1-1.4,2.1c-1.1,0-2.1-1.8-2.9-0.7c-0.4,0.4-0.4,1.1-1.1,1.4c0,0.4-0.7,0.4-1.1,0.7
				c-1.1,0.7,1.1,1.8,1.8,2.1c0.7,0.7,1.8,1.4,2.5,2.5c0.4,0.7-0.4,1.4-0.7,2.5c0,0.7-0.4,2.5-0.4,3.2c0.4,1.1,1.1,2.1,1.8,2.8
				c-1.1,0.7-2.1,0.4-3.2,1.1c0.7,1.1,2.1,2.1,3.2,2.8c0.4,0,1.1,0.7,1.1,1.1c0,0.4-1.1,0.7-1.4,0.7c-0.7,0.4-1.4,0-1.8,0
				c-0.7-0.4-1.1-0.7-1.8-0.4c-0.4,0.4-0.7,1.4-0.7,1.8c0.4,1.1,1.1,1.1,1.8,1.8c2.1,1.4-0.7,2.5-1.8,2.5c-1.4,0-3.2,0-2.9-1.8
				c0.4-0.7,0.7-1.1-0.4-1.1c-0.7,0-2.1,1.1-2.9,1.8c-1.4,1.4-1.8,2.8,0.4,4.3c-0.4,0.7-0.7,1.8-0.4,2.5c0.4,1.4,1.8,2.1,2.5,3.2
				c0.7,1.1,0.7,2.5,1.4,3.9c0.4,1.1,1.4,1.1,2.1,1.8c0.7,1.1-0.7,1.8-1.8,1.8c-1.4-0.4-1.8-1.4-2.5-2.8c-0.4-1.1-1.4-1.4-2.5-2.1
				c-1.4-0.7-2.1-2.1-3.2-2.5c-0.7-0.4-2.5-0.4-1.8,0.7c0.7,1.1,2.9,0.7,3.6,2.1c1.1,2.5-5.7,0-3.9,3.5c0.4,0.4,0.7,0.7,0.7,1.4
				c0,0.4,0,0.7,0.4,1.1c0.7,1.1,2.5,0.4,3.2,0c1.8-0.4,3.9,0.4,5.4,1.4c-1.1,0.4-2.9,0.4-3.9,1.1c-2.1,0.7-1.8,3.5-3.6,4.6
				c-1.1,1.1-3.2,1.1-4.6,1.1c-0.7,0-1.4,0.4-2.1,0.4c-0.7,0.7-1.1,1.4-2.1,1.8c0-0.4-0.7-1.4-1.4-1.1c-0.4,0.4-0.4,1.4-0.4,2.1
				c-0.4,1.1-0.4,2.1-1.4,3.2c-0.4,1.1-0.7,1.4-1.1,2.1c0,0.7,0,1.1-0.4,1.8c-1.1,0.7-3.2,1.4-4.3,1.4c-0.7-0.4-0.7-0.7-1.8,0
				c-0.7,0.7-1.1,1.8-2.1,2.1c-1.1,0.7-3.9,0-3.9,1.8c0,1.1,1.1,1.4,1.1,2.5c-0.4,0.4-0.7,1.1-1.1,1.8c0,1.1-0.4,2.5,1.1,2.8
				c-1.1,1.1-1.8,2.1-2.1,3.5c-0.4,1.4,0,2.8-0.7,4.6c-0.4,1.1-1.4,3.2-2.9,3.2c-1.4,0.4-2.9-1.1-3.9-1.4c-1.8-0.7-3.6-0.7-5.4-1.1
				c-1.8-0.4-2.5-1.4-3.2-3.2c-0.7-1.8-1.1-3.5-1.1-5.3c-0.4-1.4,0-2.8,0-3.9c0-1.4-0.7-2.5-1.1-3.9c-0.7-1.1-1.1-2.8-1.1-4.3
				c-0.4-1.4-0.7-2.8-0.4-4.3c0-1.4,0.4-2.8,0.7-3.9c0-1.4,0-2.8,0.4-4.3c0.4-1.4,1.4-2.8,1.8-4.6c0-2.8-3.9-3.5-3.9-6.4L262.3,161z
				 M335.1,189.8c0,1.8-0.7,2.8-2.1,3.2c-0.7,0.4-1.4,0.7-2.1,1.1c-0.7,0.4-1.4,1.1-2.1,1.8c-0.4,0.4-1.1,1.4-1.8,1.4
				c-0.7,0-1.4-0.4-2.1-0.7c-1.1-0.4-3.6,0-4.3-1.1c-0.4-0.7,0-1.4-0.4-2.1c0-0.7-0.4-1.1-1.1-1.4c-1.1-1.1-1.1-1.8-1.8-2.8
				c-0.7-1.1-2.5-3.2-0.7-3.9c1.8-0.7,3.6,1.1,3.2,2.5c0.7-1.8,2.9-2.1,4.6-2.5c0.7-0.4,1.8-0.7,2.5-1.4c0.7-0.7,1.4-1.4,2.5-1.8
				c0.7,0,3.2,0,3.6,0.7c0.7,0.7,0.4,1.4,0.7,2.1c0,0.7,0.7,1.8,1.1,2.5L335.1,189.8z M212,135.8c-2.1-0.7-4.3-1.4-6.1-1.1
				c-1.4,0.4-1.8,1.4-2.9,2.5c-2.1,2.1-5.4,0.4-7.9-0.4c-2.1-0.4-4.3-0.4-5.4-2.5c-0.4-1.8,0-3.5,0-5c0-1.4,0.4-3.5-1.1-4.3
				c-1.4-1.1-7.5,1.1-6.8-2.5c0.4-1.4,1.8-2.8,3.2-3.5c1.4-0.7,2.5,0,3.6,0.7c1.1,1.1,1.8,1.8,2.9,2.5c1.1,0.7,1.8,1.4,1.8,2.5
				c0,1.1-0.4,1.8,0,2.8c0.4,1.1,2.1,1.4,3.2,1.8c1.4,0.7,3.2,1.1,4.6,1.1c1.8-0.4,3.2-1.4,5-1.8c1.8-0.7,3.6-0.4,5,1.1
				c0.7,1.4,0.7,2.8,0.7,4.3V135.8z M215.2,122.7c-2.1,0.7-4.3,1.4-6.1,0.4c-1.1-1.1-2.5-1.1-3.9-0.4c-1.4,0.4-1.4,1.1-2.1,2.5
				c-0.7,2.1-2.1,1.1-3.2-0.4c-0.7-0.4-1.4-1.4-2.1-1.8c-0.7-0.4-1.4-0.4-2.1-0.4c-2.1-0.7-1.1-2.5,0-3.2c1.1-0.7,2.1-1.1,3.2-1.1
				c0.7-0.4,1.4-0.4,1.4-1.1c0.4-1.4-2.1-3.2-1.4-4.6c0.4-0.7,2.5-0.4,3.2,0c0.4,0.4,0.7,1.1,1.1,1.4c0.7,0.7,1.4,1.1,2.5,1.4
				c0.4,0,1.8,0.4,2.1-0.4c0.4-0.7,0-1.1-0.4-1.4c-0.4-1.1-1.1-1.4-1.1-2.5c-0.4-0.7,0-1.8,0-2.5c0-0.7,0.4-1.1-0.4-1.4
				c-0.4,0-1.8,1.1-2.1,1.4c-1.8,1.1-2.5,0.4-2.1-1.8c0.4-2.1,1.4-3.2,3.2-2.5c1.8,0,2.9,0.7,4.6-0.4c-1.1-1.1-3.6-1.1-3.9-2.5
				c0-1.8,1.1-2.8-0.4-4.3c-0.4-0.4-1.1-1.1-1.8-0.7c-0.7,0.4-0.4,1.4-0.4,1.8c0.4,2.5-1.1,1.8-2.9,2.1c-1.1,0.4-2.1,1.8-2.1,2.8
				c-0.4,1.8,1.4,2.8,1.4,4.6c0,1.1-2.5,3.2-3.2,2.1c-0.7-0.7,0-3.2-1.8-2.5c-1.1,0.4-2.1,3.2-2.9,1.4c-0.7-1.1,0-1.8,0.4-2.8
				c0.4-2.8-4.6-0.7-5-3.2c-0.7-1.8,0.4-3.5,2.5-2.8c0.7,0,2.9,1.8,3.2,1.1c0.7-1.1-1.8-2.5-2.5-2.8c-1.4,0-2.5,0.7-3.2,1.4
				c-0.4-0.4-0.4-1.1-0.4-1.8c-0.4-0.7-1.1-1.1-1.4-1.8c-1.1-1.8,1.4-2.1,2.5-3.2c0.7-1.1-0.7-2.5-1.4-3.2c-0.7-1.1-1.1-2.8-2.5-2.8
				c0-0.7,0.4-1.4,1.1-1.8c0.7-0.7,1.1-0.4,1.8,0.4c0-1.1-0.7-1.4-0.4-2.5c0-0.4,1.1-1.8,1.4-2.5c0.4-0.4,1.1-1.1,1.1-1.4
				c0-1.1-1.8-1.4-1.4-2.5c1.8-0.4,2.9,0,4.3,1.1c1.1,1.4,1.8,2.8,2.1,4.3c0.7,1.8,0.7,3.5,1.8,5c0.4,1.1,1.8,1.4,2.1,2.5
				c1.1,1.4,1.1,3.6,2.1,4.6c1.1,1.4,1.1-1.4,1.1-2.1c0.4-1.4,0.7-3.2,2.5-3.2c1.4-0.4,2.5,0.4,3.2,1.8c0.4,1.4,1.8,7.8,4.6,6
				c3.6-2.5-3.9-5-1.1-7.5c1.1-1.1,2.9-1.1,3.9-2.1c1.4-1.1,1.4-2.8,2.9-3.2c1.1-0.4,3.2,0.4,3.9-0.4c0.7-1.4-1.8-3.9-2.9-4.3
				c-1.8-1.1-2.9,0.4-3.9,1.8c-0.7,1.4-1.4,2.8-2.9,3.2c-1.8,0.7-3.2,1.1-4.6,2.1c-0.4,0-1.1,0.7-1.1,0c-0.4-0.4,1.1-2.5,1.1-2.8
				c-0.4-0.7-2.1,0.4-2.9,0.7c-0.7,0.7-1.1,2.1-1.8,2.8c-0.7-0.7-0.4-2.5,0-3.2c0-0.7,0.4-1.1,0.7-1.4c0.4-0.4,1.8-0.4,1.4-1.1
				c-1.4,0-2.5,0.7-3.6,1.8c-0.7,0.4-2.5,2.1-2.9,0.4c-0.4-1.4,1.1-2.8,2.1-2.8c0.7-0.4,3.2,0,2.9-1.1c-0.4-1.1-2.1-0.4-2.5,0
				c-1.4,0.4-2.5,0.4-3.2-1.1c-0.7-1.1,0-2.8-0.4-3.9c-0.7-1.4-3.2-0.7-4.3-1.1c-1.4-0.7-1.1-2.8,0-3.9c1.1-0.7,2.5,0.4,3.6-0.4
				c1.4-0.7,1.4-2.1,3.2-1.4c0.7,0,3.9,2.5,3.6,0.7c0-1.1-2.5-3.2-1.4-3.9c0.7-0.7,3.9-0.4,4.6,0.4c1.1,1.1,1.4,2.8,3.2,3.2
				c2.5,0.4,1.8-2.1,0.7-3.2c-1.1-0.7-2.5-0.7-2.5-2.5c0-0.7,0.4-1.4,0.7-1.8c0.7-0.7,1.4-0.4,2.1-1.1c1.1-0.7-0.4-2.1,0.7-2.8
				c0.7-0.7,2.9,1.1,3.6,1.4c-0.4-0.7-1.4-2.8,0.4-2.8c1.4,0.4,1.8,2.1,2.5,2.8c0,0.7,2.1,3.2,2.1,1.4c0.4-1.1-2.1-2.8-2.9-3.5
				c-1.8-1.4,2.5-2.1,3.9-1.8c2.1,0.7,1.1,3.9,3.2,5c1.1-1.1-0.4-3.5-0.4-5c0.4-2.5,3.2,0.7,3.9,1.4c0.7-1.4,0.7-3.2,2.5-2.5
				c0.7,0.4,0.7,0.7,1.4,1.1c0.7,0.4,1.8,0,2.5,0c0.7-0.4,2.1-0.4,3.2,0.4c0.7,0.7,0.4,1.4,0,2.1c-0.7,1.1-1.4,1.4-1.8,2.5
				c0.7,0.4,1.4,0.7,2.5,0.4c0.7-0.4,1.1-1.4,1.4-2.1c1.8-1.8,3.2,0.7,3.6,2.5c0.4,0.7,0.4,1.4,1.1,2.1c0.7,0.4,1.8,0.7,2.1,1.4
				c1.8,2.1-1.4,3.5-2.5,4.6c-1.8,1.4-3.2,2.1-5,2.8c-1.4,0.4-3.2,0.7-4.6,1.4c-1.8,0.7,1.4,1.8,1.1,2.8c0,1.1-1.4,1.4-1.8,1.8
				c-1.1,0.7-1.8,1.4-2.1,2.1c0.4,1.1,3.2-1.1,3.9-1.4c1.4-0.7,3.6-1.8,5.4-2.1c-0.4,2.5-2.5,4.6-4.6,5.7c-1.1,0.7-1.8,1.4-2.9,2.1
				c-1.4,1.1-1.8,2.1-0.7,3.9c1.1,1.8,0.4,2.1-1.4,2.5c-1.1,0.4-2.5,1.1-2.1,2.5c0,0.4,0.4,0.7,0.4,1.4c0,0.4-0.7,1.1-1.1,1.4
				c-0.7,0.4-1.8,0-2.5,0.4c-1.1,0-0.7,0.4-1.1,1.4c-0.4,1.1-2.1,1.1-3.2,1.1c-0.4,0-1.1,0-1.4,0c-0.7,0.7,0.4,1.4,0.7,1.4
				c0.7,0,2.5-1.1,2.9,0.4c0,1.4-2.1,1.4-2.9,1.4c-0.4,0.4-1.4,0.4-1.4,0.7c-0.4,0.7,1.1,1.1,1.8,1.1c0.4,0,1.1,0,1.8,0.4
				c0.4,0.7,0.4,1.8-0.4,2.1c-0.7,1.1-3.6,1.1-1.8,2.8c0.4,0.4,1.4,0.7,1.1,1.8c0,1.1-1.4,1.1-2.1,1.4c-1.8,0.4-1.4,1.1-1.8,2.8
				c-0.4,0.7-0.7,1.4-1.4,1.8c-0.7,0.4-1.1,0-1.8-0.4c-1.1,0-2.5,0-3.2,0.7c-0.7,0.4-0.4,1.1,0.4,1.4c1.1,0.7,3.9,1.1,1.4,2.5
				L215.2,122.7z M187.7,115.6c-1.1,0-3.9,0.7-4.3-1.1c-0.4-0.4,0-1.1-0.4-1.8c-0.4-0.4-1.1,0-1.8,0c-0.7-0.4-1.4-0.7-1.1-1.4
				c0-0.7,0.7-1.4,0.7-2.1c0-0.4-0.7-0.7-1.1-1.4c-0.4-0.7-0.7-1.1-0.4-2.1c0.4-1.8,1.4-2.1,2.9-1.1c1.4,1.1,1.4,2.8,2.5,3.9
				c0.7,0.4,1.4,0.4,1.4,1.1c0,0.4-0.7,1.1-0.7,1.4c0.4,1.4,3.6,0.7,1.8,2.8L187.7,115.6z M175.9,112.4c-1.1,0-2.1-0.4-2.5-1.4
				c-0.4-0.7,0.4-1.1,0-1.8c-0.4-0.7-2.9-1.4-3.6-1.1c-0.7,0.4-1.1,1.4-2.1,1.4c-0.7,0.4-1.1-0.4-1.1-1.4c0-2.1,2.1-1.1,3.2-2.1
				c-1.8-1.4-5.7-4.3-3.2-6.4c0.7-1.1,2.1-1.1,3.2-1.1c1.4-0.4,1.8,0,2.5,1.4c0.7,1.1,0.4,2.5,1.8,3.5c1.1,0.7,2.1,0.7,2.1,2.5
				c0,1.1,0,1.8,0.7,2.8c0.7,1.4-0.4,2.5-1.4,3.2L175.9,112.4z M153.4,110.3c-0.4-0.4-2.1-0.7-2.1-1.4c0-1.1,1.8-1.8,2.5-2.1
				c1.1-1.1,3.9-3.2,5.7-2.5c2.9,1.4-2.1,3.5-2.5,4.6c0,1.1,1.8,1.4,1.8,2.1c0.4,1.1-1.8,1.8-2.5,2.1c1.1,1.1,1.4,2.5-0.4,3.5
				c-1.4,0.7-3.2-0.4-4.3-1.4c-1.1-2.1,1.1-2.5,2.1-3.2c2.5-1.1,0-1.8-1.4-1.8H153.4z M147.4,118.1c0,1.8,0.7,3.5-0.7,4.6
				c-0.7,0.4-2.1,1.1-2.5,1.1c-1.1-0.4-1.4-1.1-1.8-1.4c-1.1,0-1.8,1.8-2.1,2.8c0,0.7,0,2.5-0.7,3.2c-0.7,1.1-1.4,0-2.1-0.7
				c-1.1-1.1-2.1,0.4-3.2,0c-0.4-2.1,1.1-3.5,2.9-4.6c1.4-1.1,2.5-1.8,2.5-3.9c-0.4-2.1,0.7-3.5,2.9-2.8c0.4,0.4,1.8,1.1,2.5,1.1
				c0.7-0.4,0.7-1.1,0.4-1.8c0.7-1.1,2.9-0.7,2.5,0.7L147.4,118.1z M150.9,126.6c0.7-0.4,1.8-1.4,2.9-0.7c0.7,0.4,0.7,1.8,1.1,2.5
				c0,0.7,0,2.1,1.1,2.5c0.7,0.4,1.8,0,2.1-1.1c0-1.4-2.1-1.4-2.5-2.5c-0.4-1.1,0.4-2.5,1.4-3.2c3.2-2.1,2.1,2.5,3.6,3.9
				c1.1-1.1,2.9-0.4,3.9-1.4c0.7-0.4,0.7-1.4,1.4-1.8c0.4-0.7,1.1-1.8,1.8-2.1c3.9-2.1,4.6,6.4,6.4,5.3c0.7-0.4,0.7-1.8,0.4-2.1
				c0-1.1,0-2.1,0.7-2.8c1.1-1.4,3.2-1.1,4.6,0c1.8,1.8-0.7,2.5-0.4,4.3c0.4,1.4,2.5,1.4,2.9,2.8c0.7-0.7,1.4-1.4,2.5-1.1
				c0.7,0,1.8,1.1,2.5,1.8c1.1,1.1,0.7,2.8,0.4,4.6c-1.1,2.1-2.9,2.1-4.3,0.7c-1.1-1.1-1.1-2.1-1.4-3.2c0-1.4-1.1-1.4-2.1-1.8
				c-0.4,1.8-1.8,4.3-3.9,4.6c-2.9,0.4,0-4.6,0.4-5.7c-0.7-0.4-1.4,0-1.8,0c-0.7,0-1.1-0.4-1.4-0.7c-0.7-0.4-0.7-1.4-1.4-2.1
				c0,0.7-0.7,3.9-1.4,2.1c-0.4-0.7-0.7-4.3-1.1-4.3c-0.4,0-1.1,1.8-1.1,1.8c-0.4,0.7-1.1,1.4-1.4,2.1c-1.1,1.1-0.7,2.1-0.7,3.5
				c0,3.2-4.6,2.5-6.8,2.5c-2.5-0.4-2.5,3.5-4.6,3.9c-1.1,0-2.5-0.4-3.2-0.7c-1.4-1.1,0-2.1,0.7-2.8c0.7-0.4,3.2-1.8,2.1-2.5
				c-0.7-0.4-2.5,0-3.6-0.4c-0.7-0.4-1.4-0.7-2.5-0.4c-0.7,0.7-1.1,1.4-2.1,1.4c-0.4,0.4-3.2-0.7-3.2-1.4c0-0.7,3.2-1.1,3.6-1.4
				c1.8-1.1-0.4-2.1-1.1-2.5c-1.1-1.1-0.4-1.4,0.7-1.8c0.4-0.7,1.1-1.1,1.4-1.8c0.4-0.4,0.7-0.7,1.1-1.1c1.1-0.4,2.9,0.7,3.6,1.1
				L150.9,126.6z M163.8,114.5c0.7,0,2.1-1.1,2.9-0.7c0.7,0.4,0,1.4,0.7,2.1c0.7,0.7,2.1,1.4,0.7,2.5c-1.4,1.1-2.5-2.1-3.2-2.8
				L163.8,114.5z M176.6,92.9c0-1.8,3.2-1.4,3.9,0c0.4,0.7,0.4,1.8,0,2.5c-1.1,1.4-2.1-1.1-2.5-1.8L176.6,92.9z M219.2,311.6
				c0.1,0.4,0,0.6-0.3,0.8c-0.1,0.1-0.4,0.4-0.6,0.4c-0.4,0.1-0.9,0.1-1.2,0c-0.2-0.1-0.3-0.3-0.5-0.4c-0.1-0.1-0.4,0-0.5-0.2
				c-0.1-0.1,0.2-0.4,0.4-0.4c0.4-0.1,0.9-0.1,1.4-0.1L219.2,311.6z M238.3,311.5c0.3-0.2,0.9-0.3,1.3-0.1c0.4,0.3,0.4,0.7,0,0.9
				c-0.4,0.2-0.8,0.1-1.2,0.1c-0.2,0-0.4,0-0.7,0c-0.1,0-0.1,0.1-0.1-0.1c0-0.1,0.5-0.5,0.6-0.6L238.3,311.5z M243.7,311.8
				c0.4-0.2,0.5,0.4,0.2,0.6c-0.1,0.1-0.4,0.2-0.7,0.1c-0.1-0.1-0.2-0.1-0.2-0.2c0-0.1,0.2-0.2,0.2-0.3L243.7,311.8z M246.2,313.7
				c0.2,0.1,0.6,0.2,0.6,0.5c0.1,0.2-0.1,0.4-0.2,0.6c-0.3,0.2-0.5,0.2-0.7,0.1c-0.4-0.1-0.3-0.4-0.2-0.8L246.2,313.7z M251.4,452.9
				c0.4,0.2,0.8,0.2,1.1,0.4c0.3,0.1,0.4,0.5,0.4,0.9c0,0.3-0.1,0.7-0.3,1c-0.3,0.6-1,0.8-1.6,0.9c-0.6,0.1-1.8,0.3-2.3-0.4
				c-0.1-0.2-0.1-0.4-0.3-0.7c-0.1-0.3-0.3-0.4-0.6-0.5c-0.4-0.3-1-0.6-0.4-1.1c0.8-0.7,2-0.6,2.8-0.6L251.4,452.9z M451.4,371.2
				c-0.2,2.1-0.3,4.3-1.2,6.2c-0.5,1-1,2-1.4,3.1c-0.5,1.4-0.9,2.7-1.2,4.1c-0.3,1.2-0.5,2.3-0.9,3.4c-0.4,1.1-1,2.1-1.8,3
				c-0.6,0.8-1.5,1.5-2.4,1.8c-0.8,0.3-1.5-0.2-1.9-0.9c-0.7-0.8-1.1-1.8-1.5-2.7c-0.4-0.9-0.7-1.8-0.6-2.7c0.2-1.9,1.9-3.1,2.2-4.9
				c0.1-0.9-0.2-1.8-0.4-2.6c-0.3-0.8-0.5-1.7-0.3-2.6c0.8-1.9,3.2-2,4.7-2.7c0.7-0.3,1.1-1,1.4-1.8c0.4-1,0.7-2.1,1.3-3.1
				c0.3-0.6,1-1.5,1.8-1c0.4,0.3,0.7,0.8,0.9,1.2c0.3,0.6,0.5,1.2,0.8,1.9L451.4,371.2z M507.4,328.7c0.2,0.4,0.4,0.8,0.6,1
				c0.3,0.4,0.6,0.7,0.9,1c0.3,0.3,0.5,0.6,0.6,1c0.1,0.3,0.2,0.7,0.3,0.9c0.1,0.3,0.2,0.4,0.4,0.6c0.1,0.1,0.3,0.2,0.2,0.4
				c0,0.3-0.3,0.4-0.5,0.5c-0.3,0.2-0.8,0.3-1.2,0.4c-0.7,0.1-1.4-0.1-2.1-0.2c-0.7-0.2-1.3-0.5-1.5-1.2c-0.1-0.5,0-1.2,0.1-1.7
				c0.2-1.2,0.9-2.3,1.3-3.3L507.4,328.7z M535.7,333.6c1.6,1.4,3.4,2.8,4.8,4.3c1.2,1.2,2.3,2.5,3.8,3.5c3.4,2.5,7.3,4.3,8.7,8.5
				c0.4,1.4,0.5,3.7-0.9,4.6c-1.4,0.7-3-0.5-3.9-1.6c-1.3-1.2-2.1-3-3.2-4.6c-0.7-1.6-1.8-2.8-3-4.3c-1.4-1.6-2.9-3.2-4.1-5
				c-1.2-1.6-2-3.2-2.7-5.1L535.7,333.6z M560.4,355.5c5.2,1.6,10.5,2.8,15.9,2.8c3.4,0,6.6-0.4,10,0.2c0.4,0.2,2.7,0.5,2.3,1.2
				c-0.2,0.4-1.1,0.4-1.4,0.5c-0.7,0.2-1.4,0.2-2.3,0.4c-5.9,0.7-12.1,0.7-17.8-1.4c-0.2,0.5-0.5,1.1-1.1,1.1
				c-0.5,0.2-0.9-0.4-1.3-0.5c-0.9-0.7-1.8-0.5-2.9-0.9c-0.9-0.5-1.6-1.2-2.9-0.9c-0.7,0.2-1.1,0.5-2,0.4c-1.1-0.4-4.6-0.4-4.3-2.3
				c0.2-1.1,1.8-2.1,2.7-1.6c0.4,0.4,0.7,0.7,1.1,1.1c0.5,0.4,1.2,0.4,2,0.5L560.4,355.5z M530.6,321.4c0.2,1.1,0.7,2.8-0.5,3.6
				c-1.1,0.7-2.1-0.5-2-1.6c0-0.5,0.4-1.1,0.4-1.8c0-0.4,0.2-0.7,0.4-1.1c0.2-0.5,0.4-0.9,0.9-0.9c0.7,0,0.7,0.5,0.5,0.9
				L530.6,321.4z M574.7,337c0.5,0.4,0.5,0.7,0.5,1.2c0,0.7,0.2,0.7,0.7,1.1c0,0.4-0.2,0.7-0.2,1.1c0,0.4,0.2,0.5,0.2,0.9
				c0.4,0.5,0.5,0.7,0.9,1.1c0.4,0.4,0.9,0.5,0.9,0.9c-0.7,0.5-1.8,0.4-2.3,1.2c-0.2,0.7,0.5,1.8,0,2.3c-1.1,0-2.3,0.2-2.1,1.4
				c0,0.7,0.9,2.3,0.2,2.8c-0.2,0.2-0.7,0-1.1,0c-0.5,0-1.1-0.2-1.6-0.2c-0.9,0-1.8,0-2.7,0c-1.2-0.2-2.3-0.4-3.6-0.4
				c-0.7,0-2,0.2-2.5-0.4c-0.5-0.5-0.4-1.4-0.4-1.9c-0.4-1.1-1.1-1.8-1.6-2.5c-0.7-0.7-1.4-1.8-1.3-2.8c0-0.9,0.7-1.2,1.4-1.4
				c0.7-0.4,1.3-0.9,1.6-1.6c0.5-0.7,1.1-1.6,1.8-2.1c1.3-0.9,2.9-1.1,4.3-1.6c0.7-0.2,1.6-0.5,2.1-1.2c0.5-0.7,0.9-1.6,1.3-2.3
				c0.4-0.7,0.7-1.6,1.6-1.6c0.9,0,1.6,0.4,2.1,0.9c0.7,0.5,1.2,1.1,1.4,2c0.2,0.9-0.2,1.8-0.5,2.5L574.7,337z M586.3,342
				c0.5-0.2,2.7-0.9,2.5,0.5c0,0.7-1.2,0.9-1.8,1.1c-0.4,2.3-2.5-0.2-3.8,0.2c-0.5,0.2-0.9,1.1-0.5,1.4c0.4,0.5,1.4,0.4,2,0.4
				c0.7,0.2,0.9,0.2,0.2,0.5c-0.5,0.4-1.4,0.7-1.6,1.4c-0.2,0.7,0.5,1.2,0.9,1.8c0.4,0.7,0.4,1.4,0,2c-0.9,2.1-2.5-1.4-3.7-1.1
				c-0.7,0.2-0.2,1.2,0,1.8c0.2,0.5,0.4,1.1-0.4,1.6c-0.7,0.5-2,0.5-2.7,0c-0.5-0.5-0.4-1.2-0.2-2c0.2-0.9,0.2-1.8,0.4-2.5
				c0-1.1,0.7-1.8,1.4-2.3c0.7-0.7,1.1-1.1,1.1-2.1c0-0.7,0-1.4,0.5-1.9c0.4-0.5,1.1-0.7,1.6-0.7c1.2,0,2.3,0.2,3.6,0.4L586.3,342z
				 M635.9,362.9c-0.4,0.5-0.7,0.9-1.2,0.7c-0.4-0.2-0.7-0.4-1.3-0.4c-0.5,0-0.9,0-1.4-0.2c-0.4,0-0.7-0.2-1.1-0.5
				c-0.4-0.2-0.9-0.2-1.4-0.5c-0.4-0.4-0.5-1.1-0.9-1.2c-0.4-0.2-0.9,0.2-1.1-0.2c-0.2-0.5,0.7-0.9,0.2-1.4
				c-0.4-0.2-1.2-0.2-1.6-0.2c-0.4,0-0.7,0.2-1.2,0.2c-0.4,0-0.9,0.2-1.2,0.5c-0.5,0.4-0.9,0.7-1.4,1.2c-0.2,0.4-0.4,0.7-0.9,0.9
				c-0.7,0-1.6-0.9-2.1-1.2c-0.9-0.5-1.8-0.5-2.7-0.4c-0.9,0-1.8,0.2-2.7,0c-0.5-0.2-2-1.1-1.4-1.8c0.4-0.5,2.5-0.9,1.8-1.9
				c-0.2-0.4-0.7-0.4-1.1-0.7c-0.4-0.2-0.4-0.7-0.7-1.1c-0.4-0.4-0.9-0.4-1.2-0.7c-0.4-0.2-0.7-0.5-1.2-0.5
				c-0.5-0.2-1.3-0.2-1.8-0.2c-0.7,0-2,0.2-2.5-0.4c-0.4-0.2-0.7-0.7-1.1-1.1c-0.4-0.2-0.9-0.2-1.3-0.2c-0.7,0-1.3-0.2-2,0
				c-0.2,0.2-0.5,0.4-0.9,0.5c-0.7,0.2-1.6,0.2-2.5,0.2c-0.9-0.2-1.4-0.7-2.5-0.5c-1.1,0.2-2,0.2-3-0.4c-0.4,0.7-1.1,0.9-2,1.1
				c-0.7,0-2.1-0.2-2.1-1.2c0-1.8,3.6-1.2,4.6-0.9c0.2-1.2,1.4-2,2.7-1.6c0.7,0.2,1.4,0.5,2.1,0.7c0.5,0.2,1.1,0.4,1.8,0.4
				c0.4,0,1.6,0.2,2-0.2c0.5-0.7-0.7-1.2-1.1-1.4c-0.7-0.4-1.1-0.5-1.4-1.4c-0.2-0.7-0.2-1.2,0.5-1.8c0.5-0.4,1.3-0.4,2-0.2
				c0.7,0,1.4,0.2,2.1,0.2c0.9,0.2,1.6,0.7,1.4,1.6c0,0.4-0.2,0.7-0.2,1.1c0.2,0.4,0.5,0.5,0.7,0.7c0.4,0.5,0.9,1.2,1.6,1.2
				c1.2,0.2,1.1-1.1,0.7-1.8c0-0.4-0.5-2,0.4-2c0.5,0,0.7,1.8,0.7,2.1c0-0.5,0-1.2,0.7-1.2c0.7-0.2,1.6-0.2,2.3,0
				c0.5,0,0.9,0.4,1.4,0.7c0.5,0.4,0.9,0.5,1.4,0.7c0.5,0.2,1.6,0.4,2.1,0.7c0.4,0.5,0,1.2,0.5,1.6c0.4,0.2,0.9,0.2,1.2,0.2
				c0.5,0,1.2,0,1.8,0c0.7,0.2,1.8,0.2,2.3,0.9c0.5,0.4,0.7,0.7,1.4,0.9c0.5,0.2,1.2,0.4,1.8,0.4c0.9,0.2,1.4,0.5,2.1,1.1
				c0.5,0.5,1.2,0.9,1.8,1.4c0.7,0.7,0.5,1.1,0.2,2c-0.2,0.4-0.4,0.7-0.2,1.2c0.4,0.5,1.1,0.9,1.4,1.2c1.1,0.9,2,1.8,3,2.5
				L635.9,362.9z M621.8,367.9c1.1,1.1,2,2.1,3,3.2c0.7,0.9,1.2,2.3,1.6,3.4c0.4,0.9,0.5,1.6,0.7,2.5c0,0.4,0,0.7,0.4,1.1
				c0.4,0.5,0.7,0.7,1.1,1.1c0.5,0.4,1.1,0.7,1.4,1.2c0.5,0.9,0.9,2,1.4,2.8c0.5,0.7,1.3,1.4,2,2.1c1.1,0.7,2.1,1.4,3,2.3
				c0.9,0.9,1.4,1.8,2.1,2.7c1.1,2,3.4,3.5,3.2,6c-0.2,1.1-0.5,1.8-0.7,2.8c-0.2,0.5-0.2,0.9-0.2,1.4c-0.4,1.1-0.9,1.8-1.3,2.7
				c-0.4,0.7-0.2,1.2-0.2,2c0.4,2.1-1.8,3-2.5,4.8c-0.5,0.9-0.7,2-1.3,2.8c-0.4,0.5-0.5,1.1-0.9,1.6c-0.2,0.9-0.9,1.4-1.4,2.1
				c-0.4,0.7,0,1.6,0.4,2.5c-0.7-0.2-1.3,0-2,0.2c-0.9,0.2-1.6,0.2-2.3,0.2c-0.9,0.2-1.6,0.9-2.3,1.2c-0.9,0.4-1.2-0.4-2-0.7
				c-0.7-0.5-1.2-0.2-2,0.2c-0.7,0.5-1.4,0.9-2.3,0.5c-0.7-0.2-1.2-0.7-1.8-1.1c-0.5-0.2-1.1-0.2-1.6-0.2c-1.4-0.2-1.4-1.2-1.6-2.5
				c-0.2-0.5-0.2-1.1-0.4-1.6c-0.2-0.7-0.5-1.1-1.1-1.6c-0.4-0.4-0.5-0.9-0.9-1.2c-0.2-0.4-0.9-0.5-1.1-0.9c-0.4-0.7,0-1.4,0.2-2.1
				c0.4-0.7,0.5-1.6,0.5-2.5c-0.7,0.2-1.8,0.4-2,1.2c-0.2,0.4,0,0.9,0,1.2c0,0.4-0.2,0.9-0.5,1.2c-0.7,0.7-2,0.9-2.9,0.2
				c-0.9-0.5-0.2-2-0.5-2.8c-0.4-1.1-1.2-1.6-2.3-1.6c-0.9,0-1.4-0.2-2.1-0.7c-0.7-0.4-1.6-0.5-2.3-0.9c-0.9-0.4-1.6-0.5-2.5-0.4
				c-0.5,0-1.2,0-1.8,0.2c-0.7,0.2-1.1,0.7-1.8,0.9c-0.9,0.4-2,0.4-2.9,0.4c-1.1,0-2.3-0.2-3.4,0.2c-2,0.5-1.6,3.5-3.7,3.5
				c-0.9-0.2-1.6-0.4-2.5-0.4c-0.9-0.2-1.4,0.4-2.1,0.9c-1.1,1.2-3,2.3-4.8,1.9c-0.9-0.4-1.4-1.1-2.3-1.4c-0.7-0.2-1.4-0.5-2-1.1
				c1.1-0.7,1.8-1.4,1.4-2.8c-0.2-1.1-0.7-1.9-1.1-2.8c-0.4-1.1-0.9-2.1-1.1-3.2c-0.2-0.9,0-1.6,0.4-2.5c0.2-0.9,0.2-1.8-0.5-2.3
				c-0.7-0.7-2.1-1.1-2.5-2c-0.5-0.9,1.1-0.9,1.4-1.1c0.9-0.5,0.2-1.4-0.2-2.1c-0.5-0.7-0.7-1.4-0.7-2.5c-0.2-0.5-0.5-1.6,0-2.1
				c0.4-0.2,0.7-0.2,1.1-0.4c0.4,0,0.7-0.4,1.1-0.5c0.5-0.9,0.9-2.3,2-2.7c0.5-0.4,1.3-0.2,1.8,0c0.4,0.2,0.7,0.5,1.1,0.5
				c0.9,0,1.4-0.9,2.1-1.2c0.5-0.4,1.1-0.5,1.8-0.7c0.4,0,0.7,0,1.1,0c0.7-0.4,1.4-1.2,2-1.6c1.1-0.7,1.6-1.4,1.8-2.7
				c0.2-0.9,0.4-1.8,1.4-1.4c0.4,0,1.1,0.4,1.4,0.2c0.4-0.2,0.2-0.5,0.4-0.9c0-0.4-0.2-0.7,0.2-0.9c0.4-0.2,1.1,0.4,1.2,0.5
				c-0.5-1.1-0.2-2.1,0.5-3c0.7-0.9,1.8-1.8,3-1.8c1.8,0,3.4,2.5,5.4,0.9c1.2-1.1,0-3.7,2.1-3.9c0.9-0.2,1.6,0.2,2.3-0.5
				c0.5-0.5,0.9-1.2,1.6-1.2c0.9,0.2,1.8,0.9,2.7,1.1c0.9,0.5,2,0.7,2.9,1.1c1.2,0.5,1.4,1.2,0.5,2.3c-0.4,0.5-1.6,1.8-0.7,2.3
				c0.9,0.5,2,0.2,2.5,1.2c0.4,0.9,0.4,1.6,1.6,1.6c0.5,0,1.1,0,1.4,0.2c0.4,0.2,0.7,0.7,0.9,1.1c0.5,0.7,1.3,1.6,1.8,0.5
				c0.5-0.9,1.2-1.2,1.6-2.1c0.2-0.7,0.5-1.2,0.7-2c0.9-2.1,0.7-4.8,1.8-6.6L621.8,367.9z M632.1,424.1c0.2,0.5,0.4,1.1,0.2,1.6
				c-0.4,0.7-0.7,1.2-0.9,2c-0.2,0.7-0.4,1.2-0.9,1.8c-0.4,0.4-0.7,0.5-0.9,1.1c0,0.5,0.2,1.1-0.2,1.6c-0.4,0.4-1.1,0.7-1.6,0.5
				c-0.5-0.2-0.7-0.9-0.9-1.2c-0.4-0.7-0.7-1.2-0.9-2c-0.2-0.5,0-0.9,0-1.4c-0.2-0.7-0.7-1.2-1.1-2c-0.4-0.4-1.1-1.2-0.4-1.6
				c0.4-0.2,1.1,0.7,1.3,0.9c0.4,0.5,0.5,0.7,0.9,0.7c0.5,0,1.1-0.2,1.6-0.2c1.1,0.2,2-1.1,2.7-1.8H632.1z M682.3,426.2
				c-0.5-0.2-1.2-0.4-1.4-0.9c-0.2-0.2,0-0.7,0.2-0.9c0.2-0.7,0.5-1.1-0.4-1.4c-0.7-0.2-1.8,0.2-2-0.9c0-0.7,0.2-1.8,0.9-2.3
				c0.4-0.4,0.9-0.7,0.9-1.2c0-0.5-0.5-0.7-0.7-1.1c-0.9-0.9-0.4-1.6-0.4-2.5c-0.2-0.9-0.5-1.8-1.2-2.3c-0.2-0.4-0.5-0.4-0.7-0.5
				c-0.4-0.4-0.5-0.7-0.9-1.1c0.4-0.2,1.1,0,1.4,0.2c0.5,0,0.9,0.2,1.3,0.4c1.1,0.4,1.1,1.4,0.9,2.3c0,0.7-0.2,1.2,0.7,1.2
				c0.4,0,0.7,0,1.1,0c0.5,0,0.4,0.4,0.7,0.9c0.4,0.5,1.1,0.2,1.2,0.7c-0.2,0.5-0.7,1.4,0,1.6c0.5,0.2,1.2,0,1.8,0
				c0.5-0.2,1.1-0.9,1.8-0.9c0.7,0,1.1,0.7,0.7,1.4c-0.5,0.5-1.2,0.2-1.8,0.7c-0.4,0.2-0.4,0.7-0.4,1.1c-0.2,0.5-0.5,0.9-0.9,1.2
				c-0.2,0.4-0.5,0.5-0.9,0.9c-0.4,0.4-0.5,0.7-0.5,1.2c-0.4,1.1-0.7,2-1.8,2.7L682.3,426.2z M677.8,430.5c-0.2,0.9-0.7,1.6-1.6,2.1
				c-0.7,0.5-2,0.9-2.3,2c-0.4,0.9,0.2,1.8,0,2.7c0,1.1-0.9,1.8-1.8,2.1c-2.1,0.7-7.3,0-7.3-2.8c0.2-1.6,1.8-2.1,2.9-2.7
				c1.6-0.7,2.5-2,3.7-3.2c1.1-0.9,2.7-1.6,2.9-3c0.4-1.2,0.2-2.8,2-2.8c0.5,0.2,0.9,0.4,1.4,0.5c0.4,0,0.7,0,1.1,0
				c2.1-0.2,0.2,3-0.2,3.7L677.8,430.5z M582.9,300.3c-0.3,0.4-0.5,0.7-1.1,0.8c-0.3,0.1-0.7,0.1-0.8,0.4c-0.5,0.7-0.1,1.5-0.4,2.2
				c-0.5,0.8-1.6,0.7-2,0c-0.4-0.7-0.3-1.1-0.1-1.7c0-0.7-0.1-1.2,0.4-1.9c0.3-0.3,0.7-0.5,1.1-0.7c0.3-0.1,0.5-0.1,0.8-0.4
				c0.4-0.7,0.5-1.6,1.5-1.2c0.3,0.1,0.7,0.4,0.7,0.7c0.1,0.4-0.4,0.8-0.7,0.9L582.9,300.3z M583.7,313.8c-0.3,0.5-0.4,1.1-0.7,1.6
				c-0.3,0.5-0.7,1.2-0.7,1.9c0,0.5,0.5,0.7,1.1,0.8c0.7,0.1,1.4,0.1,2,0.5c0.9,0.4,1.5,1.5,2.2,2.3c0.7,0.8,1.2,1.5,1.8,2.3
				c0.4,0.7,1.4,1.3,1.1,2.3c-0.1,0.8-1.1,1.5-1,2.4c0.1,0.9,1.1,1.8,1.5,2.6c0.5,1.1,0.5,2.2-0.4,2.8c-1.1,0.8-2.8,1.1-3.9,0.3
				c-0.8-0.7-1.4-2-2-2.8c0,1.1-0.8,1.7-1.9,2c-0.4,0.1-1,0.1-1.2-0.4c-0.1-0.4,0.1-0.9,0.4-1.3c0.5-0.9,1.1-1.8,1-3
				c-0.1-0.5-0.3-1.2-0.7-1.7c-0.1-0.4-0.5-0.7-0.8-1.2c-0.4-0.8,0.4-1.7,1.1-2.2c0.9-0.5,1.9,0.1,2.4,0.9c0.8,0.8,0.9,1.6,0.1,2.6
				c-0.4,0.5-1.5,1.5-0.4,1.9c0.8,0.4,2.2,0.4,3-0.3c0.5-0.7,0.7-1.6,0.5-2.4c-0.3-0.9-0.7-2.2-1.4-2.8c-0.7-0.5-1.5-0.5-2.2-1.1
				c-0.4-0.4-0.9-2-1.8-1.9c-0.7,0.1-1.4,1.6-2,1.3c-0.3-0.1-0.4-0.7-0.4-1.1c-0.1-0.4-0.3-0.9-0.4-1.3c-0.1-0.4-0.4-0.8-0.8-1.2
				c-0.1-0.3-0.5-0.5-0.5-0.9c-0.1-0.8,1.1-1.6,1.4-2.4c0.1-0.4,0-0.8-0.3-1.2c-0.1-0.3-0.5-0.5-0.7-0.8c-0.4-0.8,0.8-1.9,1.4-2.3
				c0.8-0.7,1.5-0.9,2.4-0.9c0.1,0.5-0.3,1.2,0.1,1.8c0.3,0.3,0.7,0.3,0.8,0.5c0.3,0.5,0,1.2-0.1,1.7V313.8z M618.2,261.7
				c0.5,0.9,0.7,1.9,1,3.1c0.2,0.9,1.4,1.9,0.5,2.8c-0.2,0.5-1,0.7-1.2,1.4c-0.2,0.5,0,1,0,1.4c0,1.2-0.5,2.8-1.2,3.8
				c-0.5,0.9-1.7,0.7-2.4,1.4c-0.5,0.5-1,0.9-1.4,1.4c-0.5,0.2-1,0.2-1.7,0.2c-0.7,0-1.2,0-1.9,0.2c-0.5,0.5-1,0.9-1.4,1.2
				c-1.4,0.9-1.2-0.5-1-1.4c-1.4,0.5-2.9,0.7-4.3,1.2c-1.7,0.9-1.9,2.4-2.4,4c-0.2,0.7-0.5,1.4-1.2,1.4c-1,0.2-1.7-0.5-2.1-0.9
				c-1.2-1.2-0.7-2.1,0.5-3.3c0.7-0.9,1.2-2.1,2.4-2.8c1-0.7,2.4-0.9,3.6-1.2c1.2,0,2.9,0.2,4-0.2c1-0.5,1.2-1.9,2.1-2.6
				c1.2-0.9,3.1-0.2,4.3-1.2c0.7-0.7,0.7-2.1,1.2-3.3c0.2-1.2,0.2-2.1,0.2-3.3c0.2-0.5,0.2-1.2,0.5-1.7c0.2-0.5,0.5-0.7,0.5-1.2
				c0.2-1.4-1.2-2.6-0.7-3.8c0.5-1.2,1.9-1.2,2.6-2.4c0.2-0.7,0-1.4,0.2-2.1c0.2-0.5,0.2-0.5,0.7-0.2c1.2,0.7,1.9,1.7,3.6,1.7
				c1.2,0,3.3,0,3.8,1.4c0.5,1.2-2.1,1.2-2.9,1.7c-0.5,0.2-1,0.5-1.4,1.2c0,0.2,0,0.5-0.5,0.7c-0.2,0.2-1.2,0-1.7,0
				c-1-0.2-2.1-0.5-3.1-0.7L618.2,261.7z M348.8,273.7l-1.9-1.2l-2.9-0.9c0,0-0.7-1.9-0.2-5.2c0-0.2,0-1.7,0-2.6
				c0-1.2,0.2-1.9-0.2-3.1c-0.5-0.9-0.5-1.4,0.5-2.1c0.7-0.7,1.4-0.7,2.4-1c1-0.2,1.4-0.2,2.4,0c1,0.5,1.7,0.7,2.9,0.5
				c0.5,0,1,0,1.4,0.2c0.5,0,1,0.2,1.4,0.5c1,0.2,2.4-0.2,2.9-1.4c0.2-0.9,0-2.1,0-3.3c0.2-0.9,0.5-1.9-0.2-2.6
				c-0.2-0.2-0.7-0.5-1-0.7c-0.2-0.5-0.2-0.9-0.5-1.4c-0.7-0.9-1.4-1.2-2.4-1.9c-0.5-0.5-2.1-0.7-2.1-1.4c-0.5-1.2,1.4-1.7,2.1-1.4
				c1,0,2.1,0.5,3.1-0.2c0.7-0.7,0.2-1.7,0-2.1c0.5,0.7,1.2,1.2,2.1,0.7c1-0.2,2.1-0.7,2.6-1.7c0.2-0.7-0.2-1.9,0.7-2.6
				c0.7-0.7,1.9-0.2,2.6-0.9c1-0.9,1-1.9,2.1-2.4c1-0.7,1.9-0.7,2.4-1.9c0.5-1.2,0.5-1.9,1.7-2.6c0.7-0.5,1.4-1.2,2.1-1.4
				c1.2-0.2,2.4,0.5,3.1,0c1.2-0.7,0.7-2.6,0.7-3.3c-0.5-1.9-3.3-3.3-1.7-5.2c0.5-0.9,1.4-1.2,1.9-2.1c0.2-0.5,0.7-2.1,1.4-1.9
				c1,0.5,1,2.4,1,3.1c-0.2,1.2-0.7,2.1-1.2,3.1c0.2,0.2,0.2,0.2,0.5,0.2c-1.4,1.4,0.5,2.6-0.2,4.3c-0.2,0.7,0.2,0.9,1,0.9
				c1,0,1.4-0.7,2.4-0.9c1.2-0.2,1.4,0.7,2.1,1.2c1.2,0.7,1.9-0.2,2.4-0.9c1.4-1.7,2.6-1.7,4-0.2c0.5-0.9,1.2-1.2,2.1-1.2
				c0.2,0,0.7,0.2,1,0.5c0.2,0,0.5,0.5,1,0.5c0.7,0,0.7-1.4,1.4-1.9c0.5-0.2,1.2,0,1.7-0.2c0.5-0.2,1.7-0.5,1.4-1.4
				c0-0.5-0.7-0.9-0.7-1.4c-0.2-0.5,0-0.9,0.2-1.4c0.2-0.9,0-1.7,0.5-2.6c0.5-0.7,0.9-1.7,1.7-2.1c0.2,1.2,0.7,2.6,2.1,2.6
				c1.4,0.2,2.1-1.2,1.9-2.4c0-1.2-0.9-2.1-0.9-3.3c0-0.9,1.4-1.7,2.1-2.1c0.7-0.5,1.2-0.9,2.1-0.9c1,0.2,1.7,0.2,2.6,0
				c0.9-0.5,1.7-1.4,1.4-2.6c-0.5-0.7-1.2-0.7-1.9-0.7c-1,0.2-1.9,0-3.1,0c-1,0-1.9,0.5-2.9,0.9c-0.7,0.5-2.4,1.7-3.1,0.9
				c-0.7-0.7-0.2-1.9-0.5-2.8c0-0.9-0.7-1.7-1.2-2.6c-0.2-0.7,0-1.7,0-2.4c0-1.2-0.2-2.4,0.2-3.3c0.5-0.9,1.7-1.4,2.4-2.1
				c0.7-0.9,1-2.1,1.4-3.1c0.5-0.7,1.4-0.9,1.9-1.7c0.7-0.9,0.2-2.1-0.2-2.8c-0.7-0.9-1.4-1.4-2.4-1.2c0.2-0.9-1.4-1.9-1.9-0.9
				c-0.2,0.5,0.2,0.7,0,1.2c-0.2,0.5-0.7,0.7-1,0.9c-0.2,0.5-0.5,0.7-0.5,0.9c0,0.2,0,0.2,0,0.5c0,0.5-0.2,0.5-0.7,0.9
				c-0.5,0-1,0.7-1,0.9c0,0.5,0.5,0.9,0.7,1.2c-0.5,0.2-1.2,0.5-1.7,0.9c0,0.5,0,0.7-0.2,0.9c-0.2,0.2-0.7,0.5-0.9,0.5
				c-0.5,0.2-0.7,0.7-1,0.9c0,0.5,0,0.9-0.2,1.2c-0.2,0.5-0.7,0.5-1,0.7c-1.2,0.5-1.9,1.4-1.7,2.6c0,0.7,0.5,1.4,0.2,2.1
				c-0.5,0.7-1.2,0.9-1.7,1.7c-1,1.2,0.2,2.1,1.4,2.8c1,0.5,1.9,1.4,0.7,2.4c-0.5,0.5-1,0.7-0.7,1.2c0.2,0.5,0.7,0.7,1,1.2
				c-0.5,0-1.2,0.2-1.7,0.2c-0.5,0-0.7,0-0.7,0.5c0,0.5,0.2,0.9,0.2,1.2c0,0.5-0.5,0.9-0.5,1.4c-0.5,0.7-0.5,1.4-1,2.1
				c-0.2,0.9-0.5,1.9-0.2,2.8c0.2,0.9,0.7,2.1-0.2,2.6c-0.5,0.2-0.7,0.2-1.4,0.2c-0.2,0-1.2,0-1.4,0.5c0,0.2,0.2,0.5,0,0.9
				c-0.2,0.5-0.5,0.7-0.9,0.7c-0.5,0-1.2,0.2-1.4,0c0-0.2,0.5-0.9,0.5-1.2c-0.5,0-1-0.2-1-0.7c-0.2-0.5,0.5-0.7,0.2-1.2
				c0-0.5-0.5-0.7-0.7-0.9c-0.2-0.5-0.5-1.2-0.5-1.7c-0.5-1.2-0.5-2.1-1-3.3c0-0.5-0.5-1.2-0.2-1.7c0.2-0.5,0.7-0.9,1-1.4
				c-0.5,0.2-1.2,0.5-1.9,0.2c-0.7-0.5-0.7-1.2-1.4-1.9c-0.5,0.7-1,1.7-1.7,2.1c-0.2,0.2-0.5,0.5-0.7,0.7c-0.5,0.5-0.5,0.9-0.7,1.2
				c-0.5,1.2-1.4,1.7-2.6,0.9c-0.5-0.5-1.9-0.9-1.9-1.7c0-0.2,0.5-0.7,0.5-1.2c0.2-0.5,0.2-0.7,0.2-1.2c0-0.7,1-1.2,0.7-1.7
				c0-0.5-0.2-0.7-0.5-0.9c-0.2-0.5-0.2-0.7-0.2-1.2c-0.2-0.7-0.9-1.2-1.7-1.2c0.5-1.2,2.1-0.9,2.6-1.9c-0.5,0-1,0.5-1.7,0.2
				c0.2-0.2,0.2-0.2,0.5-0.2c-0.5,0-1.2,0.7-1.7,0.5c-0.5-0.5,0.2-1.7,0.5-1.9c0-0.5,0.2-0.7,0.5-1.2c0-0.2,0-0.5,0-0.7
				c0.2-0.7,1.7-1.2,1.7-2.1c-1.4-0.5-0.2-1.2,0.7-1.4c0.7,0,1.2,0.2,1.7-0.5c0.2-0.7,0.5-1.2,1.2-1.4c1-0.2,3.8,0.7,4-1.2
				c-0.5-0.5-1.4,0.5-1.9-0.2c0-0.5,0.5-0.7,0.5-1.2c-0.2-0.5-0.7-0.7-0.7-0.9c0.2-0.9,1.4-0.7,1.7-1.2c0-0.5-0.7-0.7-0.5-1.2
				c0,0,1-0.2,1.2-0.2c1.4-0.9-0.2-1.7,0.5-2.4c0.5-0.5,1.7-0.7,2.4-0.9c0.2,0,0.7-0.2,0.7-0.7c-0.2-0.7-1.2-0.7-1.4-0.9
				c0-0.5,1-0.7,1.4-1.2c0.7-0.7,1.2-1.4,1.7-2.4l-0.2,0.7c0-0.7,0.2-1.2,0.5-1.9c0-0.5,0.2-0.9,0.5-1.4c0.2-0.5,1-0.5,1.4-0.9
				c0.2-0.2,0.2-0.7,0.2-0.9c0.2-0.5,0.5-1.4,1-1.7c0.2,0,0.5,0,0.7-0.2c0.2-0.2,0-0.7,0-0.9c0-0.5,0-1.4,0.5-1.9
				c0.2-0.7,0.7-0.2,1.4,0c0.2-0.7-0.2-1.9,0.2-2.6c0.7-0.9,1.7,0.5,2.1-0.2c0.2,0,0-0.5,0.2-0.7c0-0.5,0-0.7,0.2-1.2
				c0.7-0.9,1.4,0,2.1,0.2c0.5-0.2,0.5-0.7,0.5-1.2c0.2-0.5,0.5-0.9,1-1.4c0.7-0.9,1.4-0.7,2.1,0c0.5,0.9,1,0.5,1-0.2
				c0.2-0.7,0.2-1.9,1-2.1c0.7,0.5,0,1.9,0.5,2.6c0-0.9,0-1.9,0.2-2.8c0.5-1.2,1-0.9,1.9-0.5c1,0.5,1.4,0.5,2.4-0.2
				c0.5-0.5,1.2-1.2,1.7-1.9c0.2-0.2,0.7-1.2,1.4-1.2c0.7,0.2,0.5,1.2,0.7,1.7c0,1.2,0,2.4,0,3.5c0-0.7,0.2-1.7,0.7-2.1
				c0.7,0.2,0.9,0,1.7,0c1,0,1.7,0.2,2.4,0.7c0.2,0,1.2,0.5,1.4,0.7c0,0.5-0.7,0.9-1,0.9c-0.7,0.2-1.2,0.2-1.7,0.5
				c-0.5,0-1.4,0.2-1.7,0.5c-0.5,0.7,1,1.7,1.4,2.1c0.2,0.2,0.5,0.7,1,0.7c0.2,0,0.7-0.5,1.2-0.7c0.2-0.2,0.9-0.7,1.4-0.5
				c0.2,0.2,0.7,0.7,0.9,0.9c1,0.5,1.4,1.2,2.1,2.1c1.2-1.4,2.9-1.9,4.5-0.7c1.2,0.9,1.9,2.6,3.1,3.5c1.2,0.9,2.4,1.7,3.3,2.6
				c1.2,1.2,2.9,2.8,3.6,4.5c0.7,2.1-3.6,2.8-5,3.1c-1.2,0.2-2.1,0.9-3.1,1.2c-1,0.2-1.9,0-2.9-0.2c-1-0.5-1.9-1.4-2.9-1.9
				c-0.5-0.5-2.6-1.9-3.3-0.9c-1,0.9,1.9,2.4,2.4,2.6c1.2,0.7,1.7,1.2,1.4,2.4c0,1.4,0,2.4,1,3.3c0.7,0.9,1.4,1.7,2.4,2.4
				c1,0.9,3.3,2.1,4.5,0.9c1-0.9-0.2-1.7-1.2-1.7c-1,0.2-3.1,0.5-2.6-0.9c0.5-1.7,2.4-1.2,3.3-0.5c1.2,0.7,1.9,1.9,3.3,2.4
				c1,0.2,1.9,0.5,2.9,0.9c-1.2-0.9-2.1-2.1-2.1-3.8c-0.2-0.5-0.2-1.4,0-1.9c0.5-0.7,1-0.9,1.7-1.4c0.9-0.9,1.4-3.3,3.3-2.8
				c1.4,0.2,1.7,1.7,2.6,2.4c-0.5-1.2,0-1.9,0.5-3.1c0.7-1.2,0.5-1.9-0.2-3.1c-0.5-0.7-0.7-1.2-1-2.1c-0.2-0.9-0.7-1.7-0.9-2.4
				c-0.5-1.7,0.2-3.3,2.1-2.8c2.1,0.5,2.9,2.1,3.3,4c-0.7,0-1.7,0-2.1,0.7c-0.2,0.5,0,1.4,0.2,2.1c0.7,0.9,1.4,2.1,2.9,1.2
				c0.5-0.2,0.9-0.9,1.4-1.4c0.5-0.5,1-0.9,1.4-1.4c1.2-0.7,1.9-1.9,3.1-2.6c0.5-0.5,1-0.9,1.4-1.2c0.7,0,1.2,0.2,1.9,0.5
				c1.2,0,1.7-1.4,2.9-1.9c1.7-0.7-0.7,1.9-1,2.1c-1,1.2-1.4,2.4-1.9,3.5c1.2,0,1.7-1.4,2.4-2.4c0.5-0.5,1-0.5,1.7-0.7
				c0.5-0.2,0.5-0.9,0.7-1.4c1-1.7,2.1-0.5,3.3-0.7c0.7,0,1.4-0.5,1.9-0.9c0.5-0.2,1-1.4,1.7-1.2c0.7,0.5-1,2.6,0.5,3.1
				c0.5,0.2,1.4,0.2,1.7-0.5c0.2-0.5-0.5-0.9-0.5-1.7c0.2-0.5,1.2-0.5,1.4-0.9c0.5-0.5,0.7-1.2,0.5-1.7c0-0.5-0.5-0.9-0.2-1.4
				c0.5-0.7,1.7-0.9,2.4-1.2l-1,0.8c1.2-0.5,2.3-0.8,3.5-0.5c1.2,0.3,2.3,1.1,3.2,1.8c1.7,1.2,3.5,2.6,5.3,3.6
				c0.6,0.3,1.8,1.2,2.4,0.8c0.5-0.5,0-1.7-0.3-2.3c-0.3-1.1-0.8-2.1-1.1-3.2c-0.3-1.2-0.3-2.3-0.6-3.5c-0.2-0.8-0.5-1.5-0.9-2.3
				c-0.3-0.6-0.8-1.1-0.8-1.8c-0.3-2,1.5-3.6,2.7-5c1.2-1.4,1.1-3.2,2.1-4.7c1.5-2,4.3-1.5,5.3,0.6c0.6,1.7-0.2,3.3,0,5
				c0.1,0.9,0.5,1.8,0.5,2.7c0.2,0.9,0.2,1.8,0.2,2.6c0,1.8,0.2,3.5,0.2,5.3c0,0.9,0,1.8,0.2,2.9c0.2,0.9,0.5,2,0.8,3
				c0.3,0.9,0.5,1.8,0.2,2.9c-0.2,0.8-0.8,1.4-1.2,2c-1.1,1.4-2.1,2.9-3.8,3.6c-0.6,0.2-1.8,0.5-2.1,0.9c-0.5,0.5,0.3,0.8,0.6,0.9
				c1.7,0.9,3.7,0.8,5.2-0.3c1.1-0.8,2-1.7,2.7-2.6c0.8-0.8,1.5-1.7,1.5-2.9c0.2-0.9-0.3-1.7-0.8-2.6c-0.3-0.6-0.5-1.2,0.2-1.7
				c1.2-1.1,4.3-1.2,4.7,0.8c0.2,0.9,0,1.8,0.3,2.7c0.3,0.8,1.1,1.2,1.8,1.5c-0.6-0.5-0.9-0.9-0.8-1.5c0-0.6,0-1.1,0.2-1.7
				c0-0.8,0.5-1.4,0.5-2.1c0-0.8-0.6-1.2-1.1-1.7c-0.3-0.5-0.8-1.1-1.2-1.1c-0.5-0.2-0.9,0.2-1.4,0.2c-0.6,0-1.1-0.3-1.7-0.3
				c-0.5,0-1.4,0.2-1.7-0.2c-0.6-0.5-0.3-1.5-0.3-2.1c0-0.6,0.2-1.4,0.3-2.1c0.2-0.9,0.6-1.7,0.3-2.7c-0.2-0.6-0.5-1.1-0.9-1.4
				c-0.3-0.3-0.8-0.8-0.8-1.2c0-0.5,0.5-0.8,0.6-1.2c0.3-0.6-0.3-1.4-0.6-1.8c-0.5-0.9-0.3-1.7,0.6-2.3c0.6-0.5,1.5-0.8,1.8-1.5
				c0.2-0.6,0-1.5,0.2-2.3c0-0.6,0.2-1.4,0.2-2.1c1.1,0.9,1.5,2.1,1.5,3.5c0,1.5-0.8,2.7-1.4,3.9c-0.6,1.1-0.6,2.4,0.5,3
				c0.9,0.5,2,0.6,2.9,0.9c0.9,0.2,1.8,0.2,2.9,0c-1.1-1.1-2.4-2.1-3.3-3.3c-0.1-0.3-0.8-1.1-0.5-1.4c0.3-0.5,1.2-0.3,1.7-0.3
				c0.3,0,1.1,0.2,1.4-0.1c0.3-0.3,0.2-0.8,0.2-1.1c0-1.1,0.2-2.1,1.4-2.1c1.2,0,2.1,0.9,2.7,1.8c0.6,1.1,1.4,2,2.3,2.7
				c0.9,0.8,1.5,1.4,1.1,2.6c-0.5,1.1-1.4,2-1.2,3.3c0,0.9,0.8,1.4,1.5,1.8c1.1,0.8,1.8,1.5,2.7,2.4c0.6-1.2-1.4-2.3-0.5-3.5
				c0.5-0.5,1.2-0.6,1.1-1.5c-0.2-0.5-0.8-0.6-1.1-1.1c-0.6-1.2,0.2-2.6-0.8-3.5c-0.5-0.6-0.9-0.9-1.2-1.5c-0.2-0.8-0.2-1.2-0.6-1.8
				c-0.3-0.6-0.6-1.2-1.1-1.7c-0.3-0.2-0.8-0.3-1.2-0.5c-0.6-0.5-0.8-0.9-0.6-1.7c0-0.3,0.2-0.6,0.2-0.9c-0.2-0.3-0.5-0.5-0.6-0.6
				c-0.3-0.3-0.5-0.9-0.5-1.4c0.2-0.5,0.5-0.8,0.6-1.1c0.3-0.5,0.6-0.9,0.8-1.4c0.6-0.8,1.5-1.1,2.3-1.5l-1.2,0.9
				c1.5-1.2,5.4,0.5,7.2-0.1c1.2-0.6,3.3-1.5,3-3c0-0.6-0.6-1.2-0.6-1.8c-0.3-1.2,0-2.1,0.9-2.7c1.2-0.9,2.4-2.1,3.6-3
				c2.4-1.8,5.1-2.7,7.5-4.2c0.9-0.9,5.7-6,5.7-2.1c2.7-0.3,5.4-0.6,7.8-1.8c0.9-0.6,2.1-1.2,2.4-2.4c0.3-0.9-0.6-1.8-0.9-2.7
				c-1.2-3,1.2-5.1,3.6-5.7c3-0.6,3.3,1.8,3.9,3.9c0.3,1.5,0.9,5.1,3,3.9c1.2-0.3,2.4-0.9,3.6-0.9c1.5,0,2.7,0.9,3.6,2.1
				c0.9,1.2,1.2,2.7,1.5,4.5c0.6,1.2,0.9,2.4,1.5,3.6c0.3,1.2,0.9,2.4,0.3,3.3c-0.9,0.9-2.1,1.2-3,1.5c-0.9,0.6-1.8,0.9-2.4,2.1
				c-0.6,0.9-0.6,2.1-1.2,3c-1.8,2.7-4.8,4.8-7.2,6.9c1.2-0.6,2.7,0,3.9-0.9c0.9-0.9,1.5-1.8,1.8-2.7c0.6-1.2,0.9-2.4,2.4-1.8
				c0.9,0.3,1.2,0.3,2.4,0.3c0.6,0,1.8,0.3,2.4,0.9c1.2,0.9,0.6,3,0.9,4.2c0.6-0.6,0.9-0.9,1.5-1.5c0.3-0.6,0.6-1.2,1.2-1.8
				c1.2-0.3,2.4,0,3.3,0c1.2,0,2.4-0.3,3.6,0.3c0.9,0.6-0.3,1.5-0.3,2.4c0.3,1.8,1.8,1.8,3,0.9c0.9-0.3,1.2-0.3,2.1-0.3
				c0.9,0.3,2.1,0.3,3,0.6c1.2,0.6,2.4,1.5,3.6,1.8c1.2,0,3-1.2,2.4-2.4c-0.6-1.2-3.3-1.5-4.2-2.1c-1.2-0.3-3.3-1.2-1.8-2.4
				c1.2-1.5,3-0.6,3.9,0.6c0.6,0.6,1.2,1.2,1.8,1.2c0.9,0,1.5-0.3,2.1-0.6c1.8,0,2.4,1.8,2.4,3c0.3,1.2,0,3,0.9,3.9
				c0.9,0.6,1.8,0.6,2.7,0.9c-0.9,0.9-1.5,0.9-2.7,1.2c-1.5,0.3-1.5,1.5-0.9,2.7c0.6,1.5,1.2,2.4,2.4,3.3c0.6,0.6,2.1,1.8,3,0.9
				c0.9-0.9-0.3-2.1,0-3c0-0.9,1.2-2.4,2.1-2.1c0.9,0,1.2,1.2,2.4,1.2c0.6,0,1.2-0.3,2.1-0.3c0.6,0.3,1.2,0.6,1.8,1.2
				c0.6-0.6,1.2-1.5,2.1-1.5c0.9,0,1.5,0.9,2.1,1.2c1.5,1.5,3.3,1.2,3-0.9c0-0.9,0-1.5,0.6-1.8c0.6-0.6,1.5-1.2,1.5-2.1
				c0-1.2-2.1-0.9-3-1.2c0-0.6,2.1-1.5,2.7-1.8c0.6,0,1.2-0.3,1.8-0.6c0.9,0,1.5,0.3,2.1,0.3c0.9,0,6-0.6,5.7,1.2
				c-0.6,0.3-1.5-0.3-2.1,0.3c-0.9,0.9,0.6,1.2,0.9,1.8c-0.6,0.6-1.2,0.9-1.5,1.5c-0.3,0.6-0.9,1.5,0,1.8c0.6-0.6,0.9-0.9,1.2-1.5
				c0.3-0.6,0.6-0.9,0.9-1.2c1.2-0.9,3.3,0,4.2,0l-1.2-0.3c1.2,0.3,3.6,0.6,4.2,2.1c0.3,0.9,0.6,1.5,1.5,1.8c0.3,0,1.2,0,1.5,0.6
				c0.3,0.9-0.9,1.5-0.6,2.1c0.3,0.6,1.2,0.9,1.8,0.9c1.2,0.3,2.7,0.3,3.9,0.3c1.2,0,2.4,0,3.6,0c0.6,0,1.5,0,2.1,0
				c0.9,0.3,1.2,1.2,2.1,1.8c0.6,0.3,2.1,0.6,2.7,1.2c0.6,0.9,0,1.8-0.3,2.7c-0.3,1.2-0.3,1.8,0.6,2.7c0.3,0.9,1.2,2.1,2.1,2.1
				c-0.6-2.1,0.9-5.1,3.3-4.2c1.2,0.3,2.4,1.2,3.6,1.2c1.2,0,2.4-0.6,3.6-0.3c2.4,0.3,1.8,3.6,4.2,3.6c0.9,0,2.7,0,3-0.9
				c0.6-0.9-0.9-2.1-1.2-3c-0.6-0.9-1.5-2.7-0.3-3.3c1.2-0.6,2.4,0.3,3.3,0.9c0.9,0.3,1.5,1.2,2.7,1.2c0.9,0,1.8-0.3,3,0
				c1.8,0.3,3,2.1,5.1,2.7c0.9,0.3,2.1,0.6,3,1.2c0.9,0.6,1.8,1.2,2.4,2.1c0.9,0.9,1.8,1.5,2.7,2.4c0.9,0.6,2.1,0.9,3,1.5
				c1.5,1.5,1.8,3.3,2.1,5.4c0.6-0.6,0.9-1.5,1.8-1.5c0.6,0,1.5,0.6,2.4,0.6c1.8,0.6,2.7,1.2,3.3,3c0.3,0.9,1.2,2.1,0,3
				c-1.2,1.2-3,0.3-4.5,0.9c0.6,0.6,1.2,1.2,1.5,2.1c0.3,0.6,0,1.8-0.9,1.8c-0.6,0-1.5-0.6-2.1-0.9c-0.9-0.3-1.5-0.6-2.1-1.2
				c-0.6-0.6-1.2-0.9-1.5-1.8c-0.6-0.6-0.6-0.6-1.5-0.3c-1.2,0-3.6,0.3-3-1.5c0-0.6,0.6-1.5-0.3-2.4c-0.6-0.3-1.5-0.3-2.1,0
				c-1.8,1.2-0.3,3.6-0.6,5.4c0,0.9-0.6,1.5-1.8,1.2c-0.6,0-0.9-0.6-1.5-0.6c-1.2-0.3-3-0.6-3.6,0.6c1.2,0.9,3-0.3,4.2,0.9
				c0.6,0.6,0.3,1.8,0.3,2.4c0,1.2,0.3,2.1,0.9,3c0.3,0.6,1.2,2.1,0.6,2.7c-0.6,0.6-2.4,0-3,0c-1.2-0.3-1.8,0.3-2.4,0.9
				c-0.9,0.6-1.8,0.9-3,1.2c-0.6,0-1.5,0.3-2.1,0.9c-0.6,0.6-0.9,1.2-1.5,1.5c-1.2,0.6-1.8,1.2-2.7,2.1c-0.3,0.6-0.9,2.4-1.8,2.7
				c-0.6,0-1.2-0.9-1.8-1.5c-0.9-0.6-1.5-0.3-2.4,0.3c-0.6,0.3-1.8,2.1-2.7,1.8c-0.6,0-0.3-0.9,0-1.5c-0.9,0.9-1.5,1.2-2.7,1.5
				c-0.3,0.3-0.9,0.3-1.2,0.6c-0.3,0.6,0,0.6,0.3,0.9c0.3,0.3,0.3,0.3,0.3,0.9c0,0.3-0.3,0.9-0.3,1.2c-1.2,0.9-1.2-0.3-1.5-0.9
				c-0.9,0-2.7,3.3-2.4,3.9c0.6,0.3,1.5-0.3,1.8,0.3c0,0.6-0.6,0.9-0.9,1.5c0,0.6-0.3,1.2-0.3,1.8c0.3,0.9,1.2,1.2,0,1.5
				c-3,0.9-0.6,4.2-1.2,6.3c-0.6,0-0.9-0.9-1.8-0.9c-0.6,0.3-1.5,0.6-1.8,1.2c-0.6,0.9,0,1.5,0,2.4c-0.3,0.9-1.5,0.9-2.1,1.5
				c-0.3,0.3-0.3,0.9-0.6,1.2c-0.3,0.3-0.6,0.3-0.9,0.9c-0.6,0.6-0.9,1.5-1.2,2.4c-0.3,0.9-0.9,1.8-1.8,2.7
				c-0.3,0.3-0.9,0.9-1.5,1.2c0.3-1.2,0.9-2.4,0.9-3.6c0-0.6-0.6-1.5-0.9-2.4c-0.3-1.8-0.3-3.6-0.6-5.4c-0.3-0.9-0.6-1.5-0.3-2.4
				c0.3-0.9,0.6-1.8,0.6-3c0-1.2-0.6-2.4-0.3-3.6c0.3-1.2,1.5-1.8,2.4-2.7c2.7-1.8,4.5-4.5,6.9-6.9c2.1-1.8,3.6-4.2,5.7-6
				c0.6-0.6,2.7-2.4,2.4-3.6c-0.6-0.9-1.8-0.3-2.7,0c-1.2,0.6-2.1,1.8-3,2.7c-0.9,0.6-2.4,2.4-3.6,2.1c-1.2,0-0.6-1.5-0.6-2.4
				c-0.3-1.2-0.9-2.1-2.1-2.1c-1.5,0.3-2.1,1.5-2.7,2.7c-0.9,1.8-2.1,3.3-3.3,4.8l-0.5,0c0.5,0.9-0.7,0.9-0.7,1.7
				c0,0.2,0.7,0.2,0.7,0.5c0.2,0.2,0,0.2,0,0.5c0,0.5,0,1.4-0.2,1.7c-0.2,0.2-1,0.5-1.4,0.5c-1,0.5-1.9,0.7-3.1,0.5
				c-0.5,0-1.4-0.2-1.4-0.7c-0.2-0.5,0.5-0.9,0.7-1.4c-1,0-1.9-0.2-2.9-0.7c-0.5-0.2-1-0.7-1.7-0.2c-0.7,0.2-1,0.9-1.7,0.9
				c-0.7,0.2-1.7,0-2.4-0.2c-0.7,0-1,0-1.7,0.2c-0.5,0-0.9,0-1.4,0c-1.4,0-2.4,0.9-3.6,1.4c-1.4,0.7-2.9,0.7-4.3,1.4
				c-1,0.7-1.7,1.4-2.4,2.4c-0.5,0.9-0.5,2.1-1.2,2.8c-0.5,0.9-1.4,1.4-2.1,2.4c-0.5,0.5-0.7,1.2-1.2,1.9c-0.7,0.9-3.6,1.4-1.7,2.8
				c0,0.2-0.2,0.9,0,1.2c0.2,0,1-0.5,1.2-0.5c1.2-0.5,1.2,0.2,1,1.2c0,0.7,0.5,1.9,1.7,1.7c0.5,0,0.5-0.5,0.5-0.9
				c0.2-0.2,0-0.9,0.2-0.9c0.5-0.5,1.7,0.5,2.1,0.9c0.2,0.2,1.4,1.9,2.1,1.7c0.5,0,0.7-1.4,1.2-1.9c0.2-0.2,1-1.4,1.4-1.2
				c0.5,0.2,0,1.9,0,2.1c0,0.7,0.2,1.7,0.2,2.4c0.2,1.4,0.2,3.1,1.2,4.3c0.7,0.7,1.2,2.1,1.4,3.1c0.5,1.4,0.7,3.1,0.5,4.5
				c-0.7-0.2-2.4-1.4-3.1-0.7c-0.2,0.2-0.2,1.4-0.2,1.9c0,0.5,0,0.9,0.5,1.7c0.2,0.7,0.7,1.4,1,2.4c0,0.5,0,1.4-0.5,1.4
				c-0.5,0-0.9-0.5-1.2-0.7c0,0.9-1.7,2.8-1.9,0.9c0-0.7,0.2-1.4,0.2-1.9c0-0.5,0-1.2,0-1.7c0-0.9,0.5-1.7,0.5-2.8
				c0-0.7,0.2-1.2,0.5-1.7c0.2-0.7,1-1.4,1-2.1c0-0.5-0.2-0.9-0.2-1.7c-0.2-0.5-0.2-1.2-0.2-1.9c-0.2-0.9-0.5-1.9-1-2.8
				c-0.7,1.4-1.7,3.1-1.7,4.7c-0.2,1.7-0.7,3.3-1.7,4.7c-0.7,1.7-1.9,3.1-2.4,4.7c-0.5,2.1-1.7,4-2.9,5.9c-1.4,1.7-2.9,4-5,4.7
				c-1,0.5-2.1,0.2-3.3,0.2c-0.7-0.2-1.7-0.2-2.4,0.2c-0.9,0.5-1.4,1.4-2.1,2.4c-0.7,0.9-1.4,1.9-2.1,2.6c-1.2,0.7-3.1,1.2-2.6,2.6
				c0.7,2.6,6.7,7.6,3.6,9.9c-0.7,0.7-1.7,0.9-2.6,1.2c-0.7,0.2-1.7,0.7-2.6,0.7c-1.9,0-1.2-2.6-1-4c0-0.7,0.5-1.9,0-2.6
				c-0.5-0.7-1-0.9-1.7-1.2c-0.5,0-1-0.2-1.2-0.7c0-0.7,0.2-1.4,0.2-2.1c0-2.4-2.4-1.9-4-0.9c-0.5,0.2-1.7,1.4-2.1,1.4
				c-0.7,0-0.5-0.9-0.5-1.4c0-0.5,0.5-1.9,0.2-2.4c-0.2-0.2-0.7,0.2-1,0.5c-1,0.7-1.7,1.4-2.6,1.7c-0.7,0.5-1.4,0.5-2.1,0.7
				c-1,0.7-0.2,3.1,0.2,4c1.2,2.1,3.6,0.5,5-0.2l0.4,0.1c0.7,0.2,2.3,0.2,2.5,0.9c-1.2,0.4-4.4,3.4-5.5,3.9
				c-0.9,0.5,0.6,2.4,0.9,3.3c0.5,1.2,1.4,2.5,2.1,3.7c1.1,2.3,2,5,0.2,7.1c-0.9,1.2-1.8,2.3-2.7,3.6c-1.1,1.8-2.1,3.5-3,5.1
				c-0.7,1.2-1.6,2.8-2.9,3.5c-1.2,0.5-2.5,0.4-3.7,0.5c-3.6,0.7-5.9,3.4-8.2,6.2c-0.5,0.5-0.9,1.1-1.4,0.2
				c-0.5-1.1-0.7-2.3-1.6-3.2c-0.9-1.1-2.3-0.9-3.2,0c-1.3,1.1-1.6,3-1.4,4.6c0.2,1.6,0.9,3,2.1,4.1c1.1,0.9,2.3,1.4,3,2.5
				c0.7,0.9,0.5,2.3,0.2,3.5c-0.4,1.6-1.1,3-2,4.4c-0.7,1.1-1.6,2.1-2.9,2.5c-1.1,0.2-2.1-0.2-2.9-0.7c-1.3-0.7-2.1-1.6-2.9-2.7
				c-0.9-0.9-1.6-2-2.5-2.7c-2.3-1.6-3.6,1.6-3.8,3.6c-0.2,1.9,0.1,4.2,1.1,5.6c0.7,0.9,2,0.9,2.8,1.9c2.1,2.1,4.3,5.5,3.4,8.5
				c-0.9,3.2-3.8-1.2-4.5-2.3c-1.4-2.3-3-5-4.3-7.6c-1.1-2.8-1.1-6-1.3-9c0-1.4-0.2-2.8-0.7-4.1c-0.7-1.1-1.6-1.8-2.7-2.3
				c-2-1.2-4.1-1.9-5.2-4.3c-0.5-1.1-0.9-2.3-1.2-3.6c-0.7-1.6-2.3-3.9-2.3-3.9c-1.4-0.9-2.9-1.6-4.3-0.5c-1.4,1.1-2.7,2.3-4.1,3.4
				c-1.3,1.1-2.3,2-3.6,3c-1.1,0.9-2.3,1.4-3.6,2.3c-0.9,0.9-1.8,1.8-2.9,2.7c-0.9,0.7-2.3,1.2-2.9,2.3c-0.4,0.7,0,1.8,0.2,2.5
				c0.2,1.2,0.2,2.7,0.2,3.9c-0.2,1.2-0.7,2.3-1.4,3.5c-0.4,0.9-0.9,1.6-1.2,2.5c-0.4,0.4-0.5,1.2-1.1,1.4c-0.9,0.4-2-2.1-2.3-2.7
				c-0.7-1.1-1.8-2.1-2.3-3.5c-0.7-1.4-1.2-2.8-1.8-4.4c-0.7-1.2-1.3-2.5-1.4-3.9c-0.4-1.6-0.9-2.8-1.8-4.3
				c-0.9-1.2-1.6-2.3-1.2-3.9c0.2-0.7,1.1-2.8,0.4-3.5c-0.7-0.5-1.8,1.4-2.1,1.8c-1.3,1.1-2.5-0.5-2.9-1.6c-0.4-0.5-0.7-1.4-0.4-2
				c0.4-0.5,0.9-0.7,1.3-0.7c-0.9,0.2-1.6,0.2-2.5-0.2c-2-1.2-2.9-4.3-5.5-4.3c-1.1,0-2.1,0.4-3.2,0.7c-1.1,0.2-2,0.2-3,0.2
				c-2.1-0.2-4.6,0.5-6.4-0.7c-1.1-0.5-1.8-1.4-2.9-2c-1.1-0.4-2-0.2-3,0c-1.1,0.2-2.1,0.5-3.2,0.2c-0.9-0.4-1.8-0.9-2.7-1.6
				c-1.8-1.8-2.5-4.1-4.5-5.5c-0.9-0.7-2.1-1.2-2.9-0.4c-0.7,1.1-0.2,2.7,0.2,3.5c0.5,1.2,1.2,2.5,2,3.7c0.4,0.5,0.5,1.1,1.4,1.2
				c0.5,0.2,1.4,0,2,0.2c0.7,0.4,1.1,1.1,1.4,1.4c0.7,0.7,1.6,0.4,2.5,0.2c1.1-0.5,2.3-1.4,3.7-1.4c1.1-0.2,1.8,0.5,2.3,1.4
				c1.1,0.9,2,1.8,3.2,2.5c0.9,0.5,2,1.2,1.6,2.5c-0.2,1.2-1.2,2.5-2,3.4c-1.4,1.8-2.7,3.7-4.3,5.1c-1.3,0.9-2.5,1.4-3.8,1.9
				c-1.1,0.4-2.1,0.7-3,1.2c-1.1,0.5-2.1,1.2-3,1.8c-1.1,0.5-2.1,0.9-3.2,1.1c-1.1,0.2-2.1,0.5-3,1.1c-1.1,0.5-2.1,1.4-3.4,1.6
				c-2.9,0.7-3.9-2-4.3-4.3c-0.2-1.2-0.2-2.7-0.9-3.9c-0.7-1.4-1.8-2.3-3-3.2c-1.1-0.9-2.3-1.6-3-2.8c-0.5-1.1-0.7-2.1-1.1-3.4
				c-0.7-2-1.8-3.7-2-5.9c-0.4,0-0.5,0.2-0.9,0c-0.4,0-0.7-0.4-0.9-0.5c-0.5-0.5-0.2-1.2-0.7-1.8c-0.4-0.5-1.1-0.5-1.3-1.2
				c-0.2-0.4,0.2-1.2-0.4-1.6c-0.5-0.2-1.3,0.9-1.6,0c-0.2-0.4-0.2-0.7-0.4-0.9c-0.2-0.4-0.7-0.4-0.9-0.5c-0.5-0.4-0.9-0.9-1.3-1.4
				c-0.2-0.2-0.4-0.5-0.5-0.9c-0.2-0.2-0.2-0.5-0.4-0.7c-0.9,0.2,0,1.6,0.4,1.8c0.4,0.5,0.4,1.2,0.5,1.8c0.2,0.7,0.5,1.1,0.7,1.6
				c0.2,0.7,0.2,1.4,0.7,1.9c0.5,0.4,1.1,0.7,1.2,1.4c0.2,0.7,0,1.4,0.2,2.1c0,0.4,0,0.7,0.2,1.1c0.2,0.2,0.5,0.4,0.7,0.7
				c0.5,0.5-0.2,1.1-0.4,1.8c0.4-0.2,1.1-0.9,1.4-0.7c0.5,0,0.4,1.1,0.4,1.2c0,0.7,0.4,0.5,0.9,0.9c0.5,0.5,0.2,1.1,0.2,1.6
				c0.2,0.4,0.7,0.4,0.7,0.9c0,0.2,0,0.5,0,0.9c0,0.4-0.2,0.9-0.4,1.2c-0.2,0.5-0.4,0.9-0.5,1.2c0.5,0.2,1.1,0.2,1.4,0.5
				c0.4,0.2,0.5,0.5,1.1,0.7c0.7,0.4,2,0.2,2.1,1.2c0,0.4-0.2,0.9,0,1.2c0,0.5,0.4,0.7,0.5,1.1c0.7,0.7,0.5,1.2,0.7,2.1
				c0.2,1.1,2,1.4,2.9,2c0.5,0.4,1.2,0.5,1.8,1.1c0.5,0.4,0.5,1.1,0.7,1.8c0.2,0.7,0.9,1.1,1.4,1.6c0.5,0.5,0.4,0.9,0.5,1.4
				c0.4,0.9,1.1,1.4,2,1.2c0.7-0.4,1.4-0.9,2.1-1.1c1.3-0.5,2.9-0.4,4.3-0.4c0.7,0,1.1-0.2,1.8-0.4c0.5-0.2,1.1,0.2,1.8,0.2
				c0.5-0.2,1.6-1.2,2.3-0.7c0.5,0.4,0,1.4-0.4,1.8c-0.2,0.5-0.4,1.1-0.4,1.4c0,0.4,0.2,0.7,0.2,0.9c0,0.4-0.2,0.5-0.4,0.9
				c-0.2,0.7-0.5,1.4-0.9,2.1l-0.5,0.9c-1.4,2.5-2.9,5-4.8,6.9c-1.8,2.1-4.1,3.7-6.4,5.3c-2.1,1.6-4.5,3.2-6.1,5.5
				c-1.3,2-2.1,4.1-2.5,6.2c-0.2,1.6-0.2,3,0,4.6c0.2,2,0.7,3.7,1.2,5.5c0.7,2,1.4,4.3,0.9,6.4c-0.4,2.1-1.8,3.5-3.6,4.6
				c-1.8,1.4-3.7,2.5-5,4.4c-1.3,2-1.4,4.3-1.8,6.4c-0.2,2.1-0.5,4.1-1.4,5.9c-0.9,1.9-2.3,3.5-3.4,5.3c-2.1,3.7-3.4,9.2-7.9,11
				c-2,0.9-4.1,0.9-6.3,1.2c-1.8,0.2-3.6,0.4-5.3,0.7c-1.4,0.2-2.7,0.2-3.9-0.5c-1.6-1.2-2.7-3-3.4-4.8c-2.3-4.6-3-9.6-3.6-14.7
				l-0.4-0.2c-0.7,0-1.2-0.2-1.2-0.9c-0.2-0.7,0-1.4-0.5-2.1c-0.7-0.9-2.1-1.4-2.3-2.8c-0.2-0.7,0.4-1.2,0.2-2
				c-0.2-0.5-0.9-0.5-1.2-0.9c-0.4-0.4-0.4-0.7-0.4-1.1c-0.2-0.4-0.5-0.7-0.7-1.1c-0.4-0.5-0.9-1.2-1.1-2c-0.2-0.7,0-1.4,0.2-1.9
				c0.4-0.9,0.4-2,0.9-2.8c0.4-0.9,0.9-2,1.4-2.8c0.5-0.7,1.4-1.4,1.8-2.3c0.2-0.2,0.2-0.5,0.4-0.9c0.2-0.2,0.5-0.5,0.7-0.9
				c0.4-1.1-1.3-2.5-1.8-3.2c-0.4-0.4-0.7-0.7-0.5-1.2c0-0.4,0.5-0.7,0.4-1.2c-0.2-0.5-0.9-0.5-1.1-0.9c-0.2-0.5,0.2-1.2,0.2-1.6
				c0-0.7-0.4-1.2-0.7-1.6c-0.4-0.5-0.5-1.1-0.9-1.6c-0.4-0.4-0.7-0.5-1.2-0.7c-0.4-0.4-0.7-0.9-1.1-1.4c-0.7-0.9-1.4-1.4-2.1-2.3
				c-0.5-0.4-0.9-1.1-1.4-1.6c-0.2-0.5-0.7-1.1-0.7-1.8c-0.2-1.1,1.3-1.4,1.3-2.5c0.2-0.7,0.2-1.2,0.5-2c0.2-0.4,0.4-0.9,0.4-1.4
				c0.4-1.1-0.2-1.4-0.9-2.3l-0.2-0.5c-1.9-1.4-4.8-0.1-7-1.2c-2.1-1.2-2.5-3.1-4.6-3.1c-2.6-0.2-5.2,0.7-7.6,1.4
				c-4.8,1.7-9.8,2.8-14.3-0.2c-2.1-1.2-4-3.1-5.7-4.5c-2.1-1.9-4.3-3.8-5.9-5.9c-1.2-1.7-2.1-3.8-2.1-5.9c0-1.7,0.2-3.3,0.2-5
				c0-2.1-0.5-4.3-0.5-6.6c0-2.8,0.7-5.4,2.4-7.8c1.4-2.6,3.6-4.5,5.5-6.6c1.7-1.9,5.4-3.2,5.1-5.6c-0.7-4.4,2.8-8.6,7.1-10
				c1.9-0.5,3.6-0.5,5.2-0.5c1.9-0.2,3.8-0.9,5.7-1.7c3.8-1.4,7.6-3.3,12.1-2.8c1.4,0,4.3-0.6,5.5,0.6c1.2,0.9,1.6,3.9,0.7,6.9
				c-1.5,5.2,10.9,6.9,16.2,6.9c3.3,0,2.1-5,5.6-4.8c3.3,0.2,8.4,2.7,11.9,3.1c3,0.5,6.3,1.3,9.4-0.3c1.5-0.8,3.6-2.9,4.4-4.5
				c0.7-1.7,0.3-5.6-1.7-5.9c-3.4-0.5-4.4-1-6.3-0.6c-2.4,0.5-3.4,1.8-5.5,1.1c-1.9-0.9-3.6-2.8-3.6-5c-0.2-5,5.7-6.6,9.5-7.1
				c2.4-0.5,4.8-0.7,7.1-0.7c2.4,0,4.8,0.2,7.1-0.2c1.7-0.2,1.7-1.2,0.9-2.4c-1.2-2.1-2.4-4-3.3-6.2c-0.5-0.7-1.2-3.5-2.4-3.5
				c-0.5,0.2-1,0.9-1.4,1.4c-0.7,1-1.2,1.9-1.9,2.6c-1,0.2-2.6,1.4-3.3,0.2c-0.2-0.2-0.5-1.4-0.5-1.7c0.2-0.5,0.7-0.7,1.2-1.2
				c-0.7-0.2-1.4-0.2-2.1-0.5c-0.7-0.2-1.4-0.5-1.9-0.5c-1,0-1.7,0.5-2.1,0.9c-0.7,0.5-1.7,1-2.1,1.4c-0.5,0.9-0.2,1.7-0.2,2.6
				c0,0.7-0.5,1.4-0.5,2.1c-0.5,1.4-1.4,2.4-1,4c0.2,0.7,1.2,1.4,1,2.1c-0.5,0.7-1.9,0.7-2.6,0.9c-0.5,0-1,0.2-1.4,0.5
				c-0.2,0.2-0.5,0.5-1,0.5c-0.5,0-0.7-0.5-1-0.5c-0.5-0.2-1,0-1.4-0.2c-1,0-1.2,0.2-1.9,1.2c-0.2,0.5-0.7,0.9-1,1.4
				c0,1.2,1,1.4,1.7,1.7c1.2,0.7,1.2,1.7-0.2,1.4c0.5,1.2-1.2,0.9-1.4,1.9c-0.2,0.5,0,1.2-0.2,1.7c-0.2,0.5-1,0.7-1.4,0.5
				c-1.2-0.2-1.7-1.4-2.4-2.4c-0.7-0.9,0.5-1.4,1.2-1.9c-1.4-0.5-2.9-1.2-3.6-2.6c-1-1.4-0.7-3.1-1.2-4.7c-0.5-2.4-1.9-3.8-3.8-4.7
				c-1-0.5-1.9-0.9-2.6-1.7c-0.7-0.7-1.2-1.4-1.7-2.1c-0.7-0.9-3.3-2.6-4-0.7c-0.2,1.7,2.1,3.3,2.9,4.5c0.5,0.7,0.7,1.7,1.2,2.4
				c0.7,0.7,1.4,0.9,2.1,1.2c1,0.5,2.1,0.7,3.1,1.4c0.7,0.7,1.2,1.7,1.7,2.6c-1,0.5-1.7-1.2-2.6-0.7c0.5,1,1.4,2.1,1.4,3.3
				c0,1.2-1.4,2.6-2.6,2.6c-1.4,0-0.7-1.9-0.5-2.8c0.2-1.2-0.5-1.4-1.4-1.9c-1.2-0.7-2.1-1.4-3.1-2.4c-1-0.7-1.4-1.7-2.4-2.4
				c-1-0.9-2.6-0.7-3.6-1.7c-0.7-0.9,0-2.1-0.2-3.1c-0.5-1.2-1.9-0.9-2.9-0.7c-1.2,0.2-1.7,0.9-2.6,1.4c-1.2,1-1.9,1-3.3,0.5
				c-1-0.2-2.4-0.7-3.3,0.2c-0.7,0.9,0,1.9-0.5,3.1c-0.2,0.9-1.2,1.4-1.9,1.7c-1.2,0.7-2.6,1.4-3.3,2.4c-1,1-0.7,1.9-0.5,3.1
				c0.5,1.4-0.5,1.9-1.4,2.6c-1,0.5-1.7,1.4-2.4,2.1c-0.7,0.5-1.4,0.2-2.4,0.2c-1.2,0-2.1,0.2-3.3,0.7L348.8,273.7z M355.5,217.8
				c0.2,0.4,0.5,1.1,0.5,1.4c-0.2,0.4-0.5,0.5-0.7,0.9c-0.4,0.5-1.2,1.2-1.4,2c-0.2,0.5,0,1.1,0.2,1.6c0,0.4,0,0.7,0.2,0.9
				c0.4,0.2,0.7,0.2,1.1,0.4c0.7,0.4,1.4,1.1,1.1,2c0,0.5-0.2,0.9,0.5,1.1c0.5,0,1.2-0.4,1.8-0.2c0.7,0.2-0.2,1.4-0.4,1.8
				c0.2,0.4,0.9,0.2,1.1,0.9c0,0.4-0.5,1.1-0.2,1.4c0.2,0.4,0.9,0.2,1.2,0.4c0.5,0.2,0.2,0.7,0.4,1.2c0.7,0.4,1.4-1.1,2-1.2
				c0.2,0.5,0.2,1.1-0.2,1.6c-0.4,0.5-0.9,0.9-1.1,1.4c-0.4,0.5-0.4,1.2-0.2,1.8c0,0.5,0.2,0.9-0.4,1.2c-0.9,1.1-2.1,1.1-3.2,0.7
				c-1.1-0.4-2.1-0.2-3.2,0.2c-1.3,0.5-0.7,0-1.8,0.7c-0.5,0.4-1.1,0.5-1.6,0.5c-0.5,0-1.4,0-1.8-0.4c-0.5-1.1,0.5-1.1,1.1-1.6
				c1.4-0.9,2.9-1.8,4.1-2.7c-1.1-0.4-1.8,0.4-2.9,0.5c-0.4,0.2-0.9,0-0.7-0.5c0.2-0.5,0.7-0.7,1.3-1.1c1.4-0.7-0.7-1.6-0.2-2.7
				c0.5-1.2,2.1-1.1,3-1.2c0-0.7-0.9-0.9-1.4-1.2c-0.7-0.5,0-1.2,0.4-1.8c-0.4-0.2-0.7,0.2-1.2,0.2c0-0.4,0.5-0.7,0.9-0.9
				c-0.7,0.2-1.6,0.5-2-0.4c-0.2-0.5,0-1.2,0.5-1.6c-0.2-0.4-0.7,0-1.1-0.2c-0.5-0.2-0.2-0.7,0-1.1c0.4-1.2-1.4-0.2-1.8-0.9
				c-0.2-0.4,0.5-0.7,0.7-1.1c0.4-0.4,0-0.5-0.4-0.9c-0.9-0.7-1.1-1.8-0.2-2.8c-0.5-0.5-0.9-0.9-0.4-1.6c0.4-0.7,1.1-0.9,1.3-1.8
				c0.2-0.7,0.4-1.1,1.2-1.2c0.2,0,0.5,0,0.9,0c0.2,0,0.5-0.2,0.7-0.2c0.2,1.1-1.1,1.6-1.6,2.3c-0.2,0.4-0.5,0.9-0.2,1.2
				c0.5,0.7,1.1,0.2,1.6,0L355.5,217.8z M349.2,230c-0.4,0.7-0.5,1.6-0.7,2.5c0,0.5,0.2,1.2,0.2,1.8c-0.2,0.9-1.4,0.7-2.1,0.9
				c-1.1,0.2-1.6,1.1-2.5,1.6c-0.9,0.5-1.4,0.4-2.3-0.2c-0.5-0.4-1.2-0.7-1.1-1.6c0.2-0.7,0.9-1.4,1.6-2c0.4-0.2,1.6-0.5,1.2-1.1
				c-0.2-0.4-0.5-0.5-0.7-0.9c0-0.5,0.4-1.1,0.5-1.4c-0.4-0.2-1.3,0.2-1.4-0.2c-0.5-0.7,0.5-1.4,1.1-1.4c0.7,0,1.4,0.2,2-0.4
				c0.4-0.5,0.4-1.2,0.5-2c0.2-0.5,0.9-1.1,1.6-0.9c0.5,0.2,0.4,0.9,0.9,1.2c0.5,0.4,0.9,0.2,1.1,0.9c0.4,0.7,0.2,1.1-0.4,1.6
				L349.2,230z M449.9,168.1c0.7,0.3,1.8,0.7,1.4,1.7c-0.4,0.3-0.7,0.7-1.1,1c-0.3,0.3-0.7,0.7-1.1,1c-0.7,0.7-2.1,1.4-2.4,0
				c0-0.3,0.7-1.4,0.7-1.7c0.7-1,1.4-1.4,2.1-1.7L449.9,168.1z M463.9,161.9c-1.1,0-3.2,0-4.2-0.7c-1-0.3,0.7-1,0.4-2.1
				c-1.1,0-2.8,1-3.2,0.3c-0.4-0.7,0.7-1.7,0.4-2.1c0-0.7-0.7-0.7-1.1-1.4c-0.4-0.4,0-1-0.4-1.7c-0.7-0.7-1.4-0.7-1-1.4
				c0-1,1.4-1.4,1.7-1.7c0.4-0.7,0.4-1.4,0.7-2.1c0-1,0.3-1.7,0.7-2.4c0.4-0.7,1.4-1,1.8-1.7c0.7-1.4-1.4-2.1,0-3.8
				c0.7-0.7,1.8-0.7,2.1-1.4c1-1,0.7-1.4,0.7-2.4c-0.4-1,0-1.7,0-2.8c0.3-0.7,0.3-1.4-0.7-1.4c1.4-1,2.8-1.7,3.9-2.8
				c1-1,2.1-2.1,3.1-3.1c1.8-1.7,3.9-1.4,6.3-1.7c2.5-0.3,3.9-3.5,6-4.5c1.4-0.7,2.8-1.4,4.2-0.7c1.1,0.3,1.1,1.7,0.4,2.4
				c-1.4,2.4-4.5,2.4-6.7,3.8c-0.7,0.3-1.1,1-1.8,1.7c-0.7,1-1.8,2.1-2.8,2.8c-1,1-2.1,1.7-2.8,2.4c-0.7,1-1,2.4-1.8,3.5
				c-1.4,3.1-4.2,4.9-6.3,7.7c-2.1,2.8-2.4,5.9-2.1,9.4c0,2.8,0,5.6,0,8H463.9z M536.3,80.1c1.1,0.3,2.5,1.4,2.5,2.4
				c0,0.7-0.3,1.7-0.3,2.4c0,1,0.3,1.7,0.7,2.8c0,0.7,0,1.4,0,2.1c0,1-0.4,1.7,0,2.4c0.7,0.7,1.4,1,2.1,1c1,0.3,2.5,0.7,3.2,1.7
				c0.7,1-0.4,1.7-1.4,2.4c-0.7,0.7-1.7,1.4-1.4,2.4c0.3,1.4,1.4,2.4,1.4,3.5c0,2.8-3.5,0.7-4.6,0c-1.8-0.7-3.9-1.7-4.9-3.5
				c-1.1-1.4-1.4-3.1-1.8-4.9c-1.1,0.7-2.5,0.3-3.8,0c-0.7,0-1.8-0.3-1.8-1.4c0-1,1.4-1.4,2.5-1.7c1.8,0,3.5,1,5.3,0.3
				c1.4-0.3,2.8-1.7,3.8-2.8c-2.1,0.3-3.5,1.7-5.6,2.1c-2.5,0.3-3.9-2.1-4.9-3.8c-1-1.4,0-3.5,1.8-4.2c0.7-0.3,1.4-0.3,2.1-0.7
				c1.4-0.7,2.5-2.1,3.8-3.1L536.3,80.1z M552.1,102c0.7,1.4,2.5,3.8,0.7,5.2c-1.1,1-3.2,1-4.9,1.7c-1.1,0.3-1.8,1.4-3.2,1.7
				c-1,0.7-2.8,0.3-3.2-1c-0.7-1.7,2.1-3.1,3.2-3.8c1.4-1,1.8-2.1,1.4-3.8c-0.7-1.7-0.4-3.5,1.8-4.5c1.8-0.7,3.2,1,3.9,2.8
				L552.1,102z M405,98.5c-1,0.3-3.5,2.1-4.5,0.3c-0.4-0.7,0-1.4-0.7-1.7c-0.4,0-1.1,0.3-1.4,0.3c-0.7,0-1.8,1-2.5,0.3
				c-1.4-1.4,1.8-2.4,2.5-2.8c-0.7-0.7-1.4-1-2.5-1c-1.4,0-2.1,0.3-2.8-0.7c-0.3-0.7-0.7-2.1-0.3-2.4c0.7-0.7,2.1-0.4,2.1-1.4
				c0.3-0.7-0.4-2.4,1-2.4c1.1,0,1.4,2.1,2.1,2.8c0.7,0.7,1.8,0.7,2.1-0.3c0-0.7-0.3-1.4-0.3-2.1c0.7,0.3,1.4,0.7,1.7,1.4
				c0.3,0.7,0.7,1.7,1.4,1.7c1.1,0,1.4-1,2.5-1c0.7,0.3,1.4,1,2.1,1c0.7,0.4,2.1,0.4,2.1,1c0,0.7-1,1.4-1.4,1.7
				c-1,1.4-0.4,3.8-2.4,4.2L405,98.5z M403.3,113.1c1.4,1.4-0.4,3.5-2.1,3.8c-0.7,0.3-1.8,0-2.1-1c0-0.7,1.1-1.4,0.7-2.1
				c0-1-1.1-0.7-1.4-1.4c-0.3-0.7,0.4-1,1.1-1.4c2.1-1,3.2-1,4.2,1L403.3,113.1z M400.5,107.6c1,1.4-2.8,1.7-3.5,1.4
				c-1.1-0.7-0.7-1.7,0-2.1c0.7-0.7,1.8-0.3,2.8,0L400.5,107.6z M397.7,104.1c-0.4,0.7-0.7,1.4-1.4,1.4c-0.7,0.3-1.8,0.3-2.1,1
				c-0.4,0.7-0.4,1.7-0.4,2.4c0,1-0.7,2.1-0.7,2.8c0,1,0.4,1.7,0.4,2.4c0,1-0.7,1.7-1.4,2.4c-0.7,0.7-1.4,1.4-1.4,2.4
				c0,0.7,0.7,1.7,0.3,2.8c-0.3,0.7-1.1,1-1.8,1c-1.1,0-1.4-0.7-1.4-1.4c0-1,0-1.7-0.7-2.4c-0.7-0.3-2.1-1-2.1-1.7
				c0-1.7,4.2-1.4,4.2-3.1c0-1.4-2.8-1.4-3.8-1.4c0.7-0.7,1.1-1.4,2.1-1.7c0.7-0.3,2.1-0.7,2.5-1.4c0.7-1-0.3-1-0.7-1.4
				c-0.4-0.7,0-1.7-0.7-2.4c-0.7-1-1.8-0.7-1.8,0.3c-0.3,1,0,2.4-1.4,2.4c-0.7,0-1.1-0.7-1.8-1.4c-0.7-0.3-1.4-0.7-1.8-1.4
				c0-0.3,0-0.7,0-1c-0.3-0.3-0.7-0.7-0.7-1c0-1,1-1.4,0.7-2.1c0-1-1.8-0.7-2.1-1.4c-1.1-0.3-1.1-1.7-1.1-2.8
				c0.3-0.7,3.1-4.2,3.5-2.4c0.4,0.7-0.7,1.4-0.7,2.1c0.3,1,1.4,1.4,2.1,1.7c-0.3-1,0.4-4.5,1.8-2.8c1.1,1.4,1.1,3.8,1.7,5.6
				c0.4,1,1.8,3.1,2.5,0.7c0.3-1.7,0-3.8-0.7-5.2c-0.3-1.4-2.1-4.2,0.4-4.9c0.7-0.3,1.4,0.7,1.4,1.4c0,1-1.1,1.7-0.7,2.4
				c0.3,1.4,2.8,0.7,2.8,2.4c0,0.7-0.4,1,0,1.4c0.7,1,2.1,1.7,2.8,2.4L397.7,104.1z M477.5,77.6c2.1,0.7,0.7,1.7,0.3,2.8
				c-0.7,1.4-1.4,2.8-2.8,2.1c-1.8-0.3-2.5-1.4-1.4-2.8c0.7-0.3,1.4-0.7,1.8-1c0.7-0.7,1-1.7,1.8-2.4L477.5,77.6z M470.5,83.6
				c1.4,0.3,0.7,0.7,0.3,1c0,0.7,0.4,1,0.7,1.4c0.4,1,0,2.1-1.4,2.4c-1,0-2.1-0.7-2.1-1.7c-0.4-1,0.3-2.4,1-3.1H470.5z M463.5,88.4
				c0.7-0.3,1.8-0.7,2.1-1.4c0.7-0.3,0.7-0.7,1.1-1c0.7,1,0,2.1-0.7,2.8c-0.7,1-1.8,1-2.5,2.1c-0.3,0.3-0.7,1.7-1.7,1
				c-1.1-0.7-0.4-1.7,0-2.4L463.5,88.4z M462.1,83.6c-0.7-0.3-1-0.7-1.7-1c-0.3,0-1,0-1.4-0.3c-1.1-0.7,0.3-1.7,1.4-1.7
				c1.1,0,2.1,0.7,2.8,1.4c0.3,1,0.7,1.7-0.7,2.1L462.1,83.6z M463.5,78.7c-1.7,0-0.7-1.7,0-2.4c1.1-0.3,2.5-0.7,3.5-0.7
				c0.7,0.3,2.1,1.7,1.4,2.8c-0.3,0.7-0.7,0.3-1.1,0c-1,0-1.4,0-2.4,0.3H463.5z M452,86.7c-0.7,0-2.1,0.3-2.1,1
				c-0.4,0.7,0.3,1,0.7,1.4c-0.4,1-1.4,0-2.1,0c-1,0.3-1,1.4-1.4,2.1c-0.7-0.7-0.7-1.4-0.4-2.1c0.4-1,0.4-1.7,0.4-2.8
				c0-1,0.3-1.4,1-2.1c0.4-0.3,1-0.7,0-0.7c-1.8-0.3-3.5,0.3-4.2,2.1c0,0.7-0.3,1.7-1,2.1c-0.7,0.3-1.4-0.3-2.1-1
				c-1-1.4,0.3-3.1,2.1-3.8c1-0.3,2.1-0.3,3.2-0.3c0.7,0,1.7-0.3,2.8-0.3c0.7,0,1.4,0.7,2.1,1c0.7,0,1.4,0,2.1,0
				c1.8,0.3,1.1,2.8-0.3,3.1L452,86.7z M456.5,88.1c0.7,0,1.4,0,1.4,0.7c0,0.3-0.3,1.4-0.3,1.7c-0.3,0.4-1.1,1-1.8,0.7
				c-0.7-0.3-0.3-1-0.3-1.7L456.5,88.1z M526.2,78.3c1,0,1.4,0.7,1,1.7c-0.7,1-1.4,1.4-2.5,1.4c-1.1,0-2.4-0.3-2.8-1.4
				c0-1.7,1.7-1.7,2.8-1.7H526.2z M618.3,138.2c0.4,1.4-0.7,2.4-2.1,2.8c-0.3,0-2.1,0-2.1-1c0.3-0.7,2.1-0.7,2.8-1L618.3,138.2z
				 M621.8,141.3c0.7,0.7,2.1,2.1,1.4,3.1c-0.7,1.4-2.5,1-3.5,1c-0.7-0.3-3.9-0.3-4.2-1c-0.3-1.4,3.2-2.4,4.2-2.8L621.8,141.3z
				 M621.1,130.5c-0.7,0.7-1,1.4-0.3,2.4c0.3,0.7,0.7,1.7-0.4,2.4c-1.1,0.3-1.7-1-2.8-1.4c-1-0.7-2.1,0-3.1,0.7
				c-0.7,0.7-1.8,1-2.8,0.7c-0.7-0.3-1.7-0.7-1.7-1.7c0-1,0.7-2.1,0.7-2.8c0-1.4,0.4-2.8,1.7-3.5c1-1,2.1-1,3.2-0.3
				c1.1,1,1.4,1,2.8,0.7c1.1-0.4,1.8-0.4,2.8,0.3c1.1,0.7,1.8,1,3.2,1c1.1,0,2.1,0,2.8,1c0.7,1,0.7,2.4,0,3.5
				c-0.7,0.7-2.5,1.4-3.2,0.7c-1.1-1-1.1-2.8-1.1-3.8H621.1z M635.8,133.3c1.4,1,0.7,2.4-0.7,3.1c-1,0.7-2.4,0.3-3.1-0.3
				c-1-1-3.9-2.4-3.2-3.8c1.1-1.7,4.2,0,5.3,0.3L635.8,133.3z M690.8,156.6c1,0.3,3.2,0,3.5,1.4c0,0.7-0.3,1.7-0.7,2.1
				c-1.1,0.7-2.4,0.3-3.5,0.3c-1.1,0.3-2.1,0.7-3.2,0.3c-2.5-1.4,2.1-2.8,2.8-3.1L690.8,156.6z"/>
		</g>
	</g>
</g>
<g id="DESIGNED_BY_FREEPIK">
</g>
</svg>
